<?xml version="1.0" encoding="UTF-8" standalone="no"?>
<!-- Created with Inkscape (http://www.inkscape.org/) -->

<svg
   xmlns:dc="http://purl.org/dc/elements/1.1/"
   xmlns:cc="http://creativecommons.org/ns#"
   xmlns:rdf="http://www.w3.org/1999/02/22-rdf-syntax-ns#"
   xmlns:svg="http://www.w3.org/2000/svg"
   xmlns="http://www.w3.org/2000/svg"
   xmlns:sodipodi="http://sodipodi.sourceforge.net/DTD/sodipodi-0.dtd"
   xmlns:inkscape="http://www.inkscape.org/namespaces/inkscape"
   version="1.1"
   id="svg2"
   xml:space="preserve"
   width="1122.52"
   height="793.70667"
   viewBox="0 0 1122.52 793.70667"
   sodipodi:docname="ModSecurity_V03_4.svg"
   inkscape:version="0.92.4 (unknown)"><metadata
     id="metadata8"><rdf:RDF><cc:Work
         rdf:about=""><dc:format>image/svg+xml</dc:format><dc:type
           rdf:resource="http://purl.org/dc/dcmitype/StillImage" /><dc:title></dc:title></cc:Work></rdf:RDF></metadata><defs
     id="defs6"><clipPath
       clipPathUnits="userSpaceOnUse"
       id="clipPath18"><path
         d="m 280.57,446.13 c 60.909,-1.768 109.74,-51.694 109.74,-113.016 v 0 c 0,-19.336 -4.854,-37.542 -13.409,-53.45 v 0 l 15.577,-8.956 c 10.063,18.56 15.791,39.817 15.791,62.406 v 0 c 0,71.243 -56.879,129.207 -127.699,130.974 v 0 z M 146.215,333.114 c 0,-22.589 5.715,-43.846 15.79,-62.406 v 0 l 15.578,8.956 c -8.556,15.908 -13.41,34.114 -13.41,53.45 v 0 c 0,61.322 48.818,111.248 109.716,113.016 v 0 17.958 C 203.07,462.321 146.215,404.357 146.215,333.114 m 24.772,-0.003 c 0,-58.686 47.574,-106.26 106.261,-106.26 v 0 c 58.685,0 106.259,47.574 106.259,106.26 v 0 c 0,58.686 -47.574,106.26 -106.259,106.26 v 0 c -58.687,0 -106.261,-47.574 -106.261,-106.26 M 277.235,220.052 c -40.723,0 -76.415,21.528 -96.318,53.826 v 0 l -15.566,-8.955 c 23.001,-37.684 64.503,-62.83 111.884,-62.83 v 0 c 47.382,0 88.896,25.146 111.909,62.842 v 0 l -15.578,8.943 C 353.664,241.58 317.971,220.052 277.235,220.052"
         id="path16"
         inkscape:connector-curvature="0" /></clipPath><linearGradient
       x1="0"
       y1="0"
       x2="1"
       y2="0"
       gradientUnits="userSpaceOnUse"
       gradientTransform="matrix(-5.7881684,-283.62027,-283.62027,5.7881684,280.43344,489.51788)"
       spreadMethod="pad"
       id="linearGradient28"><stop
         style="stop-opacity:1;stop-color:#00adef"
         offset="0"
         id="stop24" /><stop
         style="stop-opacity:1;stop-color:#005b85"
         offset="1"
         id="stop26" /></linearGradient><clipPath
       clipPathUnits="userSpaceOnUse"
       id="clipPath38"><path
         d="m 278.308,423.016 c -1.368,0.466 -2.831,0.716 -4.347,0.716 v 0 c -1.01,0 -2.022,-0.116 -3.011,-0.344 v 0 c -3.475,-0.805 -6.432,-2.918 -8.321,-5.948 v 0 c -1.291,-2.069 -1.977,-4.397 -2.028,-6.771 v 0 C 254.145,405.445 250.2,397.505 250.2,388.811 v 0 c 0,-4.104 0.896,-8.13 2.615,-11.826 v 0 c -1.855,-0.633 -3.551,-1.749 -4.892,-3.291 v 0 l -20.842,-23.972 c -0.123,-0.141 -0.242,-0.285 -0.358,-0.432 v 0 l -21.681,-24.902 c -0.123,-0.129 -0.243,-0.26 -0.361,-0.394 v 0 l -2.051,-2.34 c -0.298,-0.323 -0.577,-0.664 -0.836,-1.019 v 0 c -3.925,-5.388 -5.99,-11.767 -5.975,-18.451 v 0 c 0.016,-6.252 5.089,-11.31 11.339,-11.31 v 0 c 0.008,0 30.302,0.067 30.302,0.067 v 0 c 0.72,-2.692 1.688,-5.25 2.894,-7.638 v 0 c 1.706,-3.38 4.968,-5.655 8.661,-6.133 v 0 c 1.347,-14.975 13.969,-26.751 29.288,-26.751 v 0 c 15.318,0 27.938,11.774 29.287,26.745 v 0 c 3.712,0.466 6.991,2.745 8.705,6.137 v 0 c 1.207,2.388 2.175,4.946 2.895,7.639 v 0 c 0,0 30.136,-0.067 30.145,-0.067 v 0 c 2.998,0 5.875,1.187 8,3.303 v 0 c 2.13,2.122 3.332,5.004 3.339,8.01 v 0 c 0.015,6.684 -2.052,13.063 -5.976,18.449 v 0 c -0.23,0.316 -0.495,0.639 -0.769,0.941 v 0 l -2.117,2.417 c -0.119,0.134 -0.239,0.265 -0.363,0.394 v 0 l -21.684,24.905 c -0.114,0.146 -0.233,0.289 -0.355,0.429 v 0 l -20.841,23.973 c -1.305,1.5 -2.945,2.596 -4.74,3.238 v 0 c 1.735,3.71 2.641,7.755 2.641,11.879 v 0 c 0,8.729 -3.967,16.688 -10.457,21.908 v 0 c -0.059,2.358 -0.746,4.666 -2.027,6.721 v 0 c -1.889,3.03 -4.846,5.143 -8.326,5.949 v 0 c -0.985,0.227 -1.996,0.343 -3.006,0.343 v 0 c -1.517,0 -2.979,-0.25 -4.346,-0.716 m 1.371,-4.025 c 0.952,0.324 1.953,0.489 2.975,0.489 v 0 c 0.688,0 1.376,-0.078 2.048,-0.234 v 0 c 2.371,-0.549 4.388,-1.99 5.676,-4.056 v 0 c 0.866,-1.388 1.343,-2.969 1.384,-4.576 v 0 c 0.031,-1.25 0.611,-2.424 1.586,-3.207 v 0 c 5.637,-4.534 8.869,-11.312 8.869,-18.596 v 0 c 0,-3.509 -0.753,-6.9 -2.24,-10.078 v 0 c -0.507,-1.084 -0.534,-2.332 -0.073,-3.437 v 0 c 0.461,-1.106 1.366,-1.965 2.493,-2.368 v 0 c 1.142,-0.408 2.167,-1.107 2.962,-2.024 v 0 l 20.842,-23.972 c 0.074,-0.086 0.311,-0.378 0.358,-0.432 v 0 l 21.683,-24.905 c 0.048,-0.056 0.303,-0.327 0.377,-0.411 v 0 l 2.111,-2.41 c 0.221,-0.243 0.388,-0.446 0.534,-0.645 v 0 c 3.386,-4.649 5.17,-10.159 5.158,-15.933 v 0 c -0.004,-1.893 -0.746,-3.671 -2.087,-5.007 v 0 c -1.337,-1.331 -3.113,-2.064 -5,-2.064 v 0 c 0,0 -30.142,0.067 -30.145,0.067 v 0 c -1.925,0 -3.61,-1.293 -4.107,-3.154 v 0 c -0.645,-2.408 -1.513,-4.702 -2.583,-6.818 v 0 c -1.065,-2.109 -3.098,-3.543 -5.44,-3.837 v 0 c -1.983,-0.249 -3.525,-1.847 -3.703,-3.837 v 0 C 302.2,264.719 291.195,254.671 278.303,254.671 v 0 c -12.894,0 -23.899,10.05 -25.054,22.88 v 0 c -0.178,1.985 -1.712,3.579 -3.688,3.836 v 0 c -2.328,0.301 -4.352,1.734 -5.411,3.832 v 0 c -1.07,2.12 -1.939,4.414 -2.583,6.821 v 0 c -0.497,1.86 -2.182,3.153 -4.107,3.153 v 0 c -0.003,0 -30.312,-0.068 -30.312,-0.068 v 0 c -3.888,0 -7.067,3.172 -7.077,7.07 v 0 c -0.014,5.774 1.771,11.285 5.16,15.935 v 0 c 0.162,0.224 0.337,0.438 0.522,0.637 v 0 c 0.025,0.028 2.125,2.424 2.125,2.424 v 0 c 0.069,0.078 0.324,0.349 0.372,0.405 v 0 l 21.68,24.901 c 0.049,0.055 0.284,0.349 0.36,0.436 v 0 l 20.842,23.972 c 0.819,0.942 1.876,1.654 3.057,2.056 v 0 c 1.141,0.39 2.064,1.245 2.538,2.355 v 0 c 0.472,1.11 0.453,2.368 -0.056,3.462 v 0 c -1.473,3.166 -2.219,6.542 -2.219,10.033 v 0 c 0,7.254 3.216,14.016 8.823,18.552 v 0 c 0.974,0.788 1.551,1.965 1.577,3.217 v 0 c 0.034,1.617 0.513,3.212 1.385,4.61 v 0 c 1.288,2.066 3.303,3.507 5.672,4.055 v 0 c 0.674,0.156 1.364,0.235 2.052,0.235 v 0 c 1.022,0 2.023,-0.165 2.975,-0.489 v 0 c 0.445,-0.151 0.908,-0.226 1.372,-0.226 v 0 c 0.462,0 0.926,0.075 1.371,0.226"
         id="path36"
         inkscape:connector-curvature="0" /></clipPath><linearGradient
       x1="0"
       y1="0"
       x2="1"
       y2="0"
       gradientUnits="userSpaceOnUse"
       gradientTransform="matrix(3.5,-205,-205,-3.5,275.5614,459.59351)"
       spreadMethod="pad"
       id="linearGradient48"><stop
         style="stop-opacity:1;stop-color:#ffffff"
         offset="0"
         id="stop44" /><stop
         style="stop-opacity:1;stop-color:#00adef"
         offset="1"
         id="stop46" /></linearGradient><clipPath
       clipPathUnits="userSpaceOnUse"
       id="clipPath58"><path
         d="M 0,595.28 H 841.89 V 0 H 0 Z"
         id="path56"
         inkscape:connector-curvature="0" /></clipPath></defs><sodipodi:namedview
     pagecolor="#ffffff"
     bordercolor="#666666"
     borderopacity="1"
     objecttolerance="10"
     gridtolerance="10"
     guidetolerance="10"
     inkscape:pageopacity="0"
     inkscape:pageshadow="2"
     inkscape:window-width="988"
     inkscape:window-height="502"
     id="namedview4"
     showgrid="false"
     inkscape:zoom="0.29733907"
     inkscape:cx="561.26001"
     inkscape:cy="396.85333"
     inkscape:window-x="1089"
     inkscape:window-y="567"
     inkscape:window-maximized="0"
     inkscape:current-layer="g10" /><g
     id="g10"
     inkscape:groupmode="layer"
     inkscape:label="ModSecurity_logo_V03"
     transform="matrix(1.3333333,0,0,-1.3333333,0,793.70667)"><g
       id="g12"><g
         id="g14"
         clip-path="url(#clipPath18)"><g
           id="g20"><g
             id="g22"><path
               d="m 280.57,446.13 c 60.909,-1.768 109.74,-51.694 109.74,-113.016 v 0 c 0,-19.336 -4.854,-37.542 -13.409,-53.45 v 0 l 15.577,-8.956 c 10.063,18.56 15.791,39.817 15.791,62.406 v 0 c 0,71.243 -56.879,129.207 -127.699,130.974 v 0 z M 146.215,333.114 c 0,-22.589 5.715,-43.846 15.79,-62.406 v 0 l 15.578,8.956 c -8.556,15.908 -13.41,34.114 -13.41,53.45 v 0 c 0,61.322 48.818,111.248 109.716,113.016 v 0 17.958 C 203.07,462.321 146.215,404.357 146.215,333.114 m 24.772,-0.003 c 0,-58.686 47.574,-106.26 106.261,-106.26 v 0 c 58.685,0 106.259,47.574 106.259,106.26 v 0 c 0,58.686 -47.574,106.26 -106.259,106.26 v 0 c -58.687,0 -106.261,-47.574 -106.261,-106.26 M 277.235,220.052 c -40.723,0 -76.415,21.528 -96.318,53.826 v 0 l -15.566,-8.955 c 23.001,-37.684 64.503,-62.83 111.884,-62.83 v 0 c 47.382,0 88.896,25.146 111.909,62.842 v 0 l -15.578,8.943 C 353.664,241.58 317.971,220.052 277.235,220.052"
               style="fill:url(#linearGradient28);stroke:none"
               id="path30"
               inkscape:connector-curvature="0" /></g></g></g></g><g
       id="g32"><g
         id="g34"
         clip-path="url(#clipPath38)"><g
           id="g40"><g
             id="g42"><path
               d="m 278.308,423.016 c -1.368,0.466 -2.831,0.716 -4.347,0.716 v 0 c -1.01,0 -2.022,-0.116 -3.011,-0.344 v 0 c -3.475,-0.805 -6.432,-2.918 -8.321,-5.948 v 0 c -1.291,-2.069 -1.977,-4.397 -2.028,-6.771 v 0 C 254.145,405.445 250.2,397.505 250.2,388.811 v 0 c 0,-4.104 0.896,-8.13 2.615,-11.826 v 0 c -1.855,-0.633 -3.551,-1.749 -4.892,-3.291 v 0 l -20.842,-23.972 c -0.123,-0.141 -0.242,-0.285 -0.358,-0.432 v 0 l -21.681,-24.902 c -0.123,-0.129 -0.243,-0.26 -0.361,-0.394 v 0 l -2.051,-2.34 c -0.298,-0.323 -0.577,-0.664 -0.836,-1.019 v 0 c -3.925,-5.388 -5.99,-11.767 -5.975,-18.451 v 0 c 0.016,-6.252 5.089,-11.31 11.339,-11.31 v 0 c 0.008,0 30.302,0.067 30.302,0.067 v 0 c 0.72,-2.692 1.688,-5.25 2.894,-7.638 v 0 c 1.706,-3.38 4.968,-5.655 8.661,-6.133 v 0 c 1.347,-14.975 13.969,-26.751 29.288,-26.751 v 0 c 15.318,0 27.938,11.774 29.287,26.745 v 0 c 3.712,0.466 6.991,2.745 8.705,6.137 v 0 c 1.207,2.388 2.175,4.946 2.895,7.639 v 0 c 0,0 30.136,-0.067 30.145,-0.067 v 0 c 2.998,0 5.875,1.187 8,3.303 v 0 c 2.13,2.122 3.332,5.004 3.339,8.01 v 0 c 0.015,6.684 -2.052,13.063 -5.976,18.449 v 0 c -0.23,0.316 -0.495,0.639 -0.769,0.941 v 0 l -2.117,2.417 c -0.119,0.134 -0.239,0.265 -0.363,0.394 v 0 l -21.684,24.905 c -0.114,0.146 -0.233,0.289 -0.355,0.429 v 0 l -20.841,23.973 c -1.305,1.5 -2.945,2.596 -4.74,3.238 v 0 c 1.735,3.71 2.641,7.755 2.641,11.879 v 0 c 0,8.729 -3.967,16.688 -10.457,21.908 v 0 c -0.059,2.358 -0.746,4.666 -2.027,6.721 v 0 c -1.889,3.03 -4.846,5.143 -8.326,5.949 v 0 c -0.985,0.227 -1.996,0.343 -3.006,0.343 v 0 c -1.517,0 -2.979,-0.25 -4.346,-0.716 m 1.371,-4.025 c 0.952,0.324 1.953,0.489 2.975,0.489 v 0 c 0.688,0 1.376,-0.078 2.048,-0.234 v 0 c 2.371,-0.549 4.388,-1.99 5.676,-4.056 v 0 c 0.866,-1.388 1.343,-2.969 1.384,-4.576 v 0 c 0.031,-1.25 0.611,-2.424 1.586,-3.207 v 0 c 5.637,-4.534 8.869,-11.312 8.869,-18.596 v 0 c 0,-3.509 -0.753,-6.9 -2.24,-10.078 v 0 c -0.507,-1.084 -0.534,-2.332 -0.073,-3.437 v 0 c 0.461,-1.106 1.366,-1.965 2.493,-2.368 v 0 c 1.142,-0.408 2.167,-1.107 2.962,-2.024 v 0 l 20.842,-23.972 c 0.074,-0.086 0.311,-0.378 0.358,-0.432 v 0 l 21.683,-24.905 c 0.048,-0.056 0.303,-0.327 0.377,-0.411 v 0 l 2.111,-2.41 c 0.221,-0.243 0.388,-0.446 0.534,-0.645 v 0 c 3.386,-4.649 5.17,-10.159 5.158,-15.933 v 0 c -0.004,-1.893 -0.746,-3.671 -2.087,-5.007 v 0 c -1.337,-1.331 -3.113,-2.064 -5,-2.064 v 0 c 0,0 -30.142,0.067 -30.145,0.067 v 0 c -1.925,0 -3.61,-1.293 -4.107,-3.154 v 0 c -0.645,-2.408 -1.513,-4.702 -2.583,-6.818 v 0 c -1.065,-2.109 -3.098,-3.543 -5.44,-3.837 v 0 c -1.983,-0.249 -3.525,-1.847 -3.703,-3.837 v 0 C 302.2,264.719 291.195,254.671 278.303,254.671 v 0 c -12.894,0 -23.899,10.05 -25.054,22.88 v 0 c -0.178,1.985 -1.712,3.579 -3.688,3.836 v 0 c -2.328,0.301 -4.352,1.734 -5.411,3.832 v 0 c -1.07,2.12 -1.939,4.414 -2.583,6.821 v 0 c -0.497,1.86 -2.182,3.153 -4.107,3.153 v 0 c -0.003,0 -30.312,-0.068 -30.312,-0.068 v 0 c -3.888,0 -7.067,3.172 -7.077,7.07 v 0 c -0.014,5.774 1.771,11.285 5.16,15.935 v 0 c 0.162,0.224 0.337,0.438 0.522,0.637 v 0 c 0.025,0.028 2.125,2.424 2.125,2.424 v 0 c 0.069,0.078 0.324,0.349 0.372,0.405 v 0 l 21.68,24.901 c 0.049,0.055 0.284,0.349 0.36,0.436 v 0 l 20.842,23.972 c 0.819,0.942 1.876,1.654 3.057,2.056 v 0 c 1.141,0.39 2.064,1.245 2.538,2.355 v 0 c 0.472,1.11 0.453,2.368 -0.056,3.462 v 0 c -1.473,3.166 -2.219,6.542 -2.219,10.033 v 0 c 0,7.254 3.216,14.016 8.823,18.552 v 0 c 0.974,0.788 1.551,1.965 1.577,3.217 v 0 c 0.034,1.617 0.513,3.212 1.385,4.61 v 0 c 1.288,2.066 3.303,3.507 5.672,4.055 v 0 c 0.674,0.156 1.364,0.235 2.052,0.235 v 0 c 1.022,0 2.023,-0.165 2.975,-0.489 v 0 c 0.445,-0.151 0.908,-0.226 1.372,-0.226 v 0 c 0.462,0 0.926,0.075 1.371,0.226"
               style="fill:url(#linearGradient48);stroke:none"
               id="path50"
               inkscape:connector-curvature="0" /></g></g></g></g><g
       id="g52"><g
         id="g54"
         clip-path="url(#clipPath58)"><g
           id="g60"
           transform="translate(263.08,337.2271)"><path
             d="m 0,0 v 0.021 l 5.391,11.643 v 0.043 c 0.021,0.279 0.02,0.58 0.02,0.881 C 5.4,17.36 3.456,21.677 0.31,24.809 -1.608,26.696 -3.976,28.174 -6.6,29.028 L -27.442,5.055 V 5.034 l -22.279,-25.589 -0.064,-0.065 -0.086,-0.086 -2.208,-2.52 -0.043,-0.043 c -2.401,-3.295 -3.81,-7.339 -3.8,-11.746 l 39.791,0.089 6.418,13.901 z m -2.734,-55.434 c -0.07,-0.646 -0.111,-1.301 -0.111,-1.966 0,-9.98 8.089,-18.069 18.068,-18.069 9.98,0 18.069,8.089 18.069,18.069 0,0.665 -0.041,1.32 -0.111,1.966 z m 43.664,17.953 -2.203,4.77 H -8.396 l -2.202,-4.769 c -0.866,-1.875 -2.61,-3.162 -4.612,-3.468 0.515,-2.771 1.37,-5.419 2.605,-7.865 h 55.7 c 1.233,2.442 2.087,5.084 2.603,7.849 -2.066,0.262 -3.879,1.561 -4.768,3.483 m 41.524,14.212 -0.043,0.043 -2.208,2.52 -0.086,0.086 -0.064,0.065 L 57.774,5.033 V 5.055 L 36.932,29.028 c -2.625,-0.854 -4.993,-2.332 -6.91,-4.22 -3.146,-3.131 -5.09,-7.448 -5.101,-12.22 0,-0.301 -10e-4,-0.602 0.02,-0.882 V 11.663 L 30.332,0.021 V 0 l 9.713,-21.025 6.418,-13.902 39.792,-0.088 c 0.009,4.406 -1.401,8.451 -3.801,11.746 M 15.166,19.933 c 2.142,0 4.085,0.772 5.639,2.011 0.843,1.916 1.935,3.726 3.283,5.374 0.106,0.555 0.173,1.124 0.173,1.71 0,5.023 -4.072,9.094 -9.095,9.094 -5.022,0 -9.094,-4.071 -9.094,-9.094 0,-0.588 0.066,-1.16 0.173,-1.717 1.346,-1.649 2.437,-3.453 3.278,-5.364 1.555,-1.241 3.499,-2.014 5.643,-2.014 m 14.229,22.61 c 1.674,2.611 2.656,5.709 2.656,9.04 0,7.496 -4.912,13.84 -11.691,16.001 l 1.181,5.104 c 0.251,1.083 -0.43,2.175 -1.514,2.426 -1.084,0.251 -2.176,-0.43 -2.426,-1.514 l -1.222,-5.277 c -0.373,0.025 -0.745,0.057 -1.124,0.057 -0.398,0 -0.787,-0.033 -1.178,-0.06 l -1.223,5.28 c -0.25,1.084 -1.342,1.765 -2.426,1.514 C 9.344,74.863 8.663,73.771 8.914,72.688 L 10.1,67.566 C 3.347,65.389 -1.541,59.06 -1.541,51.583 c 0,-3.331 0.982,-6.429 2.656,-9.04 z M -5.338,-26.09 h 41.007 l -7.397,16.016 H 2.059 Z M 24.8,-2.556 25.214,-3.453 H 5.117 l 0.414,0.897 c 0.045,0.098 0.088,0.197 0.128,0.298 l 5.262,11.361 c 0.299,0.646 0.482,1.366 0.543,2.084 0.004,0.053 0.007,0.106 0.01,0.16 0.027,0.402 0.032,0.832 0.03,1.255 -0.002,1.033 -0.096,2.05 -0.229,3.058 1.258,0.402 2.588,0.643 3.981,0.643 1.328,0 2.6,-0.221 3.808,-0.59 -0.137,-1.023 -0.233,-2.056 -0.235,-3.105 -0.003,-0.385 0.002,-0.771 0.021,-1.138 0.025,-0.815 0.212,-1.589 0.526,-2.291 0.012,-0.025 0.023,-0.05 0.035,-0.075 l 5.261,-11.363 c 0.04,-0.1 0.083,-0.199 0.128,-0.297"
             style="fill:#ffffff;fill-opacity:1;fill-rule:nonzero;stroke:none"
             id="path62"
             inkscape:connector-curvature="0" /></g><g
           id="g64"
           transform="translate(457.7676,268.8025)"><path
             d="m 0,0 h -2.435 v -8.747 c 0,-0.165 -0.134,-0.301 -0.3,-0.301 h -1.969 c -0.165,0 -0.301,0.136 -0.301,0.301 V 0 H -7.454 C -7.62,0 -7.755,0.12 -7.755,0.286 v 1.548 c 0,0.165 0.135,0.285 0.301,0.285 H 0 c 0.166,0 0.316,-0.12 0.316,-0.285 V 0.286 C 0.316,0.12 0.166,0 0,0"
             style="fill:#005b85;fill-opacity:1;fill-rule:nonzero;stroke:none"
             id="path66"
             inkscape:connector-curvature="0" /></g><g
           id="g68"
           transform="translate(468.0616,259.7546)"><path
             d="m 0,0 h -1.97 c -0.165,0 -0.3,0.136 -0.3,0.301 V 4.645 H -5.982 V 0.301 C -5.982,0.136 -6.117,0 -6.283,0 h -1.969 c -0.165,0 -0.301,0.136 -0.301,0.301 v 10.581 c 0,0.165 0.136,0.285 0.301,0.285 h 1.969 c 0.166,0 0.301,-0.12 0.301,-0.285 V 6.884 h 3.712 v 3.998 c 0,0.165 0.135,0.285 0.3,0.285 H 0 c 0.165,0 0.3,-0.12 0.3,-0.285 V 0.301 C 0.3,0.136 0.165,0 0,0"
             style="fill:#005b85;fill-opacity:1;fill-rule:nonzero;stroke:none"
             id="path70"
             inkscape:connector-curvature="0" /></g><g
           id="g72"
           transform="translate(476.9864,259.8152)"><path
             d="m 0,0 c -0.526,-0.075 -1.293,-0.196 -2.916,-0.196 -1.938,0 -3.652,0.496 -3.652,3.231 v 4.99 c 0,2.736 1.728,3.217 3.667,3.217 1.624,0 2.375,-0.12 2.901,-0.195 0.21,-0.03 0.301,-0.106 0.301,-0.301 V 9.349 C 0.301,9.183 0.165,9.048 0,9.048 h -3.051 c -0.707,0 -0.962,-0.241 -0.962,-1.023 V 6.658 h 3.893 c 0.165,0 0.301,-0.136 0.301,-0.301 V 4.93 C 0.181,4.764 0.045,4.629 -0.12,4.629 H -4.013 V 3.035 c 0,-0.781 0.255,-1.021 0.962,-1.021 H 0 c 0.165,0 0.301,-0.136 0.301,-0.301 V 0.315 C 0.301,0.12 0.21,0.029 0,0"
             style="fill:#005b85;fill-opacity:1;fill-rule:nonzero;stroke:none"
             id="path74"
             inkscape:connector-curvature="0" /></g><g
           id="g76"
           transform="translate(486.8282,259.7546)"><path
             d="m 0,0 h -1.97 c -0.165,0 -0.3,0.136 -0.3,0.301 V 8.597 L -3.953,7.905 C -4.028,7.876 -4.089,7.86 -4.134,7.86 c -0.105,0 -0.165,0.076 -0.165,0.196 V 9.77 c 0,0.105 0.045,0.165 0.151,0.209 l 2.449,1.128 c 0.105,0.045 0.195,0.06 0.345,0.06 H 0 c 0.165,0 0.285,-0.12 0.285,-0.285 V 0.301 C 0.285,0.136 0.165,0 0,0"
             style="fill:#005b85;fill-opacity:1;fill-rule:nonzero;stroke:none"
             id="path78"
             inkscape:connector-curvature="0" /></g><g
           id="g80"
           transform="translate(490.8995,265.5154)"><path
             d="m 0,0 c -0.613,0 -1.071,0.07 -1.468,0.171 -0.077,0.023 -0.155,0.07 -0.155,0.155 v 0.762 c 0,0.108 0.062,0.147 0.14,0.147 h 0.023 c 0.318,-0.031 1.173,-0.092 1.476,-0.092 0.536,0 0.691,0.17 0.691,0.543 0,0.225 -0.108,0.349 -0.513,0.59 L -0.878,2.913 C -1.6,3.34 -1.794,3.829 -1.794,4.396 c 0,0.855 0.482,1.515 1.988,1.515 0.568,0 1.352,-0.094 1.647,-0.171 C 1.903,5.725 1.957,5.686 1.957,5.601 V 4.815 C 1.957,4.746 1.927,4.684 1.825,4.684 H 1.81 C 1.593,4.699 0.691,4.77 0.163,4.77 c -0.442,0 -0.605,-0.133 -0.605,-0.413 0,-0.217 0.1,-0.318 0.52,-0.544 L 1.072,3.278 C 1.88,2.843 2.12,2.33 2.12,1.701 2.12,0.878 1.577,0 0,0"
             style="fill:#005b85;fill-opacity:1;fill-rule:nonzero;stroke:none"
             id="path82"
             inkscape:connector-curvature="0" /></g><g
           id="g84"
           transform="translate(497.5528,270.2614)"><path
             d="m 0,0 h -1.259 v -4.521 c 0,-0.084 -0.069,-0.155 -0.155,-0.155 h -1.018 c -0.085,0 -0.155,0.071 -0.155,0.155 V 0 h -1.266 c -0.085,0 -0.155,0.062 -0.155,0.147 v 0.8 c 0,0.086 0.07,0.148 0.155,0.148 H 0 c 0.085,0 0.163,-0.062 0.163,-0.148 v -0.8 C 0.163,0.062 0.085,0 0,0"
             style="fill:#005b85;fill-opacity:1;fill-rule:nonzero;stroke:none"
             id="path86"
             inkscape:connector-curvature="0" /></g><g
           id="g88"
           transform="translate(508.8399,259.8152)"><path
             d="m 0,0 c -0.496,-0.105 -1.653,-0.196 -2.449,-0.196 -1.94,0 -3.668,0.496 -3.668,3.231 v 7.771 c 0,0.166 0.136,0.3 0.301,0.3 h 1.968 c 0.166,0 0.301,-0.134 0.301,-0.3 V 3.035 c 0,-0.781 0.256,-1.021 0.962,-1.021 H 0 c 0.166,0 0.301,-0.136 0.301,-0.301 V 0.315 C 0.301,0.12 0.211,0.045 0,0"
             style="fill:#005b85;fill-opacity:1;fill-rule:nonzero;stroke:none"
             id="path90"
             inkscape:connector-curvature="0" /></g><g
           id="g92"
           transform="translate(512.8067,259.7546)"><path
             d="m 0,0 h -2.015 c -0.165,0 -0.27,0.136 -0.27,0.301 v 10.581 c 0,0.165 0.105,0.285 0.27,0.285 H 0 c 0.165,0 0.285,-0.12 0.285,-0.285 V 0.301 C 0.285,0.136 0.165,0 0,0"
             style="fill:#005b85;fill-opacity:1;fill-rule:nonzero;stroke:none"
             id="path94"
             inkscape:connector-curvature="0" /></g><g
           id="g96"
           transform="translate(523.5967,259.7546)"><path
             d="m 0,0 h -2.015 c -0.165,0 -0.27,0.136 -0.27,0.301 v 6.703 c 0,1.684 -0.556,2.089 -1.788,2.089 -0.616,0 -1.293,-0.03 -1.759,-0.09 V 0.301 C -5.832,0.136 -5.952,0 -6.117,0 h -1.999 c -0.166,0 -0.286,0.136 -0.286,0.301 v 9.814 c 0,0.676 0.18,0.842 0.766,0.932 0.797,0.12 2.51,0.256 3.277,0.256 2.916,0 4.644,-0.812 4.644,-4.299 V 0.301 C 0.285,0.136 0.165,0 0,0"
             style="fill:#005b85;fill-opacity:1;fill-rule:nonzero;stroke:none"
             id="path98"
             inkscape:connector-curvature="0" /></g><g
           id="g100"
           transform="translate(532.5069,259.8152)"><path
             d="m 0,0 c -0.526,-0.075 -1.293,-0.196 -2.916,-0.196 -1.938,0 -3.652,0.496 -3.652,3.231 v 4.99 c 0,2.736 1.728,3.217 3.667,3.217 1.624,0 2.375,-0.12 2.901,-0.195 0.21,-0.03 0.301,-0.106 0.301,-0.301 V 9.349 C 0.301,9.183 0.165,9.048 0,9.048 h -3.051 c -0.707,0 -0.962,-0.241 -0.962,-1.023 V 6.658 h 3.893 c 0.165,0 0.301,-0.136 0.301,-0.301 V 4.93 C 0.181,4.764 0.045,4.629 -0.12,4.629 H -4.013 V 3.035 c 0,-0.781 0.255,-1.021 0.962,-1.021 H 0 c 0.165,0 0.301,-0.136 0.301,-0.301 V 0.315 C 0.301,0.12 0.21,0.029 0,0"
             style="fill:#005b85;fill-opacity:1;fill-rule:nonzero;stroke:none"
             id="path102"
             inkscape:connector-curvature="0" /></g><g
           id="g104"
           transform="translate(544.5118,266.2321)"><path
             d="M 0,0 C 0,1.804 -0.602,2.57 -1.864,2.57 -3.126,2.57 -3.713,1.804 -3.713,0 v -1.788 c 0,-1.804 0.587,-2.57 1.849,-2.57 1.262,0 1.864,0.766 1.864,2.57 z m -1.864,-6.613 c -2.48,0 -4.448,1.338 -4.448,4.825 V 0 c 0,3.487 1.968,4.825 4.448,4.825 2.48,0 4.449,-1.338 4.449,-4.825 v -1.788 c 0,-3.487 -1.969,-4.825 -4.449,-4.825"
             style="fill:#005b85;fill-opacity:1;fill-rule:nonzero;stroke:none"
             id="path106"
             inkscape:connector-curvature="0" /></g><g
           id="g108"
           transform="translate(555.4659,268.8474)"><path
             d="m 0,0 h -3.051 c -0.707,0 -0.962,-0.24 -0.962,-1.021 v -1.353 h 3.893 c 0.165,0 0.301,-0.136 0.301,-0.301 v -1.428 c 0,-0.166 -0.136,-0.3 -0.301,-0.3 h -3.893 v -4.389 c 0,-0.165 -0.135,-0.301 -0.3,-0.301 h -1.955 c -0.165,0 -0.3,0.136 -0.3,0.301 v 7.771 c 0,2.735 1.728,3.215 3.667,3.215 1.624,0 2.375,-0.12 2.901,-0.195 C 0.21,1.97 0.301,1.895 0.301,1.698 V 0.301 C 0.301,0.136 0.165,0 0,0"
             style="fill:#005b85;fill-opacity:1;fill-rule:nonzero;stroke:none"
             id="path110"
             inkscape:connector-curvature="0" /></g><g
           id="g112"
           transform="translate(567.2921,266.3073)"><path
             d="m 0,0 c 0,2.029 -0.872,2.57 -2.225,2.57 -0.376,0 -0.856,-0.014 -1.067,-0.03 v -7.019 c 0.211,-0.014 0.691,-0.03 1.067,-0.03 1.353,0 2.225,0.541 2.225,2.571 z m -2.225,-6.688 c -1.248,0 -2.585,0.121 -3.201,0.225 -0.286,0.046 -0.436,0.181 -0.436,0.526 v 9.935 c 0,0.346 0.15,0.481 0.436,0.526 C -4.81,4.63 -3.473,4.75 -2.225,4.75 0.767,4.75 2.569,3.172 2.569,0 v -1.938 c 0,-3.171 -1.802,-4.75 -4.794,-4.75"
             style="fill:#005b85;fill-opacity:1;fill-rule:nonzero;stroke:none"
             id="path114"
             inkscape:connector-curvature="0" /></g><g
           id="g116"
           transform="translate(578.2012,259.8152)"><path
             d="m 0,0 c -0.526,-0.075 -1.293,-0.196 -2.916,-0.196 -1.938,0 -3.652,0.496 -3.652,3.231 v 4.99 c 0,2.736 1.728,3.217 3.667,3.217 1.624,0 2.375,-0.12 2.901,-0.195 0.21,-0.03 0.301,-0.106 0.301,-0.301 V 9.349 C 0.301,9.183 0.165,9.048 0,9.048 h -3.051 c -0.707,0 -0.962,-0.241 -0.962,-1.023 V 6.658 h 3.893 c 0.165,0 0.301,-0.136 0.301,-0.301 V 4.93 C 0.181,4.764 0.045,4.629 -0.12,4.629 H -4.013 V 3.035 c 0,-0.781 0.255,-1.021 0.962,-1.021 H 0 c 0.165,0 0.301,-0.136 0.301,-0.301 V 0.315 C 0.301,0.12 0.21,0.029 0,0"
             style="fill:#005b85;fill-opacity:1;fill-rule:nonzero;stroke:none"
             id="path118"
             inkscape:connector-curvature="0" /></g><g
           id="g120"
           transform="translate(586.9161,268.8474)"><path
             d="m 0,0 h -3.051 c -0.707,0 -0.962,-0.24 -0.962,-1.021 v -1.353 h 3.893 c 0.165,0 0.301,-0.136 0.301,-0.301 v -1.428 c 0,-0.166 -0.136,-0.3 -0.301,-0.3 h -3.893 v -4.389 c 0,-0.165 -0.135,-0.301 -0.3,-0.301 h -1.955 c -0.165,0 -0.3,0.136 -0.3,0.301 v 7.771 c 0,2.735 1.728,3.215 3.667,3.215 1.624,0 2.375,-0.12 2.901,-0.195 C 0.21,1.97 0.301,1.895 0.301,1.698 V 0.301 C 0.301,0.136 0.165,0 0,0"
             style="fill:#005b85;fill-opacity:1;fill-rule:nonzero;stroke:none"
             id="path122"
             inkscape:connector-curvature="0" /></g><g
           id="g124"
           transform="translate(595.6456,259.8152)"><path
             d="m 0,0 c -0.526,-0.075 -1.293,-0.196 -2.916,-0.196 -1.938,0 -3.652,0.496 -3.652,3.231 v 4.99 c 0,2.736 1.728,3.217 3.667,3.217 1.624,0 2.375,-0.12 2.901,-0.195 0.21,-0.03 0.301,-0.106 0.301,-0.301 V 9.349 C 0.301,9.183 0.165,9.048 0,9.048 h -3.051 c -0.707,0 -0.962,-0.241 -0.962,-1.023 V 6.658 h 3.893 c 0.165,0 0.301,-0.136 0.301,-0.301 V 4.93 C 0.181,4.764 0.045,4.629 -0.12,4.629 H -4.013 V 3.035 c 0,-0.781 0.255,-1.021 0.962,-1.021 H 0 c 0.165,0 0.301,-0.136 0.301,-0.301 V 0.315 C 0.301,0.12 0.21,0.029 0,0"
             style="fill:#005b85;fill-opacity:1;fill-rule:nonzero;stroke:none"
             id="path126"
             inkscape:connector-curvature="0" /></g><g
           id="g128"
           transform="translate(606.2403,259.7546)"><path
             d="m 0,0 h -2.015 c -0.165,0 -0.27,0.136 -0.27,0.301 v 6.703 c 0,1.684 -0.556,2.089 -1.788,2.089 -0.616,0 -1.293,-0.03 -1.759,-0.09 V 0.301 C -5.832,0.136 -5.952,0 -6.117,0 h -1.999 c -0.166,0 -0.286,0.136 -0.286,0.301 v 9.814 c 0,0.676 0.18,0.842 0.766,0.932 0.797,0.12 2.511,0.256 3.277,0.256 2.916,0 4.644,-0.812 4.644,-4.299 V 0.301 C 0.285,0.136 0.165,0 0,0"
             style="fill:#005b85;fill-opacity:1;fill-rule:nonzero;stroke:none"
             id="path130"
             inkscape:connector-curvature="0" /></g><g
           id="g132"
           transform="translate(611.6778,259.6189)"><path
             d="m 0,0 c -1.187,0 -2.074,0.136 -2.841,0.331 -0.15,0.045 -0.301,0.136 -0.301,0.301 v 1.472 c 0,0.211 0.121,0.287 0.271,0.287 h 0.045 C -2.21,2.33 -0.557,2.21 0.029,2.21 c 1.037,0 1.338,0.33 1.338,1.052 0,0.436 -0.21,0.676 -0.992,1.142 l -2.074,1.233 c -1.398,0.826 -1.774,1.773 -1.774,2.871 0,1.653 0.933,2.93 3.848,2.93 1.098,0 2.615,-0.18 3.187,-0.331 0.12,-0.03 0.225,-0.105 0.225,-0.27 V 9.319 C 3.787,9.184 3.728,9.063 3.531,9.063 H 3.502 C 3.081,9.094 1.337,9.229 0.315,9.229 c -0.856,0 -1.172,-0.255 -1.172,-0.796 0,-0.421 0.195,-0.617 1.007,-1.053 L 2.074,6.343 C 3.637,5.501 4.103,4.51 4.103,3.292 4.103,1.699 3.051,0 0,0"
             style="fill:#005b85;fill-opacity:1;fill-rule:nonzero;stroke:none"
             id="path134"
             inkscape:connector-curvature="0" /></g><g
           id="g136"
           transform="translate(623.9854,259.8152)"><path
             d="m 0,0 c -0.526,-0.075 -1.293,-0.196 -2.916,-0.196 -1.938,0 -3.652,0.496 -3.652,3.231 v 4.99 c 0,2.736 1.728,3.217 3.667,3.217 1.624,0 2.375,-0.12 2.901,-0.195 0.21,-0.03 0.301,-0.106 0.301,-0.301 V 9.349 C 0.301,9.183 0.165,9.048 0,9.048 h -3.051 c -0.707,0 -0.962,-0.241 -0.962,-1.023 V 6.658 h 3.893 c 0.165,0 0.301,-0.136 0.301,-0.301 V 4.93 C 0.181,4.764 0.045,4.629 -0.12,4.629 H -4.013 V 3.035 c 0,-0.781 0.255,-1.021 0.962,-1.021 H 0 c 0.165,0 0.301,-0.136 0.301,-0.301 V 0.315 C 0.301,0.12 0.21,0.029 0,0"
             style="fill:#005b85;fill-opacity:1;fill-rule:nonzero;stroke:none"
             id="path138"
             inkscape:connector-curvature="0" /></g><g
           id="g140"
           transform="translate(474.2178,335.1067)"><path
             d="m 0,0 h -2.258 c -0.329,0 -0.698,0.247 -0.698,0.698 v 25.786 c 0,0.411 -0.123,0.453 -0.287,0.453 -0.165,0 -0.288,-0.083 -0.411,-0.453 L -8.746,13.427 c -0.41,-1.068 -0.862,-1.642 -1.93,-1.642 h -2.135 c -1.068,0 -1.519,0.574 -1.93,1.642 l -5.091,13.057 c -0.124,0.37 -0.247,0.453 -0.411,0.453 -0.164,0 -0.287,-0.042 -0.287,-0.453 V 0.698 C -20.53,0.247 -20.9,0 -21.229,0 h -2.258 c -0.451,0 -0.698,0.329 -0.698,0.821 v 26.772 c 0,2.751 1.191,2.916 2.792,2.916 h 1.52 c 1.807,0 2.217,-0.534 3.079,-2.752 l 4.764,-12.482 c 0.123,-0.37 0.164,-0.37 0.287,-0.37 0.123,0 0.164,0 0.287,0.37 l 4.764,12.482 c 0.862,2.218 1.354,2.752 3.079,2.752 h 1.519 c 1.602,0 2.792,-0.165 2.792,-2.916 V 0.821 C 0.698,0.329 0.452,0 0,0"
             style="fill:#00adef;fill-opacity:1;fill-rule:nonzero;stroke:none"
             id="path142"
             inkscape:connector-curvature="0" /></g><g
           id="g144"
           transform="translate(494.8321,347.9587)"><path
             d="m 0,0 c 0,4.188 -1.684,6.857 -5.543,6.857 -3.819,0 -5.503,-2.628 -5.503,-6.857 v -3.121 c 0,-4.188 1.643,-6.857 5.503,-6.857 3.818,0 5.543,2.628 5.543,6.857 z m -5.543,-13.14 c -6.036,0 -9.116,3.983 -9.116,10.019 V 0 c 0,6.036 3.08,10.019 9.116,10.019 6.036,0 9.156,-3.983 9.156,-10.019 v -3.121 c 0,-6.036 -3.12,-10.019 -9.156,-10.019"
             style="fill:#00adef;fill-opacity:1;fill-rule:nonzero;stroke:none"
             id="path146"
             inkscape:connector-curvature="0" /></g><g
           id="g148"
           transform="translate(516.3077,354.5285)"><path
             d="m 0,0 c -1.354,0.247 -3.49,0.288 -4.804,0.288 -4.024,0 -5.339,-2.505 -5.339,-6.899 v -2.956 c 0,-4.476 1.274,-6.98 5.339,-6.98 1.396,0 3.408,0.123 4.804,0.246 z m 2.751,-19.011 c -2.546,-0.493 -5.051,-0.698 -7.555,-0.698 -6.118,0 -8.952,3.982 -8.952,10.142 v 2.956 c 0,6.447 2.957,10.06 8.952,10.06 1.273,0 3.202,-0.123 4.804,-0.41 v 7.637 c 0,0.411 0.328,0.78 0.78,0.78 h 2.094 c 0.411,0 0.739,-0.328 0.739,-0.78 v -28.743 c 0,-0.534 -0.123,-0.821 -0.862,-0.944"
             style="fill:#00adef;fill-opacity:1;fill-rule:nonzero;stroke:none"
             id="path150"
             inkscape:connector-curvature="0" /></g><g
           id="g152"
           transform="translate(533.1026,334.8191)"><path
             d="m 0,0 c -2.874,0 -5.01,0.288 -6.816,0.575 -0.699,0.123 -0.781,0.287 -0.781,0.739 v 1.643 c 0,0.451 0.329,0.657 0.699,0.657 h 0.123 C -4.887,3.449 -1.889,3.367 0,3.367 c 4.927,0 6.241,1.971 6.241,4.845 0,2.054 -1.19,3.203 -4.928,5.503 l -3.982,2.422 c -3.777,2.3 -5.667,4.394 -5.667,7.679 0,4.968 3.572,7.267 9.815,7.267 2.421,0 5.583,-0.246 7.144,-0.492 0.41,-0.082 0.698,-0.287 0.698,-0.698 v -1.766 c 0,-0.41 -0.288,-0.657 -0.698,-0.657 H 8.541 c -1.807,0.123 -4.682,0.247 -7.062,0.247 -4.23,0 -6.037,-0.904 -6.037,-3.901 0,-1.93 1.355,-3.08 4.476,-4.969 L 3.695,16.589 C 8.459,13.756 10.142,11.498 10.142,8.212 10.142,4.271 8.089,0 0,0"
             style="fill:#00adef;fill-opacity:1;fill-rule:nonzero;stroke:none"
             id="path154"
             inkscape:connector-curvature="0" /></g><g
           id="g156"
           transform="translate(561.9278,348.2053)"><path
             d="M 0,0 C 0,4.394 -1.766,6.611 -5.379,6.611 -8.91,6.611 -10.881,4.229 -10.881,0 V -0.206 H 0 Z m 2.874,-2.957 h -13.755 v -0.492 c 0,-4.722 2.217,-6.899 5.994,-6.899 2.382,0 5.133,0.288 7.022,0.576 h 0.206 c 0.328,0 0.656,-0.165 0.656,-0.576 v -1.396 c 0,-0.533 -0.164,-0.821 -0.821,-0.944 -2.34,-0.452 -4.311,-0.698 -7.063,-0.698 -4.721,0 -9.608,2.258 -9.608,10.142 v 2.874 c 0,5.831 3.244,10.142 9.116,10.142 5.995,0 9.033,-4.27 9.033,-10.101 v -1.724 c 0,-0.534 -0.287,-0.904 -0.78,-0.904"
             style="fill:#00adef;fill-opacity:1;fill-rule:nonzero;stroke:none"
             id="path158"
             inkscape:connector-curvature="0" /></g><g
           id="g160"
           transform="translate(583.5674,335.2707)"><path
             d="m 0,0 c -1.354,-0.246 -3.202,-0.452 -5.133,-0.452 -5.584,0 -8.746,3.942 -8.746,9.978 v 3.203 c 0,6.036 3.121,9.978 8.746,9.978 1.889,0 3.779,-0.205 5.133,-0.452 0.657,-0.123 0.821,-0.328 0.821,-0.903 v -1.478 c 0,-0.411 -0.328,-0.616 -0.698,-0.616 h -0.164 c -1.807,0.205 -3.079,0.287 -5.092,0.287 -3.284,0 -5.133,-2.176 -5.133,-6.816 V 9.526 c 0,-4.598 1.808,-6.816 5.133,-6.816 2.013,0 3.285,0.082 5.092,0.288 h 0.164 c 0.37,0 0.698,-0.206 0.698,-0.616 V 0.903 C 0.821,0.37 0.657,0.124 0,0"
             style="fill:#00adef;fill-opacity:1;fill-rule:nonzero;stroke:none"
             id="path162"
             inkscape:connector-curvature="0" /></g><g
           id="g164"
           transform="translate(597.8165,334.8191)"><path
             d="M 0,0 H -0.369 C -3.161,0 -8.828,1.561 -8.828,9.649 V 22.05 c 0,0.452 0.288,0.822 0.739,0.822 h 2.135 c 0.452,0 0.739,-0.37 0.739,-0.822 V 9.649 c 0,-4.927 2.095,-6.487 4.846,-6.487 H 0 c 2.751,0 4.846,1.56 4.846,6.487 V 22.05 c 0,0.452 0.287,0.822 0.739,0.822 H 7.72 c 0.452,0 0.739,-0.37 0.739,-0.822 V 9.649 C 8.459,1.561 2.792,0 0,0"
             style="fill:#00adef;fill-opacity:1;fill-rule:nonzero;stroke:none"
             id="path166"
             inkscape:connector-curvature="0" /></g><g
           id="g168"
           transform="translate(621.1807,354.8161)"><path
             d="m 0,0 c -2.792,0 -4.147,-0.082 -5.708,-0.411 v -18.477 c 0,-0.411 -0.287,-0.821 -0.739,-0.821 h -2.135 c -0.41,0 -0.739,0.369 -0.739,0.821 V 1.067 c 0,0.452 0.288,0.74 0.739,0.945 2.341,1.027 5.174,1.15 8.582,1.15 0.533,0 0.862,-0.041 0.862,-0.616 V 0.657 C 0.862,0.205 0.78,0 0,0"
             style="fill:#00adef;fill-opacity:1;fill-rule:nonzero;stroke:none"
             id="path170"
             inkscape:connector-curvature="0" /></g><g
           id="g172"
           transform="translate(629.6397,335.1067)"><path
             d="m 0,0 h -1.971 c -0.452,0 -0.821,0.37 -0.821,0.821 v 20.942 c 0,0.451 0.369,0.821 0.821,0.821 H 0 c 0.451,0 0.821,-0.37 0.821,-0.821 V 0.821 C 0.821,0.37 0.451,0 0,0 m 0.082,26.197 h -2.094 c -0.452,0 -0.821,0.37 -0.821,0.822 v 3.284 c 0,0.452 0.369,0.822 0.821,0.822 h 2.094 c 0.452,0 0.821,-0.37 0.821,-0.822 v -3.284 c 0,-0.452 -0.369,-0.822 -0.821,-0.822"
             style="fill:#00adef;fill-opacity:1;fill-rule:nonzero;stroke:none"
             id="path174"
             inkscape:connector-curvature="0" /></g><g
           id="g176"
           transform="translate(646.5577,335.0656)"><path
             d="m 0,0 c -0.78,-0.123 -2.464,-0.247 -3.942,-0.247 -3.86,0 -6.078,1.273 -6.078,5.708 v 21.188 c 0,0.411 0.371,0.698 0.822,0.78 l 2.011,0.328 h 0.083 c 0.411,0 0.698,-0.369 0.698,-0.779 V 22.625 H 0 c 0.451,0 0.78,-0.288 0.78,-0.739 V 20.49 C 0.78,20.079 0.451,19.75 0,19.75 H -6.406 V 5.461 c 0,-2.381 0.78,-2.792 3.039,-2.792 h 3.326 c 0.574,0 0.862,-0.164 0.862,-0.575 V 0.698 C 0.821,0.329 0.615,0.082 0,0"
             style="fill:#00adef;fill-opacity:1;fill-rule:nonzero;stroke:none"
             id="path178"
             inkscape:connector-curvature="0" /></g><g
           id="g180"
           transform="translate(660.1075,326.9763)"><path
             d="M 0,0 C -3.038,0 -5.83,0.452 -6.774,0.698 -7.35,0.862 -7.555,1.068 -7.555,1.561 V 2.71 c 0,0.411 0.328,0.698 0.74,0.698 h 0.123 C -5.461,3.244 -2.381,2.916 0,2.916 c 3.696,0 4.846,0.903 4.846,5.214 V 8.335 C 3.86,8.048 1.602,7.843 0.288,7.843 c -4.723,0 -9.198,1.642 -9.198,8.5 v 13.55 c 0,0.452 0.37,0.821 0.821,0.821 h 1.971 c 0.452,0 0.821,-0.369 0.821,-0.821 v -13.55 c 0,-4.394 2.136,-5.421 5.585,-5.421 1.191,0 3.284,0.247 4.476,0.535 v 18.436 c 0,0.452 0.369,0.821 0.821,0.821 h 1.971 c 0.452,0 0.821,-0.369 0.821,-0.821 V 8.13 C 8.377,1.684 5.585,0 0,0"
             style="fill:#00adef;fill-opacity:1;fill-rule:nonzero;stroke:none"
             id="path182"
             inkscape:connector-curvature="0" /></g><g
           id="g184"
           transform="translate(466.9503,290.5876)"><path
             d="m 0,0 c -1.725,-0.328 -3.326,-0.534 -6.816,-0.534 -5.051,0 -10.84,2.711 -10.84,12.688 v 5.707 c 0,10.06 5.789,12.688 10.84,12.688 2.587,0 5.091,-0.369 6.898,-0.656 0.369,-0.041 0.657,-0.165 0.657,-0.534 v -2.094 c 0,-0.247 -0.082,-0.452 -0.493,-0.452 H 0.123 c -1.478,0.123 -4.517,0.37 -6.898,0.37 -4.024,0 -7.145,-2.341 -7.145,-9.322 v -5.707 c 0,-6.898 3.121,-9.321 7.145,-9.321 2.34,0 5.296,0.206 6.775,0.329 h 0.164 c 0.452,0 0.657,-0.206 0.657,-0.657 V 0.821 C 0.821,0.328 0.451,0.082 0,0"
             style="fill:#00adef;fill-opacity:1;fill-rule:nonzero;stroke:none"
             id="path186"
             inkscape:connector-curvature="0" /></g><g
           id="g188"
           transform="translate(485.921,303.1931)"><path
             d="m 0,0 c 0,4.188 -1.684,6.857 -5.543,6.857 -3.819,0 -5.503,-2.628 -5.503,-6.857 v -3.121 c 0,-4.188 1.643,-6.857 5.503,-6.857 3.818,0 5.543,2.628 5.543,6.857 z m -5.543,-13.14 c -6.036,0 -9.116,3.984 -9.116,10.019 V 0 c 0,6.036 3.08,10.019 9.116,10.019 6.036,0 9.156,-3.983 9.156,-10.019 v -3.121 c 0,-6.035 -3.12,-10.019 -9.156,-10.019"
             style="fill:#00adef;fill-opacity:1;fill-rule:nonzero;stroke:none"
             id="path190"
             inkscape:connector-curvature="0" /></g><g
           id="g192"
           transform="translate(503.7022,310.0505)"><path
             d="m 0,0 c -2.792,0 -4.147,-0.082 -5.708,-0.411 v -18.477 c 0,-0.411 -0.287,-0.821 -0.739,-0.821 h -2.135 c -0.41,0 -0.739,0.369 -0.739,0.821 V 1.067 c 0,0.452 0.288,0.74 0.739,0.945 2.341,1.027 5.174,1.15 8.582,1.15 0.533,0 0.862,-0.041 0.862,-0.616 V 0.657 C 0.862,0.205 0.78,0 0,0"
             style="fill:#00adef;fill-opacity:1;fill-rule:nonzero;stroke:none"
             id="path194"
             inkscape:connector-curvature="0" /></g><g
           id="g196"
           transform="translate(522.754,303.4397)"><path
             d="M 0,0 C 0,4.394 -1.766,6.611 -5.379,6.611 -8.91,6.611 -10.881,4.229 -10.881,0 V -0.206 H 0 Z m 2.874,-2.957 h -13.755 v -0.492 c 0,-4.722 2.217,-6.898 5.994,-6.898 2.382,0 5.133,0.287 7.022,0.575 h 0.206 c 0.328,0 0.656,-0.165 0.656,-0.575 v -1.397 c 0,-0.533 -0.164,-0.821 -0.821,-0.944 -2.34,-0.451 -4.311,-0.698 -7.063,-0.698 -4.721,0 -9.608,2.259 -9.608,10.142 v 2.874 c 0,5.831 3.244,10.142 9.116,10.142 5.995,0 9.033,-4.27 9.033,-10.101 v -1.724 c 0,-0.534 -0.287,-0.904 -0.78,-0.904"
             style="fill:#00adef;fill-opacity:1;fill-rule:nonzero;stroke:none"
             id="path198"
             inkscape:connector-curvature="0" /></g><g
           id="g200"
           transform="translate(558.8887,312.3088)"><path
             d="m 0,0 c 0,4.106 -2.669,5.461 -7.802,5.461 -1.272,0 -3.531,0 -4.516,-0.123 V -5.913 c 0.862,0 3.572,-0.082 4.516,-0.082 5.051,0 7.802,1.273 7.802,5.708 z M 4.394,-21.967 H 1.52 c -0.494,0 -0.576,0 -0.904,0.533 l -7.35,12.236 h -0.37 -0.698 c -1.355,0 -3.49,0.082 -4.516,0.123 v -12.071 c 0,-0.411 -0.287,-0.821 -0.74,-0.821 h -2.217 c -0.411,0 -0.739,0.369 -0.739,0.821 V 7.597 c 0,0.574 0.246,0.82 0.986,0.903 1.765,0.205 4.844,0.328 7.226,0.328 C -1.314,8.828 3.695,6.652 3.695,0 v -0.287 c 0,-4.599 -2.71,-7.309 -6.446,-8.295 l 7.555,-12.605 c 0.083,-0.123 0.124,-0.247 0.124,-0.37 0,-0.246 -0.165,-0.41 -0.534,-0.41"
             style="fill:#00adef;fill-opacity:1;fill-rule:nonzero;stroke:none"
             id="path202"
             inkscape:connector-curvature="0" /></g><g
           id="g204"
           transform="translate(576.9571,290.0534)"><path
             d="M 0,0 H -0.369 C -3.161,0 -8.828,1.561 -8.828,9.649 V 22.05 c 0,0.452 0.288,0.822 0.739,0.822 h 2.135 c 0.452,0 0.739,-0.37 0.739,-0.822 V 9.649 c 0,-4.926 2.095,-6.487 4.846,-6.487 H 0 c 2.751,0 4.846,1.561 4.846,6.487 V 22.05 c 0,0.452 0.287,0.822 0.739,0.822 H 7.72 c 0.452,0 0.739,-0.37 0.739,-0.822 V 9.649 C 8.459,1.561 2.792,0 0,0"
             style="fill:#00adef;fill-opacity:1;fill-rule:nonzero;stroke:none"
             id="path206"
             inkscape:connector-curvature="0" /></g><g
           id="g208"
           transform="translate(594.2852,290.3415)"><path
             d="m 0,0 h -2.135 c -0.411,0 -0.739,0.369 -0.739,0.821 v 29.277 c 0,0.41 0.287,0.779 0.739,0.779 H 0 c 0.41,0 0.739,-0.328 0.739,-0.779 V 0.821 C 0.739,0.41 0.451,0 0,0"
             style="fill:#00adef;fill-opacity:1;fill-rule:nonzero;stroke:none"
             id="path210"
             inkscape:connector-curvature="0" /></g><g
           id="g212"
           transform="translate(614.8575,303.4397)"><path
             d="M 0,0 C 0,4.394 -1.766,6.611 -5.379,6.611 -8.91,6.611 -10.881,4.229 -10.881,0 V -0.206 H 0 Z m 2.874,-2.957 h -13.755 v -0.492 c 0,-4.722 2.217,-6.898 5.994,-6.898 2.382,0 5.133,0.287 7.022,0.575 h 0.206 c 0.328,0 0.656,-0.165 0.656,-0.575 v -1.397 c 0,-0.533 -0.164,-0.821 -0.821,-0.944 -2.34,-0.451 -4.311,-0.698 -7.063,-0.698 -4.721,0 -9.608,2.259 -9.608,10.142 v 2.874 c 0,5.831 3.244,10.142 9.116,10.142 5.995,0 9.033,-4.27 9.033,-10.101 v -1.724 c 0,-0.534 -0.287,-0.904 -0.78,-0.904"
             style="fill:#00adef;fill-opacity:1;fill-rule:nonzero;stroke:none"
             id="path214"
             inkscape:connector-curvature="0" /></g><g
           id="g216"
           transform="translate(642.1641,290.0534)"><path
             d="m 0,0 c -2.874,0 -5.01,0.288 -6.816,0.575 -0.699,0.123 -0.781,0.287 -0.781,0.739 v 1.643 c 0,0.451 0.329,0.657 0.699,0.657 h 0.123 C -4.887,3.449 -1.889,3.367 0,3.367 c 4.927,0 6.241,1.972 6.241,4.845 0,2.054 -1.19,3.203 -4.928,5.503 l -3.982,2.422 c -3.778,2.3 -5.667,4.394 -5.667,7.679 0,4.968 3.572,7.267 9.815,7.267 2.421,0 5.583,-0.246 7.144,-0.492 0.41,-0.082 0.697,-0.287 0.697,-0.698 V 28.127 C 9.32,27.717 9.033,27.47 8.623,27.47 H 8.541 c -1.807,0.123 -4.682,0.247 -7.062,0.247 -4.23,0 -6.037,-0.904 -6.037,-3.901 0,-1.93 1.355,-3.08 4.476,-4.969 L 3.695,16.589 C 8.459,13.756 10.142,11.498 10.142,8.212 10.142,4.271 8.089,0 0,0"
             style="fill:#00adef;fill-opacity:1;fill-rule:nonzero;stroke:none"
             id="path218"
             inkscape:connector-curvature="0" /></g><g
           id="g220"
           transform="translate(670.9893,303.4397)"><path
             d="M 0,0 C 0,4.394 -1.766,6.611 -5.379,6.611 -8.91,6.611 -10.881,4.229 -10.881,0 V -0.206 H 0 Z m 2.874,-2.957 h -13.755 v -0.492 c 0,-4.722 2.217,-6.898 5.994,-6.898 2.382,0 5.133,0.287 7.022,0.575 h 0.206 c 0.328,0 0.656,-0.165 0.656,-0.575 v -1.397 c 0,-0.533 -0.164,-0.821 -0.821,-0.944 -2.34,-0.451 -4.311,-0.698 -7.063,-0.698 -4.721,0 -9.608,2.259 -9.608,10.142 v 2.874 c 0,5.831 3.244,10.142 9.116,10.142 5.995,0 9.033,-4.27 9.033,-10.101 v -1.724 c 0,-0.534 -0.287,-0.904 -0.78,-0.904"
             style="fill:#00adef;fill-opacity:1;fill-rule:nonzero;stroke:none"
             id="path222"
             inkscape:connector-curvature="0" /></g><g
           id="g224"
           transform="translate(689.5089,290.3005)"><path
             d="m 0,0 c -0.78,-0.123 -2.464,-0.247 -3.942,-0.247 -3.86,0 -6.078,1.273 -6.078,5.708 v 21.187 c 0,0.411 0.371,0.698 0.822,0.781 l 2.011,0.328 h 0.083 c 0.411,0 0.698,-0.37 0.698,-0.78 V 22.625 H 0 c 0.451,0 0.78,-0.288 0.78,-0.74 V 20.489 C 0.78,20.079 0.451,19.75 0,19.75 H -6.406 V 5.461 c 0,-2.382 0.78,-2.792 3.039,-2.792 h 3.326 c 0.574,0 0.862,-0.164 0.862,-0.575 V 0.698 C 0.821,0.328 0.615,0.082 0,0"
             style="fill:#00adef;fill-opacity:1;fill-rule:nonzero;stroke:none"
             id="path226"
             inkscape:connector-curvature="0" /></g><g
           id="g228"
           transform="translate(466.9655,403.1298)"><path
             d="m 0,0 c 0,3.169 -0.537,4.868 -6.97,4.868 -6.394,0 -6.937,-1.699 -6.937,-4.868 v -11.75 c 0,-3.168 0.543,-4.869 6.937,-4.869 6.433,0 6.97,1.701 6.97,4.869 z m -6.97,-19.054 c -8.974,0 -10.016,2.783 -10.016,6.957 V 0.347 c 0,4.135 1.042,6.958 10.016,6.958 9.012,0 10.054,-2.823 10.054,-6.958 v -12.444 c 0,-4.174 -1.042,-6.957 -10.054,-6.957"
             style="fill:#005b85;fill-opacity:1;fill-rule:nonzero;stroke:none"
             id="path230"
             inkscape:connector-curvature="0" /></g><g
           id="g232"
           transform="translate(491.6956,410.1245)"><path
             d="m 0,0 v -18.706 c 0,-3.168 0.615,-4.87 5.241,-4.87 4.7,0 5.241,1.702 5.241,4.87 V 0 h 3.078 v -19.091 c 0,-4.175 -1.075,-6.958 -8.319,-6.958 -4.124,0 -5.97,1.701 -6.779,3.015 -0.809,-1.314 -2.662,-3.015 -6.783,-3.015 -7.242,0 -8.32,2.783 -8.32,6.958 V 0 h 3.081 v -18.706 c 0,-3.168 0.54,-4.87 5.239,-4.87 4.624,0 5.24,1.702 5.24,4.87 l 0,18.706 z"
             style="fill:#005b85;fill-opacity:1;fill-rule:nonzero;stroke:none"
             id="path234"
             inkscape:connector-curvature="0" /></g><g
           id="g236"
           transform="translate(527.1786,403.1298)"><path
             d="m 0,0 c 0,3.169 -0.42,4.868 -6.854,4.868 -6.433,0 -6.858,-1.699 -6.858,-4.868 V -6.531 H 0 Z M 3.087,-18.784 H 0 v 9.548 h -13.712 v -9.548 h -3.082 V 0.347 c 0,4.135 0.964,6.958 9.94,6.958 8.976,0 9.941,-2.823 9.941,-6.958 z"
             style="fill:#005b85;fill-opacity:1;fill-rule:nonzero;stroke:none"
             id="path238"
             inkscape:connector-curvature="0" /></g><g
           id="g240"
           transform="translate(545.1054,384.0366)"><path
             d="m 0,0 c -8.975,0 -9.938,2.822 -9.938,6.957 v 2.049 h 3.081 V 7.305 c 0,-3.17 0.427,-4.87 6.857,-4.87 6.435,0 6.861,1.7 6.861,4.87 v 0.387 c 0,2.358 -1.159,3.285 -3.51,3.671 l -8.01,1.276 c -3.661,0.579 -5.279,2.627 -5.279,5.487 v 1.275 c 0,4.174 0.963,6.957 9.938,6.957 8.976,0 9.94,-2.783 9.94,-6.957 V 18.513 H 6.861 v 0.541 c 0,3.169 -0.426,4.869 -6.861,4.869 -6.43,0 -6.857,-1.7 -6.857,-4.869 v -0.618 c 0,-1.699 0.616,-2.744 2.89,-3.131 L 4.584,13.914 C 8.091,13.335 9.94,11.557 9.94,8.349 V 6.957 C 9.94,2.822 8.976,0 0,0"
             style="fill:#005b85;fill-opacity:1;fill-rule:nonzero;stroke:none"
             id="path242"
             inkscape:connector-curvature="0" /></g><g
           id="g244"
           transform="translate(576.8361,402.8585)"><path
             d="m 0,0 c 0,3.17 -1.426,4.831 -5.163,4.831 h -8.554 V -8.656 h 8.554 c 3.774,0 5.163,1.7 5.163,4.869 z m -5.163,-11.092 h -8.554 v -7.421 h -3.08 V 7.266 h 11.634 c 6.317,0 8.243,-2.783 8.243,-6.957 v -4.445 c 0,-4.134 -1.926,-6.956 -8.243,-6.956"
             style="fill:#005b85;fill-opacity:1;fill-rule:nonzero;stroke:none"
             id="path246"
             inkscape:connector-curvature="0" /></g></g></g></g></svg>