<?xml version="1.0" encoding="UTF-8" standalone="no"?>
<!-- Created with Inkscape (http://www.inkscape.org/) -->

<svg
   xmlns:dc="http://purl.org/dc/elements/1.1/"
   xmlns:cc="http://creativecommons.org/ns#"
   xmlns:rdf="http://www.w3.org/1999/02/22-rdf-syntax-ns#"
   xmlns:svg="http://www.w3.org/2000/svg"
   xmlns="http://www.w3.org/2000/svg"
   xmlns:sodipodi="http://sodipodi.sourceforge.net/DTD/sodipodi-0.dtd"
   xmlns:inkscape="http://www.inkscape.org/namespaces/inkscape"
   width="210mm"
   height="297mm"
   viewBox="0 0 210 297"
   version="1.1"
   id="svg6364"
   inkscape:version="0.92.4 (unknown)"
   sodipodi:docname="crs.svg">
  <defs
     id="defs6358">
    <clipPath
       clipPathUnits="userSpaceOnUse"
       id="clipPath426">
      <path
         d="M 0,595.28 H 841.89 V 0 H 0 Z"
         id="path424"
         inkscape:connector-curvature="0" />
    </clipPath>
    <clipPath
       clipPathUnits="userSpaceOnUse"
       id="clipPath406">
      <path
         d="m 255.212,442.241 c -1.367,0.466 -2.83,0.716 -4.347,0.716 v 0 c -1.01,0 -2.021,-0.116 -3.01,-0.344 v 0 c -3.476,-0.805 -6.432,-2.918 -8.322,-5.948 v 0 c -1.29,-2.07 -1.977,-4.397 -2.028,-6.771 v 0 c -6.456,-5.224 -10.401,-13.164 -10.401,-21.858 v 0 c 0,-4.104 0.897,-8.13 2.616,-11.826 v 0 c -1.855,-0.633 -3.552,-1.749 -4.893,-3.291 v 0 l -20.842,-23.972 c -0.122,-0.142 -0.242,-0.285 -0.357,-0.432 v 0 l -21.68,-24.902 c -0.125,-0.129 -0.245,-0.26 -0.363,-0.394 v 0 l -2.05,-2.34 c -0.299,-0.324 -0.578,-0.664 -0.837,-1.02 v 0 c -3.924,-5.387 -5.99,-11.767 -5.975,-18.45 v 0 c 0.016,-6.252 5.089,-11.31 11.339,-11.31 v 0 c 0.008,0 30.302,0.067 30.302,0.067 v 0 c 0.72,-2.692 1.688,-5.251 2.895,-7.638 v 0 c 1.706,-3.38 4.967,-5.655 8.66,-6.133 v 0 c 1.347,-14.975 13.969,-26.751 29.289,-26.751 v 0 c 15.318,0 27.937,11.773 29.287,26.745 v 0 c 3.711,0.466 6.992,2.745 8.704,6.137 v 0 c 1.207,2.388 2.176,4.946 2.896,7.639 v 0 c 0,0 30.135,-0.067 30.144,-0.067 v 0 c 2.998,0 5.875,1.187 8,3.303 v 0 c 2.131,2.122 3.332,5.003 3.339,8.01 v 0 c 0.015,6.684 -2.052,13.063 -5.976,18.449 v 0 c -0.23,0.316 -0.495,0.639 -0.769,0.941 v 0 l -2.117,2.417 c -0.119,0.134 -0.239,0.265 -0.363,0.394 v 0 l -21.683,24.905 c -0.115,0.145 -0.234,0.289 -0.356,0.429 v 0 l -20.841,23.973 c -1.304,1.5 -2.945,2.596 -4.74,3.238 v 0 c 1.736,3.71 2.641,7.755 2.641,11.879 v 0 c 0,8.729 -3.966,16.688 -10.457,21.908 v 0 c -0.059,2.357 -0.745,4.666 -2.027,6.721 v 0 c -1.889,3.03 -4.846,5.143 -8.326,5.949 v 0 c -0.984,0.227 -1.996,0.343 -3.006,0.343 v 0 c -1.516,0 -2.979,-0.25 -4.346,-0.716 m 1.371,-4.025 c 0.952,0.324 1.953,0.489 2.975,0.489 v 0 c 0.688,0 1.376,-0.078 2.049,-0.234 v 0 c 2.37,-0.549 4.387,-1.99 5.675,-4.056 v 0 c 0.867,-1.388 1.344,-2.969 1.384,-4.576 v 0 c 0.031,-1.25 0.611,-2.424 1.586,-3.207 v 0 c 5.638,-4.534 8.87,-11.312 8.87,-18.596 v 0 c 0,-3.509 -0.754,-6.9 -2.241,-10.079 v 0 c -0.506,-1.083 -0.533,-2.331 -0.072,-3.437 v 0 c 0.46,-1.105 1.366,-1.964 2.492,-2.368 v 0 c 1.143,-0.407 2.167,-1.106 2.962,-2.023 v 0 l 20.843,-23.972 c 0.073,-0.086 0.31,-0.378 0.357,-0.432 v 0 l 21.684,-24.905 c 0.047,-0.056 0.302,-0.327 0.377,-0.411 v 0 l 2.111,-2.41 c 0.221,-0.243 0.387,-0.446 0.533,-0.645 v 0 c 3.387,-4.649 5.17,-10.159 5.158,-15.933 v 0 c -0.004,-1.893 -0.745,-3.672 -2.086,-5.007 v 0 c -1.338,-1.331 -3.114,-2.064 -5.001,-2.064 v 0 c 0,0 -30.142,0.067 -30.144,0.067 v 0 c -1.926,0 -3.61,-1.293 -4.108,-3.154 v 0 c -0.644,-2.408 -1.513,-4.702 -2.583,-6.818 v 0 c -1.065,-2.109 -3.098,-3.543 -5.44,-3.837 v 0 c -1.982,-0.249 -3.525,-1.847 -3.703,-3.838 v 0 c -1.157,-12.826 -12.162,-22.874 -25.053,-22.874 v 0 c -12.895,0 -23.9,10.05 -25.055,22.88 v 0 c -0.178,1.985 -1.711,3.579 -3.687,3.836 v 0 c -2.329,0.301 -4.353,1.734 -5.412,3.832 v 0 c -1.07,2.118 -1.939,4.413 -2.583,6.821 v 0 c -0.496,1.859 -2.182,3.153 -4.107,3.153 v 0 c -0.003,0 -30.311,-0.068 -30.311,-0.068 v 0 c -3.889,0 -7.068,3.172 -7.078,7.07 v 0 c -0.013,5.774 1.771,11.285 5.16,15.935 v 0 c 0.163,0.224 0.337,0.437 0.522,0.637 v 0 c 0.026,0.028 2.126,2.424 2.126,2.424 v 0 c 0.069,0.078 0.324,0.349 0.371,0.405 v 0 l 21.681,24.901 c 0.048,0.055 0.283,0.348 0.359,0.436 v 0 l 20.842,23.972 c 0.82,0.942 1.876,1.654 3.057,2.056 v 0 c 1.141,0.39 2.064,1.245 2.538,2.355 v 0 c 0.473,1.109 0.453,2.368 -0.056,3.462 v 0 c -1.472,3.166 -2.218,6.542 -2.218,10.033 v 0 c 0,7.254 3.215,14.015 8.822,18.552 v 0 c 0.974,0.788 1.551,1.965 1.578,3.217 v 0 c 0.034,1.617 0.512,3.211 1.384,4.61 v 0 c 1.288,2.066 3.303,3.507 5.672,4.055 v 0 c 0.674,0.156 1.365,0.235 2.052,0.235 v 0 c 1.022,0 2.023,-0.165 2.975,-0.489 v 0 c 0.445,-0.151 0.909,-0.226 1.372,-0.226 v 0 c 0.463,0 0.926,0.075 1.371,0.226"
         id="path404"
         inkscape:connector-curvature="0" />
    </clipPath>
    <linearGradient
       x1="0"
       y1="0"
       x2="1"
       y2="0"
       gradientUnits="userSpaceOnUse"
       gradientTransform="matrix(3.5,-205,-205,-3.5,252.46568,478.81836)"
       spreadMethod="pad"
       id="linearGradient416">
      <stop
         style="stop-opacity:1;stop-color:#ffffff"
         offset="0"
         id="stop412" />
      <stop
         style="stop-opacity:1;stop-color:#00adef"
         offset="1"
         id="stop414" />
    </linearGradient>
    <clipPath
       clipPathUnits="userSpaceOnUse"
       id="clipPath386">
      <path
         d="m 306.031,189.026 c -3.072,-0.198 -5.698,-0.887 -7.877,-2.071 v 0 c -5.302,-2.86 -7.952,-8.013 -7.952,-15.458 v 0 c 0,-7.742 2.909,-13.165 8.728,-16.272 v 0 c 2.367,-1.283 5.251,-2.047 8.653,-2.293 v 0 h 14.941 c 2.959,-1.381 4.438,-2.959 4.438,-4.733 v 0 c 0,-2.516 -1.529,-3.921 -4.586,-4.217 v 0 h -32.174 v -6.139 h 33.875 c 6.46,0.442 9.665,3.685 9.616,9.729 v 0 c 0,4.718 -1.697,8.034 -5.094,9.95 v 0 c -1.427,0.786 -3.148,1.253 -5.166,1.401 v 0 h -15.575 c -2.067,0.196 -3.815,0.714 -5.24,1.553 v 0 c -3.544,2.12 -5.315,5.818 -5.315,11.095 v 0 c 0,7.001 2.909,10.773 8.728,11.316 v 0 h 33.883 l 4.133,6.139 z m -78.623,0 v -59.17 h 7.027 v 52.957 h 28.327 c 7.495,-2.017 11.243,-6.418 11.243,-13.203 v 0 c 0,-6.786 -3.459,-11.26 -10.374,-13.423 v 0 h -7.856 l 17.08,-26.331 h 9.508 L 267.939,151.5 c 2.564,0.641 4.758,1.649 6.583,3.028 v 0 c 4.388,3.349 6.583,8.297 6.583,14.848 v 0 c 0,7.191 -2.786,12.608 -8.358,16.253 v 0 c -2.318,1.525 -5.079,2.657 -8.284,3.397 v 0 z m -38.46,0 c -4.784,-0.493 -8.901,-1.775 -12.352,-3.846 v 0 c -8.236,-4.932 -12.352,-13.313 -12.352,-25.147 v 0 c 0,-12.426 3.722,-21.179 11.169,-26.258 v 0 c 3.107,-2.12 6.829,-3.427 11.168,-3.919 v 0 h 33.506 l 0.073,6.212 h -31.877 c -3.305,0.295 -6.139,1.256 -8.506,2.88 v 0 c -5.671,3.987 -8.506,10.978 -8.506,20.972 v 0 c 0,9.551 3.18,16.223 9.541,20.013 v 0 c 2.663,1.625 5.844,2.584 9.542,2.88 v 0 h 25.739 l 3.402,6.213 z m 47.409,-7.84 v -51.33 h 6.88 v 29.065 l 18.564,-29.065 h 9.04 l -17.931,27.662 h 9.622 c 6.365,2.472 9.55,6.504 9.55,12.094 v 0 c 0,5.291 -3.28,9.15 -9.837,11.574 v 0 z m 6.88,-6.435 h 17.101 c 1.376,-0.147 2.53,-0.715 3.465,-1.701 v 0 c 0.933,-0.987 1.401,-2.171 1.401,-3.55 v 0 c 0.097,-3.502 -2.089,-5.425 -6.562,-5.769 v 0 h -15.405 z m 62.349,6.36 c -4.289,-1.178 -6.434,-4.494 -6.434,-9.948 v 0 c 0,-4.471 1.701,-7.542 5.104,-9.212 v 0 c 1.429,-0.738 3.13,-1.154 5.103,-1.252 v 0 H 324.3 c 2.218,-0.199 4.141,-0.743 5.769,-1.633 v 0 c 3.796,-2.177 5.67,-6.009 5.621,-11.498 v 0 c -0.05,-4.75 -1.776,-8.088 -5.178,-10.016 v 0 c -1.431,-0.792 -3.132,-1.286 -5.103,-1.484 v 0 h -35.207 v -6.212 h 34.024 c 3.697,0.048 6.852,0.666 9.467,1.849 v 0 c 6.36,2.81 9.541,8.16 9.541,16.05 v 0 c 0,7.888 -2.836,13.461 -8.506,16.715 v 0 c -2.367,1.332 -5.202,2.145 -8.505,2.441 v 0 h -17.234 c -2.022,0.439 -3.033,1.93 -3.033,4.47 v 0 c 0,2.296 1.084,3.419 3.255,3.37 v 0 h 25.517 l 4.142,6.36 z m -114.049,0 c -3.601,-0.197 -6.656,-1.01 -9.172,-2.439 v 0 c -6.114,-3.453 -9.172,-9.764 -9.172,-18.936 v 0 c 0,-9.171 2.688,-15.581 8.063,-19.23 v 0 c 2.267,-1.529 4.98,-2.441 8.135,-2.737 v 0 h 30.696 l 0.073,6.213 h -28.718 c -2.215,0.247 -4.111,0.913 -5.686,1.997 v 0 c -3.79,2.663 -5.683,7.322 -5.683,13.979 v 0 c 0,6.164 2.189,10.478 6.568,12.944 v 0 c 1.771,1.036 3.937,1.651 6.495,1.849 v 0 h 18.674 l 3.543,6.36 z"
         id="path384"
         inkscape:connector-curvature="0" />
    </clipPath>
    <linearGradient
       x1="0"
       y1="0"
       x2="1"
       y2="0"
       gradientUnits="userSpaceOnUse"
       gradientTransform="matrix(-183.01996,0.9434018,0.9434018,183.01996,347.41617,159.01747)"
       spreadMethod="pad"
       id="linearGradient396">
      <stop
         style="stop-opacity:1;stop-color:#00adef"
         offset="0"
         id="stop392" />
      <stop
         style="stop-opacity:1;stop-color:#005b85"
         offset="1"
         id="stop394" />
    </linearGradient>
    <clipPath
       clipPathUnits="userSpaceOnUse"
       id="clipPath366">
      <path
         d="m 257.475,465.355 c 60.909,-1.768 109.739,-51.694 109.739,-113.016 v 0 c 0,-19.336 -4.854,-37.542 -13.409,-53.45 v 0 l 15.578,-8.956 c 10.063,18.56 15.79,39.817 15.79,62.406 v 0 c 0,71.243 -56.879,129.207 -127.698,130.974 v 0 z M 123.119,352.339 c 0,-22.589 5.715,-43.846 15.79,-62.406 v 0 l 15.578,8.956 c -8.555,15.908 -13.41,34.114 -13.41,53.45 v 0 c 0,61.322 48.819,111.248 109.716,113.016 v 0 17.958 C 179.974,481.546 123.119,423.582 123.119,352.339 m 24.773,-0.003 c 0,-58.686 47.574,-106.26 106.26,-106.26 v 0 c 58.685,0 106.259,47.574 106.259,106.26 v 0 c 0,58.686 -47.574,106.26 -106.259,106.26 v 0 c -58.686,0 -106.26,-47.574 -106.26,-106.26 M 254.14,239.276 c -40.724,0 -76.416,21.529 -96.319,53.827 v 0 l -15.566,-8.955 c 23.002,-37.684 64.503,-62.83 111.885,-62.83 v 0 c 47.382,0 88.895,25.146 111.908,62.842 v 0 l -15.578,8.943 c -19.902,-32.298 -55.595,-53.827 -96.33,-53.827"
         id="path364"
         inkscape:connector-curvature="0" />
    </clipPath>
    <linearGradient
       x1="0"
       y1="0"
       x2="1"
       y2="0"
       gradientUnits="userSpaceOnUse"
       gradientTransform="matrix(-5.7881684,-283.62027,-283.62027,5.7881684,257.33771,508.74274)"
       spreadMethod="pad"
       id="linearGradient376">
      <stop
         style="stop-opacity:1;stop-color:#00adef"
         offset="0"
         id="stop372" />
      <stop
         style="stop-opacity:1;stop-color:#005b85"
         offset="1"
         id="stop374" />
    </linearGradient>
  </defs>
  <sodipodi:namedview
     id="base"
     pagecolor="#ffffff"
     bordercolor="#666666"
     borderopacity="1.0"
     inkscape:pageopacity="0.0"
     inkscape:pageshadow="2"
     inkscape:zoom="1.979899"
     inkscape:cx="394.93697"
     inkscape:cy="549.85054"
     inkscape:document-units="mm"
     inkscape:current-layer="layer1"
     showgrid="false"
     inkscape:window-width="3200"
     inkscape:window-height="1689"
     inkscape:window-x="0"
     inkscape:window-y="0"
     inkscape:window-maximized="1" />
  <metadata
     id="metadata6361">
    <rdf:RDF>
      <cc:Work
         rdf:about="">
        <dc:format>image/svg+xml</dc:format>
        <dc:type
           rdf:resource="http://purl.org/dc/dcmitype/StillImage" />
        <dc:title />
      </cc:Work>
    </rdf:RDF>
  </metadata>
  <g
     inkscape:label="Layer 1"
     inkscape:groupmode="layer"
     id="layer1">
    <g
       transform="matrix(0.35277777,0,0,-0.35277777,15.342941,255.91847)"
       id="g360">
      <g
         id="g362"
         clip-path="url(#clipPath366)">
        <g
           id="g368">
          <g
             id="g370">
            <path
               d="m 257.475,465.355 c 60.909,-1.768 109.739,-51.694 109.739,-113.016 v 0 c 0,-19.336 -4.854,-37.542 -13.409,-53.45 v 0 l 15.578,-8.956 c 10.063,18.56 15.79,39.817 15.79,62.406 v 0 c 0,71.243 -56.879,129.207 -127.698,130.974 v 0 z M 123.119,352.339 c 0,-22.589 5.715,-43.846 15.79,-62.406 v 0 l 15.578,8.956 c -8.555,15.908 -13.41,34.114 -13.41,53.45 v 0 c 0,61.322 48.819,111.248 109.716,113.016 v 0 17.958 C 179.974,481.546 123.119,423.582 123.119,352.339 m 24.773,-0.003 c 0,-58.686 47.574,-106.26 106.26,-106.26 v 0 c 58.685,0 106.259,47.574 106.259,106.26 v 0 c 0,58.686 -47.574,106.26 -106.259,106.26 v 0 c -58.686,0 -106.26,-47.574 -106.26,-106.26 M 254.14,239.276 c -40.724,0 -76.416,21.529 -96.319,53.827 v 0 l -15.566,-8.955 c 23.002,-37.684 64.503,-62.83 111.885,-62.83 v 0 c 47.382,0 88.895,25.146 111.908,62.842 v 0 l -15.578,8.943 c -19.902,-32.298 -55.595,-53.827 -96.33,-53.827"
               style="fill:url(#linearGradient376);stroke:none"
               id="path378"
               inkscape:connector-curvature="0" />
          </g>
        </g>
      </g>
    </g>
    <g
       transform="matrix(0.35277777,0,0,-0.35277777,15.342941,255.91847)"
       id="g380">
      <g
         id="g382"
         clip-path="url(#clipPath386)">
        <g
           id="g388">
          <g
             id="g390">
            <path
               d="m 306.031,189.026 c -3.072,-0.198 -5.698,-0.887 -7.877,-2.071 v 0 c -5.302,-2.86 -7.952,-8.013 -7.952,-15.458 v 0 c 0,-7.742 2.909,-13.165 8.728,-16.272 v 0 c 2.367,-1.283 5.251,-2.047 8.653,-2.293 v 0 h 14.941 c 2.959,-1.381 4.438,-2.959 4.438,-4.733 v 0 c 0,-2.516 -1.529,-3.921 -4.586,-4.217 v 0 h -32.174 v -6.139 h 33.875 c 6.46,0.442 9.665,3.685 9.616,9.729 v 0 c 0,4.718 -1.697,8.034 -5.094,9.95 v 0 c -1.427,0.786 -3.148,1.253 -5.166,1.401 v 0 h -15.575 c -2.067,0.196 -3.815,0.714 -5.24,1.553 v 0 c -3.544,2.12 -5.315,5.818 -5.315,11.095 v 0 c 0,7.001 2.909,10.773 8.728,11.316 v 0 h 33.883 l 4.133,6.139 z m -78.623,0 v -59.17 h 7.027 v 52.957 h 28.327 c 7.495,-2.017 11.243,-6.418 11.243,-13.203 v 0 c 0,-6.786 -3.459,-11.26 -10.374,-13.423 v 0 h -7.856 l 17.08,-26.331 h 9.508 L 267.939,151.5 c 2.564,0.641 4.758,1.649 6.583,3.028 v 0 c 4.388,3.349 6.583,8.297 6.583,14.848 v 0 c 0,7.191 -2.786,12.608 -8.358,16.253 v 0 c -2.318,1.525 -5.079,2.657 -8.284,3.397 v 0 z m -38.46,0 c -4.784,-0.493 -8.901,-1.775 -12.352,-3.846 v 0 c -8.236,-4.932 -12.352,-13.313 -12.352,-25.147 v 0 c 0,-12.426 3.722,-21.179 11.169,-26.258 v 0 c 3.107,-2.12 6.829,-3.427 11.168,-3.919 v 0 h 33.506 l 0.073,6.212 h -31.877 c -3.305,0.295 -6.139,1.256 -8.506,2.88 v 0 c -5.671,3.987 -8.506,10.978 -8.506,20.972 v 0 c 0,9.551 3.18,16.223 9.541,20.013 v 0 c 2.663,1.625 5.844,2.584 9.542,2.88 v 0 h 25.739 l 3.402,6.213 z m 47.409,-7.84 v -51.33 h 6.88 v 29.065 l 18.564,-29.065 h 9.04 l -17.931,27.662 h 9.622 c 6.365,2.472 9.55,6.504 9.55,12.094 v 0 c 0,5.291 -3.28,9.15 -9.837,11.574 v 0 z m 6.88,-6.435 h 17.101 c 1.376,-0.147 2.53,-0.715 3.465,-1.701 v 0 c 0.933,-0.987 1.401,-2.171 1.401,-3.55 v 0 c 0.097,-3.502 -2.089,-5.425 -6.562,-5.769 v 0 h -15.405 z m 62.349,6.36 c -4.289,-1.178 -6.434,-4.494 -6.434,-9.948 v 0 c 0,-4.471 1.701,-7.542 5.104,-9.212 v 0 c 1.429,-0.738 3.13,-1.154 5.103,-1.252 v 0 H 324.3 c 2.218,-0.199 4.141,-0.743 5.769,-1.633 v 0 c 3.796,-2.177 5.67,-6.009 5.621,-11.498 v 0 c -0.05,-4.75 -1.776,-8.088 -5.178,-10.016 v 0 c -1.431,-0.792 -3.132,-1.286 -5.103,-1.484 v 0 h -35.207 v -6.212 h 34.024 c 3.697,0.048 6.852,0.666 9.467,1.849 v 0 c 6.36,2.81 9.541,8.16 9.541,16.05 v 0 c 0,7.888 -2.836,13.461 -8.506,16.715 v 0 c -2.367,1.332 -5.202,2.145 -8.505,2.441 v 0 h -17.234 c -2.022,0.439 -3.033,1.93 -3.033,4.47 v 0 c 0,2.296 1.084,3.419 3.255,3.37 v 0 h 25.517 l 4.142,6.36 z m -114.049,0 c -3.601,-0.197 -6.656,-1.01 -9.172,-2.439 v 0 c -6.114,-3.453 -9.172,-9.764 -9.172,-18.936 v 0 c 0,-9.171 2.688,-15.581 8.063,-19.23 v 0 c 2.267,-1.529 4.98,-2.441 8.135,-2.737 v 0 h 30.696 l 0.073,6.213 h -28.718 c -2.215,0.247 -4.111,0.913 -5.686,1.997 v 0 c -3.79,2.663 -5.683,7.322 -5.683,13.979 v 0 c 0,6.164 2.189,10.478 6.568,12.944 v 0 c 1.771,1.036 3.937,1.651 6.495,1.849 v 0 h 18.674 l 3.543,6.36 z"
               style="fill:url(#linearGradient396);stroke:none"
               id="path398"
               inkscape:connector-curvature="0" />
          </g>
        </g>
      </g>
    </g>
    <g
       transform="matrix(0.35277777,0,0,-0.35277777,15.342941,255.91847)"
       id="g400">
      <g
         id="g402"
         clip-path="url(#clipPath406)">
        <g
           id="g408">
          <g
             id="g410">
            <path
               d="m 255.212,442.241 c -1.367,0.466 -2.83,0.716 -4.347,0.716 v 0 c -1.01,0 -2.021,-0.116 -3.01,-0.344 v 0 c -3.476,-0.805 -6.432,-2.918 -8.322,-5.948 v 0 c -1.29,-2.07 -1.977,-4.397 -2.028,-6.771 v 0 c -6.456,-5.224 -10.401,-13.164 -10.401,-21.858 v 0 c 0,-4.104 0.897,-8.13 2.616,-11.826 v 0 c -1.855,-0.633 -3.552,-1.749 -4.893,-3.291 v 0 l -20.842,-23.972 c -0.122,-0.142 -0.242,-0.285 -0.357,-0.432 v 0 l -21.68,-24.902 c -0.125,-0.129 -0.245,-0.26 -0.363,-0.394 v 0 l -2.05,-2.34 c -0.299,-0.324 -0.578,-0.664 -0.837,-1.02 v 0 c -3.924,-5.387 -5.99,-11.767 -5.975,-18.45 v 0 c 0.016,-6.252 5.089,-11.31 11.339,-11.31 v 0 c 0.008,0 30.302,0.067 30.302,0.067 v 0 c 0.72,-2.692 1.688,-5.251 2.895,-7.638 v 0 c 1.706,-3.38 4.967,-5.655 8.66,-6.133 v 0 c 1.347,-14.975 13.969,-26.751 29.289,-26.751 v 0 c 15.318,0 27.937,11.773 29.287,26.745 v 0 c 3.711,0.466 6.992,2.745 8.704,6.137 v 0 c 1.207,2.388 2.176,4.946 2.896,7.639 v 0 c 0,0 30.135,-0.067 30.144,-0.067 v 0 c 2.998,0 5.875,1.187 8,3.303 v 0 c 2.131,2.122 3.332,5.003 3.339,8.01 v 0 c 0.015,6.684 -2.052,13.063 -5.976,18.449 v 0 c -0.23,0.316 -0.495,0.639 -0.769,0.941 v 0 l -2.117,2.417 c -0.119,0.134 -0.239,0.265 -0.363,0.394 v 0 l -21.683,24.905 c -0.115,0.145 -0.234,0.289 -0.356,0.429 v 0 l -20.841,23.973 c -1.304,1.5 -2.945,2.596 -4.74,3.238 v 0 c 1.736,3.71 2.641,7.755 2.641,11.879 v 0 c 0,8.729 -3.966,16.688 -10.457,21.908 v 0 c -0.059,2.357 -0.745,4.666 -2.027,6.721 v 0 c -1.889,3.03 -4.846,5.143 -8.326,5.949 v 0 c -0.984,0.227 -1.996,0.343 -3.006,0.343 v 0 c -1.516,0 -2.979,-0.25 -4.346,-0.716 m 1.371,-4.025 c 0.952,0.324 1.953,0.489 2.975,0.489 v 0 c 0.688,0 1.376,-0.078 2.049,-0.234 v 0 c 2.37,-0.549 4.387,-1.99 5.675,-4.056 v 0 c 0.867,-1.388 1.344,-2.969 1.384,-4.576 v 0 c 0.031,-1.25 0.611,-2.424 1.586,-3.207 v 0 c 5.638,-4.534 8.87,-11.312 8.87,-18.596 v 0 c 0,-3.509 -0.754,-6.9 -2.241,-10.079 v 0 c -0.506,-1.083 -0.533,-2.331 -0.072,-3.437 v 0 c 0.46,-1.105 1.366,-1.964 2.492,-2.368 v 0 c 1.143,-0.407 2.167,-1.106 2.962,-2.023 v 0 l 20.843,-23.972 c 0.073,-0.086 0.31,-0.378 0.357,-0.432 v 0 l 21.684,-24.905 c 0.047,-0.056 0.302,-0.327 0.377,-0.411 v 0 l 2.111,-2.41 c 0.221,-0.243 0.387,-0.446 0.533,-0.645 v 0 c 3.387,-4.649 5.17,-10.159 5.158,-15.933 v 0 c -0.004,-1.893 -0.745,-3.672 -2.086,-5.007 v 0 c -1.338,-1.331 -3.114,-2.064 -5.001,-2.064 v 0 c 0,0 -30.142,0.067 -30.144,0.067 v 0 c -1.926,0 -3.61,-1.293 -4.108,-3.154 v 0 c -0.644,-2.408 -1.513,-4.702 -2.583,-6.818 v 0 c -1.065,-2.109 -3.098,-3.543 -5.44,-3.837 v 0 c -1.982,-0.249 -3.525,-1.847 -3.703,-3.838 v 0 c -1.157,-12.826 -12.162,-22.874 -25.053,-22.874 v 0 c -12.895,0 -23.9,10.05 -25.055,22.88 v 0 c -0.178,1.985 -1.711,3.579 -3.687,3.836 v 0 c -2.329,0.301 -4.353,1.734 -5.412,3.832 v 0 c -1.07,2.118 -1.939,4.413 -2.583,6.821 v 0 c -0.496,1.859 -2.182,3.153 -4.107,3.153 v 0 c -0.003,0 -30.311,-0.068 -30.311,-0.068 v 0 c -3.889,0 -7.068,3.172 -7.078,7.07 v 0 c -0.013,5.774 1.771,11.285 5.16,15.935 v 0 c 0.163,0.224 0.337,0.437 0.522,0.637 v 0 c 0.026,0.028 2.126,2.424 2.126,2.424 v 0 c 0.069,0.078 0.324,0.349 0.371,0.405 v 0 l 21.681,24.901 c 0.048,0.055 0.283,0.348 0.359,0.436 v 0 l 20.842,23.972 c 0.82,0.942 1.876,1.654 3.057,2.056 v 0 c 1.141,0.39 2.064,1.245 2.538,2.355 v 0 c 0.473,1.109 0.453,2.368 -0.056,3.462 v 0 c -1.472,3.166 -2.218,6.542 -2.218,10.033 v 0 c 0,7.254 3.215,14.015 8.822,18.552 v 0 c 0.974,0.788 1.551,1.965 1.578,3.217 v 0 c 0.034,1.617 0.512,3.211 1.384,4.61 v 0 c 1.288,2.066 3.303,3.507 5.672,4.055 v 0 c 0.674,0.156 1.365,0.235 2.052,0.235 v 0 c 1.022,0 2.023,-0.165 2.975,-0.489 v 0 c 0.445,-0.151 0.909,-0.226 1.372,-0.226 v 0 c 0.463,0 0.926,0.075 1.371,0.226"
               style="fill:url(#linearGradient416);stroke:none"
               id="path418"
               inkscape:connector-curvature="0" />
          </g>
        </g>
      </g>
    </g>
    <g
       transform="matrix(0.35277777,0,0,-0.35277777,15.342941,255.91847)"
       id="g420">
      <g
         id="g422"
         clip-path="url(#clipPath426)">
        <g
           id="g428"
           transform="translate(239.9843,356.4519)">
          <path
             d="m 0,0 v 0.021 l 5.391,11.643 v 0.043 c 0.021,0.279 0.02,0.58 0.02,0.881 C 5.4,17.36 3.456,21.677 0.31,24.809 -1.608,26.696 -3.976,28.174 -6.6,29.028 L -27.442,5.055 V 5.034 l -22.279,-25.589 -0.064,-0.065 -0.086,-0.086 -2.208,-2.52 -0.043,-0.043 c -2.401,-3.295 -3.81,-7.339 -3.8,-11.746 l 39.791,0.089 6.418,13.901 z m -2.734,-55.434 c -0.07,-0.646 -0.111,-1.301 -0.111,-1.966 0,-9.98 8.089,-18.069 18.068,-18.069 9.98,0 18.069,8.089 18.069,18.069 0,0.665 -0.041,1.32 -0.111,1.966 z m 43.664,17.953 -2.203,4.77 H -8.396 l -2.202,-4.769 c -0.866,-1.875 -2.61,-3.162 -4.612,-3.468 0.515,-2.771 1.37,-5.419 2.605,-7.865 h 55.7 c 1.233,2.442 2.087,5.084 2.603,7.849 -2.066,0.262 -3.879,1.561 -4.768,3.483 m 41.524,14.212 -0.043,0.043 -2.208,2.52 -0.086,0.086 -0.064,0.065 L 57.774,5.033 V 5.055 L 36.932,29.028 c -2.625,-0.854 -4.993,-2.332 -6.91,-4.22 -3.146,-3.131 -5.09,-7.448 -5.101,-12.22 0,-0.301 -10e-4,-0.602 0.02,-0.882 V 11.663 L 30.332,0.021 V 0 l 9.713,-21.025 6.418,-13.902 39.792,-0.088 c 0.009,4.406 -1.4,8.451 -3.801,11.746 M 15.166,19.933 c 2.142,0 4.085,0.772 5.639,2.011 0.843,1.916 1.935,3.726 3.283,5.374 0.106,0.555 0.173,1.124 0.173,1.71 0,5.023 -4.072,9.094 -9.095,9.094 -5.022,0 -9.094,-4.071 -9.094,-9.094 0,-0.588 0.066,-1.16 0.173,-1.717 1.346,-1.649 2.437,-3.453 3.278,-5.364 1.555,-1.241 3.499,-2.014 5.643,-2.014 m 14.229,22.61 c 1.674,2.611 2.656,5.709 2.656,9.04 0,7.496 -4.912,13.84 -11.691,16.001 l 1.181,5.104 c 0.251,1.083 -0.43,2.175 -1.514,2.426 -1.084,0.251 -2.176,-0.43 -2.426,-1.514 l -1.222,-5.277 c -0.373,0.025 -0.745,0.057 -1.124,0.057 -0.398,0 -0.787,-0.033 -1.178,-0.06 l -1.223,5.28 c -0.25,1.084 -1.342,1.765 -2.426,1.514 C 9.344,74.863 8.663,73.771 8.914,72.688 L 10.1,67.566 C 3.347,65.389 -1.541,59.06 -1.541,51.583 c 0,-3.331 0.982,-6.429 2.656,-9.04 z M -5.338,-26.09 h 41.007 l -7.397,16.016 H 2.059 Z M 24.8,-2.556 25.214,-3.453 H 5.117 l 0.414,0.897 c 0.045,0.098 0.088,0.197 0.128,0.298 l 5.262,11.361 c 0.299,0.646 0.482,1.366 0.543,2.084 0.004,0.053 0.007,0.106 0.01,0.16 0.027,0.402 0.032,0.832 0.03,1.255 -0.002,1.033 -0.096,2.05 -0.229,3.058 1.258,0.402 2.588,0.643 3.981,0.643 1.328,0 2.6,-0.221 3.808,-0.59 -0.137,-1.023 -0.233,-2.056 -0.235,-3.105 -0.003,-0.385 0.002,-0.771 0.021,-1.138 0.026,-0.815 0.212,-1.589 0.526,-2.291 0.012,-0.025 0.023,-0.05 0.035,-0.075 l 5.261,-11.363 c 0.04,-0.1 0.083,-0.199 0.128,-0.297"
             style="fill:#ffffff;fill-opacity:1;fill-rule:nonzero;stroke:none"
             id="path430"
             inkscape:connector-curvature="0" />
        </g>
      </g>
    </g>
  </g>
</svg>
