<?xml version="1.0" encoding="UTF-8" standalone="no"?>
<!-- Created with Inkscape (http://www.inkscape.org/) -->

<svg
   version="1.1"
   id="svg1"
   width="2268"
   height="2535"
   viewBox="0 0 2268 2535"
   sodipodi:docname="JuiceShop_Logo_Monochrome.svg"
   inkscape:version="1.4.2 (f4327f4, 2025-05-13)"
   xmlns:inkscape="http://www.inkscape.org/namespaces/inkscape"
   xmlns:sodipodi="http://sodipodi.sourceforge.net/DTD/sodipodi-0.dtd"
   xmlns:xlink="http://www.w3.org/1999/xlink"
   xmlns="http://www.w3.org/2000/svg"
   xmlns:svg="http://www.w3.org/2000/svg">
  <defs
     id="defs1" />
  <sodipodi:namedview
     id="namedview1"
     pagecolor="#ffffff"
     bordercolor="#000000"
     borderopacity="0.25"
     inkscape:showpageshadow="2"
     inkscape:pageopacity="0.0"
     inkscape:pagecheckerboard="0"
     inkscape:deskcolor="#d1d1d1"
     inkscape:zoom="0.32552016"
     inkscape:cx="585.2172"
     inkscape:cy="1645.0594"
     inkscape:window-width="2560"
     inkscape:window-height="1369"
     inkscape:window-x="-8"
     inkscape:window-y="-8"
     inkscape:window-maximized="1"
     inkscape:current-layer="g1" />
  <g
     inkscape:groupmode="layer"
     inkscape:label="Image"
     id="g1">
    <path
       style="fill:#000000;fill-opacity:1;stroke-width:2.17224"
       d="m 1372.8535,2026.726 c -13.9238,-4.6318 -142.0702,-44.6585 -268.4524,-83.8514 l -51.2287,-15.8867 1.8341,-9.8822 c 3.7687,-20.3063 5.6421,-23.5371 14.5173,-25.0366 9.8381,-1.6621 27.2924,-11.3316 35.8959,-19.8858 16.314,-16.2206 24.0926,-37.0145 22.5922,-60.3941 -1.8603,-28.9868 -17.7199,-52.4927 -44.1842,-65.4865 -11.6224,-5.7065 -14.9807,-6.3263 -33.5514,-6.1918 -16.8942,0.1223 -22.519,1.0575 -31.0196,5.1574 -14.1692,6.8339 -29.89225,21.4402 -36.73189,34.1228 -9.82406,18.2166 -23.33939,79.8477 -23.43936,106.8857 -0.0311,8.3983 -0.79865,11.3495 -2.75833,10.605 -1.49341,-0.5674 -18.14489,-5.7686 -37.00328,-11.5583 -28.35211,-8.7044 -34.4284,-11.2924 -35.0991,-14.9496 -0.44612,-2.4325 -3.86327,-41.0792 -7.59366,-85.8816 -6.9043,-82.9213 -13.1147,-154.1682 -23.10046,-265.0129 -3.06748,-34.0498 -6.46188,-73.6388 -7.54311,-87.9755 -1.08123,-14.3368 -4.38491,-52.4596 -7.34151,-84.7173 -2.95661,-32.2577 -8.39032,-93.3518 -12.07492,-135.7647 -3.68461,-42.413 -9.56873,-109.3722 -13.07583,-148.7982 -3.50709,-39.4261 -9.34764,-105.89658 -12.97899,-147.71213 -3.63134,-41.81555 -9.00814,-103.39846 -11.94844,-136.8509 -2.9403,-33.45244 -7.36929,-84.28278 -9.84221,-112.9563 -2.47292,-28.67352 -4.97137,-54.57744 -5.55211,-57.56427 -1.03488,-5.3225 -0.82103,-5.41601 10.74494,-4.69824 11.03606,0.68488 12.27149,0.24527 19.06331,-6.78361 3.99435,-4.13379 33.55194,-30.85601 65.68352,-59.38274 55.1311,-48.94592 82.81617,-73.61714 223.67923,-199.32907 37.1373,-33.14288 58.8902,-51.13075 60.2221,-49.79885 1.7558,1.75574 101.186,146.07982 216.9465,314.90012 l 29.2432,42.64708 37.01,-1.46406 c 20.3555,-0.80525 83.4416,-3.81278 140.1913,-6.68339 56.7497,-2.87061 117.8438,-5.81021 135.7648,-6.53244 17.9209,-0.72222 79.0151,-3.64759 135.7647,-6.5008 169.7781,-8.53598 167.2612,-8.47646 167.2685,-3.95628 0.01,3.63967 -3.1667,40.59361 -16.2773,189.60028 -5.981,67.97566 -14.6883,167.89183 -24.9878,286.7352 -3.6757,42.4129 -9.069,103.5071 -11.985,135.7648 -2.916,32.2577 -5.8836,66.4704 -6.5947,76.0283 -0.711,9.5578 -3.6623,43.7705 -6.5583,76.0283 -2.896,32.2577 -5.7584,65.0041 -6.3609,72.7699 -0.6025,7.7657 -3.499,41.4897 -6.4365,74.9421 -2.9376,33.4525 -8.3513,95.5241 -12.0306,137.9371 -11.9365,137.6014 -17.3299,198.5403 -18.5704,209.8239 -1.1979,10.8953 -1.3558,11.0984 -10.3346,13.2974 -5.015,1.2283 -55.061,15.1634 -111.2133,30.967 -56.1523,15.8036 -110.404,31.0277 -120.5592,33.8313 -10.1552,2.8036 -31.1716,8.6596 -46.703,13.0135 -48.8456,13.6926 -66.9101,18.7285 -81.4589,22.7087 -7.7658,2.1245 -42.2935,11.796 -76.7282,21.4922 -34.4348,9.6962 -64.2488,17.5523 -66.2532,17.458 -2.0045,-0.094 -10.4871,-2.4477 -18.8502,-5.2298 z m 42.6266,-59.5338 c 8.8131,-2.2618 53.6578,-14.0988 99.6549,-26.3043 45.9971,-12.2055 88.5186,-23.4297 94.4922,-24.9426 5.9737,-1.513 48.4952,-12.7558 94.4923,-24.9842 45.9971,-12.2283 87.3331,-23.1155 91.8576,-24.1937 13.5495,-3.229 53.6809,-14.6785 55.5947,-15.8613 0.9787,-0.6049 2.368,-9.686 3.0874,-20.1803 0.7193,-10.4943 3.7752,-44.9845 6.7908,-76.6448 7.0935,-74.4732 16.058,-170.7156 36.0151,-386.6581 3.6989,-40.0235 9.1212,-98.1851 12.0495,-129.2481 2.9283,-31.063 5.8099,-62.3432 6.4035,-69.5116 0.5937,-7.1683 3.4976,-38.4485 6.4532,-69.5115 5.1735,-54.3733 7.0778,-74.9302 16.4002,-177.0373 7.4884,-82.01927 15.237,-164.89778 19.6029,-209.6717 2.3327,-23.92258 4.2413,-44.8102 4.2413,-46.41696 0,-2.32112 -3.6821,-2.64109 -17.921,-1.55738 -9.8565,0.75016 -48.2236,2.83266 -85.2603,4.62775 -37.0366,1.79509 -101.552,5.17559 -143.3676,7.51222 -41.8155,2.33664 -106.8197,5.8257 -144.4537,7.75348 -107.6436,5.51396 -162.9275,8.95348 -164.1892,10.21518 -1.2702,1.27015 -3.8653,284.4891 -7.29,795.57721 -1.2088,180.4043 -2.8158,362.4649 -3.5711,404.5791 -0.8894,49.6001 -0.6217,76.5713 0.7602,76.5713 1.1733,0 9.344,-1.8506 18.1571,-4.1124 z m -67.471,-466.1768 c -1.3147,-44.205 -3.9153,-199.6242 -5.7792,-345.376 -1.8639,-145.7518 -3.5562,-265.1345 -3.7606,-265.29494 -0.2044,-0.16042 -21.8768,-1.87883 -48.1608,-3.81868 -26.2841,-1.93985 -54.3874,-4.01912 -62.4518,-4.62061 l -14.6626,-1.09359 v 12.9358 c 0,7.11468 1.4434,46.95489 3.2074,88.5338 2.6598,62.68732 7.6538,426.62822 7.6538,557.76702 0,34.3417 -0.1878,35.9094 -4.3016,35.9094 -2.3658,0 -17.7615,-2.9127 -34.2127,-6.4727 -16.4511,-3.5599 -46.5288,-9.9414 -66.8392,-14.181 -20.3104,-4.2397 -45.7256,-9.595 -56.4781,-11.9008 -10.7526,-2.3057 -31.9935,-6.8596 -47.2021,-10.1196 -15.20848,-3.2601 -28.33969,-5.2396 -29.18041,-4.3989 -1.74615,1.7462 7.86032,125.5422 9.92588,127.912 1.24469,1.428 24.22033,6.7493 115.33193,26.7116 101.1014,22.1511 147.329,32.3172 172.6928,37.9774 15.5315,3.466 36.5479,8.0944 46.7031,10.2852 l 18.464,3.9833 0.7202,-77.183 c 0.3961,-42.4506 -0.3554,-113.3507 -1.67,-157.5557 z"
       id="path2" />
    <path
       style="fill:#000000;fill-opacity:1;stroke-width:2.17224"
       d="m 1368.0716,595.11371 c -17.6804,-25.73018 -37.5224,-54.51434 -44.0935,-63.96476 -11.8874,-17.0965 -163.3274,-237.93911 -197.5519,-288.08681 l -17.9457,-26.29518 2.3953,-47.8393 c 1.3175,-26.31161 2.4104,-51.13526 2.4287,-55.16368 0.062,-13.71144 -0.5679,-13.6086 45.8027,-7.47564 23.1768,3.06534 46.5384,6.03981 51.9147,6.60991 5.3762,0.57011 29.3251,3.49116 53.2197,6.49122 23.8946,3.00007 71.7925,8.90366 106.4396,13.1191 190.9025,23.22664 360.2324,44.45192 360.8569,45.23291 0.168,0.21005 2.6207,18.35004 5.4505,40.31109 l 5.1451,39.92918 19.4035,25.23792 c 10.6719,13.88085 26.1718,34.03547 34.4442,44.78804 8.2724,10.75257 23.2377,30.3027 33.2562,43.44473 10.0185,13.14203 26.0974,34.15842 35.7308,46.70309 9.6335,12.54466 27.2197,35.51606 39.0805,51.04755 48.3707,63.3404 80.2384,104.92392 100.0422,130.54329 l 10.2365,13.2425 -58.9825,2.64216 c -32.4405,1.45318 -97.5941,4.53865 -144.786,6.8566 -47.1918,2.31797 -108.286,5.24806 -135.7648,6.51134 -27.4787,1.26329 -97.8592,4.6871 -156.401,7.60848 -58.5418,2.92137 -109.0802,5.30638 -112.3076,5.30001 -5.1951,-0.0103 -9.5538,-5.37563 -38.0141,-46.79375 z m 307.1472,-68.01572 c 6.7055,-3.46713 64.4953,-65.26457 77.7761,-83.16975 5.9138,-7.97304 6.5152,-10.32524 6.5011,-25.42518 -0.014,-15.10984 -0.8482,-18.3365 -9.0742,-35.10332 -10.8909,-22.1986 -27.7643,-43.1145 -49.0351,-60.78261 -17.0393,-14.15331 -46.1773,-30.20235 -63.5204,-34.98655 -16.0681,-4.43251 -37.4252,-3.818 -47.0217,1.35296 -9.7522,5.25487 -79.387,81.42784 -83.5526,91.39753 -6.5866,15.7639 -1.0671,41.17894 14.6265,67.34898 9.5921,15.99559 38.4603,45.54107 55.9465,57.25918 37.6295,25.21675 74.9509,33.69234 97.3538,22.10876 z"
       id="path3" />
    <path
       style="fill:#000000;fill-opacity:1;stroke-width:2.17224"
       d="m 782.5482,599.06753 c -3.28551,-0.49773 -5.97365,-1.35011 -5.97365,-1.89423 0,-0.54411 17.35074,-22.1059 38.5572,-47.91513 21.20646,-25.80921 47.84351,-58.34803 59.19344,-72.30848 11.34994,-13.96044 26.94992,-33.14459 34.66664,-42.63144 7.71671,-9.48688 27.3019,-33.3777 43.52264,-53.09074 16.22075,-19.71305 45.05048,-54.90328 64.06603,-78.20052 19.0156,-23.29723 42.0511,-51.43372 51.19,-62.52553 l 16.6161,-20.16691 1.3976,-21.10558 c 0.7687,-11.60807 1.4027,-38.45632 1.4089,-59.66277 l 0.011,-38.5572 h 12.1352 12.1352 l -1.5211,34.21272 c -0.8367,18.817 -2.2147,44.9653 -3.0624,58.10733 l -1.5413,23.8946 19.7093,28.84162 c 10.8401,15.86289 20.6868,30.32365 21.8816,32.13502 2.6143,3.96369 2.0169,4.54345 -77.0725,74.78814 -31.6113,28.07616 -72.65588,64.74607 -91.21027,81.48867 -18.55439,16.74263 -55.68017,49.97784 -82.50174,73.85604 -26.82157,23.87823 -58.01632,51.72374 -69.32167,61.87894 -31.87416,28.63147 -33.82468,30.25044 -36.14063,29.99757 -1.19473,-0.13047 -4.86038,-0.64442 -8.14589,-1.14212 z"
       id="path4" />
    <path
       style="fill:#000000;fill-opacity:1;stroke-width:2.17224"
       d="m 1691.0861,450.98726 c -32.5075,-10.50991 -70.0027,-37.98454 -91.6964,-67.19056 -4.7187,-6.35269 -12.1277,-19.02216 -16.4646,-28.15437 -6.6938,-14.09522 -7.8979,-18.91432 -7.9694,-31.89438 -0.1505,-27.32971 12.2588,-37.24979 44.3108,-35.42226 20.3358,1.1595 38.7179,8.10911 63.1307,23.86746 46.5004,30.01593 81.6723,85.48704 73.8935,116.5409 -2.7178,10.84958 -8.5461,18.45645 -17.8506,23.29754 -8.1002,4.21457 -32.7709,3.67049 -47.354,-1.04433 z"
       id="path5" />
    <path
       style="fill:#000000;fill-opacity:1;stroke-width:2.17224"
       d="m 1621.4127,523.80624 c -20.3004,-7.16659 -34.3529,-15.2954 -54.7052,-31.64463 -39.7998,-31.97171 -64.7252,-76.75555 -58.0973,-104.38401 2.1431,-8.93337 6.8464,-15.25998 32.2132,-43.3314 l 29.7036,-32.87072 1.4108,15.32387 c 5.3953,58.6033 84.8945,130.41542 144.9331,130.91907 6.7262,0.0564 14.6384,-0.66824 17.5827,-1.61038 4.4946,-1.43815 3.6599,0.16382 -5.2024,9.98552 -5.8056,6.43416 -18.3989,20.49603 -27.9849,31.2486 -24.606,27.6002 -30.8387,31.50898 -50.1504,31.45162 -10.4845,-0.0312 -19.994,-1.65994 -29.7032,-5.08754 z"
       id="path6" />
    <path
       style="fill:#000000;fill-opacity:1;stroke-width:2.17224"
       d="m 1399.2895,1875.2272 c 0.4459,-51.6963 2.7913,-337.3924 5.2122,-634.8802 2.4208,-297.48775 4.7534,-541.95399 5.1836,-543.25827 0.5008,-1.51879 14.7171,-2.91147 39.5394,-3.87345 21.3165,-0.82611 71.9925,-3.40478 112.6133,-5.73037 40.6209,-2.3256 94.8725,-5.24456 120.5592,-6.48659 25.6867,-1.24203 90.6908,-4.65848 144.4537,-7.59211 147.8143,-8.06566 133.8869,-7.69023 132.7482,-3.57839 -0.5431,1.96102 -1.6081,12.36305 -2.3666,23.11562 -0.7586,10.75258 -4.2238,49.85283 -7.7005,86.88946 -3.4767,37.03664 -9.315,99.59705 -12.974,139.02314 -3.6589,39.42609 -9.5251,102.47526 -13.0358,140.10926 -8.9242,95.664 -17.2585,185.7064 -18.4976,199.8458 -0.5759,6.571 -3.4755,37.8512 -6.4437,69.5115 -2.9682,31.6604 -8.3668,89.822 -11.9969,129.2481 -3.6301,39.4261 -9.5233,102.964 -13.096,141.1954 -3.5727,38.2313 -9.3693,100.303 -12.8813,137.937 -3.512,37.634 -7.048,77.4513 -7.8577,88.4828 -0.8097,11.0315 -2.5692,21.3978 -3.91,23.0362 -1.3409,1.6383 -22.4769,8.1577 -46.9688,14.4875 -53.8522,13.9177 -68.8789,17.8699 -191.1568,50.2767 -56.4319,14.9559 -65.7225,17.4088 -109.698,28.9624 -45.7562,12.0216 -95.7226,25.2598 -99.0574,26.2445 -3.1615,0.9336 -3.4051,-7.5512 -2.6685,-92.966 z m 92.6082,-144.0742 c 8.5989,-1.8577 28.342,-6.2108 43.8735,-9.6733 15.5315,-3.4626 44.3679,-9.7824 64.081,-14.0442 19.713,-4.2617 44.1507,-9.6489 54.3059,-11.9715 10.1552,-2.3226 34.1041,-7.6246 53.2198,-11.7822 68.9358,-14.9934 117.3101,-25.7164 117.785,-26.1093 0.2664,-0.2203 1.47,-14.0306 2.6747,-30.6896 1.2047,-16.659 4.6486,-60.5918 7.6531,-97.6284 20.3142,-250.4112 23.7667,-296.3253 22.3859,-297.7061 -0.6001,-0.6001 -18.579,1.9203 -39.953,5.6009 -139.1945,23.969 -187.7622,32.5179 -197.4195,34.7496 -4.7876,1.1064 -11.3928,2.0355 -14.6783,2.0647 l -5.9736,0.053 v -54.849 c 0,-30.1669 0.6472,-80.472 1.4327,-111.789 l 1.4283,-56.9401 8.8854,-1.1749 c 22.3362,-2.9534 191.1929,-26.5492 232.6258,-32.5067 l 32.5835,-4.6851 1.5734,-19.45498 c 0.8653,-10.70024 3.5579,-43.40387 5.9835,-72.67476 5.8072,-70.07841 6.3196,-63.50735 -4.8416,-62.08244 -5.0776,0.64825 -40.5122,3.67198 -78.7435,6.71941 -38.2314,3.04743 -104.7018,8.39534 -147.7121,11.88425 -43.0103,3.4889 -99.2169,7.97592 -124.9036,9.97116 -25.6867,1.99522 -46.8673,3.75378 -47.068,3.9079 -0.3523,0.27055 -4.0813,300.68496 -5.9285,477.61366 l -0.9013,86.3366 4.6834,-1.0564 c 2.576,-0.581 13.4811,-2.9538 24.2337,-5.2728 36.977,-7.975 158.6092,-35.0454 186.5989,-41.5295 15.4141,-3.5708 28.2621,-6.2334 28.551,-5.9169 0.2889,0.3165 0.8903,27.6584 1.3365,60.7598 l 0.8112,60.1843 -10.8982,2.5261 c -5.994,1.3894 -32.892,8.1559 -59.7735,15.0368 -26.8814,6.8809 -70.8692,18.0847 -97.7506,24.8973 -26.8814,6.8126 -56.451,14.3699 -65.7102,16.7938 l -16.8348,4.4073 v 74.7042 c 0,66.0802 0.3893,74.7041 3.3726,74.7041 1.8549,0 10.4081,-1.52 19.0071,-3.3778 z"
       id="path7" />
    <path
       style="fill:#000000;fill-opacity:1;stroke-width:2.17224"
       d="m 1337.0116,2434.0382 c -37.0651,-9.9062 -52.4872,-15.3302 -121.4658,-42.7201 -67.7639,-26.9075 -110.4707,-40.2825 -157.6666,-49.3782 -48.9582,-9.4354 -76.48054,-10.9953 -192.24295,-10.8955 -126.09529,0.1086 -179.24242,3.1231 -359.50514,20.3911 -169.75798,16.2617 -237.30469,20.731 -283.47687,18.7567 -63.38373,-2.7103 -99.80689,-12.7141 -119.94909,-32.9444 -12.040083,-12.0928 -15.463482,-23.1165 -14.289251,-46.0129 1.347483,-26.2747 9.321374,-43.0358 30.633411,-64.3915 19.61938,-19.6596 41.82456,-34.6369 87.31316,-58.8923 125.80727,-67.083 147.86918,-83.2404 205.85438,-150.7602 36.84745,-42.9064 98.33085,-105.5108 123.64218,-125.8965 71.68793,-57.7373 148.79872,-93.41 253.74894,-117.3886 27.41825,-6.2644 80.67252,-15.9721 81.64038,-14.8822 0.23832,0.2684 2.8952,26.7113 5.90418,58.762 3.00901,32.0507 5.80318,58.4992 6.20932,58.7746 1.85665,1.2586 73.05572,23.0606 75.30937,23.0606 1.58433,0 2.54826,-3.8909 2.55625,-10.3181 0.0305,-24.5923 12.66147,-84.9025 21.34705,-101.9276 7.04964,-13.8184 19.84448,-23.7996 37.30858,-29.1042 36.8258,-11.1855 68.8494,2.4021 83.7113,35.5187 5.4093,12.0537 5.7988,14.7735 4.8607,33.9437 -0.8219,16.7953 -2.1662,23.2551 -6.9267,33.2842 -6.93,14.5995 -18.1766,24.7677 -31.3645,28.3569 -6.3523,1.7288 -10.3493,4.3561 -12.2262,8.0367 -3.9392,7.7245 -8.107,28.7101 -6.09,30.6644 0.9279,0.899 30.5234,10.6096 65.768,21.579 35.2445,10.9695 105.8828,33.0252 156.9739,49.0126 51.0911,15.9875 97.3418,30.1884 102.7792,31.5576 5.4375,1.3691 9.0897,3.2589 8.1161,4.1995 -5.6417,5.4501 -85.5211,15.1235 -160.0414,19.381 -50.229,2.8697 -192.1421,2.8474 -238.16201,-0.037 -57.99587,-3.6355 -118.23021,-10.5022 -153.14267,-17.4583 -17.92095,-3.5706 -42.35861,-7.073 -54.30592,-7.7831 -75.88312,-4.51 -166.88017,33.912 -253.06555,106.8528 -51.6288,43.6947 -99.71313,105.4629 -99.87517,128.2976 -0.13229,18.6433 21.88721,19.5542 100.96129,4.1764 105.17413,-20.4536 159.54528,-27.7039 236.41732,-31.526 115.83777,-5.7594 242.75801,12.2344 339.22531,48.0929 47.702,17.7317 93.5526,44.2586 152.0566,87.9729 47.9651,35.8396 70.694,50.0115 97.6318,60.8755 21.5332,8.6843 14.6637,9.0112 -16.1729,0.7697 z M 405.60078,2319.6358 c 10.96973,-5.5515 13.7218,-18.0922 5.82944,-26.5636 -15.5101,-16.6482 -54.09732,-8.7542 -54.09732,11.067 0,16.5276 28.28596,25.6089 48.26788,15.4966 z m 480.23929,-298.3941 c 46.14032,-14.2513 31.00995,-46.7136 -23.86372,-51.1997 -48.32068,-3.9504 -87.40949,20.6814 -64.47178,40.6268 16.72896,14.5467 59.06446,19.6138 88.3355,10.5729 z m 68.85787,-66.0433 c 9.54031,-3.4412 10.66775,-8.3148 2.79999,-12.1034 -8.77077,-4.2236 -45.10974,-5.3005 -57.1059,-1.6923 -12.52249,3.7664 -13.51287,10.1633 -2.17224,14.0306 9.98806,3.4061 46.80842,3.2529 56.47815,-0.2349 z m 41.02473,-81.7384 c 5.97913,-32.9168 8.84483,-38.5624 29.49723,-58.1116 19.681,-18.6297 23.813,-24.5078 21.7645,-30.962 -1.7163,-5.4074 -11.8693,-10.7553 -20.4192,-10.7553 -20.3667,0 -48.0834,51.4002 -47.91954,88.8661 0.0896,20.4918 6.31017,40.3182 11.13584,35.4925 0.99838,-0.9984 3.6719,-12.0367 5.94117,-24.5297 z"
       id="path8" />
    <path
       style="fill:#000000;fill-opacity:1;stroke-width:2.17224"
       d="m 1404.3509,2445.4837 c -48.1168,-8.4096 -78.2416,-23.7509 -149.3905,-76.0787 -51.2996,-37.7292 -73.1197,-51.3841 -112.364,-70.3167 -57.7092,-27.8405 -126.6085,-46.4882 -220.482,-59.6737 -33.80129,-4.7477 -156.63012,-6.7348 -198.53621,-3.2118 -58.45864,4.9145 -108.0564,12.5491 -219.61932,33.8061 -34.74702,6.6206 -65.74171,8.1472 -71.34009,3.5137 -5.4261,-4.491 -4.35482,-15.6328 2.79051,-29.0228 38.61465,-72.3623 143.81062,-160.0924 232.55343,-193.9422 33.49239,-12.7753 60.41277,-18.5771 92.32006,-19.8967 24.70241,-1.0217 31.63971,-0.4712 55.39203,4.395 81.54263,16.7061 162.8141,23.1632 290.77759,23.1025 41.3843,-0.02 100.286,-1.4424 130.8927,-3.1616 88.5346,-4.9733 119.876,-9.5418 178.9531,-26.085 22.6999,-6.3566 61.3114,-17.1278 85.8033,-23.936 24.492,-6.8082 54.306,-15.1499 66.2533,-18.5371 11.9473,-3.3872 43.2275,-12.1345 69.5115,-19.4383 26.2841,-7.3039 56.098,-15.6263 66.2532,-18.4943 27.2842,-7.7054 96.5354,-27.1213 151.7183,-42.5371 40.1378,-11.2129 48.8512,-14.3449 50.3524,-18.0996 0.9984,-2.4972 3.4614,-24.0905 5.4733,-47.9851 2.0119,-23.8946 3.8254,-43.6421 4.0301,-43.8833 0.8884,-1.0471 41.5016,12.6946 65.3861,22.1238 110.566,43.6498 174.3107,106.2662 191.322,187.9356 5.1502,24.7255 5.1132,66.5188 -0.081,91.2339 -7.8176,37.1993 -28.8385,69.4971 -58.2164,89.4473 -31.3229,21.2709 -65.4347,33.4053 -164.4089,58.484 -109.0537,27.6326 -156.7607,42.5299 -212.6641,66.4077 -59.9698,25.6147 -91.9769,45.4558 -142.6099,88.4039 -31.1967,26.4617 -58.6944,38.2605 -104.2674,44.7395 -14.8228,2.1072 -74.9563,2.6027 -85.8033,0.707 z m 40.1559,-36.5755 c 19.0194,-9.319 18.7807,-25.0053 -0.6739,-44.2815 -32.7966,-32.496 -102.0314,-50.645 -132.9763,-34.8581 -9.681,4.9389 -12.9453,9.8485 -12.9453,19.4702 0,9.8124 4.8939,17.8286 17.7504,29.0751 32.8034,28.6957 100.1045,44.6763 128.8451,30.5943 z m 98.1241,-54.3144 c 5.486,-14.2962 -70.3636,-44.6572 -91.3992,-36.585 -5.6434,2.1655 -3.9141,8.9569 3.7737,14.8206 9.0567,6.908 32.9462,17.8165 47.7551,21.8062 16.0791,4.3319 38.201,4.3087 39.8704,-0.042 z m 425.637,-173.9191 c 16.4738,-7.8173 23.2136,-29.9333 13.4842,-44.247 -14.2873,-21.0192 -48.2943,-23.6957 -65.5834,-5.1615 -27.6902,29.6842 12.7817,68.0659 52.0992,49.4085 z m 104.3335,-60.1673 c 29.697,-15.0486 47.8484,-49.9698 46.0058,-88.5094 -0.7749,-16.2089 -1.979,-21.1275 -8.1463,-33.2782 -4.8541,-9.5633 -10.5064,-16.8052 -17.1661,-21.9937 -11.5051,-8.9635 -15.6222,-10.3044 -28.7582,-9.3658 -8.5465,0.6106 -10.0045,1.5209 -13.2765,8.2888 -2.2298,4.6122 -4.6274,18.2836 -6.0953,34.7558 -2.7083,30.3924 -4.3708,37.1091 -17.1279,69.1992 -9.8991,24.9011 -11.0677,34.6443 -4.832,40.2875 10.1416,9.178 31.9629,9.45 49.3965,0.6158 z"
       id="path9" />
    <path
       style="fill:none;fill-opacity:1;stroke-width:2.17224"
       d="m 983.11702,1884.3082 c -5.12422,-23.8934 -1.53227,-48.3598 10.75336,-73.246 11.67892,-23.6572 22.58342,-35.2589 33.14002,-35.2589 10.3019,0 20.1168,8.0175 17.9958,14.7002 -0.8153,2.5687 -8.8216,11.239 -17.7918,19.2673 -21.4525,19.1999 -26.1473,27.7043 -32.50676,58.8839 -2.86455,14.0445 -5.21854,25.7799 -5.23109,26.0786 -0.0125,0.2987 -0.91933,0.543 -2.01506,0.543 -1.09573,0 -3.05074,-4.9356 -4.34447,-10.9681 z"
       id="path10" />
    <path
       style="fill:none;fill-opacity:1;stroke-width:2.17224"
       d="m 898.76285,1953.7807 c -9.23176,-2.812 -8.92447,-5.8132 1.02064,-9.9686 9.80103,-4.0951 48.67728,-3.2797 56.79705,1.1913 4.77264,2.6279 4.88477,3.0869 1.56506,6.4066 -2.82911,2.8291 -8.66603,3.6746 -27.94944,4.0485 -13.40544,0.2599 -27.55043,-0.4951 -31.43331,-1.6778 z"
       id="path11" />
    <path
       style="fill:none;fill-opacity:1;stroke-width:2.17224"
       d="m 823.07541,2020.383 c -6.08488,-1.4772 -14.70931,-4.9391 -19.1654,-7.6931 -21.65773,-13.3852 -10.19175,-30.9105 25.12,-38.3949 37.89283,-8.0314 84.05626,5.7411 81.83149,24.4138 -0.97661,8.1969 -13.35146,17.368 -28.84681,21.3786 -15.2445,3.9456 -43.3239,4.0865 -58.93928,0.2956 z"
       id="path12" />
    <path
       style="fill:none;fill-opacity:1;stroke-width:2.17224"
       d="m 377.28418,2321.1051 c -8.71716,-2.1207 -17.77904,-10.1726 -17.77904,-15.7975 0,-11.3618 11.20496,-19.0287 27.80997,-19.0287 22.49683,0 34.18918,17.035 19.92852,29.0345 -3.73963,3.1467 -8.43496,5.7347 -10.43407,5.751 -1.99912,0.016 -5.58977,0.4263 -7.97923,0.9112 -2.38946,0.4849 -7.58523,0.093 -11.54615,-0.8705 z"
       id="path13" />
    <path
       style="fill:none;fill-opacity:1;stroke-width:2.17224"
       d="m 1386.973,2409.2171 c -26.1783,-4.8853 -58.7134,-21.0509 -74.8558,-37.1933 -18.0999,-18.0999 -17.18,-33.947 2.4077,-41.4812 38.3252,-14.7414 120.3573,13.4888 137.8141,47.4268 5.4831,10.6596 5.2301,15.2992 -1.2547,23.0059 -9.2106,10.9461 -33.1376,14.0221 -64.1113,8.2418 z"
       id="path14" />
    <path
       style="fill:none;fill-opacity:1;stroke-width:2.17224"
       d="m 1494.4987,2349.557 c -29.3447,-8.9865 -46.6638,-19.8308 -43.7593,-27.3996 1.3139,-3.424 3.3401,-3.7555 16.1144,-2.6362 30.7534,2.6947 78.8939,24.9843 73.3465,33.9602 -2.5891,4.1891 -25.6834,2.206 -45.7016,-3.9244 z"
       id="path15" />
    <path
       style="fill:#000000;fill-opacity:1;stroke-width:0.543059"
       d="m 1094.5357,1877.1504 c 0,-0.2621 0.3922,-0.8021 0.8717,-1.2 1.9447,-1.614 7.8172,-11.142 7.8172,-12.6833 0,-0.4652 0.2444,-0.8458 0.5431,-0.8458 0.2987,0 0.543,-0.3699 0.543,-0.822 0,-0.7975 0.227,-1.3741 1.5444,-3.9224 0.3453,-0.668 0.6279,-1.7066 0.6279,-2.308 0,-0.6014 0.2176,-1.0935 0.4836,-1.0935 0.266,0 0.6098,-0.7942 0.7641,-1.765 0.1542,-0.9707 0.5417,-2.7424 0.861,-3.9371 0.3194,-1.1948 0.5865,-3.0743 0.5936,-4.1767 0.01,-1.1024 0.2573,-2.1554 0.556,-2.34 0.2987,-0.1846 0.5431,-1.7731 0.5431,-3.5299 0,-1.7569 0.2444,-3.3453 0.543,-3.5299 0.337,-0.2083 0.5431,-5.154 0.5431,-13.0334 0,-7.8794 -0.2061,-12.8252 -0.5431,-13.0334 -0.2986,-0.1846 -0.543,-1.421 -0.543,-2.7474 0,-1.3264 -0.2444,-2.4117 -0.5431,-2.4117 -0.2987,0 -0.5418,-0.672 -0.5403,-1.4934 0.01,-3.89 -6.9047,-18.7327 -10.4566,-22.4553 -0.8214,-0.8609 -1.4934,-1.83 -1.4934,-2.1536 0,-0.8486 -11.3456,-12.0653 -13.4407,-13.2882 -0.9708,-0.5665 -1.765,-1.2217 -1.765,-1.456 0,-0.2343 -0.3666,-0.426 -0.8146,-0.426 -0.448,0 -0.8146,-0.2073 -0.8146,-0.4606 0,-0.2533 -1.0386,-0.9186 -2.308,-1.4784 -1.2694,-0.5598 -2.4302,-1.1468 -2.5795,-1.3044 -0.6096,-0.6432 -2.754,-1.6441 -3.5225,-1.6441 -0.4521,0 -0.822,-0.2444 -0.822,-0.5431 0,-0.2987 -0.3699,-0.5431 -0.8219,-0.5431 -0.4521,0 -1.3685,-0.2825 -2.0365,-0.6278 -2.594,-1.341 -3.1073,-1.5059 -5.7953,-1.8625 -1.5262,-0.2025 -2.906,-0.5803 -3.0663,-0.8396 -0.1602,-0.2593 -2.0954,-0.4715 -4.3002,-0.4715 -2.2049,0 -4.1599,-0.2443 -4.3445,-0.543 -0.4422,-0.7155 -8.9605,-0.7155 -8.9605,0 0,0.3256 -2.1615,0.543 -5.3985,0.543 -2.9692,0 -5.5273,0.2083 -5.6846,0.4629 -0.1573,0.2545 -2.0103,0.6073 -4.1178,0.784 -3.6523,0.3062 -6.767,1.0399 -8.8221,2.0781 -0.5186,0.2621 -1.3161,0.4764 -1.7723,0.4764 -0.4561,0 -1.2536,0.2159 -1.7723,0.4797 -0.5186,0.2639 -1.5539,0.7194 -2.3006,1.0123 -2.1783,0.8544 -10.0209,4.644 -10.3181,4.9858 -0.1494,0.1717 -0.9436,0.6586 -1.76498,1.0819 -0.82138,0.4234 -1.49342,0.9728 -1.49342,1.2211 0,0.2482 -0.25469,0.4512 -0.56598,0.4512 -0.60134,0 -0.68621,0.062 -4.04469,2.9465 -1.19179,1.0237 -2.26517,1.763 -2.38527,1.6429 -0.5289,-0.5289 6.90851,-8.5667 10.43694,-11.2795 0.8472,-0.6513 1.8247,-1.4286 2.1723,-1.7273 2.9179,-2.5076 8.257,-5.9395 10.2712,-6.6022 0.5227,-0.172 0.9503,-0.5286 0.9503,-0.7924 0,-0.2638 0.4684,-0.4797 1.0409,-0.4797 0.5725,0 1.1223,-0.1833 1.2219,-0.4073 0.4933,-1.1099 12.5537,-5.5664 15.0641,-5.5664 0.5902,0 1.2241,-0.2444 1.4087,-0.543 0.1846,-0.2987 1.4209,-0.5431 2.7473,-0.5431 1.3265,0 2.4117,-0.2444 2.4117,-0.5431 0,-0.3258 2.1723,-0.543 5.4306,-0.543 3.2584,0 5.4306,-0.2172 5.4306,-0.5431 0,-0.2987 0.3666,-0.543 0.8146,-0.543 0.448,0 0.8146,0.2443 0.8146,0.543 0,0.3259 2.1722,0.5431 5.4306,0.5431 3.2583,0 5.4306,0.2172 5.4306,0.543 0,0.2987 1.0853,0.5431 2.4117,0.5431 1.3264,0 2.5627,0.2444 2.7473,0.5431 0.1846,0.2986 1.1277,0.543 2.0957,0.543 0.968,0 1.9922,0.2061 2.276,0.4579 0.2837,0.2519 1.9821,0.8837 3.7742,1.4041 4.2165,1.2245 16.5432,7.4286 17.0159,8.5643 0.1,0.2392 0.4161,0.4349 0.7035,0.4349 0.2874,0 1.1334,0.6109 1.8801,1.3577 0.7467,0.7467 1.5619,1.3576 1.8115,1.3576 0.6294,0 12.5302,11.6569 12.5302,12.2734 0,0.2748 0.5603,1.108 1.2451,1.8517 0.6847,0.7436 2.0757,2.574 3.0909,4.0674 1.0153,1.4934 2.0435,2.7967 2.2849,2.8963 0.2414,0.1 0.4389,0.6027 0.4389,1.1181 0,0.5154 0.3588,1.4114 0.7973,1.9912 0.4385,0.5798 0.8051,1.4818 0.8146,2.0045 0.01,0.5227 0.2616,0.9504 0.5603,0.9504 0.2987,0 0.5431,0.4887 0.5431,1.0861 0,0.5973 0.2444,1.0861 0.543,1.0861 0.2987,0 0.5431,0.4887 0.5431,1.0861 0,0.5974 0.2444,1.0861 0.5431,1.0861 0.2986,0 0.543,0.611 0.543,1.3577 0,0.7467 0.1918,1.3576 0.4263,1.3576 0.2344,0 0.7254,1.4052 1.0911,3.1226 0.3656,1.7174 0.9334,4.1001 1.2616,5.2948 0.3283,1.1948 0.7143,3.5774 0.8579,5.2949 0.1435,1.7174 0.4837,3.1226 0.7558,3.1226 0.6881,0 0.6411,16.6803 -0.048,17.1063 -0.2987,0.1846 -0.5431,1.6509 -0.5431,3.2584 0,1.6075 -0.2443,3.0737 -0.543,3.2583 -0.2987,0.1846 -0.5431,1.1621 -0.5431,2.1723 0,1.0101 -0.2215,1.9735 -0.4922,2.1408 -0.2707,0.1673 -0.6602,1.5258 -0.8655,3.0188 -0.2054,1.4931 -0.5948,2.7147 -0.8655,2.7147 -0.2706,0 -0.4921,0.4164 -0.4921,0.9253 0,0.509 -1.0997,3.1859 -2.4437,5.9488 -1.3441,2.7629 -2.4438,5.279 -2.4438,5.5914 0,0.3124 -0.2444,0.5679 -0.5431,0.5679 -0.2986,0 -0.543,0.3666 -0.543,0.8146 0,0.4481 -0.2444,0.8146 -0.5431,0.8146 -0.2987,0 -0.543,0.3205 -0.543,0.7122 0,0.3917 -0.4277,1.1861 -0.9504,1.7654 -0.5227,0.5793 -1.6761,2.0305 -2.5631,3.225 -1.9697,2.6523 -1.9501,2.6287 -4.933,5.9315 -1.3281,1.4705 -2.4147,2.8756 -2.4147,3.1226 0,0.2469 -0.2509,0.449 -0.5576,0.449 -0.3066,0 -1.3452,0.715 -2.308,1.5889 -3.6886,3.3481 -5.0317,4.3834 -5.6876,4.3841 -0.3734,3e-4 -0.6788,-0.2138 -0.6788,-0.4759 z"
       id="path16" />
  </g>
</svg>
