<?xml version="1.0" encoding="UTF-8" standalone="no"?>
<!-- Generator: Adobe Illustrator 16.0.0, SVG Export Plug-In . SVG Version: 6.00 Build 0)  -->

<svg
   version="1.1"
   x="0px"
   y="0px"
   width="1134.113px"
   height="1267.705px"
   viewBox="0 0 1134.113 1267.705"
   enable-background="new 0 0 1134.113 1267.705"
   xml:space="preserve"
   id="svg19"
   sodipodi:docname="JuiceShop_Logo1.svg"
   inkscape:version="1.4.2 (ebf0e940, 2025-05-08)"
   xmlns:inkscape="http://www.inkscape.org/namespaces/inkscape"
   xmlns:sodipodi="http://sodipodi.sourceforge.net/DTD/sodipodi-0.dtd"
   xmlns="http://www.w3.org/2000/svg"
   xmlns:svg="http://www.w3.org/2000/svg"><defs
   id="defs19">
	

	
	
	

	
	

	
	
	
	
	
	

		

		

	
	
	
	

		
	
	
</defs><sodipodi:namedview
   id="namedview19"
   pagecolor="#ffffff"
   bordercolor="#000000"
   borderopacity="0.25"
   inkscape:showpageshadow="2"
   inkscape:pageopacity="0.0"
   inkscape:pagecheckerboard="0"
   inkscape:deskcolor="#d1d1d1"
   inkscape:zoom="0.020509504"
   inkscape:cx="560.71565"
   inkscape:cy="609.47354"
   inkscape:window-width="1440"
   inkscape:window-height="870"
   inkscape:window-x="0"
   inkscape:window-y="30"
   inkscape:window-maximized="0"
   inkscape:current-layer="svg19" />




<g
   id="Layer_7"
   display="none">
	<path
   display="inline"
   fill-rule="evenodd"
   clip-rule="evenodd"
   fill="#CC002B"
   d="M522.784,463.976   c0-12.605,4.69-22.824,10.476-22.824h12.222c5.785,0,10.477,10.218,10.477,22.824v523.701c0,12.604-4.691,22.822-10.477,22.822   H533.26c-5.785,0-10.476-10.219-10.476-22.822V463.976z"
   id="path14" />
</g>
<path
   id="path16"
   style="fill:#000000;fill-opacity:1;stroke:none"
   d="m 504.785,914.503 c -8.834,11.308 -7.255,36.104 -11,34.334 -3.745,-1.77 -7,-25.667 2,-42.667 3.962,-7.483 11.667,-22.333 21.333,-18.333 16.695,6.909 -3.999,16 -12.333,26.666 z m 50.75,-4.25 c -0.275,19.303 -7.029,33.945 -24.716,36.245 -0.802,0.104 -4.784,9.755 -5.034,21.755 -0.246,11.81 5.991,25.75 5,25.75 -21.171,0 -47.5,4.5 -46.75,-7.5 0.078,-1.24 -2.5,-5 -3.75,-36.25 -0.943,-23.566 7.256,-47.694 7.464,-48.802 3.1,-16.521 17.359,-24.948 36.036,-24.948 17.5,0 32,16.25 31.75,33.75 z m 8.251,-1.75202 a 38.333,38.333 0 0 1 -38.333,38.333 38.333,38.333 0 0 1 -38.333,-38.333 38.333,38.333 0 0 1 38.333,-38.333 38.333,38.333 0 0 1 38.333,38.333 z M 674.604,793.165 l -2.207,-66.666 -3.35,-280.666 -61.929,-4.681 3.198,83.8 2.802,264.881 -120.158,-25.321 5.104,63.959 176.54,38.817 z m 60.958,0 125.556,-31.998 -0.602,-62.002 -122.748,27.334 3.35,-280.666 202.819,-16.248 -6.063,75.961 -138.025,19.406 -0.595,113.547 129.813,-22.623 -16.966,212.595 -176.539,38.817 z m -31.739,-445.937 276.961,-14.729 -55,593 -227.069,60 z m 249.093,598.274 55.632,-638.464 -309.833,14.795 -312.931,-21.834 56,637.832 254.78,79.38 z M 852.28563,163.46571 a 56.202938,29.37892 40.875991 0 1 23.27033,58.99478 56.202938,29.37892 40.875991 0 1 -61.72287,-14.56634 56.202938,29.37892 40.875991 0 1 -23.27033,-58.99477 56.202938,29.37892 40.875991 0 1 61.72287,14.56633 z M 813.863,207.883 c 10.525,9.109 43.421,31.45 61.725,14.567 0,0 -27.622,30.257 -33.479,37.024 -10.618,12.268 -38.254,5.747 -61.725,-14.567 -23.47,-20.313 -33.887,-46.727 -23.268,-58.996 3.688,-4.26 33.479,-37.024 33.479,-37.024 -11.311,14.613 7.949,45.737 23.268,58.996 z m -271.411,-99.384 -156.668,191.5 11.282,0.787 178.719,-159.62 -22.355,-32.546 3.348,-58.921 H 543.199 Z M 405.119,302.06 397.066,300.786 575.785,141.166 703.784,327.499 Z M 871.785,128.5 1008.548,307.038 698.715,321.833 553.43,108.62 556.778,49.699 866.452,87.833 Z M 771.22315,1176.9952 a 24.709589,6.4058938 18.663247 0 1 -25.46018,-1.8381 24.709589,6.4058938 18.663247 0 1 -21.36034,-13.9763 24.709589,6.4058938 18.663247 0 1 25.46018,1.8382 24.709589,6.4058938 18.663247 0 1 21.36034,13.9762 z m -42.87278,21.1348 a 41.639309,18.649689 18.663247 0 1 -45.41773,4.3443 41.639309,18.649689 18.663247 0 1 -33.4817,-30.9938 41.639309,18.649689 18.663247 0 1 45.4177,-4.3443 41.639309,18.649689 18.663247 0 1 33.48173,30.9938 z M 992.784,1076.282 a 19.25,16.17 0 0 1 -19.25,16.17 19.25,16.17 0 0 1 -19.25,-16.17 19.25,16.17 0 0 1 19.25,-16.17 19.25,16.17 0 0 1 19.25,16.17 z m -785,75.885 a 14.333,9.6680002 0 0 1 -14.333,9.668 14.333,9.6680002 0 0 1 -14.333,-9.668 14.333,9.6680002 0 0 1 14.333,-9.668 14.333,9.6680002 0 0 1 14.333,9.668 z M 481.117,974.5 a 18,4.6659999 0 0 1 -18,4.666 18,4.6659999 0 0 1 -18,-4.666 18,4.6659999 0 0 1 18,-4.666 18,4.6659999 0 0 1 18,4.666 z m -24.66599,24.58398 a 30.333,13.586 0 0 1 -30.333,13.58602 30.333,13.586 0 0 1 -30.333,-13.58602 30.333,13.586 0 0 1 30.333,-13.586 30.333,13.586 0 0 1 30.333,13.586 z M 1018.127,1062.459 c -16.729,-3.953 -1.916,-18.959 3.192,-40.584 5.108,-21.625 -1.421,-41.674 15.309,-37.723 16.729,3.953 26.148,24.686 21.039,46.311 -5.108,21.623 -22.811,35.948 -39.54,31.996 z m 70.229,-22.32 c 16.761,-150.73 -217.964,-179.643 -506.572,-171.643 -57.782,1.602 153.62,134.059 114.78,148.715 -31.599,11.924 -204.113,19.289 -288.113,0 -77.021,-17.686 -157.729,57.879 -178.268,85.289 -70.232,93.723 93.568,-28.48 302.268,32.666 104.667,30.666 112.666,97.998 206,88.693 74.405,-7.418 41.313,-36.695 158,-78.025 100.58,-35.625 183.18,-27.224 191.905,-105.695 z m 0,0 c 16.761,-150.73 -217.891,-176.313 -506.572,-171.643 -247.333,4 -302.049,51.57 -383.82,148.715 -55.514,65.951 -155.155,71.285 -155.155,131.951 0,78.668 232.919,4.787 449.983,18.121 104.992,6.449 152.325,65.881 245.659,56.576 74.405,-7.418 41.313,-36.695 158,-78.025 100.58,-35.625 183.18,-27.224 191.905,-105.695 z" />
<g
   id="Layer_6"
   display="none">
	<path
   display="inline"
   fill-rule="evenodd"
   clip-rule="evenodd"
   fill="#050402"
   d="M320.163,164.053c0,0,2.622,1.591-9.045,11.19   s-16.18,9.564-16.18,9.564l234.217,284.69c0,0,10.176,3.002,18.736-4.331s8.062-14.511,8.062-14.511L320.163,164.053z"
   id="path17" />
	<path
   display="inline"
   fill-rule="evenodd"
   clip-rule="evenodd"
   fill="#050402"
   d="M986.548,974.045L825.138,777.85   c0,0-4.854-1.775-17.854,3.648c-12.117,5.057-10.377,13.453-10.377,13.453l164.416,199.848l31.461,6.199L986.548,974.045z"
   id="path18" />
	<g
   display="inline"
   id="g19">
		<polygon
   fill="#330911"
   points="114.639,433.747 55.424,535.769 256.285,670.225 320.286,571.203   "
   id="polygon18" />
		<path
   fill="#CC002B"
   d="M73.976,438.484c0,0,54.014-76.945,94.73-122.133c40.718-45.188,126.231-131.543,126.231-131.543    l168.63,204.97c0,0-81.065,64.081-108.205,91.267c-27.14,27.186-86.915,104.721-86.915,104.721L73.976,438.484z"
   id="path19" />
	</g>
</g>
</svg>
