<?xml version="1.0" encoding="UTF-8" standalone="no"?>
<!-- Generator: Adobe Illustrator 16.0.0, SVG Export Plug-In . SVG Version: 6.00 Build 0)  -->

<svg
   version="1.1"
   x="0px"
   y="0px"
   width="24"
   height="24"
   viewBox="0 0 23.999999 24.000001"
   enable-background="new 0 0 1134.113 1267.705"
   xml:space="preserve"
   id="svg19"
   sodipodi:docname="JuiceShop_Logo_Monochrome.svg"
   inkscape:version="1.4.2 (ebf0e940, 2025-05-08)"
   xmlns:inkscape="http://www.inkscape.org/namespaces/inkscape"
   xmlns:sodipodi="http://sodipodi.sourceforge.net/DTD/sodipodi-0.dtd"
   xmlns="http://www.w3.org/2000/svg"
   xmlns:svg="http://www.w3.org/2000/svg"><defs
   id="defs19">
	
	

	
	
	
	

		
	
	

	
	
	
	
	
	

		

		

	
	
	

	
</defs><sodipodi:namedview
   id="namedview19"
   pagecolor="#ffffff"
   bordercolor="#000000"
   borderopacity="0.25"
   inkscape:showpageshadow="2"
   inkscape:pageopacity="0.0"
   inkscape:pagecheckerboard="0"
   inkscape:deskcolor="#d1d1d1"
   inkscape:zoom="21.416667"
   inkscape:cx="12.817121"
   inkscape:cy="12.747082"
   inkscape:window-width="1440"
   inkscape:window-height="733"
   inkscape:window-x="0"
   inkscape:window-y="30"
   inkscape:window-maximized="0"
   inkscape:current-layer="svg19" />




<g
   id="Layer_7"
   display="none">
	<path
   display="inline"
   fill-rule="evenodd"
   clip-rule="evenodd"
   fill="#cc002b"
   d="m 522.784,463.976 c 0,-12.605 4.69,-22.824 10.476,-22.824 h 12.222 c 5.785,0 10.477,10.218 10.477,22.824 v 523.701 c 0,12.604 -4.691,22.822 -10.477,22.822 H 533.26 c -5.785,0 -10.476,-10.219 -10.476,-22.822 z"
   id="path14" />
</g>

<g
   id="Layer_6"
   display="none">
	<path
   display="inline"
   fill-rule="evenodd"
   clip-rule="evenodd"
   fill="#050402"
   d="m 320.163,164.053 c 0,0 2.622,1.591 -9.045,11.19 -11.667,9.599 -16.18,9.564 -16.18,9.564 l 234.217,284.69 c 0,0 10.176,3.002 18.736,-4.331 8.56,-7.333 8.062,-14.511 8.062,-14.511 z"
   id="path17" />
	<path
   display="inline"
   fill-rule="evenodd"
   clip-rule="evenodd"
   fill="#050402"
   d="M 986.548,974.045 825.138,777.85 c 0,0 -4.854,-1.775 -17.854,3.648 -12.117,5.057 -10.377,13.453 -10.377,13.453 l 164.416,199.848 31.461,6.199 z"
   id="path18" />
	<g
   display="inline"
   id="g19">
		<polygon
   fill="#330911"
   points="55.424,535.769 256.285,670.225 320.286,571.203 114.639,433.747 "
   id="polygon18" />
		<path
   fill="#cc002b"
   d="m 73.976,438.484 c 0,0 54.014,-76.945 94.73,-122.133 40.718,-45.188 126.231,-131.543 126.231,-131.543 l 168.63,204.97 c 0,0 -81.065,64.081 -108.205,91.267 -27.14,27.186 -86.915,104.721 -86.915,104.721 z"
   id="path19" />
	</g>
</g><g
   id="g20"
   transform="matrix(0.01745769,0,0,0.01669912,2.1188557,1.3581156)"><path
     fill-rule="evenodd"
     clip-rule="evenodd"
     fill="#d84315"
     d="m 1088.356,1040.139 c 16.761,-150.73 -217.891,-176.313 -506.572,-171.643 -247.333,4 -302.049,51.57 -383.82,148.715 -55.514,65.951 -155.155,71.285 -155.155,131.951 0,78.668 232.919,4.787 449.983,18.121 104.992,6.449 152.325,65.881 245.659,56.576 74.405,-7.418 41.313,-36.695 158,-78.025 100.58,-35.625 183.18,-27.224 191.905,-105.695 z"
     id="path1"
     style="fill:#000000;fill-opacity:1" /><path
     fill-rule="evenodd"
     clip-rule="evenodd"
     fill="#ff5722"
     d="m 1088.356,1040.139 c 16.761,-150.73 -217.964,-179.643 -506.572,-171.643 -57.782,1.602 153.62,134.059 114.78,148.715 -31.599,11.924 -204.113,19.289 -288.113,0 -77.021,-17.686 -157.729,57.879 -178.268,85.289 -70.232,93.723 93.568,-28.48 302.268,32.666 104.667,30.666 112.666,97.998 206,88.693 74.405,-7.418 41.313,-36.695 158,-78.025 100.58,-35.625 183.18,-27.224 191.905,-105.695 z"
     id="path2"
     style="fill:#0f0f0f;fill-opacity:1" /><path
     fill-rule="evenodd"
     clip-rule="evenodd"
     fill="#ffffff"
     d="m 1018.127,1062.459 c -16.729,-3.953 -1.916,-18.959 3.192,-40.584 5.108,-21.625 -1.421,-41.674 15.309,-37.723 16.729,3.953 26.148,24.686 21.039,46.311 -5.108,21.623 -22.811,35.948 -39.54,31.996 z"
     id="path3" /><ellipse
     fill-rule="evenodd"
     clip-rule="evenodd"
     fill="#ff5722"
     cx="463.117"
     cy="974.5"
     rx="18"
     ry="4.6659999"
     id="ellipse4"
     style="fill:#ffffff;fill-opacity:1" /><ellipse
     fill-rule="evenodd"
     clip-rule="evenodd"
     fill="#ff5722"
     cx="193.451"
     cy="1152.167"
     rx="14.333"
     ry="9.6680002"
     id="ellipse5"
     style="fill:#ffffff;fill-opacity:1" /><ellipse
     fill-rule="evenodd"
     clip-rule="evenodd"
     fill="#ffffff"
     cx="973.534"
     cy="1076.282"
     rx="19.25"
     ry="16.17"
     id="ellipse6" /><ellipse
     transform="rotate(18.663247)"
     fill-rule="evenodd"
     clip-rule="evenodd"
     fill="#d84315"
     cx="1031.8193"
     cy="902.05127"
     rx="41.639309"
     ry="18.649689"
     id="ellipse7"
     style="fill:#ffffff;fill-opacity:1;stroke-width:0.999983" /><ellipse
     transform="rotate(18.663247)"
     fill-rule="evenodd"
     clip-rule="evenodd"
     fill="#d84315"
     cx="1082.6041"
     cy="868.30829"
     rx="24.709589"
     ry="6.4058938"
     id="ellipse8"
     style="fill:#ffffff;fill-opacity:1;stroke-width:0.999983" /><polygon
     fill-rule="evenodd"
     clip-rule="evenodd"
     fill="#ffcc00"
     points="866.452,87.833 871.785,128.5 1008.548,307.038 698.715,321.833 553.43,108.62 556.778,49.699 "
     id="polygon8"
     style="fill:#000000;fill-opacity:1" /><polygon
     fill-rule="evenodd"
     clip-rule="evenodd"
     fill="#b38f00"
     points="703.784,327.499 405.119,302.06 397.066,300.786 575.785,141.166 "
     id="polygon9"
     style="fill:#000000;fill-opacity:1" /><polygon
     fill-rule="evenodd"
     clip-rule="evenodd"
     fill="#806600"
     points="542.452,108.499 385.784,299.999 397.066,300.786 575.785,141.166 553.43,108.62 556.778,49.699 543.199,49.699 "
     id="polygon10"
     style="fill:#000000;fill-opacity:1" /><path
     fill-rule="evenodd"
     clip-rule="evenodd"
     fill="#330911"
     d="m 813.863,207.883 c 10.525,9.109 43.421,31.45 61.725,14.567 0,0 -27.622,30.257 -33.479,37.024 -10.618,12.268 -38.254,5.747 -61.725,-14.567 -23.47,-20.313 -33.887,-46.727 -23.268,-58.996 3.688,-4.26 33.479,-37.024 33.479,-37.024 -11.311,14.613 7.949,45.737 23.268,58.996 z"
     id="path10" /><ellipse
     transform="rotate(-49.124009)"
     fill-rule="evenodd"
     clip-rule="evenodd"
     fill="#cc002b"
     cx="404.77631"
     cy="751.41272"
     rx="29.37892"
     ry="56.202938"
     id="ellipse10"
     style="fill:#000000;fill-opacity:1;stroke-width:0.999963" /><polygon
     fill-rule="evenodd"
     clip-rule="evenodd"
     fill="#b38f00"
     points="696.564,1017.211 952.916,945.502 1008.548,307.038 698.715,321.833 385.784,299.999 441.784,937.831 "
     id="polygon11"
     style="fill:#000000;fill-opacity:1" /><polygon
     fill-rule="evenodd"
     clip-rule="evenodd"
     fill="#ffcc00"
     points="698.715,985.499 703.823,347.228 980.784,332.499 925.784,925.499 "
     id="polygon12"
     style="fill:#000000;fill-opacity:1" /><polygon
     fill-rule="evenodd"
     clip-rule="evenodd"
     fill="#ffffff"
     points="674.604,867.288 674.604,793.165 672.397,726.499 669.047,445.833 607.118,441.152 610.316,524.952 613.118,789.833 492.96,764.512 498.064,828.471 "
     id="polygon14" /><circle
     fill-rule="evenodd"
     clip-rule="evenodd"
     fill="#330911"
     cx="525.453"
     cy="908.50098"
     r="38.333"
     id="circle14" /><path
     fill-rule="evenodd"
     clip-rule="evenodd"
     fill="#d84315"
     d="m 555.535,910.253 c -0.275,19.303 -7.029,33.945 -24.716,36.245 -0.802,0.104 -4.784,9.755 -5.034,21.755 -0.246,11.81 5.991,25.75 5,25.75 -21.171,0 -47.5,4.5 -46.75,-7.5 0.078,-1.24 -2.5,-5 -3.75,-36.25 -0.943,-23.566 7.256,-47.694 7.464,-48.802 3.1,-16.521 17.359,-24.948 36.036,-24.948 17.5,0 32,16.25 31.75,33.75 z"
     id="path15"
     style="fill:#ffffff;fill-opacity:1" /><ellipse
     fill-rule="evenodd"
     clip-rule="evenodd"
     fill="#ff5722"
     cx="426.11801"
     cy="999.08398"
     rx="30.333"
     ry="13.586"
     id="ellipse3"
     style="fill:#ffffff;fill-opacity:1" /><path
     fill-rule="evenodd"
     clip-rule="evenodd"
     fill="#ff5722"
     d="m 504.785,914.503 c -8.834,11.308 -7.255,36.104 -11,34.334 -3.745,-1.77 -7,-25.667 2,-42.667 3.962,-7.483 11.667,-22.333 21.333,-18.333 16.695,6.909 -3.999,16 -12.333,26.666 z"
     id="path16"
     style="fill:#ffffff;fill-opacity:1" /><polygon
     fill-rule="evenodd"
     clip-rule="evenodd"
     fill="#ffffff"
     points="735.562,867.288 735.562,793.165 861.118,761.167 860.516,699.165 737.768,726.499 741.118,445.833 943.937,429.585 937.874,505.546 799.849,524.952 799.254,638.499 929.067,615.876 912.101,828.471 "
     id="polygon13" /></g>
</svg>
