<svg width="256" height="256" viewBox="0 0 256 256" fill="none" xmlns="http://www.w3.org/2000/svg">
<path d="M105.952 128.77C101.644 137.387 99.4961 146.548 99.3367 155.597C99.3367 156.029 99.3254 156.462 99.3254 156.904C99.3254 157.45 99.3367 158.007 99.3593 158.553C99.3593 158.836 99.3705 159.11 99.3931 159.382C99.4285 160.083 99.4816 160.78 99.5476 161.472C101.09 181.933 112.615 201.163 131.676 211.695L135.462 204.158C134.826 203.806 134.201 203.43 133.586 203.044C109.897 188.483 100.826 157.87 113.5 132.555C118.115 123.325 125.027 115.981 133.188 110.878C148.057 101.568 167.12 99.6811 184.115 107.274L187.911 99.715C157.413 85.8813 121.06 98.5782 105.952 128.77Z" fill="#F15A29"/>
<path d="M181.757 111.751C171.045 107.053 159.472 106.483 148.905 109.412L162.501 150.236L181.757 111.751Z" fill="#FBB040"/>
<path d="M155.435 156.359L124.084 166.794L114.604 169.954C111.681 159.394 112.25 147.822 116.945 137.102L122.958 140.115L155.435 156.359Z" fill="#FBB040"/>
<path d="M157.697 151.834L124.436 135.193L119.218 132.578C124.731 122.824 133.155 115.629 142.828 111.538C143.248 111.356 143.67 111.185 144.102 111.015L157.697 151.834Z" fill="#FBB040"/>
<path d="M157.038 161.167L142.135 190.939L137.781 199.646C127.596 193.893 120.196 184.97 116.206 174.762L125.959 171.512L157.038 161.167Z" fill="#FBB040"/>
<path d="M69.7409 222.236C69.7409 222.236 71.1465 227.025 74.5437 230.333C74.1911 230.39 73.8385 230.452 73.4859 230.541C67.0102 232.164 63.1493 239.021 63.1493 239.021C63.1493 239.021 69.7876 243.248 76.2633 241.625C76.6159 241.536 76.9556 241.427 77.2921 241.309C75.8575 245.83 76.8751 250.715 76.8751 250.715C76.8751 250.715 82.2189 249.071 84.6984 244.154C86.5403 240.502 86.2859 236.076 86.0331 234.04C86.4002 233.495 86.5999 233.144 86.5999 233.144C86.5999 233.144 86.2585 232.93 85.6773 232.624C84.9399 230.708 83.0786 226.685 79.7329 224.334C75.228 221.167 69.7409 222.236 69.7409 222.236Z" fill="#8DC63F"/>
<path d="M80.0793 217.909C81.063 213.513 84.2059 210.169 91.2821 208.395C98.0299 206.704 107.175 206.73 115.382 208.49C115.943 208.609 116.494 208.735 117.041 208.876L117.116 208.892C122.938 210.757 126.38 217.411 126.501 223.792L121.693 224.996C122.26 228.015 122.182 231.103 122.306 234.174C122.356 235.4 122.446 236.643 122.775 237.817C121.448 240.657 119.935 243.439 118.542 246.223C118.454 246.394 118.375 246.568 118.286 246.738C113.156 250.142 107.584 252.754 102.702 253.977C94.0595 256.144 89.503 253.48 86.5678 248.329C85.8594 247.075 85.2427 245.676 84.6824 244.169C83.6665 241.401 82.8502 238.253 82.0194 234.938C81.0872 231.205 80.2306 227.677 79.8893 224.457C79.6317 222.092 79.6413 219.894 80.0793 217.909Z" fill="#ED1C24"/>
<path d="M82.0193 234.938L86.1088 233.909L86.1185 233.91L93.0225 232.176L121.693 224.997C122.26 228.014 122.182 231.103 122.306 234.173C122.356 235.4 122.446 236.643 122.775 237.816C121.448 240.657 119.935 243.44 118.542 246.223C118.453 246.395 118.375 246.567 118.286 246.738C113.158 250.143 107.584 252.755 102.702 253.978C94.0593 256.145 89.5029 253.479 86.5677 248.329C85.8593 247.076 85.2426 245.677 84.6823 244.17C83.6664 241.4 82.8501 238.253 82.0193 234.938Z" fill="#ED3B48"/>
<path d="M80.0793 217.909C81.063 213.513 84.2059 210.169 91.2821 208.395C98.0299 206.704 107.175 206.73 115.382 208.49C115.943 208.609 116.494 208.735 117.041 208.876L117.116 208.892C122.938 210.757 126.38 217.411 126.501 223.792L121.693 224.996L93.0226 232.175L86.117 233.91L86.109 233.908L82.0194 234.938C81.0872 231.205 80.2306 227.677 79.8893 224.457C79.6317 222.092 79.6413 219.894 80.0793 217.909Z" fill="#ED1C24"/>
<path d="M95.2324 146.125C92.1378 142.615 89.0851 138.467 86.3319 133.244C73.1455 108.192 60.2376 108.644 53.7121 111.14C53.3578 111.286 53.0052 111.431 52.6526 111.594C52.2839 111.708 51.9201 111.831 51.5675 111.969C49.0783 112.917 46.0884 114.719 43.7345 118.108C40.735 122.434 38.7658 129.35 40.1666 140.398C40.355 141.865 40.5965 143.404 40.9121 145.022L40.9169 145.033C41.0602 145.547 41.2115 146.064 41.3919 146.573C42.4529 149.566 44.641 152.394 47.3604 153.874C47.0866 152.341 46.7437 150.759 46.3364 149.126C40.2374 124.977 47.977 118.053 53.1357 116.075C53.5462 115.922 53.9149 115.809 54.2385 115.725C54.5348 115.568 54.8858 115.405 55.2883 115.249C60.4518 113.281 70.8383 113.247 82.4372 135.288C86.1822 142.407 90.3973 147.582 94.5497 151.879C94.693 149.947 94.9216 148.026 95.2324 146.125Z" fill="#8EC63F"/>
<path d="M108.117 198.394C106.573 200.323 104.725 201.896 102.775 203.166C103.511 200.502 103.809 197.766 103.431 194.992C103.042 192.071 101.614 188.978 98.866 187.919C94.609 186.291 90.3343 190.353 88.1575 194.366C85.9758 198.368 84.0421 203.199 79.7336 204.704C74.5315 206.525 68.8721 201.885 67.4939 196.541C66.1221 191.199 67.7692 185.601 69.4002 180.328C71.0602 174.948 72.7314 169.563 74.3914 164.183C75.4927 160.646 76.602 156.959 76.0723 153.285C75.5394 149.617 72.8651 145.977 69.178 145.618C65.8275 145.286 63.2111 147.503 60.5706 149.865C58.1604 152.029 55.7179 154.307 52.6685 154.839C52.4479 154.879 52.2241 154.908 52.0051 154.922C51.6654 152.733 51.2113 150.442 50.6011 148.051C49.7236 144.586 49.1617 141.543 48.8365 138.877C48.7399 138.076 48.6658 137.31 48.6159 136.577C48.5837 136.155 48.5612 135.755 48.5403 135.355C48.5306 135.226 48.5322 135.093 48.5225 134.966C48.5064 134.397 48.5 133.85 48.5 133.331C48.5016 133.225 48.5032 133.119 48.5113 133.014C48.6336 126.46 50.6382 123.172 52.5235 121.522C52.6685 121.385 52.8246 121.27 52.9711 121.159C53.1998 120.989 53.4204 120.842 53.6248 120.717C53.7697 120.633 53.9034 120.554 54.0434 120.486L54.2367 120.393C54.8163 120.111 55.2977 119.984 55.565 119.934C55.5939 119.926 55.6213 119.926 55.6406 119.924L55.6422 119.916L55.6583 119.921C55.7662 119.897 55.8322 119.884 55.8322 119.884C55.8322 119.884 65.5425 112.634 78.547 137.339C83.4641 146.669 89.1042 152.829 94.3546 157.901C94.4351 164.491 95.472 171.108 97.491 177.568C99.8546 185.172 103.468 192.184 108.117 198.394Z" fill="#8EC63F"/>
<path d="M31.2599 112.286C38.6936 114.951 47.0225 110.689 47.0225 110.689C47.0225 110.689 43.3 102.104 35.8663 99.4395C28.4327 96.7749 20.1038 101.037 20.1038 101.037C20.1038 101.037 23.8263 109.622 31.2599 112.286Z" fill="#8EC63F"/>
<path d="M53.0228 114.76C52.1373 114.76 51.3033 114.222 50.9684 113.347L44.9307 97.5954C44.4959 96.4603 45.0627 95.1883 46.1978 94.7536C47.3329 94.3157 48.6048 94.8872 49.0395 96.0191L55.0773 111.772C55.512 112.907 54.9436 114.179 53.8102 114.614C53.5509 114.714 53.2837 114.76 53.0228 114.76Z" fill="#8EC63F"/>
<path d="M60.5706 149.865C58.1603 152.029 55.7179 154.307 52.6684 154.839C52.4478 154.879 52.224 154.908 52.0051 154.922C51.6653 152.733 51.2097 150.442 50.6011 148.052C49.7236 144.586 49.1617 141.543 48.8365 138.877C48.7399 138.076 48.6658 137.31 48.6159 136.577C48.5837 136.156 48.5611 135.755 48.5402 135.355C48.5305 135.227 48.5322 135.093 48.5225 134.966C48.5064 134.397 48.4983 133.85 48.5 133.333C48.5016 133.225 48.5032 133.119 48.5112 133.014C48.5644 130.15 48.9781 127.907 49.5851 126.152C50.3644 123.897 51.4625 122.451 52.5235 121.522C52.6684 121.385 52.8246 121.271 52.9711 121.159C53.1997 120.989 53.4203 120.842 53.6248 120.717C53.7697 120.633 53.9033 120.554 54.0434 120.486L54.2366 120.393C54.8162 120.111 55.2976 119.984 55.5649 119.934C55.5939 119.926 55.6245 119.92 55.6422 119.916L55.639 119.925C52.4478 127.326 54.7035 136.349 57.9494 143.956C58.7883 145.917 59.677 147.887 60.5706 149.865Z" fill="#7EAD32"/>
<path d="M102.646 93.8416C97.1704 103.327 89.0767 109.314 82.0938 106.948C72.873 113.277 55.948 101.784 48.4886 85.2874L50.0198 75.8267L53.1787 56.2885L53.2576 55.8248C53.3622 55.7814 53.4653 55.7459 53.5683 55.7009C58.7125 53.743 64.652 54.482 66.9834 55.432C71.8168 57.4043 75.2172 57.2787 75.2172 57.2787C75.2172 57.2787 78.0719 56.6444 82.184 53.4355C86.2961 50.2283 105.95 43.5513 108.74 65.4739C110.014 75.4773 107.253 85.8863 102.646 93.8416Z" fill="#EF4051"/>
<path d="M86.9065 48.4303C82.5207 54.225 74.0035 55.1685 74.0035 55.1685C74.0035 55.1685 72.5979 46.7156 76.9837 40.9194C81.3695 35.1248 89.8867 34.1829 89.8867 34.1829C89.8867 34.1829 91.2923 42.6357 86.9065 48.4303Z" fill="#8EC63F"/>
<path d="M154.343 88.6851C131.917 91.2564 111.324 104.841 100.664 126.134C98.775 129.908 97.2696 133.814 96.112 137.795C94.4166 135.477 92.9128 133.062 91.5539 130.494C88.0149 123.757 84.2152 118.288 80.1997 114.11C81.1529 113.887 82.0754 113.591 82.9497 113.206C88.0311 113.95 93.4473 112.186 98.461 108.077C108.208 100.099 116.883 82.6522 114.599 64.7258C114.451 63.5327 114.249 62.4089 114.021 61.3479C118.632 61.4107 123.312 62.2028 127.911 63.7984C140.352 68.1118 149.655 77.4083 154.343 88.6851Z" fill="#92278F"/>
<path d="M162.62 59.2858C163.012 69.1216 154.908 77.4296 154.908 77.4296C154.908 77.4296 146.17 69.7914 145.779 59.9556C145.388 50.1197 153.491 41.8118 153.491 41.8118C153.491 41.8118 162.229 49.4499 162.62 59.2858Z" fill="#8EC63F"/>
<path d="M205.171 96.6652C190.669 98.6714 177.195 87.8823 177.195 87.8823C177.195 87.8823 187.233 73.841 201.735 71.8332C216.237 69.8271 229.712 80.6161 229.712 80.6161C229.712 80.6161 219.673 94.6591 205.171 96.6652Z" fill="#8EC63F"/>
<path d="M102.646 93.8416C97.1705 103.327 89.0767 109.314 82.0938 106.948C72.873 113.277 55.948 101.784 48.4886 85.2874L50.0198 75.8267C50.7024 78.6974 51.8939 81.4409 53.5909 83.8593C56.5808 88.1372 60.8345 91.3444 65.0916 94.3649C67.6338 96.1746 70.2502 97.9747 73.232 98.9278C76.9948 100.126 81.0457 99.8778 84.9903 99.6218C88.6081 99.3851 92.4272 99.084 95.4058 97.0086C97.1463 95.8011 98.6356 93.9769 100.742 93.6726C101.398 93.5792 102.038 93.6404 102.646 93.8416Z" fill="#DB354D"/>
<path d="M102.006 60.6617C101.386 62.4505 99.7083 58.1355 96.2145 56.9247C92.7206 55.7124 88.7325 58.0631 89.354 56.2743C89.9739 54.4871 93.8606 52.4246 97.3544 53.637C100.848 54.8478 102.626 58.8729 102.006 60.6617Z" fill="white"/>
<path d="M131.701 71.2085C131.31 72.2599 128.84 69.109 124.896 67.6406C120.951 66.1707 117.022 66.9387 117.414 65.8873C117.805 64.8359 121.671 64.2386 125.615 65.7086C129.56 67.1769 132.093 70.1572 131.701 71.2085Z" fill="white"/>
<path d="M131.701 71.2085C131.31 72.2599 128.84 69.109 124.896 67.6406C120.951 66.1707 117.022 66.9387 117.414 65.8873C117.805 64.8359 121.671 64.2386 125.615 65.7086C129.56 67.1769 132.093 70.1572 131.701 71.2085Z" fill="white"/>
<path d="M69.7965 133.106C68.9899 133.885 68.1204 129.979 65.1949 126.952C62.2694 123.924 58.394 122.922 59.2007 122.143C60.0073 121.364 63.7523 122.491 66.6778 125.519C69.6033 128.546 70.6031 132.326 69.7965 133.106Z" fill="white"/>
<path d="M90.4043 244.909C91.1079 244.035 91.5024 247.036 93.6068 248.73C95.7111 250.424 98.7268 250.17 98.0248 251.042C97.3212 251.916 94.4182 252.031 92.3139 250.337C90.2095 248.643 89.7008 245.784 90.4043 244.909Z" fill="white"/>
<path d="M121.692 224.997L126.501 223.793C126.518 224.408 126.497 225.034 126.445 225.643C126.081 229.912 124.605 233.91 122.774 237.816C122.446 236.643 122.357 235.4 122.306 234.173C122.182 231.102 122.259 228.014 121.692 224.997Z" fill="#D33346"/>
<path d="M80.0793 217.909C81.063 213.513 84.2059 210.169 91.2821 208.395C98.0299 206.704 107.175 206.73 115.382 208.49C115.943 208.609 116.494 208.735 117.042 208.876L117.116 208.892C122.938 210.757 126.38 217.411 126.501 223.792L121.693 224.996C121.687 224.987 121.69 224.97 121.683 224.961C121.1 221.931 119.791 218.92 117.389 216.988C115.011 215.069 111.88 214.429 108.872 213.851C103.05 212.719 97.1041 211.596 91.2225 212.331C87.0042 212.868 82.6393 214.623 80.0793 217.909Z" fill="#DD1221"/>
<path d="M165.6 86.985C164.513 86.985 163.428 86.568 162.602 85.7356C160.964 84.0804 160.975 81.4093 162.631 79.7703L200.026 42.7372C200.815 41.9547 201.884 41.5168 202.993 41.5168H203.022L243.102 41.797C245.431 41.8147 247.307 43.7145 247.289 46.0443C247.273 48.3741 245.391 50.2723 243.044 50.2321L204.716 49.9632L168.569 85.7646C167.744 86.5792 166.672 86.985 165.6 86.985Z" fill="#F15A29"/>
<path d="M66.9261 47.5228C63.0619 45.8162 59.4071 46.2187 57.3462 46.7017L46.9291 23.1143L11.1535 9.36434C8.96382 8.54321 7.90118 6.07981 8.73841 3.90622C9.57564 1.73264 12.0068 0.653896 14.1804 1.49113L51.5983 15.869C51.5983 15.8851 51.6144 15.8851 51.6144 15.8851C52.6609 16.2876 53.4821 17.0926 53.9329 18.107L66.9261 47.5228Z" fill="#EF4051"/>
<path d="M61.9019 175.186C60.5382 180.847 56.1958 186.447 52.124 185.466C48.0521 184.486 45.7932 177.297 47.1553 171.636C48.519 165.975 52.987 163.986 57.0604 164.967C61.1323 165.947 63.2656 169.525 61.9019 175.186Z" fill="#8EC63F"/>
<path d="M115.764 53.8455C115.764 53.8455 121.116 14.3812 101.4 16.5435C81.6851 18.7058 113.35 25.4665 115.764 53.8455Z" fill="#EF4051"/>
<path d="M128.428 50.1379C128.428 50.1379 142.603 12.9213 158.883 24.2497C175.164 35.5781 144.122 26.3702 128.428 50.1379Z" fill="#92278F"/>
<path d="M177.961 128.423C177.961 128.423 205.746 99.8909 216.19 116.75C226.636 133.61 201.8 112.837 177.961 128.423Z" fill="#FBB040"/>
<path d="M59.8135 175.077C58.8603 175.666 59.485 172.705 58.0633 170.408C56.6433 168.112 53.7129 167.348 54.6677 166.758C55.6209 166.168 58.3966 167.026 59.8183 169.322C61.2384 171.62 60.7666 174.487 59.8135 175.077Z" fill="white"/>
<path d="M122.958 140.115C122.071 143.752 121.606 147.56 121.606 151.471C121.606 156.824 122.48 161.975 124.084 166.794L114.604 169.954C111.681 159.394 112.25 147.822 116.945 137.102L122.958 140.115Z" fill="#E5962E"/>
<path d="M124.436 135.193L119.218 132.578C124.732 122.826 133.154 115.629 142.828 111.538C134.428 117.221 127.914 125.486 124.436 135.193Z" fill="#E5962E"/>
<path d="M142.135 190.938L137.781 199.645C127.596 193.894 120.196 184.97 116.207 174.762L125.959 171.511C129.539 179.333 135.167 186.039 142.135 190.938Z" fill="#E5962E"/>
<path d="M49.8355 195.367C47.0678 193.533 45.2114 191.794 45.1196 190.384C45.1196 190.384 43.3228 197.331 43.3228 202.789V242.159L57.113 244.669C44.73 234.034 47.2868 211.287 49.8355 195.367Z" fill="#E5962E"/>
<path d="M49.8356 195.367C47.2868 211.287 44.7301 234.034 57.113 244.669L62.3119 245.614C62.3119 245.614 50.7404 243.514 57.5977 234.937C64.4549 226.361 66.0682 226.528 60.5296 220.49C54.9926 214.453 70.2914 217.526 76.7317 213.279C78.0648 212.4 67.0133 212.245 59.0918 207.148C54.3453 204.093 53.3858 197.719 49.8356 195.367Z" fill="#FBB040"/>
</svg>
