<?xml version="1.0" encoding="UTF-8" standalone="no"?>
<svg
   xmlns:dc="http://purl.org/dc/elements/1.1/"
   xmlns:cc="http://creativecommons.org/ns#"
   xmlns:rdf="http://www.w3.org/1999/02/22-rdf-syntax-ns#"
   xmlns:svg="http://www.w3.org/2000/svg"
   xmlns="http://www.w3.org/2000/svg"
   xmlns:xlink="http://www.w3.org/1999/xlink"
   xmlns:sodipodi="http://sodipodi.sourceforge.net/DTD/sodipodi-0.dtd"
   xmlns:inkscape="http://www.inkscape.org/namespaces/inkscape"
   inkscape:version="1.0alpha (9dee831, 2019-01-15)"
   sodipodi:docname="CRS-claim-smaller.svg"
   id="svg104"
   xml:space="preserve"
   enable-background="new 0 0 595.275 841.89"
   viewBox="0 0 595.275 841.89"
   height="841.89px"
   width="595.275px"
   y="0px"
   x="0px"
   version="1.1"><metadata
   id="metadata110">
  <rdf:RDF>
    <cc:Work
       rdf:about="">
      <dc:format>image/svg+xml</dc:format>
      <dc:type
         rdf:resource="http://purl.org/dc/dcmitype/StillImage" />
      <dc:title></dc:title>
    </cc:Work>
  </rdf:RDF>
</metadata>
<defs
   id="defs108">
	
		<sodipodi:namedview
   id="base"
   showgrid="false"
   inkscape:cx="-135.91867"
   inkscape:zoom="0.98994949"
   borderopacity="1.0"
   bordercolor="#666666"
   inkscape:cy="636.77159"
   pagecolor="#ffffff"
   inkscape:document-units="mm"
   inkscape:current-layer="layer1"
   inkscape:window-maximized="1"
   inkscape:window-y="0"
   inkscape:window-x="0"
   inkscape:window-height="1689"
   inkscape:pageshadow="2"
   inkscape:pageopacity="0.0"
   inkscape:window-width="3200">
		</sodipodi:namedview>

	

		
		
		
		
		
		
		
		
		
		
		
		
		
		
		
		
		
		
		
		
		
		
		
	</defs>
<sodipodi:namedview
   inkscape:current-layer="svg104"
   inkscape:window-maximized="1"
   inkscape:window-y="0"
   inkscape:window-x="0"
   inkscape:cy="420.945"
   inkscape:cx="297.6375"
   inkscape:zoom="4.6143426"
   showgrid="false"
   id="namedview106"
   inkscape:window-height="845"
   inkscape:window-width="1600"
   inkscape:pageshadow="2"
   inkscape:pageopacity="0"
   guidetolerance="10"
   gridtolerance="10"
   objecttolerance="10"
   borderopacity="1"
   inkscape:document-rotation="0"
   bordercolor="#666666"
   pagecolor="#ffffff" />

<g
   inkscape:export-ydpi="585.90002"
   inkscape:export-xdpi="585.90002"
   transform="matrix(0.92457609,0,0,0.92457609,22.297374,30.404325)"
   style="fill:#ffffff"
   id="blanco">
	<path
   inkscape:connector-curvature="0"
   style="fill:#ffffff"
   id="path2"
   d="m 348.661,401.33 c 0,-28.305 -22.844,-51.251 -51.023,-51.251 -28.18,0 -51.024,22.946 -51.024,51.251 0,22.406 14.314,41.45 34.257,48.417 h -9.958 c -4.564,0 -8.265,3.716 -8.265,8.302 v 25.46 c 0,4.586 3.701,8.302 8.265,8.302 h 53.45 c 4.565,0 8.265,-3.716 8.265,-8.302 v -25.46 c 0,-4.586 -3.699,-8.302 -8.265,-8.302 h -9.959 c 19.943,-6.967 34.257,-26.011 34.257,-48.417 z"
   fill="#FFFFFF" />

</g>

<g
   inkscape:export-ydpi="585.90002"
   inkscape:export-xdpi="585.90002"
   transform="matrix(0.35277777,0,0,-0.35277777,77.617493,212.79866)"
   id="g284"
   style="opacity:1;stop-opacity:1">
			<path
   d="m 548.625,-752.016 h -2.316 v -8.318 c 0,-0.161 -0.129,-0.288 -0.285,-0.288 h -1.874 c -0.156,0 -0.284,0.127 -0.284,0.288 v 8.318 h -2.331 c -0.158,0 -0.286,0.114 -0.286,0.271 v 1.473 c 0,0.158 0.129,0.271 0.286,0.271 h 7.089 c 0.158,0 0.302,-0.113 0.302,-0.271 v -1.473 c 0,-0.157 -0.144,-0.271 -0.301,-0.271"
   fill="#005B85"
   inkscape:connector-curvature="0"
   id="path286" />

		</g>
<g
   inkscape:export-ydpi="585.90002"
   inkscape:export-xdpi="585.90002"
   transform="matrix(0.35277777,0,0,-0.35277777,81.19159,215.93887)"
   id="g288"
   style="opacity:1;stop-opacity:1">
			<path
   d="m 548.29,-751.721 h -1.873 c -0.158,0 -0.286,0.127 -0.286,0.288 v 4.13 H 542.6 v -4.13 c 0,-0.161 -0.129,-0.288 -0.286,-0.288 h -1.873 c -0.156,0 -0.285,0.127 -0.285,0.288 v 10.062 c 0,0.158 0.129,0.271 0.285,0.271 h 1.873 c 0.158,0 0.286,-0.113 0.286,-0.271 v -3.804 h 3.531 v 3.804 c 0,0.158 0.129,0.271 0.286,0.271 h 1.873 c 0.159,0 0.285,-0.113 0.285,-0.271 v -10.062 c 0,-0.16 -0.126,-0.288 -0.285,-0.288"
   fill="#005B85"
   inkscape:connector-curvature="0"
   id="path290" />

		</g>
<g
   inkscape:export-ydpi="585.90002"
   inkscape:export-xdpi="585.90002"
   transform="matrix(0.35277777,0,0,-0.35277777,84.291168,215.91785)"
   id="g292"
   style="opacity:1;stop-opacity:1">
			<path
   d="m 547.999,-751.722 c -0.5,-0.072 -1.229,-0.188 -2.774,-0.188 -1.844,0 -3.473,0.473 -3.473,3.073 v 4.75 c 0,2.599 1.643,3.059 3.487,3.059 1.545,0 2.26,-0.116 2.76,-0.188 0.201,-0.028 0.286,-0.097 0.286,-0.285 v -1.329 c 0,-0.161 -0.129,-0.288 -0.286,-0.288 h -2.901 c -0.673,0 -0.915,-0.227 -0.915,-0.969 v -1.304 h 3.703 c 0.156,0 0.285,-0.127 0.285,-0.285 v -1.356 c 0,-0.161 -0.129,-0.288 -0.285,-0.288 h -3.703 v -1.517 c 0,-0.742 0.242,-0.972 0.915,-0.972 h 2.901 c 0.158,0 0.286,-0.127 0.286,-0.282 v -1.331 c 10e-4,-0.187 -0.085,-0.272 -0.286,-0.3"
   fill="#005B85"
   inkscape:connector-curvature="0"
   id="path294" />

		</g>
<g
   inkscape:export-ydpi="585.90002"
   inkscape:export-xdpi="585.90002"
   transform="matrix(0.35277777,0,0,-0.35277777,87.709197,215.93887)"
   id="g296"
   style="opacity:1;stop-opacity:1">
			<path
   d="m 547.679,-751.721 h -1.874 c -0.156,0 -0.285,0.127 -0.285,0.288 v 7.889 l -1.601,-0.659 c -0.071,-0.028 -0.129,-0.042 -0.172,-0.042 -0.101,0 -0.156,0.072 -0.156,0.185 v 1.63 c 0,0.1 0.043,0.158 0.143,0.199 l 2.329,1.074 c 0.101,0.042 0.187,0.055 0.329,0.055 h 1.287 c 0.158,0 0.271,-0.113 0.271,-0.271 v -10.062 c 10e-4,-0.158 -0.113,-0.286 -0.271,-0.286"
   fill="#005B85"
   inkscape:connector-curvature="0"
   id="path298" />

		</g>
<g
   inkscape:export-ydpi="585.90002"
   inkscape:export-xdpi="585.90002"
   transform="matrix(0.35277777,0,0,-0.35277777,89.125847,213.93866)"
   id="g300"
   style="opacity:1;stop-opacity:1">
			<path
   d="m 547.546,-751.909 c -0.585,0 -1.021,0.066 -1.399,0.166 -0.073,0.019 -0.148,0.064 -0.148,0.147 v 0.725 c 0,0.102 0.058,0.141 0.133,0.141 h 0.024 c 0.303,-0.03 1.117,-0.091 1.406,-0.091 0.509,0 0.659,0.163 0.659,0.52 0,0.216 -0.102,0.332 -0.489,0.562 l -1.021,0.609 c -0.689,0.407 -0.875,0.872 -0.875,1.415 0,0.814 0.46,1.445 1.896,1.445 0.54,0 1.289,-0.091 1.57,-0.163 0.06,-0.014 0.111,-0.053 0.111,-0.136 v -0.745 c 0,-0.069 -0.029,-0.127 -0.125,-0.127 h -0.015 c -0.208,0.014 -1.066,0.08 -1.57,0.08 -0.424,0 -0.579,-0.127 -0.579,-0.39 0,-0.21 0.097,-0.307 0.497,-0.52 l 0.948,-0.512 c 0.77,-0.412 0.999,-0.902 0.999,-1.503 0,-0.785 -0.517,-1.623 -2.022,-1.623"
   fill="#005B85"
   inkscape:connector-curvature="0"
   id="path302" />

		</g>
<g
   inkscape:export-ydpi="585.90002"
   inkscape:export-xdpi="585.90002"
   transform="matrix(0.35277777,0,0,-0.35277777,91.437316,212.28741)"
   id="g304"
   style="opacity:1;stop-opacity:1">
			<path
   d="m 547.33,-752.064 h -1.201 v -4.31 c 0,-0.08 -0.066,-0.147 -0.147,-0.147 h -0.97 c -0.082,0 -0.149,0.066 -0.149,0.147 v 4.31 h -1.206 c -0.082,0 -0.15,0.061 -0.15,0.141 v 0.764 c 0,0.08 0.068,0.138 0.15,0.138 h 3.673 c 0.08,0 0.155,-0.058 0.155,-0.138 v -0.764 c 0,-0.08 -0.074,-0.141 -0.155,-0.141"
   fill="#005B85"
   inkscape:connector-curvature="0"
   id="path306" />

		</g>
<g
   inkscape:export-ydpi="585.90002"
   inkscape:export-xdpi="585.90002"
   transform="matrix(0.35277777,0,0,-0.35277777,95.352657,215.91785)"
   id="g308"
   style="opacity:1;stop-opacity:1">
			<path
   d="m 546.963,-751.722 c -0.472,-0.102 -1.571,-0.188 -2.329,-0.188 -1.845,0 -3.489,0.473 -3.489,3.073 v 7.394 c 0,0.158 0.129,0.285 0.286,0.285 h 1.873 c 0.156,0 0.286,-0.127 0.286,-0.285 v -7.394 c 0,-0.742 0.242,-0.972 0.915,-0.972 h 2.458 c 0.158,0 0.286,-0.127 0.286,-0.282 v -1.331 c 0,-0.187 -0.086,-0.259 -0.286,-0.3"
   fill="#005B85"
   inkscape:connector-curvature="0"
   id="path310" />

		</g>
<g
   inkscape:export-ydpi="585.90002"
   inkscape:export-xdpi="585.90002"
   transform="matrix(0.35277777,0,0,-0.35277777,96.730536,215.93887)"
   id="g312"
   style="opacity:1;stop-opacity:1">
			<path
   d="m 546.834,-751.721 h -1.916 c -0.158,0 -0.257,0.127 -0.257,0.288 v 10.062 c 0,0.158 0.1,0.271 0.257,0.271 h 1.916 c 0.158,0 0.271,-0.113 0.271,-0.271 v -10.062 c 0,-0.16 -0.113,-0.288 -0.271,-0.288"
   fill="#005B85"
   inkscape:connector-curvature="0"
   id="path314" />

		</g>
<g
   inkscape:export-ydpi="585.90002"
   inkscape:export-xdpi="585.90002"
   transform="matrix(0.35277777,0,0,-0.35277777,100.4764,215.93887)"
   id="g316"
   style="opacity:1;stop-opacity:1">
			<path
   d="m 546.483,-751.721 h -1.916 c -0.158,0 -0.259,0.127 -0.259,0.288 v 6.375 c 0,1.6 -0.527,1.985 -1.701,1.985 -0.585,0 -1.229,-0.028 -1.672,-0.086 v -8.274 c 0,-0.161 -0.115,-0.288 -0.273,-0.288 h -1.9 c -0.158,0 -0.273,0.127 -0.273,0.288 v 9.334 c 0,0.642 0.172,0.8 0.729,0.886 0.758,0.113 2.388,0.244 3.117,0.244 2.774,0 4.418,-0.772 4.418,-4.089 v -6.375 c 10e-4,-0.16 -0.113,-0.288 -0.27,-0.288"
   fill="#005B85"
   inkscape:connector-curvature="0"
   id="path318" />

		</g>
<g
   inkscape:export-ydpi="585.90002"
   inkscape:export-xdpi="585.90002"
   transform="matrix(0.35277777,0,0,-0.35277777,103.57076,215.91785)"
   id="g320"
   style="opacity:1;stop-opacity:1">
			<path
   d="m 546.192,-751.722 c -0.5,-0.072 -1.229,-0.188 -2.774,-0.188 -1.844,0 -3.473,0.473 -3.473,3.073 v 4.75 c 0,2.599 1.643,3.059 3.487,3.059 1.545,0 2.26,-0.116 2.76,-0.188 0.201,-0.028 0.285,-0.097 0.285,-0.285 v -1.329 c 0,-0.161 -0.127,-0.288 -0.285,-0.288 h -2.901 c -0.673,0 -0.916,-0.227 -0.916,-0.969 v -1.304 h 3.703 c 0.158,0 0.286,-0.127 0.286,-0.285 v -1.356 c 0,-0.161 -0.129,-0.288 -0.286,-0.288 h -3.703 v -1.517 c 0,-0.742 0.244,-0.972 0.916,-0.972 h 2.901 c 0.158,0 0.285,-0.127 0.285,-0.282 v -1.331 c 0,-0.187 -0.084,-0.272 -0.285,-0.3"
   fill="#005B85"
   inkscape:connector-curvature="0"
   id="path322" />

		</g>
<g
   inkscape:export-ydpi="585.90002"
   inkscape:export-xdpi="585.90002"
   transform="matrix(0.35277777,0,0,-0.35277777,107.73967,213.69062)"
   id="g324"
   style="opacity:1;stop-opacity:1">
			<path
   d="m 545.801,-751.932 c 0,1.714 -0.57,2.444 -1.772,2.444 -1.199,0 -1.758,-0.731 -1.758,-2.444 v -1.702 c 0,-1.714 0.559,-2.444 1.758,-2.444 1.201,0 1.772,0.731 1.772,2.444 z m -1.772,-6.292 c -2.359,0 -4.23,1.273 -4.23,4.59 v 1.702 c 0,3.316 1.871,4.59 4.23,4.59 2.359,0 4.233,-1.273 4.233,-4.59 v -1.702 c -10e-4,-3.316 -1.875,-4.59 -4.233,-4.59"
   fill="#005B85"
   inkscape:connector-curvature="0"
   id="path326" />

		</g>
<g
   inkscape:export-ydpi="585.90002"
   inkscape:export-xdpi="585.90002"
   transform="matrix(0.35277777,0,0,-0.35277777,111.54357,212.78317)"
   id="g328"
   style="opacity:1;stop-opacity:1">
			<path
   d="m 545.446,-752.018 h -2.901 c -0.673,0 -0.916,-0.227 -0.916,-0.972 v -1.287 h 3.704 c 0.155,0 0.285,-0.127 0.285,-0.285 v -1.356 c 0,-0.161 -0.13,-0.288 -0.285,-0.288 h -3.704 v -4.172 c 0,-0.161 -0.13,-0.288 -0.285,-0.288 h -1.86 c -0.158,0 -0.285,0.127 -0.285,0.288 v 7.388 c 0,2.602 1.644,3.059 3.488,3.059 1.545,0 2.259,-0.114 2.76,-0.185 0.199,-0.028 0.285,-0.1 0.285,-0.282 v -1.331 c -10e-4,-0.159 -0.129,-0.289 -0.286,-0.289"
   fill="#005B85"
   inkscape:connector-curvature="0"
   id="path330" />

		</g>
<g
   inkscape:export-ydpi="585.90002"
   inkscape:export-xdpi="585.90002"
   transform="matrix(0.35277777,0,0,-0.35277777,115.64997,213.66476)"
   id="g332"
   style="opacity:1;stop-opacity:1">
			<path
   d="m 545.061,-751.933 c 0,1.927 -0.828,2.444 -2.115,2.444 -0.36,0 -0.817,-0.014 -1.016,-0.03 v -6.674 c 0.199,-0.017 0.656,-0.03 1.016,-0.03 1.287,0 2.115,0.515 2.115,2.444 z m -2.115,-6.364 c -1.188,0 -2.461,0.116 -3.045,0.216 -0.274,0.042 -0.415,0.169 -0.415,0.498 v 9.453 c 0,0.327 0.141,0.454 0.415,0.498 0.584,0.102 1.857,0.216 3.045,0.216 2.846,0 4.559,-1.503 4.559,-4.518 v -1.846 c 0,-3.014 -1.713,-4.517 -4.559,-4.517"
   fill="#005B85"
   inkscape:connector-curvature="0"
   id="path334" />

		</g>
<g
   inkscape:export-ydpi="585.90002"
   inkscape:export-xdpi="585.90002"
   transform="matrix(0.35277777,0,0,-0.35277777,119.4382,215.91785)"
   id="g336"
   style="opacity:1;stop-opacity:1">
			<path
   d="m 544.706,-751.722 c -0.501,-0.072 -1.229,-0.188 -2.774,-0.188 -1.844,0 -3.474,0.473 -3.474,3.073 v 4.75 c 0,2.599 1.644,3.059 3.488,3.059 1.545,0 2.259,-0.116 2.76,-0.188 0.199,-0.028 0.285,-0.097 0.285,-0.285 v -1.329 c 0,-0.161 -0.13,-0.288 -0.285,-0.288 h -2.901 c -0.675,0 -0.916,-0.227 -0.916,-0.969 v -1.304 h 3.701 c 0.158,0 0.288,-0.127 0.288,-0.285 v -1.356 c 0,-0.161 -0.13,-0.288 -0.288,-0.288 h -3.701 v -1.517 c 0,-0.742 0.241,-0.972 0.916,-0.972 h 2.901 c 0.155,0 0.285,-0.127 0.285,-0.282 v -1.331 c 0,-0.187 -0.085,-0.272 -0.285,-0.3"
   fill="#005B85"
   inkscape:connector-curvature="0"
   id="path338" />

		</g>
<g
   inkscape:export-ydpi="585.90002"
   inkscape:export-xdpi="585.90002"
   transform="matrix(0.35277777,0,0,-0.35277777,122.46455,212.78317)"
   id="g340"
   style="opacity:1;stop-opacity:1">
			<path
   d="m 544.421,-752.018 h -2.901 c -0.673,0 -0.916,-0.227 -0.916,-0.972 v -1.287 h 3.704 c 0.158,0 0.285,-0.127 0.285,-0.285 v -1.356 c 0,-0.161 -0.127,-0.288 -0.285,-0.288 h -3.704 v -4.172 c 0,-0.161 -0.127,-0.288 -0.285,-0.288 h -1.857 c -0.161,0 -0.285,0.127 -0.285,0.288 v 7.388 c 0,2.602 1.642,3.059 3.488,3.059 1.542,0 2.259,-0.114 2.757,-0.185 0.199,-0.028 0.285,-0.1 0.285,-0.282 v -1.331 c -10e-4,-0.159 -0.128,-0.289 -0.286,-0.289"
   fill="#005B85"
   inkscape:connector-curvature="0"
   id="path342" />

		</g>
<g
   inkscape:export-ydpi="585.90002"
   inkscape:export-xdpi="585.90002"
   transform="matrix(0.35277777,0,0,-0.35277777,125.49604,215.91785)"
   id="g344"
   style="opacity:1;stop-opacity:1">
			<path
   d="m 544.138,-751.722 c -0.501,-0.072 -1.229,-0.188 -2.774,-0.188 -1.844,0 -3.474,0.473 -3.474,3.073 v 4.75 c 0,2.599 1.644,3.059 3.488,3.059 1.545,0 2.259,-0.116 2.76,-0.188 0.199,-0.028 0.285,-0.097 0.285,-0.285 v -1.329 c 0,-0.161 -0.127,-0.288 -0.285,-0.288 h -2.904 c -0.673,0 -0.914,-0.227 -0.914,-0.969 v -1.304 h 3.701 c 0.158,0 0.288,-0.127 0.288,-0.285 v -1.356 c 0,-0.161 -0.13,-0.288 -0.288,-0.288 h -3.701 v -1.517 c 0,-0.742 0.241,-0.972 0.914,-0.972 h 2.904 c 0.158,0 0.285,-0.127 0.285,-0.282 v -1.331 c 0,-0.187 -0.086,-0.272 -0.285,-0.3"
   fill="#005B85"
   inkscape:connector-curvature="0"
   id="path346" />

		</g>
<g
   inkscape:export-ydpi="585.90002"
   inkscape:export-xdpi="585.90002"
   transform="matrix(0.35277777,0,0,-0.35277777,129.17438,215.93887)"
   id="g348"
   style="opacity:1;stop-opacity:1">
			<path
   d="m 543.793,-751.721 h -1.916 c -0.158,0 -0.257,0.127 -0.257,0.288 v 6.375 c 0,1.6 -0.529,1.985 -1.702,1.985 -0.584,0 -1.229,-0.028 -1.672,-0.086 v -8.274 c 0,-0.161 -0.114,-0.288 -0.271,-0.288 h -1.902 c -0.158,0 -0.271,0.127 -0.271,0.288 v 9.334 c 0,0.642 0.172,0.8 0.728,0.886 0.758,0.113 2.389,0.244 3.117,0.244 2.774,0 4.418,-0.772 4.418,-4.089 v -6.375 c -0.001,-0.16 -0.114,-0.288 -0.272,-0.288"
   fill="#005B85"
   inkscape:connector-curvature="0"
   id="path350" />

		</g>
<g
   inkscape:export-ydpi="585.90002"
   inkscape:export-xdpi="585.90002"
   transform="matrix(0.35277777,0,0,-0.35277777,131.06386,215.98572)"
   id="g352"
   style="opacity:1;stop-opacity:1">
			<path
   d="m 543.616,-751.718 c -1.129,0 -1.974,0.13 -2.702,0.316 -0.144,0.044 -0.288,0.127 -0.288,0.288 v 1.398 c 0,0.199 0.116,0.274 0.257,0.274 h 0.044 c 0.584,-0.058 2.159,-0.172 2.716,-0.172 0.988,0 1.271,0.313 1.271,0.999 0,0.415 -0.199,0.642 -0.941,1.085 l -1.973,1.174 c -1.329,0.786 -1.686,1.686 -1.686,2.729 0,1.575 0.886,2.79 3.66,2.79 1.044,0 2.486,-0.174 3.031,-0.316 0.114,-0.028 0.213,-0.102 0.213,-0.257 v -1.442 c 0,-0.13 -0.055,-0.244 -0.244,-0.244 h -0.028 c -0.399,0.028 -2.057,0.155 -3.031,0.155 -0.814,0 -1.116,-0.244 -1.116,-0.756 0,-0.401 0.186,-0.587 0.958,-1.002 l 1.833,-0.988 c 1.484,-0.8 1.929,-1.741 1.929,-2.898 10e-4,-1.516 -1.001,-3.133 -3.903,-3.133"
   fill="#005B85"
   inkscape:connector-curvature="0"
   id="path354" />

		</g>
<g
   inkscape:export-ydpi="585.90002"
   inkscape:export-xdpi="585.90002"
   transform="matrix(0.35277777,0,0,-0.35277777,135.33695,215.91785)"
   id="g356"
   style="opacity:1;stop-opacity:1">
			<path
   d="m 543.213,-751.722 c -0.498,-0.072 -1.226,-0.188 -2.771,-0.188 -1.844,0 -3.474,0.473 -3.474,3.073 v 4.75 c 0,2.599 1.642,3.059 3.488,3.059 1.545,0 2.259,-0.116 2.757,-0.188 0.202,-0.028 0.288,-0.097 0.288,-0.285 v -1.329 c 0,-0.161 -0.127,-0.288 -0.288,-0.288 h -2.901 c -0.673,0 -0.914,-0.227 -0.914,-0.969 v -1.304 h 3.701 c 0.158,0 0.288,-0.127 0.288,-0.285 v -1.356 c 0,-0.161 -0.13,-0.288 -0.288,-0.288 h -3.701 v -1.517 c 0,-0.742 0.241,-0.972 0.914,-0.972 h 2.901 c 0.161,0 0.288,-0.127 0.288,-0.282 v -1.331 c 0,-0.187 -0.086,-0.272 -0.288,-0.3"
   fill="#005B85"
   inkscape:connector-curvature="0"
   id="path358" />

		</g>
<g
   inkscape:export-ydpi="585.90002"
   inkscape:export-xdpi="585.90002"
   transform="matrix(0.35277777,0,0,-0.35277777,15.342941,255.91847)"
   id="g360"
   style="opacity:1;stop-opacity:1">
			<g
   id="g59">
				<defs
   id="defs45">
					<path
   inkscape:connector-curvature="0"
   d="m 803.424,-304.265 c 58.894,-1.709 106.111,-49.985 106.111,-109.279 v 0 c 0,-18.697 -4.695,-36.301 -12.966,-51.682 v 0 l 15.062,-8.66 c 9.73,17.946 15.269,38.502 15.269,60.343 v 0 c 0,68.888 -54.999,124.935 -123.476,126.644 v 0 z M 673.51,-413.544 c 0,-21.841 5.527,-42.396 15.268,-60.343 v 0 l 15.063,8.66 c -8.273,15.382 -12.966,32.986 -12.966,51.682 v 0 c 0,59.294 47.203,107.57 106.087,109.279 v 0 17.365 C 728.485,-288.609 673.51,-344.656 673.51,-413.544 m 23.954,-0.003 c 0,-56.747 46.001,-102.746 102.746,-102.746 v 0 c 56.745,0 102.745,45.999 102.745,102.746 v 0 c 0,56.745 -45.999,102.746 -102.745,102.746 v 0 c -56.745,10e-4 -102.746,-46 -102.746,-102.746 m 102.735,-109.32 c -39.379,0 -73.89,20.817 -93.135,52.045 v 0 l -15.052,-8.659 c 22.243,-36.438 62.37,-60.751 108.187,-60.751 v 0 c 45.814,0 85.956,24.313 108.206,60.762 v 0 l -15.062,8.648 c -19.244,-31.228 -53.755,-52.045 -93.144,-52.045"
   id="SVGID_1_" />

				</defs>

				<clipPath
   id="SVGID_2_">
					<use
   height="100%"
   width="100%"
   y="0"
   x="0"
   id="use47"
   overflow="visible"
   xlink:href="#SVGID_1_" />

				</clipPath>

				<g
   clip-path="url(#SVGID_2_)"
   id="g362">
					<g
   id="g368">
						<g
   id="g370">
							
								<linearGradient
   gradientTransform="matrix(-5.7882,-283.6203,-283.6203,5.7882,-451040.16,-9404.1328)"
   y2="-1591.8103"
   x2="-64.377602"
   y1="-1591.8103"
   x1="-64.718597"
   gradientUnits="userSpaceOnUse"
   id="path378_1_">
								<stop
   id="stop50"
   style="stop-color:#00ADEF"
   offset="0" />

								<stop
   id="stop52"
   style="stop-color:#005B85"
   offset="1" />

							</linearGradient>

							<path
   style="fill:url(#path378_1_)"
   d="m 803.424,-304.265 c 58.894,-1.709 106.111,-49.985 106.111,-109.279 v 0 c 0,-18.697 -4.695,-36.301 -12.966,-51.682 v 0 l 15.062,-8.66 c 9.73,17.946 15.269,38.502 15.269,60.343 v 0 c 0,68.888 -54.999,124.935 -123.476,126.644 v 0 z M 673.51,-413.544 c 0,-21.841 5.527,-42.396 15.268,-60.343 v 0 l 15.063,8.66 c -8.273,15.382 -12.966,32.986 -12.966,51.682 v 0 c 0,59.294 47.203,107.57 106.087,109.279 v 0 17.365 C 728.485,-288.609 673.51,-344.656 673.51,-413.544 m 23.954,-0.003 c 0,-56.747 46.001,-102.746 102.746,-102.746 v 0 c 56.745,0 102.745,45.999 102.745,102.746 v 0 c 0,56.745 -45.999,102.746 -102.745,102.746 v 0 c -56.745,10e-4 -102.746,-46 -102.746,-102.746 m 102.735,-109.32 c -39.379,0 -73.89,20.817 -93.135,52.045 v 0 l -15.052,-8.659 c 22.243,-36.438 62.37,-60.751 108.187,-60.751 v 0 c 45.814,0 85.956,24.313 108.206,60.762 v 0 l -15.062,8.648 c -19.244,-31.228 -53.755,-52.045 -93.144,-52.045"
   fill="url(#path378_1_)"
   inkscape:connector-curvature="0"
   id="path378" />

						</g>

					</g>

				</g>

			</g>

		</g>
<g
   inkscape:export-ydpi="585.90002"
   inkscape:export-xdpi="585.90002"
   transform="matrix(0.35277777,0,0,-0.35277777,15.342941,251.91847)"
   id="g380"
   style="opacity:1;stop-opacity:1">
			<g
   id="g77">
				<defs
   id="defs63">
					<path
   inkscape:connector-curvature="0"
   d="m 850.373,-565.572 c -2.97,-0.194 -5.509,-0.858 -7.615,-2.004 v 0 c -5.127,-2.765 -7.69,-7.745 -7.69,-14.945 v 0 c 0,-7.485 2.812,-12.731 8.44,-15.734 v 0 c 2.289,-1.24 5.077,-1.979 8.366,-2.217 v 0 h 14.447 c 2.862,-1.334 4.294,-2.86 4.294,-4.576 v 0 c 0,-2.433 -1.481,-3.792 -4.435,-4.08 v 0 h -31.112 v -5.935 h 32.756 c 6.245,0.426 9.343,3.565 9.296,9.409 v 0 c 0,4.562 -1.639,7.768 -4.925,9.622 v 0 c -1.379,0.758 -3.042,1.21 -4.994,1.354 v 0 h -15.062 c -1.996,0.188 -3.687,0.689 -5.066,1.5 v 0 c -3.427,2.051 -5.138,5.625 -5.138,10.73 v 0 c 0,6.768 2.812,10.417 8.438,10.94 v 0 h 32.765 l 3.995,5.938 h -36.76 z m -76.023,0 v -57.213 h 6.796 v 51.206 h 27.389 c 7.25,-1.952 10.874,-6.206 10.874,-12.767 v 0 c 0,-6.563 -3.347,-10.887 -10.032,-12.98 v 0 h -7.596 l 16.515,-25.459 h 9.193 l -13.946,20.925 c 2.478,0.623 4.601,1.597 6.364,2.932 v 0 c 4.244,3.236 6.367,8.022 6.367,14.356 v 0 c 0,6.954 -2.696,12.191 -8.083,15.715 v 0 c -2.24,1.475 -4.911,2.569 -8.008,3.286 v 0 H 774.35 Z m -37.187,0 c -4.627,-0.479 -8.608,-1.716 -11.945,-3.718 v 0 c -7.964,-4.772 -11.943,-12.875 -11.943,-24.319 v 0 c 0,-12.014 3.599,-20.476 10.799,-25.387 v 0 c 3.005,-2.051 6.605,-3.314 10.8,-3.79 v 0 h 32.398 l 0.071,6.004 H 736.52 c -3.196,0.285 -5.936,1.215 -8.226,2.785 v 0 c -5.482,3.856 -8.224,10.616 -8.224,20.28 v 0 c 0,9.235 3.076,15.687 9.225,19.35 v 0 c 2.576,1.572 5.651,2.5 9.228,2.788 v 0 h 24.888 l 3.29,6.007 z m 45.84,-7.582 v -49.631 h 6.653 v 28.103 l 17.95,-28.103 h 8.739 l -17.337,26.746 h 9.304 c 6.154,2.389 9.235,6.289 9.235,11.696 v 0 c 0,5.116 -3.172,8.847 -9.512,11.189 v 0 z m 6.654,-6.221 h 16.536 c 1.329,-0.144 2.444,-0.692 3.35,-1.647 v 0 c 0.902,-0.952 1.354,-2.098 1.354,-3.433 v 0 c 0.094,-3.386 -2.018,-5.246 -6.345,-5.578 v 0 h -14.894 v 10.658 z m 60.287,6.149 c -4.147,-1.141 -6.22,-4.346 -6.22,-9.62 v 0 c 0,-4.321 1.644,-7.292 4.936,-8.908 v 0 c 1.379,-0.714 3.023,-1.116 4.933,-1.21 v 0 h 14.447 c 2.143,-0.194 4.003,-0.72 5.578,-1.578 v 0 c 3.671,-2.107 5.481,-5.81 5.434,-11.12 v 0 c -0.047,-4.592 -1.716,-7.82 -5.005,-9.683 v 0 c -1.384,-0.767 -3.028,-1.243 -4.936,-1.437 v 0 h -34.043 v -6.004 h 32.9 c 3.574,0.044 6.624,0.642 9.152,1.785 v 0 c 6.151,2.718 9.226,7.892 9.226,15.521 v 0 c 0,7.626 -2.74,13.013 -8.224,16.161 v 0 c -2.289,1.287 -5.03,2.073 -8.224,2.361 v 0 h -16.665 c -1.954,0.426 -2.932,1.866 -2.932,4.321 v 0 c 0,2.22 1.049,3.308 3.147,3.261 v 0 h 24.673 l 4.006,6.148 h -32.183 z m -110.278,0 c -3.482,-0.191 -6.436,-0.977 -8.869,-2.359 v 0 c -5.911,-3.338 -8.868,-9.442 -8.868,-18.309 v 0 c 0,-8.867 2.599,-15.065 7.797,-18.597 v 0 c 2.192,-1.475 4.814,-2.359 7.866,-2.644 v 0 h 29.681 l 0.071,6.004 h -27.769 c -2.141,0.241 -3.974,0.886 -5.498,1.935 v 0 c -3.664,2.574 -5.494,7.078 -5.494,13.514 v 0 c 0,5.96 2.116,10.132 6.349,12.515 v 0 c 1.714,1.005 3.808,1.6 6.281,1.791 v 0 h 18.057 l 3.426,6.148 h -23.03 z"
   id="SVGID_3_" />

				</defs>

				<clipPath
   id="SVGID_4_">
					<use
   height="100%"
   width="100%"
   y="0"
   x="0"
   id="use65"
   overflow="visible"
   xlink:href="#SVGID_3_" />

				</clipPath>

				<g
   clip-path="url(#SVGID_4_)"
   id="g382">
					<g
   id="g388">
						<g
   id="g390">
							
								<linearGradient
   gradientTransform="matrix(-183.02,0.9434,0.9434,183.02,-9494.9961,290427.78)"
   y2="-1589.7784"
   x2="-64.5979"
   y1="-1589.7784"
   x1="-64.938698"
   gradientUnits="userSpaceOnUse"
   id="path398_1_">
								<stop
   id="stop68"
   style="stop-color:#00ADEF"
   offset="0" />

								<stop
   id="stop70"
   style="stop-color:#005B85"
   offset="1" />

							</linearGradient>

							<path
   style="fill:url(#path398_1_)"
   d="m 850.373,-565.572 c -2.97,-0.194 -5.509,-0.858 -7.615,-2.004 v 0 c -5.127,-2.765 -7.69,-7.745 -7.69,-14.945 v 0 c 0,-7.485 2.812,-12.731 8.44,-15.734 v 0 c 2.289,-1.24 5.077,-1.979 8.366,-2.217 v 0 h 14.447 c 2.862,-1.334 4.294,-2.86 4.294,-4.576 v 0 c 0,-2.433 -1.481,-3.792 -4.435,-4.08 v 0 h -31.112 v -5.935 h 32.756 c 6.245,0.426 9.343,3.565 9.296,9.409 v 0 c 0,4.562 -1.639,7.768 -4.925,9.622 v 0 c -1.379,0.758 -3.042,1.21 -4.994,1.354 v 0 h -15.062 c -1.996,0.188 -3.687,0.689 -5.066,1.5 v 0 c -3.427,2.051 -5.138,5.625 -5.138,10.73 v 0 c 0,6.768 2.812,10.417 8.438,10.94 v 0 h 32.765 l 3.995,5.938 h -36.76 z m -76.023,0 v -57.213 h 6.796 v 51.206 h 27.389 c 7.25,-1.952 10.874,-6.206 10.874,-12.767 v 0 c 0,-6.563 -3.347,-10.887 -10.032,-12.98 v 0 h -7.596 l 16.515,-25.459 h 9.193 l -13.946,20.925 c 2.478,0.623 4.601,1.597 6.364,2.932 v 0 c 4.244,3.236 6.367,8.022 6.367,14.356 v 0 c 0,6.954 -2.696,12.191 -8.083,15.715 v 0 c -2.24,1.475 -4.911,2.569 -8.008,3.286 v 0 H 774.35 Z m -37.187,0 c -4.627,-0.479 -8.608,-1.716 -11.945,-3.718 v 0 c -7.964,-4.772 -11.943,-12.875 -11.943,-24.319 v 0 c 0,-12.014 3.599,-20.476 10.799,-25.387 v 0 c 3.005,-2.051 6.605,-3.314 10.8,-3.79 v 0 h 32.398 l 0.071,6.004 H 736.52 c -3.196,0.285 -5.936,1.215 -8.226,2.785 v 0 c -5.482,3.856 -8.224,10.616 -8.224,20.28 v 0 c 0,9.235 3.076,15.687 9.225,19.35 v 0 c 2.576,1.572 5.651,2.5 9.228,2.788 v 0 h 24.888 l 3.29,6.007 z m 45.84,-7.582 v -49.631 h 6.653 v 28.103 l 17.95,-28.103 h 8.739 l -17.337,26.746 h 9.304 c 6.154,2.389 9.235,6.289 9.235,11.696 v 0 c 0,5.116 -3.172,8.847 -9.512,11.189 v 0 z m 6.654,-6.221 h 16.536 c 1.329,-0.144 2.444,-0.692 3.35,-1.647 v 0 c 0.902,-0.952 1.354,-2.098 1.354,-3.433 v 0 c 0.094,-3.386 -2.018,-5.246 -6.345,-5.578 v 0 h -14.894 v 10.658 z m 60.287,6.149 c -4.147,-1.141 -6.22,-4.346 -6.22,-9.62 v 0 c 0,-4.321 1.644,-7.292 4.936,-8.908 v 0 c 1.379,-0.714 3.023,-1.116 4.933,-1.21 v 0 h 14.447 c 2.143,-0.194 4.003,-0.72 5.578,-1.578 v 0 c 3.671,-2.107 5.481,-5.81 5.434,-11.12 v 0 c -0.047,-4.592 -1.716,-7.82 -5.005,-9.683 v 0 c -1.384,-0.767 -3.028,-1.243 -4.936,-1.437 v 0 h -34.043 v -6.004 h 32.9 c 3.574,0.044 6.624,0.642 9.152,1.785 v 0 c 6.151,2.718 9.226,7.892 9.226,15.521 v 0 c 0,7.626 -2.74,13.013 -8.224,16.161 v 0 c -2.289,1.287 -5.03,2.073 -8.224,2.361 v 0 h -16.665 c -1.954,0.426 -2.932,1.866 -2.932,4.321 v 0 c 0,2.22 1.049,3.308 3.147,3.261 v 0 h 24.673 l 4.006,6.148 h -32.183 z m -110.278,0 c -3.482,-0.191 -6.436,-0.977 -8.869,-2.359 v 0 c -5.911,-3.338 -8.868,-9.442 -8.868,-18.309 v 0 c 0,-8.867 2.599,-15.065 7.797,-18.597 v 0 c 2.192,-1.475 4.814,-2.359 7.866,-2.644 v 0 h 29.681 l 0.071,6.004 h -27.769 c -2.141,0.241 -3.974,0.886 -5.498,1.935 v 0 c -3.664,2.574 -5.494,7.078 -5.494,13.514 v 0 c 0,5.96 2.116,10.132 6.349,12.515 v 0 c 1.714,1.005 3.808,1.6 6.281,1.791 v 0 h 18.057 l 3.426,6.148 h -23.03 z"
   fill="url(#path398_1_)"
   inkscape:connector-curvature="0"
   id="path398" />

						</g>

					</g>

				</g>

			</g>

		</g>
<g
   inkscape:export-ydpi="585.90002"
   inkscape:export-xdpi="585.90002"
   transform="matrix(0.35277777,0,0,-0.35277777,15.342941,255.91847)"
   id="g400"
   style="opacity:1;stop-opacity:1">
			<g
   id="g95">
				<defs
   id="defs81">
					<path
   inkscape:connector-curvature="0"
   d="m 801.235,-326.615 c -1.32,0.451 -2.735,0.693 -4.204,0.693 v 0 c -0.976,0 -1.953,-0.112 -2.911,-0.334 v 0 c -3.361,-0.778 -6.219,-2.821 -8.046,-5.751 v 0 c -1.247,-2.001 -1.911,-4.251 -1.961,-6.547 v 0 c -6.242,-5.051 -10.057,-12.73 -10.057,-21.135 v 0 c 0,-3.968 0.868,-7.862 2.53,-11.436 v 0 c -1.794,-0.612 -3.435,-1.69 -4.732,-3.182 v 0 l -20.153,-23.18 c -0.118,-0.137 -0.234,-0.276 -0.345,-0.418 v 0 l -20.964,-24.078 c -0.12,-0.125 -0.237,-0.252 -0.35,-0.381 v 0 l -1.983,-2.263 c -0.289,-0.313 -0.559,-0.642 -0.808,-0.987 v 0 c -3.794,-5.208 -5.792,-11.377 -5.777,-17.84 v 0 c 0.014,-6.046 4.921,-10.936 10.964,-10.936 v 0 c 0.008,0 29.3,0.064 29.3,0.064 v 0 c 0.696,-2.602 1.633,-5.075 2.799,-7.383 v 0 c 1.65,-3.269 4.804,-5.47 8.374,-5.931 v 0 c 1.304,-14.482 13.507,-25.867 28.321,-25.867 v 0 c 14.81,0 27.012,11.386 28.319,25.861 v 0 c 3.588,0.451 6.76,2.655 8.415,5.935 v 0 c 1.168,2.309 2.104,4.782 2.801,7.385 v 0 c 0,0 29.138,-0.064 29.146,-0.064 v 0 c 2.898,0 5.68,1.147 7.734,3.193 v 0 c 2.062,2.053 3.222,4.837 3.228,7.744 v 0 c 0.017,6.464 -1.982,12.631 -5.777,17.84 v 0 c -0.221,0.306 -0.479,0.619 -0.742,0.909 v 0 l -2.048,2.338 c -0.114,0.13 -0.23,0.256 -0.352,0.381 v 0 l -20.964,24.082 c -0.113,0.14 -0.227,0.28 -0.346,0.415 v 0 l -20.153,23.18 c -1.26,1.451 -2.846,2.511 -4.581,3.131 v 0 c 1.678,3.588 2.555,7.499 2.555,11.487 v 0 c 0,8.44 -3.837,16.136 -10.112,21.184 v 0 c -0.058,2.278 -0.722,4.512 -1.96,6.498 v 0 c -1.827,2.93 -4.687,4.973 -8.053,5.752 v 0 c -0.952,0.22 -1.929,0.332 -2.907,0.332 v 0 c -1.463,0.002 -2.877,-0.24 -4.2,-0.691 m 1.326,-3.892 c 0.919,0.314 1.891,0.473 2.876,0.473 v 0 c 0.667,0 1.331,-0.075 1.982,-0.226 v 0 c 2.292,-0.531 4.241,-1.924 5.487,-3.922 v 0 c 0.839,-1.341 1.301,-2.871 1.34,-4.424 v 0 c 0.028,-1.21 0.59,-2.345 1.534,-3.102 v 0 c 5.451,-4.383 8.576,-10.939 8.576,-17.981 v 0 c 0,-3.392 -0.728,-6.671 -2.167,-9.745 v 0 c -0.487,-1.048 -0.515,-2.255 -0.069,-3.323 v 0 c 0.446,-1.069 1.32,-1.9 2.411,-2.291 v 0 c 1.105,-0.393 2.096,-1.068 2.862,-1.956 v 0 l 20.155,-23.18 c 0.069,-0.083 0.299,-0.365 0.346,-0.418 v 0 l 20.964,-24.081 c 0.047,-0.054 0.293,-0.316 0.365,-0.399 v 0 l 2.043,-2.329 c 0.213,-0.235 0.374,-0.431 0.515,-0.624 v 0 c 3.275,-4.494 4.999,-9.823 4.986,-15.405 v 0 c -0.003,-1.831 -0.72,-3.552 -2.015,-4.843 v 0 c -1.296,-1.286 -3.012,-1.995 -4.836,-1.995 v 0 l -29.146,0.065 v 0 c -1.863,0 -3.491,-1.251 -3.972,-3.049 v 0 c -0.623,-2.329 -1.464,-4.548 -2.5,-6.592 v 0 c -1.027,-2.042 -2.995,-3.427 -5.26,-3.711 v 0 c -1.916,-0.241 -3.408,-1.786 -3.579,-3.711 v 0 c -1.118,-12.403 -11.759,-22.119 -24.225,-22.119 v 0 c -12.469,0 -23.11,9.719 -24.227,22.125 v 0 c -0.172,1.92 -1.654,3.46 -3.565,3.709 v 0 c -2.251,0.291 -4.209,1.676 -5.233,3.705 v 0 c -1.034,2.047 -1.874,4.266 -2.497,6.595 v 0 c -0.479,1.797 -2.109,3.048 -3.971,3.048 v 0 c -0.004,0 -29.308,-0.065 -29.308,-0.065 v 0 c -3.761,0 -6.835,3.067 -6.844,6.836 v 0 c -0.012,5.583 1.712,10.912 4.99,15.408 v 0 c 0.158,0.216 0.325,0.424 0.505,0.616 v 0 c 0.025,0.028 2.055,2.345 2.055,2.345 v 0 c 0.066,0.075 0.313,0.336 0.359,0.392 v 0 l 20.964,24.077 c 0.047,0.054 0.274,0.338 0.347,0.422 v 0 l 20.153,23.18 c 0.793,0.911 1.815,1.599 2.956,1.988 v 0 c 1.103,0.376 1.996,1.204 2.454,2.277 v 0 c 0.457,1.073 0.437,2.291 -0.055,3.348 v 0 c -1.421,3.062 -2.144,6.325 -2.144,9.701 v 0 c 0,7.015 3.109,13.552 8.53,17.939 v 0 c 0.943,0.761 1.5,1.899 1.527,3.11 v 0 c 0.033,1.563 0.494,3.104 1.338,4.457 v 0 c 1.246,1.999 3.193,3.391 5.484,3.921 v 0 c 0.651,0.151 1.32,0.227 1.983,0.227 v 0 c 0.988,0 1.956,-0.159 2.878,-0.473 v 0 c 0.43,-0.145 0.879,-0.217 1.326,-0.217 v 0 c 0.444,0 0.893,0.071 1.322,0.217"
   id="SVGID_5_" />

				</defs>

				<clipPath
   id="SVGID_6_">
					<use
   height="100%"
   width="100%"
   y="0"
   x="0"
   id="use83"
   overflow="visible"
   xlink:href="#SVGID_5_" />

				</clipPath>

				<g
   clip-path="url(#SVGID_6_)"
   id="g402">
					<g
   id="g408">
						<g
   id="g410">
							
								<linearGradient
   gradientTransform="matrix(3.5,-205,-205,-3.5,-325300.63,-19101.498)"
   y2="-1591.8269"
   x2="-64.238998"
   y1="-1591.8269"
   x1="-64.5802"
   gradientUnits="userSpaceOnUse"
   id="path418_1_">
								<stop
   id="stop86"
   style="stop-color:#FFFFFF"
   offset="0" />

								<stop
   id="stop88"
   style="stop-color:#00ADEF"
   offset="1" />

							</linearGradient>

							<path
   style="fill:url(#path418_1_)"
   d="m 801.235,-326.615 c -1.32,0.451 -2.735,0.693 -4.204,0.693 v 0 c -0.976,0 -1.953,-0.112 -2.911,-0.334 v 0 c -3.361,-0.778 -6.219,-2.821 -8.046,-5.751 v 0 c -1.247,-2.001 -1.911,-4.251 -1.961,-6.547 v 0 c -6.242,-5.051 -10.057,-12.73 -10.057,-21.135 v 0 c 0,-3.968 0.868,-7.862 2.53,-11.436 v 0 c -1.794,-0.612 -3.435,-1.69 -4.732,-3.182 v 0 l -20.153,-23.18 c -0.118,-0.137 -0.234,-0.276 -0.345,-0.418 v 0 l -20.964,-24.078 c -0.12,-0.125 -0.237,-0.252 -0.35,-0.381 v 0 l -1.983,-2.263 c -0.289,-0.313 -0.559,-0.642 -0.808,-0.987 v 0 c -3.794,-5.208 -5.792,-11.377 -5.777,-17.84 v 0 c 0.014,-6.046 4.921,-10.936 10.964,-10.936 v 0 c 0.008,0 29.3,0.064 29.3,0.064 v 0 c 0.696,-2.602 1.633,-5.075 2.799,-7.383 v 0 c 1.65,-3.269 4.804,-5.47 8.374,-5.931 v 0 c 1.304,-14.482 13.507,-25.867 28.321,-25.867 v 0 c 14.81,0 27.012,11.386 28.319,25.861 v 0 c 3.588,0.451 6.76,2.655 8.415,5.935 v 0 c 1.168,2.309 2.104,4.782 2.801,7.385 v 0 c 0,0 29.138,-0.064 29.146,-0.064 v 0 c 2.898,0 5.68,1.147 7.734,3.193 v 0 c 2.062,2.053 3.222,4.837 3.228,7.744 v 0 c 0.017,6.464 -1.982,12.631 -5.777,17.84 v 0 c -0.221,0.306 -0.479,0.619 -0.742,0.909 v 0 l -2.048,2.338 c -0.114,0.13 -0.23,0.256 -0.352,0.381 v 0 l -20.964,24.082 c -0.113,0.14 -0.227,0.28 -0.346,0.415 v 0 l -20.153,23.18 c -1.26,1.451 -2.846,2.511 -4.581,3.131 v 0 c 1.678,3.588 2.555,7.499 2.555,11.487 v 0 c 0,8.44 -3.837,16.136 -10.112,21.184 v 0 c -0.058,2.278 -0.722,4.512 -1.96,6.498 v 0 c -1.827,2.93 -4.687,4.973 -8.053,5.752 v 0 c -0.952,0.22 -1.929,0.332 -2.907,0.332 v 0 c -1.463,0.002 -2.877,-0.24 -4.2,-0.691 m 1.326,-3.892 c 0.919,0.314 1.891,0.473 2.876,0.473 v 0 c 0.667,0 1.331,-0.075 1.982,-0.226 v 0 c 2.292,-0.531 4.241,-1.924 5.487,-3.922 v 0 c 0.839,-1.341 1.301,-2.871 1.34,-4.424 v 0 c 0.028,-1.21 0.59,-2.345 1.534,-3.102 v 0 c 5.451,-4.383 8.576,-10.939 8.576,-17.981 v 0 c 0,-3.392 -0.728,-6.671 -2.167,-9.745 v 0 c -0.487,-1.048 -0.515,-2.255 -0.069,-3.323 v 0 c 0.446,-1.069 1.32,-1.9 2.411,-2.291 v 0 c 1.105,-0.393 2.096,-1.068 2.862,-1.956 v 0 l 20.155,-23.18 c 0.069,-0.083 0.299,-0.365 0.346,-0.418 v 0 l 20.964,-24.081 c 0.047,-0.054 0.293,-0.316 0.365,-0.399 v 0 l 2.043,-2.329 c 0.213,-0.235 0.374,-0.431 0.515,-0.624 v 0 c 3.275,-4.494 4.999,-9.823 4.986,-15.405 v 0 c -0.003,-1.831 -0.72,-3.552 -2.015,-4.843 v 0 c -1.296,-1.286 -3.012,-1.995 -4.836,-1.995 v 0 l -29.146,0.065 v 0 c -1.863,0 -3.491,-1.251 -3.972,-3.049 v 0 c -0.623,-2.329 -1.464,-4.548 -2.5,-6.592 v 0 c -1.027,-2.042 -2.995,-3.427 -5.26,-3.711 v 0 c -1.916,-0.241 -3.408,-1.786 -3.579,-3.711 v 0 c -1.118,-12.403 -11.759,-22.119 -24.225,-22.119 v 0 c -12.469,0 -23.11,9.719 -24.227,22.125 v 0 c -0.172,1.92 -1.654,3.46 -3.565,3.709 v 0 c -2.251,0.291 -4.209,1.676 -5.233,3.705 v 0 c -1.034,2.047 -1.874,4.266 -2.497,6.595 v 0 c -0.479,1.797 -2.109,3.048 -3.971,3.048 v 0 c -0.004,0 -29.308,-0.065 -29.308,-0.065 v 0 c -3.761,0 -6.835,3.067 -6.844,6.836 v 0 c -0.012,5.583 1.712,10.912 4.99,15.408 v 0 c 0.158,0.216 0.325,0.424 0.505,0.616 v 0 c 0.025,0.028 2.055,2.345 2.055,2.345 v 0 c 0.066,0.075 0.313,0.336 0.359,0.392 v 0 l 20.964,24.077 c 0.047,0.054 0.274,0.338 0.347,0.422 v 0 l 20.153,23.18 c 0.793,0.911 1.815,1.599 2.956,1.988 v 0 c 1.103,0.376 1.996,1.204 2.454,2.277 v 0 c 0.457,1.073 0.437,2.291 -0.055,3.348 v 0 c -1.421,3.062 -2.144,6.325 -2.144,9.701 v 0 c 0,7.015 3.109,13.552 8.53,17.939 v 0 c 0.943,0.761 1.5,1.899 1.527,3.11 v 0 c 0.033,1.563 0.494,3.104 1.338,4.457 v 0 c 1.246,1.999 3.193,3.391 5.484,3.921 v 0 c 0.651,0.151 1.32,0.227 1.983,0.227 v 0 c 0.988,0 1.956,-0.159 2.878,-0.473 v 0 c 0.43,-0.145 0.879,-0.217 1.326,-0.217 v 0 c 0.444,0 0.893,0.071 1.322,0.217"
   fill="url(#path418_1_)"
   inkscape:connector-curvature="0"
   id="path418" />

						</g>

					</g>

				</g>

			</g>

		</g>
<g
   inkscape:export-ydpi="585.90002"
   inkscape:export-xdpi="585.90002"
   id="g422"
   style="opacity:1;stop-opacity:1">
			<g
   transform="translate(239.9843,356.4519)"
   id="g428">
				<path
   d="m 52.822,43.953 v -0.007 l 1.839,-3.972 v -0.015 c 0.007,-0.095 0.007,-0.198 0.007,-0.3 -0.004,-1.628 -0.667,-3.101 -1.74,-4.169 -0.654,-0.644 -1.462,-1.147 -2.357,-1.439 l -7.11,8.177 v 0.007 l -7.6,8.729 -0.022,0.022 -0.029,0.029 -0.753,0.859 -0.015,0.015 c -0.819,1.124 -1.3,2.503 -1.296,4.006 l 13.573,-0.03 2.189,-4.742 z M 51.89,62.862 c -0.024,0.22 -0.038,0.444 -0.038,0.67 0,3.405 2.76,6.164 6.164,6.164 3.405,0 6.164,-2.759 6.164,-6.164 0,-0.226 -0.014,-0.45 -0.038,-0.67 H 51.89 Z M 66.784,56.738 66.033,55.111 H 49.958 l -0.751,1.626 c -0.295,0.64 -0.891,1.079 -1.573,1.183 0.175,0.945 0.467,1.849 0.888,2.683 h 19 c 0.421,-0.833 0.712,-1.734 0.888,-2.677 -0.704,-0.089 -1.323,-0.532 -1.626,-1.188 M 80.948,51.89 80.933,51.875 80.18,51.016 80.151,50.987 80.13,50.965 72.53,42.236 v -0.007 l -7.11,-8.177 c -0.895,0.292 -1.702,0.795 -2.356,1.439 -1.073,1.068 -1.736,2.541 -1.74,4.168 0,0.103 0,0.206 0.007,0.301 v 0.015 l 1.839,3.971 v 0.007 l 3.313,7.172 2.189,4.742 13.573,0.03 C 82.248,54.394 81.768,53.014 80.948,51.89 M 57.996,37.153 c 0.731,0 1.394,-0.263 1.923,-0.686 0.288,-0.654 0.66,-1.271 1.12,-1.833 0.036,-0.189 0.059,-0.384 0.059,-0.583 0,-1.714 -1.389,-3.102 -3.102,-3.102 -1.713,0 -3.102,1.388 -3.102,3.102 0,0.201 0.022,0.396 0.059,0.585 0.459,0.562 0.832,1.178 1.118,1.83 0.53,0.423 1.194,0.687 1.925,0.687 m 4.854,-7.712 c 0.571,-0.891 0.906,-1.947 0.906,-3.083 0,-2.557 -1.676,-4.721 -3.988,-5.458 l 0.402,-1.741 c 0.086,-0.369 -0.146,-0.742 -0.517,-0.828 -0.369,-0.085 -0.741,0.147 -0.827,0.517 l -0.417,1.8 c -0.127,-0.008 -0.254,-0.019 -0.383,-0.019 -0.136,0 -0.269,0.011 -0.402,0.02 l -0.417,-1.801 c -0.085,-0.37 -0.458,-0.602 -0.828,-0.517 -0.37,0.085 -0.602,0.458 -0.517,0.828 l 0.405,1.747 c -2.303,0.743 -3.971,2.901 -3.971,5.452 0,1.136 0.335,2.193 0.906,3.083 z M 51.001,52.852 H 64.99 l -2.524,-5.463 h -8.941 z m 10.281,-8.027 0.141,0.306 h -6.855 l 0.142,-0.306 c 0.015,-0.034 0.03,-0.067 0.043,-0.102 l 1.795,-3.875 c 0.102,-0.22 0.164,-0.466 0.185,-0.711 0.001,-0.018 0.002,-0.036 0.003,-0.054 0.009,-0.137 0.011,-0.284 0.01,-0.428 0,-0.353 -0.032,-0.699 -0.078,-1.043 0.429,-0.137 0.882,-0.22 1.358,-0.22 0.453,0 0.887,0.076 1.299,0.202 -0.047,0.349 -0.079,0.701 -0.08,1.059 -10e-4,0.131 0.001,0.263 0.007,0.388 0.01,0.278 0.073,0.542 0.18,0.782 0.005,0.009 0.008,0.017 0.013,0.026 l 1.794,3.876 c 0.013,0.033 0.028,0.066 0.043,0.1"
   fill="#FFFFFF"
   inkscape:connector-curvature="0"
   id="path430" />

			</g>

		</g>

</svg>
