<?xml version="1.0" encoding="utf-8"?>
<!-- Generator: Adobe Illustrator 16.0.0, SVG Export Plug-In . SVG Version: 6.00 Build 0)  -->
<!DOCTYPE svg PUBLIC "-//W3C//DTD SVG 1.1//EN" "http://www.w3.org/Graphics/SVG/1.1/DTD/svg11.dtd">
<svg version="1.1" xmlns="http://www.w3.org/2000/svg" xmlns:xlink="http://www.w3.org/1999/xlink" x="0px" y="0px"
	 width="595.275px" height="841.89px" viewBox="0 0 595.275 841.89" enable-background="new 0 0 595.275 841.89"
	 xml:space="preserve">
<g id="blanco">
	<path fill="#FFFFFF" d="M348.661,401.33c0-28.305-22.844-51.251-51.023-51.251c-28.18,0-51.024,22.946-51.024,51.251
		c0,22.406,14.314,41.45,34.257,48.417h-9.958c-4.564,0-8.265,3.716-8.265,8.302v25.46c0,4.586,3.701,8.302,8.265,8.302h53.45
		c4.565,0,8.265-3.716,8.265-8.302v-25.46c0-4.586-3.699-8.302-8.265-8.302h-9.959C334.347,442.78,348.661,423.736,348.661,401.33z"
		/>
</g>
<g id="svg6364" xmlns:rdf="http://www.w3.org/1999/02/22-rdf-syntax-ns#" xmlns:svg="http://www.w3.org/2000/svg" xmlns:cc="http://creativecommons.org/ns#" xmlns:dc="http://purl.org/dc/elements/1.1/" xmlns:inkscape="http://www.inkscape.org/namespaces/inkscape" xmlns:sodipodi="http://sodipodi.sourceforge.net/DTD/sodipodi-0.dtd" sodipodi:docname="crs-claim.svg" inkscape:version="0.92.4 (unknown)">
	
		<sodipodi:namedview  id="base" showgrid="false" inkscape:cx="-135.91867" inkscape:zoom="0.98994949" borderopacity="1.0" bordercolor="#666666" inkscape:cy="636.77159" pagecolor="#ffffff" inkscape:document-units="mm" inkscape:current-layer="layer1" inkscape:window-maximized="1" inkscape:window-y="0" inkscape:window-x="0" inkscape:window-height="1689" inkscape:pageshadow="2" inkscape:pageopacity="0.0" inkscape:window-width="3200">
		</sodipodi:namedview>
	<g>
		<g id="g284" transform="matrix(0.35277777,0,0,-0.35277777,77.617493,216.79866)">
			<path id="path286" inkscape:connector-curvature="0" fill="#005B85" d="M548.625-752.016h-2.316v-8.318
				c0-0.161-0.129-0.288-0.285-0.288h-1.874c-0.156,0-0.284,0.127-0.284,0.288v8.318h-2.331c-0.158,0-0.286,0.114-0.286,0.271v1.473
				c0,0.158,0.129,0.271,0.286,0.271h7.089c0.158,0,0.302-0.113,0.302-0.271v-1.473
				C548.926-751.902,548.782-752.016,548.625-752.016"/>
		</g>
		<g id="g288" transform="matrix(0.35277777,0,0,-0.35277777,81.19159,219.93887)">
			<path id="path290" inkscape:connector-curvature="0" fill="#005B85" d="M548.29-751.721h-1.873c-0.158,0-0.286,0.127-0.286,0.288
				v4.13H542.6v-4.13c0-0.161-0.129-0.288-0.286-0.288h-1.873c-0.156,0-0.285,0.127-0.285,0.288v10.062
				c0,0.158,0.129,0.271,0.285,0.271h1.873c0.158,0,0.286-0.113,0.286-0.271v-3.804h3.531v3.804c0,0.158,0.129,0.271,0.286,0.271
				h1.873c0.159,0,0.285-0.113,0.285-0.271v-10.062C548.575-751.593,548.449-751.721,548.29-751.721"/>
		</g>
		<g id="g292" transform="matrix(0.35277777,0,0,-0.35277777,84.291168,219.91785)">
			<path id="path294" inkscape:connector-curvature="0" fill="#005B85" d="M547.999-751.722c-0.5-0.072-1.229-0.188-2.774-0.188
				c-1.844,0-3.473,0.473-3.473,3.073v4.75c0,2.599,1.643,3.059,3.487,3.059c1.545,0,2.26-0.116,2.76-0.188
				c0.201-0.028,0.286-0.097,0.286-0.285v-1.329c0-0.161-0.129-0.288-0.286-0.288h-2.901c-0.673,0-0.915-0.227-0.915-0.969v-1.304
				h3.703c0.156,0,0.285-0.127,0.285-0.285v-1.356c0-0.161-0.129-0.288-0.285-0.288h-3.703v-1.517c0-0.742,0.242-0.972,0.915-0.972
				h2.901c0.158,0,0.286-0.127,0.286-0.282v-1.331C548.286-751.609,548.2-751.694,547.999-751.722"/>
		</g>
		<g id="g296" transform="matrix(0.35277777,0,0,-0.35277777,87.709197,219.93887)">
			<path id="path298" inkscape:connector-curvature="0" fill="#005B85" d="M547.679-751.721h-1.874
				c-0.156,0-0.285,0.127-0.285,0.288v7.889l-1.601-0.659c-0.071-0.028-0.129-0.042-0.172-0.042c-0.101,0-0.156,0.072-0.156,0.185
				v1.63c0,0.1,0.043,0.158,0.143,0.199l2.329,1.074c0.101,0.042,0.187,0.055,0.329,0.055h1.287c0.158,0,0.271-0.113,0.271-0.271
				v-10.062C547.951-751.593,547.837-751.721,547.679-751.721"/>
		</g>
		<g id="g300" transform="matrix(0.35277777,0,0,-0.35277777,89.125847,217.93866)">
			<path id="path302" inkscape:connector-curvature="0" fill="#005B85" d="M547.546-751.909c-0.585,0-1.021,0.066-1.399,0.166
				c-0.073,0.019-0.148,0.064-0.148,0.147v0.725c0,0.102,0.058,0.141,0.133,0.141h0.024c0.303-0.03,1.117-0.091,1.406-0.091
				c0.509,0,0.659,0.163,0.659,0.52c0,0.216-0.102,0.332-0.489,0.562l-1.021,0.609c-0.689,0.407-0.875,0.872-0.875,1.415
				c0,0.814,0.46,1.445,1.896,1.445c0.54,0,1.289-0.091,1.57-0.163c0.06-0.014,0.111-0.053,0.111-0.136v-0.745
				c0-0.069-0.029-0.127-0.125-0.127h-0.015c-0.208,0.014-1.066,0.08-1.57,0.08c-0.424,0-0.579-0.127-0.579-0.39
				c0-0.21,0.097-0.307,0.497-0.52l0.948-0.512c0.77-0.412,0.999-0.902,0.999-1.503
				C549.568-751.071,549.051-751.909,547.546-751.909"/>
		</g>
		<g id="g304" transform="matrix(0.35277777,0,0,-0.35277777,91.437316,216.28741)">
			<path id="path306" inkscape:connector-curvature="0" fill="#005B85" d="M547.33-752.064h-1.201v-4.31
				c0-0.08-0.066-0.147-0.147-0.147h-0.97c-0.082,0-0.149,0.066-0.149,0.147v4.31h-1.206c-0.082,0-0.15,0.061-0.15,0.141v0.764
				c0,0.08,0.068,0.138,0.15,0.138h3.673c0.08,0,0.155-0.058,0.155-0.138v-0.764C547.485-752.003,547.411-752.064,547.33-752.064"/>
		</g>
		<g id="g308" transform="matrix(0.35277777,0,0,-0.35277777,95.352657,219.91785)">
			<path id="path310" inkscape:connector-curvature="0" fill="#005B85" d="M546.963-751.722c-0.472-0.102-1.571-0.188-2.329-0.188
				c-1.845,0-3.489,0.473-3.489,3.073v7.394c0,0.158,0.129,0.285,0.286,0.285h1.873c0.156,0,0.286-0.127,0.286-0.285v-7.394
				c0-0.742,0.242-0.972,0.915-0.972h2.458c0.158,0,0.286-0.127,0.286-0.282v-1.331
				C547.249-751.609,547.163-751.681,546.963-751.722"/>
		</g>
		<g id="g312" transform="matrix(0.35277777,0,0,-0.35277777,96.730536,219.93887)">
			<path id="path314" inkscape:connector-curvature="0" fill="#005B85" d="M546.834-751.721h-1.916
				c-0.158,0-0.257,0.127-0.257,0.288v10.062c0,0.158,0.1,0.271,0.257,0.271h1.916c0.158,0,0.271-0.113,0.271-0.271v-10.062
				C547.105-751.593,546.992-751.721,546.834-751.721"/>
		</g>
		<g id="g316" transform="matrix(0.35277777,0,0,-0.35277777,100.4764,219.93887)">
			<path id="path318" inkscape:connector-curvature="0" fill="#005B85" d="M546.483-751.721h-1.916
				c-0.158,0-0.259,0.127-0.259,0.288v6.375c0,1.6-0.527,1.985-1.701,1.985c-0.585,0-1.229-0.028-1.672-0.086v-8.274
				c0-0.161-0.115-0.288-0.273-0.288h-1.9c-0.158,0-0.273,0.127-0.273,0.288v9.334c0,0.642,0.172,0.8,0.729,0.886
				c0.758,0.113,2.388,0.244,3.117,0.244c2.774,0,4.418-0.772,4.418-4.089v-6.375C546.754-751.593,546.64-751.721,546.483-751.721"
				/>
		</g>
		<g id="g320" transform="matrix(0.35277777,0,0,-0.35277777,103.57076,219.91785)">
			<path id="path322" inkscape:connector-curvature="0" fill="#005B85" d="M546.192-751.722c-0.5-0.072-1.229-0.188-2.774-0.188
				c-1.844,0-3.473,0.473-3.473,3.073v4.75c0,2.599,1.643,3.059,3.487,3.059c1.545,0,2.26-0.116,2.76-0.188
				c0.201-0.028,0.285-0.097,0.285-0.285v-1.329c0-0.161-0.127-0.288-0.285-0.288h-2.901c-0.673,0-0.916-0.227-0.916-0.969v-1.304
				h3.703c0.158,0,0.286-0.127,0.286-0.285v-1.356c0-0.161-0.129-0.288-0.286-0.288h-3.703v-1.517c0-0.742,0.244-0.972,0.916-0.972
				h2.901c0.158,0,0.285-0.127,0.285-0.282v-1.331C546.477-751.609,546.393-751.694,546.192-751.722"/>
		</g>
		<g id="g324" transform="matrix(0.35277777,0,0,-0.35277777,107.73967,217.69062)">
			<path id="path326" inkscape:connector-curvature="0" fill="#005B85" d="M545.801-751.932c0,1.714-0.57,2.444-1.772,2.444
				c-1.199,0-1.758-0.731-1.758-2.444v-1.702c0-1.714,0.559-2.444,1.758-2.444c1.201,0,1.772,0.731,1.772,2.444V-751.932z
				 M544.029-758.224c-2.359,0-4.23,1.273-4.23,4.59v1.702c0,3.316,1.871,4.59,4.23,4.59s4.233-1.273,4.233-4.59v-1.702
				C548.261-756.95,546.387-758.224,544.029-758.224"/>
		</g>
		<g id="g328" transform="matrix(0.35277777,0,0,-0.35277777,111.54357,216.78317)">
			<path id="path330" inkscape:connector-curvature="0" fill="#005B85" d="M545.446-752.018h-2.901
				c-0.673,0-0.916-0.227-0.916-0.972v-1.287h3.704c0.155,0,0.285-0.127,0.285-0.285v-1.356c0-0.161-0.13-0.288-0.285-0.288h-3.704
				v-4.172c0-0.161-0.13-0.288-0.285-0.288h-1.86c-0.158,0-0.285,0.127-0.285,0.288v7.388c0,2.602,1.644,3.059,3.488,3.059
				c1.545,0,2.259-0.114,2.76-0.185c0.199-0.028,0.285-0.1,0.285-0.282v-1.331C545.731-751.888,545.603-752.018,545.446-752.018"/>
		</g>
		<g id="g332" transform="matrix(0.35277777,0,0,-0.35277777,115.64997,217.66476)">
			<path id="path334" inkscape:connector-curvature="0" fill="#005B85" d="M545.061-751.933c0,1.927-0.828,2.444-2.115,2.444
				c-0.36,0-0.817-0.014-1.016-0.03v-6.674c0.199-0.017,0.656-0.03,1.016-0.03c1.287,0,2.115,0.515,2.115,2.444V-751.933z
				 M542.946-758.297c-1.188,0-2.461,0.116-3.045,0.216c-0.274,0.042-0.415,0.169-0.415,0.498v9.453
				c0,0.327,0.141,0.454,0.415,0.498c0.584,0.102,1.857,0.216,3.045,0.216c2.846,0,4.559-1.503,4.559-4.518v-1.846
				C547.505-756.794,545.792-758.297,542.946-758.297"/>
		</g>
		<g id="g336" transform="matrix(0.35277777,0,0,-0.35277777,119.4382,219.91785)">
			<path id="path338" inkscape:connector-curvature="0" fill="#005B85" d="M544.706-751.722c-0.501-0.072-1.229-0.188-2.774-0.188
				c-1.844,0-3.474,0.473-3.474,3.073v4.75c0,2.599,1.644,3.059,3.488,3.059c1.545,0,2.259-0.116,2.76-0.188
				c0.199-0.028,0.285-0.097,0.285-0.285v-1.329c0-0.161-0.13-0.288-0.285-0.288h-2.901c-0.675,0-0.916-0.227-0.916-0.969v-1.304
				h3.701c0.158,0,0.288-0.127,0.288-0.285v-1.356c0-0.161-0.13-0.288-0.288-0.288h-3.701v-1.517c0-0.742,0.241-0.972,0.916-0.972
				h2.901c0.155,0,0.285-0.127,0.285-0.282v-1.331C544.991-751.609,544.906-751.694,544.706-751.722"/>
		</g>
		<g id="g340" transform="matrix(0.35277777,0,0,-0.35277777,122.46455,216.78317)">
			<path id="path342" inkscape:connector-curvature="0" fill="#005B85" d="M544.421-752.018h-2.901
				c-0.673,0-0.916-0.227-0.916-0.972v-1.287h3.704c0.158,0,0.285-0.127,0.285-0.285v-1.356c0-0.161-0.127-0.288-0.285-0.288h-3.704
				v-4.172c0-0.161-0.127-0.288-0.285-0.288h-1.857c-0.161,0-0.285,0.127-0.285,0.288v7.388c0,2.602,1.642,3.059,3.488,3.059
				c1.542,0,2.259-0.114,2.757-0.185c0.199-0.028,0.285-0.1,0.285-0.282v-1.331C544.706-751.888,544.579-752.018,544.421-752.018"/>
		</g>
		<g id="g344" transform="matrix(0.35277777,0,0,-0.35277777,125.49604,219.91785)">
			<path id="path346" inkscape:connector-curvature="0" fill="#005B85" d="M544.138-751.722c-0.501-0.072-1.229-0.188-2.774-0.188
				c-1.844,0-3.474,0.473-3.474,3.073v4.75c0,2.599,1.644,3.059,3.488,3.059c1.545,0,2.259-0.116,2.76-0.188
				c0.199-0.028,0.285-0.097,0.285-0.285v-1.329c0-0.161-0.127-0.288-0.285-0.288h-2.904c-0.673,0-0.914-0.227-0.914-0.969v-1.304
				h3.701c0.158,0,0.288-0.127,0.288-0.285v-1.356c0-0.161-0.13-0.288-0.288-0.288h-3.701v-1.517c0-0.742,0.241-0.972,0.914-0.972
				h2.904c0.158,0,0.285-0.127,0.285-0.282v-1.331C544.423-751.609,544.337-751.694,544.138-751.722"/>
		</g>
		<g id="g348" transform="matrix(0.35277777,0,0,-0.35277777,129.17438,219.93887)">
			<path id="path350" inkscape:connector-curvature="0" fill="#005B85" d="M543.793-751.721h-1.916
				c-0.158,0-0.257,0.127-0.257,0.288v6.375c0,1.6-0.529,1.985-1.702,1.985c-0.584,0-1.229-0.028-1.672-0.086v-8.274
				c0-0.161-0.114-0.288-0.271-0.288h-1.902c-0.158,0-0.271,0.127-0.271,0.288v9.334c0,0.642,0.172,0.8,0.728,0.886
				c0.758,0.113,2.389,0.244,3.117,0.244c2.774,0,4.418-0.772,4.418-4.089v-6.375C544.064-751.593,543.951-751.721,543.793-751.721"
				/>
		</g>
		<g id="g352" transform="matrix(0.35277777,0,0,-0.35277777,131.06386,219.98572)">
			<path id="path354" inkscape:connector-curvature="0" fill="#005B85" d="M543.616-751.718c-1.129,0-1.974,0.13-2.702,0.316
				c-0.144,0.044-0.288,0.127-0.288,0.288v1.398c0,0.199,0.116,0.274,0.257,0.274h0.044c0.584-0.058,2.159-0.172,2.716-0.172
				c0.988,0,1.271,0.313,1.271,0.999c0,0.415-0.199,0.642-0.941,1.085L542-746.356c-1.329,0.786-1.686,1.686-1.686,2.729
				c0,1.575,0.886,2.79,3.66,2.79c1.044,0,2.486-0.174,3.031-0.316c0.114-0.028,0.213-0.102,0.213-0.257v-1.442
				c0-0.13-0.055-0.244-0.244-0.244h-0.028c-0.399,0.028-2.057,0.155-3.031,0.155c-0.814,0-1.116-0.244-1.116-0.756
				c0-0.401,0.186-0.587,0.958-1.002l1.833-0.988c1.484-0.8,1.929-1.741,1.929-2.898
				C547.52-750.101,546.518-751.718,543.616-751.718"/>
		</g>
		<g id="g356" transform="matrix(0.35277777,0,0,-0.35277777,135.33695,219.91785)">
			<path id="path358" inkscape:connector-curvature="0" fill="#005B85" d="M543.213-751.722c-0.498-0.072-1.226-0.188-2.771-0.188
				c-1.844,0-3.474,0.473-3.474,3.073v4.75c0,2.599,1.642,3.059,3.488,3.059c1.545,0,2.259-0.116,2.757-0.188
				c0.202-0.028,0.288-0.097,0.288-0.285v-1.329c0-0.161-0.127-0.288-0.288-0.288h-2.901c-0.673,0-0.914-0.227-0.914-0.969v-1.304
				h3.701c0.158,0,0.288-0.127,0.288-0.285v-1.356c0-0.161-0.13-0.288-0.288-0.288h-3.701v-1.517c0-0.742,0.241-0.972,0.914-0.972
				h2.901c0.161,0,0.288-0.127,0.288-0.282v-1.331C543.501-751.609,543.415-751.694,543.213-751.722"/>
		</g>
		<g id="g360" transform="matrix(0.35277777,0,0,-0.35277777,15.342941,255.91847)">
			<g>
				<defs>
					<path id="SVGID_1_" d="M803.424-304.265c58.894-1.709,106.111-49.985,106.111-109.279l0,0c0-18.697-4.695-36.301-12.966-51.682
						l0,0l15.062-8.66c9.73,17.946,15.269,38.502,15.269,60.343l0,0c0,68.888-54.999,124.935-123.476,126.644l0,0V-304.265z
						 M673.51-413.544c0-21.841,5.527-42.396,15.268-60.343l0,0l15.063,8.66c-8.273,15.382-12.966,32.986-12.966,51.682l0,0
						c0,59.294,47.203,107.57,106.087,109.279l0,0v17.365C728.485-288.609,673.51-344.656,673.51-413.544 M697.464-413.547
						c0-56.747,46.001-102.746,102.746-102.746l0,0c56.745,0,102.745,45.999,102.745,102.746l0,0
						c0,56.745-45.999,102.746-102.745,102.746l0,0C743.465-310.8,697.464-356.801,697.464-413.547 M800.199-522.867
						c-39.379,0-73.89,20.817-93.135,52.045l0,0l-15.052-8.659c22.243-36.438,62.37-60.751,108.187-60.751l0,0
						c45.814,0,85.956,24.313,108.206,60.762l0,0l-15.062,8.648C874.099-502.05,839.588-522.867,800.199-522.867"/>
				</defs>
				<clipPath id="SVGID_2_">
					<use xlink:href="#SVGID_1_"  overflow="visible"/>
				</clipPath>
				<g id="g362" clip-path="url(#SVGID_2_)">
					<g id="g368">
						<g id="g370">
							
								<linearGradient id="path378_1_" gradientUnits="userSpaceOnUse" x1="-64.7186" y1="-1591.8103" x2="-64.3776" y2="-1591.8103" gradientTransform="matrix(-5.7882 -283.6203 -283.6203 5.7882 -451040.1562 -9404.1328)">
								<stop  offset="0" style="stop-color:#00ADEF"/>
								<stop  offset="1" style="stop-color:#005B85"/>
							</linearGradient>
							<path id="path378" inkscape:connector-curvature="0" fill="url(#path378_1_)" d="M803.424-304.265
								c58.894-1.709,106.111-49.985,106.111-109.279l0,0c0-18.697-4.695-36.301-12.966-51.682l0,0l15.062-8.66
								c9.73,17.946,15.269,38.502,15.269,60.343l0,0c0,68.888-54.999,124.935-123.476,126.644l0,0V-304.265z M673.51-413.544
								c0-21.841,5.527-42.396,15.268-60.343l0,0l15.063,8.66c-8.273,15.382-12.966,32.986-12.966,51.682l0,0
								c0,59.294,47.203,107.57,106.087,109.279l0,0v17.365C728.485-288.609,673.51-344.656,673.51-413.544 M697.464-413.547
								c0-56.747,46.001-102.746,102.746-102.746l0,0c56.745,0,102.745,45.999,102.745,102.746l0,0
								c0,56.745-45.999,102.746-102.745,102.746l0,0C743.465-310.8,697.464-356.801,697.464-413.547 M800.199-522.867
								c-39.379,0-73.89,20.817-93.135,52.045l0,0l-15.052-8.659c22.243-36.438,62.37-60.751,108.187-60.751l0,0
								c45.814,0,85.956,24.313,108.206,60.762l0,0l-15.062,8.648C874.099-502.05,839.588-522.867,800.199-522.867"/>
						</g>
					</g>
				</g>
			</g>
		</g>
		<g id="g380" transform="matrix(0.35277777,0,0,-0.35277777,15.342941,255.91847)">
			<g>
				<defs>
					<path id="SVGID_3_" d="M850.373-565.572c-2.97-0.194-5.509-0.858-7.615-2.004l0,0c-5.127-2.765-7.69-7.745-7.69-14.945l0,0
						c0-7.485,2.812-12.731,8.44-15.734l0,0c2.289-1.24,5.077-1.979,8.366-2.217l0,0h14.447c2.862-1.334,4.294-2.86,4.294-4.576l0,0
						c0-2.433-1.481-3.792-4.435-4.08l0,0h-31.112v-5.935h32.756c6.245,0.426,9.343,3.565,9.296,9.409l0,0
						c0,4.562-1.639,7.768-4.925,9.622l0,0c-1.379,0.758-3.042,1.21-4.994,1.354l0,0h-15.062c-1.996,0.188-3.687,0.689-5.066,1.5
						l0,0c-3.427,2.051-5.138,5.625-5.138,10.73l0,0c0,6.768,2.812,10.417,8.438,10.94l0,0h32.765l3.995,5.938H850.373z
						 M774.35-565.572v-57.213h6.796v51.206h27.389c7.25-1.952,10.874-6.206,10.874-12.767l0,0c0-6.563-3.347-10.887-10.032-12.98
						l0,0h-7.596l16.515-25.459h9.193l-13.946,20.925c2.478,0.623,4.601,1.597,6.364,2.932l0,0
						c4.244,3.236,6.367,8.022,6.367,14.356l0,0c0,6.954-2.696,12.191-8.083,15.715l0,0c-2.24,1.475-4.911,2.569-8.008,3.286l0,0
						H774.35z M737.163-565.572c-4.627-0.479-8.608-1.716-11.945-3.718l0,0c-7.964-4.772-11.943-12.875-11.943-24.319l0,0
						c0-12.014,3.599-20.476,10.799-25.387l0,0c3.005-2.051,6.605-3.314,10.8-3.79l0,0h32.398l0.071,6.004H736.52
						c-3.196,0.285-5.936,1.215-8.226,2.785l0,0c-5.482,3.856-8.224,10.616-8.224,20.28l0,0c0,9.235,3.076,15.687,9.225,19.35l0,0
						c2.576,1.572,5.651,2.5,9.228,2.788l0,0h24.888l3.29,6.007H737.163z M783.003-573.154v-49.631h6.653v28.103l17.95-28.103h8.739
						l-17.337,26.746h9.304c6.154,2.389,9.235,6.289,9.235,11.696l0,0c0,5.116-3.172,8.847-9.512,11.189l0,0H783.003z
						 M789.657-579.375h16.536c1.329-0.144,2.444-0.692,3.35-1.647l0,0c0.902-0.952,1.354-2.098,1.354-3.433l0,0
						c0.094-3.386-2.018-5.246-6.345-5.578l0,0h-14.894V-579.375z M849.944-573.226c-4.147-1.141-6.22-4.346-6.22-9.62l0,0
						c0-4.321,1.644-7.292,4.936-8.908l0,0c1.379-0.714,3.023-1.116,4.933-1.21l0,0h14.447c2.143-0.194,4.003-0.72,5.578-1.578l0,0
						c3.671-2.107,5.481-5.81,5.434-11.12l0,0c-0.047-4.592-1.716-7.82-5.005-9.683l0,0c-1.384-0.767-3.028-1.243-4.936-1.437l0,0
						h-34.043v-6.004h32.9c3.574,0.044,6.624,0.642,9.152,1.785l0,0c6.151,2.718,9.226,7.892,9.226,15.521l0,0
						c0,7.626-2.74,13.013-8.224,16.161l0,0c-2.289,1.287-5.03,2.073-8.224,2.361l0,0h-16.665c-1.954,0.426-2.932,1.866-2.932,4.321
						l0,0c0,2.22,1.049,3.308,3.147,3.261l0,0h24.673l4.006,6.148H849.944z M739.666-573.226c-3.482-0.191-6.436-0.977-8.869-2.359
						l0,0c-5.911-3.338-8.868-9.442-8.868-18.309l0,0c0-8.867,2.599-15.065,7.797-18.597l0,0c2.192-1.475,4.814-2.359,7.866-2.644
						l0,0h29.681l0.071,6.004h-27.769c-2.141,0.241-3.974,0.886-5.498,1.935l0,0c-3.664,2.574-5.494,7.078-5.494,13.514l0,0
						c0,5.96,2.116,10.132,6.349,12.515l0,0c1.714,1.005,3.808,1.6,6.281,1.791l0,0h18.057l3.426,6.148H739.666z"/>
				</defs>
				<clipPath id="SVGID_4_">
					<use xlink:href="#SVGID_3_"  overflow="visible"/>
				</clipPath>
				<g id="g382" clip-path="url(#SVGID_4_)">
					<g id="g388">
						<g id="g390">
							
								<linearGradient id="path398_1_" gradientUnits="userSpaceOnUse" x1="-64.9387" y1="-1589.7784" x2="-64.5979" y2="-1589.7784" gradientTransform="matrix(-183.02 0.9434 0.9434 183.02 -9494.9961 290427.7812)">
								<stop  offset="0" style="stop-color:#00ADEF"/>
								<stop  offset="1" style="stop-color:#005B85"/>
							</linearGradient>
							<path id="path398" inkscape:connector-curvature="0" fill="url(#path398_1_)" d="M850.373-565.572
								c-2.97-0.194-5.509-0.858-7.615-2.004l0,0c-5.127-2.765-7.69-7.745-7.69-14.945l0,0c0-7.485,2.812-12.731,8.44-15.734l0,0
								c2.289-1.24,5.077-1.979,8.366-2.217l0,0h14.447c2.862-1.334,4.294-2.86,4.294-4.576l0,0c0-2.433-1.481-3.792-4.435-4.08l0,0
								h-31.112v-5.935h32.756c6.245,0.426,9.343,3.565,9.296,9.409l0,0c0,4.562-1.639,7.768-4.925,9.622l0,0
								c-1.379,0.758-3.042,1.21-4.994,1.354l0,0h-15.062c-1.996,0.188-3.687,0.689-5.066,1.5l0,0
								c-3.427,2.051-5.138,5.625-5.138,10.73l0,0c0,6.768,2.812,10.417,8.438,10.94l0,0h32.765l3.995,5.938H850.373z
								 M774.35-565.572v-57.213h6.796v51.206h27.389c7.25-1.952,10.874-6.206,10.874-12.767l0,0c0-6.563-3.347-10.887-10.032-12.98
								l0,0h-7.596l16.515-25.459h9.193l-13.946,20.925c2.478,0.623,4.601,1.597,6.364,2.932l0,0
								c4.244,3.236,6.367,8.022,6.367,14.356l0,0c0,6.954-2.696,12.191-8.083,15.715l0,0c-2.24,1.475-4.911,2.569-8.008,3.286l0,0
								H774.35z M737.163-565.572c-4.627-0.479-8.608-1.716-11.945-3.718l0,0c-7.964-4.772-11.943-12.875-11.943-24.319l0,0
								c0-12.014,3.599-20.476,10.799-25.387l0,0c3.005-2.051,6.605-3.314,10.8-3.79l0,0h32.398l0.071,6.004H736.52
								c-3.196,0.285-5.936,1.215-8.226,2.785l0,0c-5.482,3.856-8.224,10.616-8.224,20.28l0,0c0,9.235,3.076,15.687,9.225,19.35l0,0
								c2.576,1.572,5.651,2.5,9.228,2.788l0,0h24.888l3.29,6.007H737.163z M783.003-573.154v-49.631h6.653v28.103l17.95-28.103
								h8.739l-17.337,26.746h9.304c6.154,2.389,9.235,6.289,9.235,11.696l0,0c0,5.116-3.172,8.847-9.512,11.189l0,0H783.003z
								 M789.657-579.375h16.536c1.329-0.144,2.444-0.692,3.35-1.647l0,0c0.902-0.952,1.354-2.098,1.354-3.433l0,0
								c0.094-3.386-2.018-5.246-6.345-5.578l0,0h-14.894V-579.375z M849.944-573.226c-4.147-1.141-6.22-4.346-6.22-9.62l0,0
								c0-4.321,1.644-7.292,4.936-8.908l0,0c1.379-0.714,3.023-1.116,4.933-1.21l0,0h14.447c2.143-0.194,4.003-0.72,5.578-1.578
								l0,0c3.671-2.107,5.481-5.81,5.434-11.12l0,0c-0.047-4.592-1.716-7.82-5.005-9.683l0,0c-1.384-0.767-3.028-1.243-4.936-1.437
								l0,0h-34.043v-6.004h32.9c3.574,0.044,6.624,0.642,9.152,1.785l0,0c6.151,2.718,9.226,7.892,9.226,15.521l0,0
								c0,7.626-2.74,13.013-8.224,16.161l0,0c-2.289,1.287-5.03,2.073-8.224,2.361l0,0h-16.665
								c-1.954,0.426-2.932,1.866-2.932,4.321l0,0c0,2.22,1.049,3.308,3.147,3.261l0,0h24.673l4.006,6.148H849.944z
								 M739.666-573.226c-3.482-0.191-6.436-0.977-8.869-2.359l0,0c-5.911-3.338-8.868-9.442-8.868-18.309l0,0
								c0-8.867,2.599-15.065,7.797-18.597l0,0c2.192-1.475,4.814-2.359,7.866-2.644l0,0h29.681l0.071,6.004h-27.769
								c-2.141,0.241-3.974,0.886-5.498,1.935l0,0c-3.664,2.574-5.494,7.078-5.494,13.514l0,0c0,5.96,2.116,10.132,6.349,12.515l0,0
								c1.714,1.005,3.808,1.6,6.281,1.791l0,0h18.057l3.426,6.148H739.666z"/>
						</g>
					</g>
				</g>
			</g>
		</g>
		<g id="g400" transform="matrix(0.35277777,0,0,-0.35277777,15.342941,255.91847)">
			<g>
				<defs>
					<path id="SVGID_5_" d="M801.235-326.615c-1.32,0.451-2.735,0.693-4.204,0.693l0,0c-0.976,0-1.953-0.112-2.911-0.334l0,0
						c-3.361-0.778-6.219-2.821-8.046-5.751l0,0c-1.247-2.001-1.911-4.251-1.961-6.547l0,0c-6.242-5.051-10.057-12.73-10.057-21.135
						l0,0c0-3.968,0.868-7.862,2.53-11.436l0,0c-1.794-0.612-3.435-1.69-4.732-3.182l0,0l-20.153-23.18
						c-0.118-0.137-0.234-0.276-0.345-0.418l0,0l-20.964-24.078c-0.12-0.125-0.237-0.252-0.35-0.381l0,0l-1.983-2.263
						c-0.289-0.313-0.559-0.642-0.808-0.987l0,0c-3.794-5.208-5.792-11.377-5.777-17.84l0,0c0.014-6.046,4.921-10.936,10.964-10.936
						l0,0c0.008,0,29.3,0.064,29.3,0.064l0,0c0.696-2.602,1.633-5.075,2.799-7.383l0,0c1.65-3.269,4.804-5.47,8.374-5.931l0,0
						c1.304-14.482,13.507-25.867,28.321-25.867l0,0c14.81,0,27.012,11.386,28.319,25.861l0,0c3.588,0.451,6.76,2.655,8.415,5.935
						l0,0c1.168,2.309,2.104,4.782,2.801,7.385l0,0c0,0,29.138-0.064,29.146-0.064l0,0c2.898,0,5.68,1.147,7.734,3.193l0,0
						c2.062,2.053,3.222,4.837,3.228,7.744l0,0c0.017,6.464-1.982,12.631-5.777,17.84l0,0c-0.221,0.306-0.479,0.619-0.742,0.909l0,0
						l-2.048,2.338c-0.114,0.13-0.23,0.256-0.352,0.381l0,0l-20.964,24.082c-0.113,0.14-0.227,0.28-0.346,0.415l0,0l-20.153,23.18
						c-1.26,1.451-2.846,2.511-4.581,3.131l0,0c1.678,3.588,2.555,7.499,2.555,11.487l0,0c0,8.44-3.837,16.136-10.112,21.184l0,0
						c-0.058,2.278-0.722,4.512-1.96,6.498l0,0c-1.827,2.93-4.687,4.973-8.053,5.752l0,0c-0.952,0.22-1.929,0.332-2.907,0.332l0,0
						C803.972-325.922,802.558-326.164,801.235-326.615 M802.561-330.507c0.919,0.314,1.891,0.473,2.876,0.473l0,0
						c0.667,0,1.331-0.075,1.982-0.226l0,0c2.292-0.531,4.241-1.924,5.487-3.922l0,0c0.839-1.341,1.301-2.871,1.34-4.424l0,0
						c0.028-1.21,0.59-2.345,1.534-3.102l0,0c5.451-4.383,8.576-10.939,8.576-17.981l0,0c0-3.392-0.728-6.671-2.167-9.745l0,0
						c-0.487-1.048-0.515-2.255-0.069-3.323l0,0c0.446-1.069,1.32-1.9,2.411-2.291l0,0c1.105-0.393,2.096-1.068,2.862-1.956l0,0
						l20.155-23.18c0.069-0.083,0.299-0.365,0.346-0.418l0,0l20.964-24.081c0.047-0.054,0.293-0.316,0.365-0.399l0,0l2.043-2.329
						c0.213-0.235,0.374-0.431,0.515-0.624l0,0c3.275-4.494,4.999-9.823,4.986-15.405l0,0c-0.003-1.831-0.72-3.552-2.015-4.843l0,0
						c-1.296-1.286-3.012-1.995-4.836-1.995l0,0l-29.146,0.065l0,0c-1.863,0-3.491-1.251-3.972-3.049l0,0
						c-0.623-2.329-1.464-4.548-2.5-6.592l0,0c-1.027-2.042-2.995-3.427-5.26-3.711l0,0c-1.916-0.241-3.408-1.786-3.579-3.711l0,0
						c-1.118-12.403-11.759-22.119-24.225-22.119l0,0c-12.469,0-23.11,9.719-24.227,22.125l0,0c-0.172,1.92-1.654,3.46-3.565,3.709
						l0,0c-2.251,0.291-4.209,1.676-5.233,3.705l0,0c-1.034,2.047-1.874,4.266-2.497,6.595l0,0
						c-0.479,1.797-2.109,3.048-3.971,3.048l0,0c-0.004,0-29.308-0.065-29.308-0.065l0,0c-3.761,0-6.835,3.067-6.844,6.836l0,0
						c-0.012,5.583,1.712,10.912,4.99,15.408l0,0c0.158,0.216,0.325,0.424,0.505,0.616l0,0c0.025,0.028,2.055,2.345,2.055,2.345l0,0
						c0.066,0.075,0.313,0.336,0.359,0.392l0,0l20.964,24.077c0.047,0.054,0.274,0.338,0.347,0.422l0,0l20.153,23.18
						c0.793,0.911,1.815,1.599,2.956,1.988l0,0c1.103,0.376,1.996,1.204,2.454,2.277l0,0c0.457,1.073,0.437,2.291-0.055,3.348l0,0
						c-1.421,3.062-2.144,6.325-2.144,9.701l0,0c0,7.015,3.109,13.552,8.53,17.939l0,0c0.943,0.761,1.5,1.899,1.527,3.11l0,0
						c0.033,1.563,0.494,3.104,1.338,4.457l0,0c1.246,1.999,3.193,3.391,5.484,3.921l0,0c0.651,0.151,1.32,0.227,1.983,0.227l0,0
						c0.988,0,1.956-0.159,2.878-0.473l0,0c0.43-0.145,0.879-0.217,1.326-0.217l0,0
						C801.683-330.724,802.132-330.653,802.561-330.507"/>
				</defs>
				<clipPath id="SVGID_6_">
					<use xlink:href="#SVGID_5_"  overflow="visible"/>
				</clipPath>
				<g id="g402" clip-path="url(#SVGID_6_)">
					<g id="g408">
						<g id="g410">
							
								<linearGradient id="path418_1_" gradientUnits="userSpaceOnUse" x1="-64.5802" y1="-1591.8269" x2="-64.239" y2="-1591.8269" gradientTransform="matrix(3.5 -205 -205 -3.5 -325300.625 -19101.498)">
								<stop  offset="0" style="stop-color:#FFFFFF"/>
								<stop  offset="1" style="stop-color:#00ADEF"/>
							</linearGradient>
							<path id="path418" inkscape:connector-curvature="0" fill="url(#path418_1_)" d="M801.235-326.615
								c-1.32,0.451-2.735,0.693-4.204,0.693l0,0c-0.976,0-1.953-0.112-2.911-0.334l0,0c-3.361-0.778-6.219-2.821-8.046-5.751l0,0
								c-1.247-2.001-1.911-4.251-1.961-6.547l0,0c-6.242-5.051-10.057-12.73-10.057-21.135l0,0c0-3.968,0.868-7.862,2.53-11.436
								l0,0c-1.794-0.612-3.435-1.69-4.732-3.182l0,0l-20.153-23.18c-0.118-0.137-0.234-0.276-0.345-0.418l0,0l-20.964-24.078
								c-0.12-0.125-0.237-0.252-0.35-0.381l0,0l-1.983-2.263c-0.289-0.313-0.559-0.642-0.808-0.987l0,0
								c-3.794-5.208-5.792-11.377-5.777-17.84l0,0c0.014-6.046,4.921-10.936,10.964-10.936l0,0c0.008,0,29.3,0.064,29.3,0.064l0,0
								c0.696-2.602,1.633-5.075,2.799-7.383l0,0c1.65-3.269,4.804-5.47,8.374-5.931l0,0c1.304-14.482,13.507-25.867,28.321-25.867
								l0,0c14.81,0,27.012,11.386,28.319,25.861l0,0c3.588,0.451,6.76,2.655,8.415,5.935l0,0c1.168,2.309,2.104,4.782,2.801,7.385
								l0,0c0,0,29.138-0.064,29.146-0.064l0,0c2.898,0,5.68,1.147,7.734,3.193l0,0c2.062,2.053,3.222,4.837,3.228,7.744l0,0
								c0.017,6.464-1.982,12.631-5.777,17.84l0,0c-0.221,0.306-0.479,0.619-0.742,0.909l0,0l-2.048,2.338
								c-0.114,0.13-0.23,0.256-0.352,0.381l0,0l-20.964,24.082c-0.113,0.14-0.227,0.28-0.346,0.415l0,0l-20.153,23.18
								c-1.26,1.451-2.846,2.511-4.581,3.131l0,0c1.678,3.588,2.555,7.499,2.555,11.487l0,0c0,8.44-3.837,16.136-10.112,21.184l0,0
								c-0.058,2.278-0.722,4.512-1.96,6.498l0,0c-1.827,2.93-4.687,4.973-8.053,5.752l0,0c-0.952,0.22-1.929,0.332-2.907,0.332l0,0
								C803.972-325.922,802.558-326.164,801.235-326.615 M802.561-330.507c0.919,0.314,1.891,0.473,2.876,0.473l0,0
								c0.667,0,1.331-0.075,1.982-0.226l0,0c2.292-0.531,4.241-1.924,5.487-3.922l0,0c0.839-1.341,1.301-2.871,1.34-4.424l0,0
								c0.028-1.21,0.59-2.345,1.534-3.102l0,0c5.451-4.383,8.576-10.939,8.576-17.981l0,0c0-3.392-0.728-6.671-2.167-9.745l0,0
								c-0.487-1.048-0.515-2.255-0.069-3.323l0,0c0.446-1.069,1.32-1.9,2.411-2.291l0,0c1.105-0.393,2.096-1.068,2.862-1.956l0,0
								l20.155-23.18c0.069-0.083,0.299-0.365,0.346-0.418l0,0l20.964-24.081c0.047-0.054,0.293-0.316,0.365-0.399l0,0l2.043-2.329
								c0.213-0.235,0.374-0.431,0.515-0.624l0,0c3.275-4.494,4.999-9.823,4.986-15.405l0,0c-0.003-1.831-0.72-3.552-2.015-4.843
								l0,0c-1.296-1.286-3.012-1.995-4.836-1.995l0,0l-29.146,0.065l0,0c-1.863,0-3.491-1.251-3.972-3.049l0,0
								c-0.623-2.329-1.464-4.548-2.5-6.592l0,0c-1.027-2.042-2.995-3.427-5.26-3.711l0,0c-1.916-0.241-3.408-1.786-3.579-3.711l0,0
								c-1.118-12.403-11.759-22.119-24.225-22.119l0,0c-12.469,0-23.11,9.719-24.227,22.125l0,0
								c-0.172,1.92-1.654,3.46-3.565,3.709l0,0c-2.251,0.291-4.209,1.676-5.233,3.705l0,0c-1.034,2.047-1.874,4.266-2.497,6.595
								l0,0c-0.479,1.797-2.109,3.048-3.971,3.048l0,0c-0.004,0-29.308-0.065-29.308-0.065l0,0c-3.761,0-6.835,3.067-6.844,6.836
								l0,0c-0.012,5.583,1.712,10.912,4.99,15.408l0,0c0.158,0.216,0.325,0.424,0.505,0.616l0,0
								c0.025,0.028,2.055,2.345,2.055,2.345l0,0c0.066,0.075,0.313,0.336,0.359,0.392l0,0l20.964,24.077
								c0.047,0.054,0.274,0.338,0.347,0.422l0,0l20.153,23.18c0.793,0.911,1.815,1.599,2.956,1.988l0,0
								c1.103,0.376,1.996,1.204,2.454,2.277l0,0c0.457,1.073,0.437,2.291-0.055,3.348l0,0c-1.421,3.062-2.144,6.325-2.144,9.701
								l0,0c0,7.015,3.109,13.552,8.53,17.939l0,0c0.943,0.761,1.5,1.899,1.527,3.11l0,0c0.033,1.563,0.494,3.104,1.338,4.457l0,0
								c1.246,1.999,3.193,3.391,5.484,3.921l0,0c0.651,0.151,1.32,0.227,1.983,0.227l0,0c0.988,0,1.956-0.159,2.878-0.473l0,0
								c0.43-0.145,0.879-0.217,1.326-0.217l0,0C801.683-330.724,802.132-330.653,802.561-330.507"/>
						</g>
					</g>
				</g>
			</g>
		</g>
		<g id="g422">
			<g id="g428" transform="translate(239.9843,356.4519)">
				<path id="path430" inkscape:connector-curvature="0" fill="#FFFFFF" d="M52.822,43.953v-0.007l1.839-3.972v-0.015
					c0.007-0.095,0.007-0.198,0.007-0.3c-0.004-1.628-0.667-3.101-1.74-4.169c-0.654-0.644-1.462-1.147-2.357-1.439l-7.11,8.177
					v0.007l-7.6,8.729l-0.022,0.022l-0.029,0.029l-0.753,0.859l-0.015,0.015c-0.819,1.124-1.3,2.503-1.296,4.006l13.573-0.03
					l2.189-4.742L52.822,43.953z M51.89,62.862c-0.024,0.22-0.038,0.444-0.038,0.67c0,3.405,2.76,6.164,6.164,6.164
					c3.405,0,6.164-2.759,6.164-6.164c0-0.226-0.014-0.45-0.038-0.67H51.89z M66.784,56.738l-0.751-1.627H49.958l-0.751,1.626
					c-0.295,0.64-0.891,1.079-1.573,1.183c0.175,0.945,0.467,1.849,0.888,2.683h19c0.421-0.833,0.712-1.734,0.888-2.677
					C67.706,57.837,67.087,57.394,66.784,56.738 M80.948,51.89l-0.015-0.015l-0.753-0.859l-0.029-0.029l-0.021-0.022l-7.6-8.729
					v-0.007l-7.11-8.177c-0.895,0.292-1.702,0.795-2.356,1.439c-1.073,1.068-1.736,2.541-1.74,4.168c0,0.103,0,0.206,0.007,0.301
					v0.015l1.839,3.971v0.007l3.313,7.172l2.189,4.742l13.573,0.03C82.248,54.394,81.768,53.014,80.948,51.89 M57.996,37.153
					c0.731,0,1.394-0.263,1.923-0.686c0.288-0.654,0.66-1.271,1.12-1.833c0.036-0.189,0.059-0.384,0.059-0.583
					c0-1.714-1.389-3.102-3.102-3.102c-1.713,0-3.102,1.388-3.102,3.102c0,0.201,0.022,0.396,0.059,0.585
					c0.459,0.562,0.832,1.178,1.118,1.83C56.601,36.889,57.265,37.153,57.996,37.153 M62.85,29.441
					c0.571-0.891,0.906-1.947,0.906-3.083c0-2.557-1.676-4.721-3.988-5.458l0.402-1.741c0.086-0.369-0.146-0.742-0.517-0.828
					c-0.369-0.085-0.741,0.147-0.827,0.517l-0.417,1.8c-0.127-0.008-0.254-0.019-0.383-0.019c-0.136,0-0.269,0.011-0.402,0.02
					l-0.417-1.801c-0.085-0.37-0.458-0.602-0.828-0.517s-0.602,0.458-0.517,0.828l0.405,1.747c-2.303,0.743-3.971,2.901-3.971,5.452
					c0,1.136,0.335,2.193,0.906,3.083H62.85z M51.001,52.852H64.99l-2.524-5.463h-8.941L51.001,52.852z M61.282,44.825l0.141,0.306
					h-6.855l0.142-0.306c0.015-0.034,0.03-0.067,0.043-0.102l1.795-3.875c0.102-0.22,0.164-0.466,0.185-0.711
					c0.001-0.018,0.002-0.036,0.003-0.054c0.009-0.137,0.011-0.284,0.01-0.428c0-0.353-0.032-0.699-0.078-1.043
					c0.429-0.137,0.882-0.22,1.358-0.22c0.453,0,0.887,0.076,1.299,0.202c-0.047,0.349-0.079,0.701-0.08,1.059
					c-0.001,0.131,0.001,0.263,0.007,0.388c0.01,0.278,0.073,0.542,0.18,0.782c0.005,0.009,0.008,0.017,0.013,0.026l1.794,3.876
					C61.252,44.758,61.267,44.791,61.282,44.825"/>
			</g>
		</g>
	</g>
</g>
</svg>
