<?xml version="1.0" encoding="utf-8"?>
<!-- Generator: Adobe Illustrator 16.0.0, SVG Export Plug-In . SVG Version: 6.00 Build 0)  -->
<!DOCTYPE svg PUBLIC "-//W3C//DTD SVG 1.1//EN" "http://www.w3.org/Graphics/SVG/1.1/DTD/svg11.dtd">
<svg version="1.1" xmlns="http://www.w3.org/2000/svg" xmlns:xlink="http://www.w3.org/1999/xlink" x="0px" y="0px"
	 width="1122.52px" height="793.707px" viewBox="0 0 1122.52 793.707" enable-background="new 0 0 1122.52 793.707"
	 xml:space="preserve">
<g id="blanco">
	<rect x="426.614" y="333.074" fill="#FFFFFF" width="269.291" height="127.559"/>
</g>
<g id="svg2" xmlns:rdf="http://www.w3.org/1999/02/22-rdf-syntax-ns#" xmlns:svg="http://www.w3.org/2000/svg" xmlns:cc="http://creativecommons.org/ns#" xmlns:dc="http://purl.org/dc/elements/1.1/" xmlns:inkscape="http://www.inkscape.org/namespaces/inkscape" xmlns:sodipodi="http://sodipodi.sourceforge.net/DTD/sodipodi-0.dtd" sodipodi:docname="full-CRS.svg" inkscape:version="0.92.4 (unknown)">
	
		<sodipodi:namedview  id="namedview4" showgrid="false" gridtolerance="10" inkscape:cx="598.20817" inkscape:zoom="1.1893563" objecttolerance="10" guidetolerance="10" borderopacity="1" bordercolor="#666666" inkscape:cy="396.85333" pagecolor="#ffffff" inkscape:current-layer="g10" inkscape:window-maximized="1" inkscape:window-y="0" inkscape:window-x="0" inkscape:window-height="1689" inkscape:pageshadow="2" inkscape:pageopacity="0" inkscape:window-width="3200">
		</sodipodi:namedview>
	<g>
		<g id="g12">
			<g>
				<defs>
					<path id="SVGID_1_" d="M501.729,347.985c26.332,0.764,47.442,22.348,47.442,48.858l0,0c0,8.359-2.098,16.229-5.797,23.107l0,0
						l6.734,3.871c4.351-8.024,6.827-17.213,6.827-26.979l0,0c0-30.8-24.59-55.858-55.206-56.622l0,0V347.985z M443.646,396.844
						c0,9.766,2.471,18.954,6.827,26.979l0,0l6.734-3.871c-3.699-6.878-5.797-14.748-5.797-23.107l0,0
						c0-26.51,21.104-48.094,47.432-48.858l0,0v-7.764C468.225,340.985,443.646,366.044,443.646,396.844 M454.355,396.845
						c0,25.371,20.567,45.938,45.938,45.938l0,0c25.37,0,45.937-20.566,45.937-45.938l0,0c0-25.371-20.567-45.938-45.937-45.938l0,0
						C474.922,350.907,454.355,371.474,454.355,396.845 M500.288,445.722c-17.605,0-33.035-9.308-41.639-23.27l0,0l-6.73,3.871
						c9.944,16.291,27.885,27.162,48.369,27.162l0,0c20.483,0,38.431-10.871,48.379-27.167l0,0l-6.734-3.866
						C533.329,436.414,517.898,445.722,500.288,445.722"/>
				</defs>
				<clipPath id="SVGID_2_">
					<use xlink:href="#SVGID_1_"  overflow="visible"/>
				</clipPath>
				<g id="g14" clip-path="url(#SVGID_2_)">
					<g id="g20">
						<g id="g22">
							
								<linearGradient id="path30_1_" gradientUnits="userSpaceOnUse" x1="256.2603" y1="793.0234" x2="256.5844" y2="793.0234" gradientTransform="matrix(-7.7176 378.1603 378.1603 7.7176 -297411.25 -102698.6016)">
								<stop  offset="0" style="stop-color:#00ADEF"/>
								<stop  offset="1" style="stop-color:#005B85"/>
							</linearGradient>
							<path id="path30" inkscape:connector-curvature="0" fill="url(#path30_1_)" d="M501.729,347.985
								c26.332,0.764,47.442,22.348,47.442,48.858l0,0c0,8.359-2.098,16.229-5.797,23.107l0,0l6.734,3.871
								c4.351-8.024,6.827-17.213,6.827-26.979l0,0c0-30.8-24.59-55.858-55.206-56.622l0,0V347.985z M443.646,396.844
								c0,9.766,2.471,18.954,6.827,26.979l0,0l6.734-3.871c-3.699-6.878-5.797-14.748-5.797-23.107l0,0
								c0-26.51,21.104-48.094,47.432-48.858l0,0v-7.764C468.225,340.985,443.646,366.044,443.646,396.844 M454.355,396.845
								c0,25.371,20.567,45.938,45.938,45.938l0,0c25.37,0,45.937-20.566,45.937-45.938l0,0c0-25.371-20.567-45.938-45.937-45.938
								l0,0C474.922,350.907,454.355,371.474,454.355,396.845 M500.288,445.722c-17.605,0-33.035-9.308-41.639-23.27l0,0
								l-6.73,3.871c9.944,16.291,27.885,27.162,48.369,27.162l0,0c20.483,0,38.431-10.871,48.379-27.167l0,0l-6.734-3.866
								C533.329,436.414,517.898,445.722,500.288,445.722"/>
						</g>
					</g>
				</g>
			</g>
		</g>
		<g id="g32" transform="translate(-1.0045)">
			<g>
				<defs>
					<path id="SVGID_3_" d="M501.322,357.978c-0.591-0.202-1.224-0.31-1.879-0.31l0,0c-0.437,0-0.874,0.05-1.302,0.149l0,0
						c-1.502,0.348-2.78,1.262-3.597,2.571l0,0c-0.559,0.895-0.855,1.901-0.877,2.927l0,0c-2.791,2.258-4.496,5.691-4.496,9.449l0,0
						c0,1.775,0.387,3.515,1.13,5.113l0,0c-0.802,0.273-1.535,0.756-2.115,1.423l0,0l-9.01,10.363
						c-0.053,0.061-0.104,0.124-0.154,0.187l0,0l-9.374,10.766c-0.053,0.056-0.104,0.112-0.156,0.17l0,0l-0.887,1.012
						c-0.129,0.14-0.25,0.287-0.361,0.44l0,0c-1.697,2.329-2.59,5.087-2.583,7.977l0,0c0.007,2.703,2.2,4.89,4.902,4.89l0,0
						c0.003,0,13.1-0.029,13.1-0.029l0,0c0.312,1.164,0.73,2.27,1.251,3.303l0,0c0.737,1.46,2.148,2.444,3.745,2.65l0,0
						c0.582,6.474,6.039,11.565,12.661,11.565l0,0c6.622,0,12.078-5.091,12.661-11.562l0,0c1.605-0.202,3.022-1.187,3.764-2.653l0,0
						c0.521-1.032,0.94-2.139,1.251-3.302l0,0c0,0,13.028,0.028,13.032,0.028l0,0c1.295,0,2.539-0.513,3.458-1.428l0,0
						c0.921-0.917,1.44-2.163,1.444-3.463l0,0c0.006-2.89-0.888-5.647-2.584-7.976l0,0c-0.1-0.137-0.213-0.275-0.333-0.406l0,0
						l-0.915-1.046c-0.051-0.058-0.103-0.113-0.157-0.17l0,0l-9.375-10.767c-0.049-0.063-0.101-0.125-0.153-0.186l0,0l-9.01-10.364
						c-0.564-0.648-1.273-1.122-2.049-1.4l0,0c0.75-1.604,1.142-3.353,1.142-5.136l0,0c0-3.773-1.715-7.214-4.521-9.471l0,0
						c-0.025-1.019-0.322-2.017-0.876-2.906l0,0c-0.816-1.31-2.095-2.223-3.599-2.572l0,0c-0.426-0.098-0.864-0.148-1.3-0.148l0,0
						C502.545,357.668,501.913,357.776,501.322,357.978 M501.914,359.718c0.412-0.14,0.844-0.211,1.287-0.211l0,0
						c0.297,0,0.595,0.034,0.885,0.101l0,0c1.025,0.237,1.897,0.86,2.454,1.754l0,0c0.375,0.6,0.581,1.283,0.599,1.978l0,0
						c0.013,0.541,0.264,1.048,0.685,1.387l0,0c2.437,1.96,3.834,4.891,3.834,8.039l0,0c0,1.518-0.325,2.983-0.968,4.357l0,0
						c-0.219,0.468-0.231,1.008-0.032,1.486l0,0c0.199,0.478,0.591,0.85,1.078,1.023l0,0c0.494,0.176,0.937,0.479,1.281,0.875l0,0
						l9.011,10.363c0.032,0.038,0.134,0.164,0.154,0.187l0,0l9.374,10.767c0.021,0.024,0.131,0.142,0.164,0.177l0,0l0.912,1.043
						c0.096,0.105,0.168,0.192,0.231,0.278l0,0c1.464,2.011,2.234,4.392,2.229,6.889l0,0c-0.001,0.818-0.322,1.587-0.902,2.164l0,0
						c-0.578,0.575-1.345,0.893-2.161,0.893l0,0c0,0-13.031-0.029-13.032-0.029l0,0c-0.832,0-1.561,0.56-1.776,1.364l0,0
						c-0.279,1.04-0.654,2.032-1.117,2.947l0,0c-0.46,0.911-1.339,1.532-2.352,1.659l0,0c-0.857,0.107-1.524,0.798-1.601,1.658l0,0
						c-0.5,5.545-5.258,9.89-10.831,9.89l0,0c-5.574,0-10.332-4.346-10.831-9.892l0,0c-0.078-0.858-0.741-1.548-1.595-1.658l0,0
						c-1.006-0.131-1.881-0.75-2.339-1.656l0,0c-0.462-0.918-0.838-1.909-1.117-2.949l0,0c-0.215-0.804-0.943-1.363-1.775-1.363l0,0
						c-0.001,0-13.104,0.029-13.104,0.029l0,0c-1.681,0-3.055-1.371-3.06-3.057l0,0c-0.006-2.496,0.766-4.878,2.231-6.889l0,0
						c0.07-0.098,0.146-0.189,0.226-0.275l0,0c0.011-0.013,0.919-1.048,0.919-1.048l0,0c0.03-0.033,0.14-0.151,0.161-0.175l0,0
						l9.373-10.766c0.021-0.023,0.123-0.15,0.156-0.188l0,0l9.01-10.363c0.354-0.407,0.811-0.715,1.321-0.889l0,0
						c0.493-0.169,0.892-0.538,1.097-1.019l0,0c0.204-0.479,0.196-1.023-0.024-1.496l0,0c-0.637-1.369-0.959-2.828-0.959-4.338l0,0
						c0-3.136,1.39-6.059,3.814-8.02l0,0c0.421-0.341,0.67-0.85,0.682-1.391l0,0c0.014-0.699,0.221-1.389,0.598-1.993l0,0
						c0.557-0.894,1.428-1.517,2.452-1.753l0,0c0.292-0.067,0.59-0.102,0.887-0.102l0,0c0.442,0,0.875,0.071,1.286,0.211l0,0
						c0.192,0.065,0.392,0.098,0.593,0.098l0,0C501.522,359.815,501.722,359.783,501.914,359.718"/>
				</defs>
				<clipPath id="SVGID_4_">
					<use xlink:href="#SVGID_3_"  overflow="visible"/>
				</clipPath>
				<g id="g34" clip-path="url(#SVGID_4_)">
					<g id="g40">
						<g id="g42">
							
								<linearGradient id="path50_1_" gradientUnits="userSpaceOnUse" x1="257.3404" y1="792.8945" x2="257.6649" y2="792.8945" gradientTransform="matrix(4.6667 273.3333 273.3333 -4.6667 -217425.4062 -66297.5625)">
								<stop  offset="0" style="stop-color:#FFFFFF"/>
								<stop  offset="1" style="stop-color:#00ADEF"/>
							</linearGradient>
							<path id="path50" inkscape:connector-curvature="0" fill="url(#path50_1_)" d="M501.322,357.978
								c-0.591-0.202-1.224-0.31-1.879-0.31l0,0c-0.437,0-0.874,0.05-1.302,0.149l0,0c-1.502,0.348-2.78,1.262-3.597,2.571l0,0
								c-0.559,0.895-0.855,1.901-0.877,2.927l0,0c-2.791,2.258-4.496,5.691-4.496,9.449l0,0c0,1.775,0.387,3.515,1.13,5.113l0,0
								c-0.802,0.273-1.535,0.756-2.115,1.423l0,0l-9.01,10.363c-0.053,0.061-0.104,0.124-0.154,0.187l0,0l-9.374,10.766
								c-0.053,0.056-0.104,0.112-0.156,0.17l0,0l-0.887,1.012c-0.129,0.14-0.25,0.287-0.361,0.44l0,0
								c-1.697,2.329-2.59,5.087-2.583,7.977l0,0c0.007,2.703,2.2,4.89,4.902,4.89l0,0c0.003,0,13.1-0.029,13.1-0.029l0,0
								c0.312,1.164,0.73,2.27,1.251,3.303l0,0c0.737,1.46,2.148,2.444,3.745,2.65l0,0c0.582,6.474,6.039,11.565,12.661,11.565l0,0
								c6.622,0,12.078-5.091,12.661-11.562l0,0c1.605-0.202,3.022-1.187,3.764-2.653l0,0c0.521-1.032,0.94-2.139,1.251-3.302l0,0
								c0,0,13.028,0.028,13.032,0.028l0,0c1.295,0,2.539-0.513,3.458-1.428l0,0c0.921-0.917,1.44-2.163,1.444-3.463l0,0
								c0.006-2.89-0.888-5.647-2.584-7.976l0,0c-0.1-0.137-0.213-0.275-0.333-0.406l0,0l-0.915-1.046
								c-0.051-0.058-0.103-0.113-0.157-0.17l0,0l-9.375-10.767c-0.049-0.063-0.101-0.125-0.153-0.186l0,0l-9.01-10.364
								c-0.564-0.648-1.273-1.122-2.049-1.4l0,0c0.75-1.604,1.142-3.353,1.142-5.136l0,0c0-3.773-1.715-7.214-4.521-9.471l0,0
								c-0.025-1.019-0.322-2.017-0.876-2.906l0,0c-0.816-1.31-2.095-2.223-3.599-2.572l0,0c-0.426-0.098-0.864-0.148-1.3-0.148l0,0
								C502.545,357.668,501.913,357.776,501.322,357.978 M501.914,359.718c0.412-0.14,0.844-0.211,1.287-0.211l0,0
								c0.297,0,0.595,0.034,0.885,0.101l0,0c1.025,0.237,1.897,0.86,2.454,1.754l0,0c0.375,0.6,0.581,1.283,0.599,1.978l0,0
								c0.013,0.541,0.264,1.048,0.685,1.387l0,0c2.437,1.96,3.834,4.891,3.834,8.039l0,0c0,1.518-0.325,2.983-0.968,4.357l0,0
								c-0.219,0.468-0.231,1.008-0.032,1.486l0,0c0.199,0.478,0.591,0.85,1.078,1.023l0,0c0.494,0.176,0.937,0.479,1.281,0.875l0,0
								l9.011,10.363c0.032,0.038,0.134,0.164,0.154,0.187l0,0l9.374,10.767c0.021,0.024,0.131,0.142,0.164,0.177l0,0l0.912,1.043
								c0.096,0.105,0.168,0.192,0.231,0.278l0,0c1.464,2.011,2.234,4.392,2.229,6.889l0,0c-0.001,0.818-0.322,1.587-0.902,2.164
								l0,0c-0.578,0.575-1.345,0.893-2.161,0.893l0,0c0,0-13.031-0.029-13.032-0.029l0,0c-0.832,0-1.561,0.56-1.776,1.364l0,0
								c-0.279,1.04-0.654,2.032-1.117,2.947l0,0c-0.46,0.911-1.339,1.532-2.352,1.659l0,0c-0.857,0.107-1.524,0.798-1.601,1.658
								l0,0c-0.5,5.545-5.258,9.89-10.831,9.89l0,0c-5.574,0-10.332-4.346-10.831-9.892l0,0c-0.078-0.858-0.741-1.548-1.595-1.658
								l0,0c-1.006-0.131-1.881-0.75-2.339-1.656l0,0c-0.462-0.918-0.838-1.909-1.117-2.949l0,0
								c-0.215-0.804-0.943-1.363-1.775-1.363l0,0c-0.001,0-13.104,0.029-13.104,0.029l0,0c-1.681,0-3.055-1.371-3.06-3.057l0,0
								c-0.006-2.496,0.766-4.878,2.231-6.889l0,0c0.07-0.098,0.146-0.189,0.226-0.275l0,0c0.011-0.013,0.919-1.048,0.919-1.048l0,0
								c0.03-0.033,0.14-0.151,0.161-0.175l0,0l9.373-10.766c0.021-0.023,0.123-0.15,0.156-0.188l0,0l9.01-10.363
								c0.354-0.407,0.811-0.715,1.321-0.889l0,0c0.493-0.169,0.892-0.538,1.097-1.019l0,0c0.204-0.479,0.196-1.023-0.024-1.496l0,0
								c-0.637-1.369-0.959-2.828-0.959-4.338l0,0c0-3.136,1.39-6.059,3.814-8.02l0,0c0.421-0.341,0.67-0.85,0.682-1.391l0,0
								c0.014-0.699,0.221-1.389,0.598-1.993l0,0c0.557-0.894,1.428-1.517,2.452-1.753l0,0c0.292-0.067,0.59-0.102,0.887-0.102l0,0
								c0.442,0,0.875,0.071,1.286,0.211l0,0c0.192,0.065,0.392,0.098,0.593,0.098l0,0
								C501.522,359.815,501.722,359.783,501.914,359.718"/>
						</g>
					</g>
				</g>
			</g>
		</g>
		<g id="g54">
			<g id="g60" transform="translate(263.08,337.2271)">
				<path id="path62" inkscape:connector-curvature="0" fill="#FFFFFF" d="M231.088,57.838v-0.009l2.331-5.033v-0.019
					c0.009-0.121,0.009-0.25,0.009-0.381c-0.004-2.063-0.845-3.929-2.205-5.284c-0.829-0.815-1.853-1.455-2.987-1.824l-9.01,10.364
					v0.009l-9.631,11.063l-0.028,0.028l-0.037,0.037l-0.955,1.089l-0.019,0.019c-1.038,1.425-1.647,3.172-1.643,5.078l17.203-0.039
					l2.774-6.01L231.088,57.838z M229.906,81.802c-0.03,0.28-0.048,0.563-0.048,0.851c0,4.314,3.498,7.812,7.811,7.812
					c4.315,0,7.812-3.497,7.812-7.812c0-0.287-0.018-0.57-0.048-0.851H229.906z M248.783,74.041l-0.953-2.062h-20.372l-0.952,2.061
					c-0.375,0.812-1.128,1.368-1.994,1.5c0.223,1.197,0.593,2.343,1.126,3.4h24.08c0.533-1.056,0.902-2.198,1.125-3.393
					C249.951,75.434,249.167,74.872,248.783,74.041 M266.734,67.898l-0.019-0.019l-0.954-1.089l-0.037-0.037l-0.027-0.028
					l-9.631-11.062v-0.009l-9.011-10.364c-1.135,0.369-2.159,1.008-2.987,1.824c-1.36,1.354-2.201,3.22-2.206,5.283
					c0,0.13,0,0.26,0.009,0.381v0.019l2.331,5.033v0.009l4.199,9.089l2.774,6.011l17.203,0.038
					C268.381,71.071,267.772,69.323,266.734,67.898 M237.644,49.221c0.927,0,1.767-0.334,2.438-0.87
					c0.365-0.828,0.836-1.61,1.419-2.323c0.046-0.24,0.075-0.486,0.075-0.739c0-2.171-1.76-3.932-3.932-3.932
					c-2.17,0-3.931,1.761-3.931,3.932c0,0.254,0.028,0.501,0.075,0.743c0.582,0.712,1.053,1.493,1.417,2.319
					C235.878,48.887,236.717,49.221,237.644,49.221 M243.796,39.447c0.724-1.129,1.148-2.469,1.148-3.909
					c0-3.24-2.123-5.983-5.054-6.917l0.511-2.207c0.109-0.468-0.186-0.94-0.655-1.048c-0.468-0.108-0.94,0.186-1.048,0.654
					l-0.528,2.281c-0.162-0.011-0.323-0.024-0.486-0.024c-0.172,0-0.34,0.014-0.509,0.026l-0.529-2.283
					c-0.108-0.469-0.58-0.763-1.049-0.654s-0.763,0.581-0.655,1.048l0.513,2.214c-2.919,0.941-5.033,3.677-5.033,6.91
					c0,1.44,0.424,2.78,1.148,3.909H243.796z M228.78,69.118h17.728l-3.198-6.925h-11.332L228.78,69.118z M241.81,58.943
					l0.179,0.388H233.3l0.18-0.388c0.019-0.042,0.038-0.085,0.055-0.129l2.275-4.912c0.129-0.279,0.208-0.59,0.234-0.901
					c0.002-0.022,0.003-0.046,0.004-0.069c0.012-0.174,0.014-0.359,0.013-0.542c-0.001-0.446-0.042-0.886-0.099-1.322
					c0.544-0.173,1.119-0.278,1.721-0.278c0.575,0,1.125,0.096,1.646,0.255c-0.059,0.442-0.101,0.889-0.101,1.342
					c-0.001,0.167,0,0.333,0.008,0.492c0.011,0.352,0.092,0.687,0.228,0.99c0.005,0.011,0.01,0.022,0.015,0.032l2.274,4.913
					C241.772,58.858,241.79,58.901,241.81,58.943"/>
			</g>
			<g id="g64" transform="translate(457.7676,268.8025)">
				<path id="path66" inkscape:connector-curvature="0" fill="#005B85" d="M120.566,155.843h-1.053v3.781
					c0,0.072-0.058,0.131-0.13,0.131h-0.851c-0.071,0-0.13-0.059-0.13-0.131v-3.781h-1.06c-0.071,0-0.13-0.051-0.13-0.123v-0.669
					c0-0.072,0.059-0.123,0.13-0.123h3.223c0.071,0,0.137,0.051,0.137,0.123v0.669C120.703,155.792,120.638,155.843,120.566,155.843
					"/>
			</g>
			<g id="g68" transform="translate(468.0616,259.7546)">
				<path id="path70" inkscape:connector-curvature="0" fill="#005B85" d="M114.723,168.803h-0.852c-0.071,0-0.13-0.059-0.13-0.131
					v-1.877h-1.604v1.877c0,0.072-0.059,0.131-0.13,0.131h-0.852c-0.071,0-0.13-0.059-0.13-0.131v-4.573
					c0-0.072,0.059-0.123,0.13-0.123h0.852c0.071,0,0.13,0.051,0.13,0.123v1.728h1.604v-1.728c0-0.072,0.059-0.123,0.13-0.123h0.852
					c0.072,0,0.13,0.051,0.13,0.123v4.573C114.852,168.744,114.795,168.803,114.723,168.803"/>
			</g>
			<g id="g72" transform="translate(476.9864,259.8152)">
				<path id="path74" inkscape:connector-curvature="0" fill="#005B85" d="M109.655,168.716c-0.226,0.032-0.558,0.086-1.26,0.086
					c-0.838,0-1.578-0.216-1.578-1.397v-2.158c0-1.183,0.747-1.39,1.585-1.39c0.702,0,1.027,0.052,1.253,0.084
					c0.092,0.013,0.131,0.046,0.131,0.13v0.604c0,0.072-0.059,0.131-0.131,0.131h-1.317c-0.307,0-0.416,0.104-0.416,0.441v0.592
					h1.683c0.071,0,0.13,0.059,0.13,0.13v0.617c0,0.071-0.059,0.13-0.13,0.13h-1.683v0.689c0,0.338,0.109,0.441,0.416,0.441h1.317
					c0.072,0,0.131,0.058,0.131,0.129v0.604C109.786,168.664,109.747,168.704,109.655,168.716"/>
			</g>
			<g id="g76" transform="translate(486.8282,259.7546)">
				<path id="path78" inkscape:connector-curvature="0" fill="#005B85" d="M104.069,168.803h-0.853c-0.07,0-0.13-0.059-0.13-0.131
					v-3.586l-0.727,0.3c-0.032,0.012-0.059,0.019-0.078,0.019c-0.046,0-0.071-0.032-0.071-0.084v-0.741
					c0-0.046,0.02-0.071,0.065-0.091l1.059-0.487c0.045-0.019,0.084-0.025,0.148-0.025h0.586c0.071,0,0.123,0.051,0.123,0.123v4.573
					C104.192,168.744,104.141,168.803,104.069,168.803"/>
			</g>
			<g id="g80" transform="translate(490.8995,265.5154)">
				<path id="path82" inkscape:connector-curvature="0" fill="#005B85" d="M101.758,160.552c-0.266,0-0.463-0.03-0.634-0.074
					c-0.033-0.01-0.067-0.03-0.067-0.067v-0.329c0-0.047,0.026-0.063,0.061-0.063h0.01c0.137,0.014,0.508,0.039,0.639,0.039
					c0.23,0,0.298-0.072,0.298-0.233c0-0.098-0.047-0.152-0.222-0.255l-0.463-0.276c-0.313-0.185-0.396-0.396-0.396-0.641
					c0-0.37,0.209-0.655,0.859-0.655c0.246,0,0.584,0.04,0.712,0.074c0.026,0.006,0.051,0.023,0.051,0.061v0.339
					c0,0.03-0.014,0.057-0.058,0.057h-0.007c-0.094-0.007-0.482-0.037-0.711-0.037c-0.191,0-0.262,0.058-0.262,0.179
					c0,0.094,0.043,0.137,0.225,0.235l0.429,0.23c0.351,0.188,0.453,0.41,0.453,0.683
					C102.674,160.172,102.44,160.552,101.758,160.552"/>
			</g>
			<g id="g84" transform="translate(497.5528,270.2614)">
				<path id="path86" inkscape:connector-curvature="0" fill="#005B85" d="M97.98,153.754h-0.544v1.954
					c0,0.036-0.03,0.067-0.067,0.067H96.93c-0.037,0-0.067-0.031-0.067-0.067v-1.954h-0.547c-0.037,0-0.067-0.027-0.067-0.063
					v-0.346c0-0.037,0.03-0.064,0.067-0.064h1.665c0.037,0,0.071,0.027,0.071,0.064v0.346
					C98.052,153.727,98.018,153.754,97.98,153.754"/>
			</g>
			<g id="g88" transform="translate(508.8399,259.8152)">
				<path id="path90" inkscape:connector-curvature="0" fill="#005B85" d="M91.573,168.716c-0.214,0.046-0.715,0.086-1.059,0.086
					c-0.839,0-1.585-0.216-1.585-1.397v-3.359c0-0.072,0.059-0.13,0.129-0.13h0.852c0.071,0,0.13,0.058,0.13,0.13v3.359
					c0,0.338,0.11,0.441,0.416,0.441h1.117c0.072,0,0.13,0.058,0.13,0.129v0.604C91.703,168.664,91.664,168.698,91.573,168.716"/>
			</g>
			<g id="g92" transform="translate(512.8067,259.7546)">
				<path id="path94" inkscape:connector-curvature="0" fill="#005B85" d="M89.322,168.803H88.45c-0.071,0-0.117-0.059-0.117-0.131
					v-4.573c0-0.072,0.046-0.123,0.117-0.123h0.872c0.07,0,0.123,0.051,0.123,0.123v4.573
					C89.445,168.744,89.393,168.803,89.322,168.803"/>
			</g>
			<g id="g96" transform="translate(523.5967,259.7546)">
				<path id="path98" inkscape:connector-curvature="0" fill="#005B85" d="M83.196,168.803h-0.871c-0.072,0-0.117-0.059-0.117-0.131
					v-2.896c0-0.729-0.24-0.903-0.772-0.903c-0.267,0-0.56,0.013-0.761,0.039v3.761c0,0.072-0.052,0.131-0.123,0.131h-0.864
					c-0.071,0-0.124-0.059-0.124-0.131v-4.241c0-0.293,0.078-0.365,0.331-0.404c0.345-0.051,1.085-0.109,1.417-0.109
					c1.262,0,2.008,0.351,2.008,1.858v2.896C83.319,168.744,83.268,168.803,83.196,168.803"/>
			</g>
			<g id="g100" transform="translate(532.5069,259.8152)">
				<path id="path102" inkscape:connector-curvature="0" fill="#005B85" d="M78.138,168.716c-0.228,0.032-0.559,0.086-1.261,0.086
					c-0.838,0-1.578-0.216-1.578-1.397v-2.158c0-1.183,0.746-1.39,1.585-1.39c0.702,0,1.026,0.052,1.254,0.084
					c0.091,0.013,0.131,0.046,0.131,0.13v0.604c0,0.072-0.059,0.131-0.131,0.131h-1.318c-0.306,0-0.416,0.104-0.416,0.441v0.592
					h1.684c0.07,0,0.13,0.059,0.13,0.13v0.617c0,0.071-0.06,0.13-0.13,0.13h-1.684v0.689c0,0.338,0.11,0.441,0.416,0.441h1.318
					c0.072,0,0.131,0.058,0.131,0.129v0.604C78.268,168.664,78.228,168.704,78.138,168.716"/>
			</g>
			<g id="g104" transform="translate(544.5118,266.2321)">
				<path id="path106" inkscape:connector-curvature="0" fill="#005B85" d="M71.323,159.526c0-0.78-0.261-1.112-0.807-1.112
					c-0.545,0-0.799,0.332-0.799,1.112v0.772c0,0.779,0.254,1.111,0.799,1.111c0.546,0,0.807-0.332,0.807-1.111V159.526z
					 M70.517,162.385c-1.071,0-1.922-0.579-1.922-2.087v-0.772c0-1.508,0.851-2.086,1.922-2.086c1.073,0,1.924,0.578,1.924,2.086
					v0.772C72.44,161.806,71.59,162.385,70.517,162.385"/>
			</g>
			<g id="g108" transform="translate(555.4659,268.8474)">
				<path id="path110" inkscape:connector-curvature="0" fill="#005B85" d="M65.104,155.78h-1.318c-0.307,0-0.416,0.104-0.416,0.441
					v0.585h1.683c0.071,0,0.13,0.059,0.13,0.13v0.617c0,0.071-0.059,0.13-0.13,0.13H63.37v1.896c0,0.072-0.059,0.131-0.13,0.131
					h-0.846c-0.071,0-0.129-0.059-0.129-0.131v-3.358c0-1.183,0.747-1.391,1.585-1.391c0.702,0,1.027,0.053,1.254,0.085
					c0.092,0.012,0.13,0.044,0.13,0.13v0.604C65.234,155.721,65.176,155.78,65.104,155.78"/>
			</g>
			<g id="g112" transform="translate(567.2921,266.3073)">
				<path id="path114" inkscape:connector-curvature="0" fill="#005B85" d="M58.391,159.417c0-0.877-0.377-1.111-0.962-1.111
					c-0.163,0-0.37,0.007-0.462,0.014v3.034c0.092,0.006,0.299,0.014,0.462,0.014c0.585,0,0.962-0.234,0.962-1.112V159.417z
					 M57.43,162.31c-0.54,0-1.118-0.054-1.385-0.098c-0.123-0.021-0.188-0.079-0.188-0.228v-4.295c0-0.15,0.065-0.209,0.188-0.228
					c0.267-0.046,0.845-0.098,1.385-0.098c1.293,0,2.071,0.682,2.071,2.053v0.838C59.501,161.626,58.723,162.31,57.43,162.31"/>
			</g>
			<g id="g116" transform="translate(578.2012,259.8152)">
				<path id="path118" inkscape:connector-curvature="0" fill="#005B85" d="M52.198,168.716c-0.228,0.032-0.56,0.086-1.261,0.086
					c-0.838,0-1.578-0.216-1.578-1.397v-2.158c0-1.183,0.746-1.39,1.584-1.39c0.702,0,1.027,0.052,1.255,0.084
					c0.091,0.013,0.13,0.046,0.13,0.13v0.604c0,0.072-0.059,0.131-0.13,0.131h-1.319c-0.306,0-0.416,0.104-0.416,0.441v0.592h1.684
					c0.071,0,0.13,0.059,0.13,0.13v0.617c0,0.071-0.059,0.13-0.13,0.13h-1.684v0.689c0,0.338,0.11,0.441,0.416,0.441h1.319
					c0.071,0,0.13,0.058,0.13,0.129v0.604C52.328,168.664,52.289,168.704,52.198,168.716"/>
			</g>
			<g id="g120" transform="translate(586.9161,268.8474)">
				<path id="path122" inkscape:connector-curvature="0" fill="#005B85" d="M47.25,155.78h-1.318c-0.306,0-0.415,0.104-0.415,0.441
					v0.585h1.683c0.071,0,0.13,0.059,0.13,0.13v0.617c0,0.071-0.059,0.13-0.13,0.13h-1.683v1.896c0,0.072-0.06,0.131-0.13,0.131
					h-0.846c-0.071,0-0.13-0.059-0.13-0.131v-3.358c0-1.183,0.747-1.391,1.586-1.391c0.702,0,1.026,0.053,1.253,0.085
					c0.092,0.012,0.131,0.044,0.131,0.13v0.604C47.381,155.721,47.322,155.78,47.25,155.78"/>
			</g>
			<g id="g124" transform="translate(595.6456,259.8152)">
				<path id="path126" inkscape:connector-curvature="0" fill="#005B85" d="M42.295,168.716c-0.227,0.032-0.56,0.086-1.261,0.086
					c-0.838,0-1.579-0.216-1.579-1.397v-2.158c0-1.183,0.748-1.39,1.586-1.39c0.702,0,1.027,0.052,1.254,0.084
					c0.091,0.013,0.131,0.046,0.131,0.13v0.604c0,0.072-0.059,0.131-0.131,0.131h-1.318c-0.307,0-0.416,0.104-0.416,0.441v0.592
					h1.683c0.071,0,0.13,0.059,0.13,0.13v0.617c0,0.071-0.059,0.13-0.13,0.13H40.56v0.689c0,0.338,0.109,0.441,0.416,0.441h1.318
					c0.072,0,0.131,0.058,0.131,0.129v0.604C42.426,168.664,42.386,168.704,42.295,168.716"/>
			</g>
			<g id="g128" transform="translate(606.2403,259.7546)">
				<path id="path130" inkscape:connector-curvature="0" fill="#005B85" d="M36.28,168.803h-0.871c-0.071,0-0.116-0.059-0.116-0.131
					v-2.896c0-0.729-0.241-0.903-0.773-0.903c-0.267,0-0.559,0.013-0.76,0.039v3.761c0,0.072-0.053,0.131-0.124,0.131h-0.864
					c-0.071,0-0.123-0.059-0.123-0.131v-4.241c0-0.293,0.078-0.365,0.331-0.404c0.345-0.051,1.086-0.109,1.417-0.109
					c1.26,0,2.007,0.351,2.007,1.858v2.896C36.403,168.744,36.352,168.803,36.28,168.803"/>
			</g>
			<g id="g132" transform="translate(611.6778,259.6189)">
				<path id="path134" inkscape:connector-curvature="0" fill="#005B85" d="M33.194,168.998c-0.514,0-0.896-0.06-1.229-0.145
					c-0.065-0.019-0.131-0.058-0.131-0.13v-0.636c0-0.091,0.053-0.124,0.117-0.124h0.021c0.266,0.026,0.98,0.078,1.233,0.078
					c0.448,0,0.578-0.143,0.578-0.455c0-0.188-0.09-0.292-0.428-0.494l-0.896-0.532c-0.605-0.357-0.768-0.768-0.768-1.242
					c0-0.715,0.403-1.266,1.664-1.266c0.475,0,1.13,0.077,1.378,0.143c0.051,0.014,0.098,0.046,0.098,0.117v0.656
					c0,0.058-0.027,0.11-0.112,0.11h-0.013c-0.182-0.014-0.935-0.071-1.377-0.071c-0.37,0-0.507,0.109-0.507,0.344
					c0,0.182,0.085,0.267,0.436,0.455l0.832,0.448c0.676,0.364,0.877,0.792,0.877,1.319
					C34.968,168.263,34.514,168.998,33.194,168.998"/>
			</g>
			<g id="g136" transform="translate(623.9854,259.8152)">
				<path id="path138" inkscape:connector-curvature="0" fill="#005B85" d="M26.207,168.716c-0.228,0.032-0.56,0.086-1.261,0.086
					c-0.838,0-1.579-0.216-1.579-1.397v-2.158c0-1.183,0.747-1.39,1.586-1.39c0.702,0,1.026,0.052,1.254,0.084
					c0.091,0.013,0.131,0.046,0.131,0.13v0.604c0,0.072-0.06,0.131-0.131,0.131h-1.319c-0.306,0-0.415,0.104-0.415,0.441v0.592
					h1.682c0.072,0,0.131,0.059,0.131,0.13v0.617c0,0.071-0.059,0.13-0.131,0.13h-1.682v0.689c0,0.338,0.109,0.441,0.415,0.441
					h1.319c0.071,0,0.131,0.058,0.131,0.129v0.604C26.338,168.664,26.298,168.704,26.207,168.716"/>
			</g>
			<g id="g140" transform="translate(474.2178,335.1067)">
				<path id="path142" inkscape:connector-curvature="0" fill="#00ADEF" d="M111.228,60.875h-0.977
					c-0.142,0-0.301-0.106-0.301-0.302V49.426c0-0.178-0.054-0.196-0.124-0.196c-0.071,0-0.125,0.036-0.178,0.196l-2.201,5.645
					c-0.178,0.462-0.373,0.71-0.834,0.71h-0.923c-0.462,0-0.657-0.248-0.835-0.71l-2.201-5.645c-0.054-0.16-0.106-0.196-0.178-0.196
					c-0.07,0-0.123,0.018-0.123,0.196v11.147c0,0.195-0.16,0.302-0.303,0.302h-0.977c-0.194,0-0.302-0.142-0.302-0.355V48.947
					c0-1.189,0.516-1.26,1.207-1.26h0.657c0.78,0,0.958,0.23,1.331,1.189l2.06,5.396c0.053,0.16,0.071,0.16,0.124,0.16
					s0.071,0,0.124-0.16l2.06-5.396c0.372-0.959,0.586-1.189,1.33-1.189h0.657c0.692,0,1.207,0.071,1.207,1.26V60.52
					C111.529,60.733,111.424,60.875,111.228,60.875"/>
			</g>
			<g id="g144" transform="translate(494.8321,347.9587)">
				<path id="path146" inkscape:connector-curvature="0" fill="#00ADEF" d="M99.525,42.468c0-1.811-0.728-2.964-2.396-2.964
					c-1.652,0-2.38,1.136-2.38,2.964v1.349c0,1.811,0.711,2.964,2.38,2.964c1.65,0,2.396-1.136,2.396-2.964V42.468z M97.13,48.148
					c-2.61,0-3.942-1.722-3.942-4.332v-1.349c0-2.609,1.332-4.332,3.942-4.332c2.608,0,3.957,1.722,3.957,4.332v1.349
					C101.087,46.426,99.738,48.148,97.13,48.148"/>
			</g>
			<g id="g148" transform="translate(516.3077,354.5285)">
				<path id="path150" inkscape:connector-curvature="0" fill="#00ADEF" d="M87.334,33.057c-0.585-0.107-1.509-0.125-2.077-0.125
					c-1.739,0-2.308,1.083-2.308,2.982v1.278c0,1.935,0.551,3.018,2.308,3.018c0.604,0,1.474-0.053,2.077-0.106V33.057z
					 M88.523,41.276c-1.101,0.213-2.184,0.302-3.267,0.302c-2.645,0-3.869-1.722-3.869-4.385v-1.278
					c0-2.787,1.278-4.349,3.869-4.349c0.551,0,1.385,0.053,2.077,0.177v-3.301c0-0.178,0.142-0.337,0.337-0.337h0.906
					c0.177,0,0.319,0.142,0.319,0.337v12.426C88.896,41.098,88.843,41.223,88.523,41.276"/>
			</g>
			<g id="g152" transform="translate(533.1026,334.8191)">
				<path id="path154" inkscape:connector-curvature="0" fill="#00ADEF" d="M77.8,61.287c-1.242,0-2.166-0.125-2.946-0.249
					c-0.303-0.054-0.339-0.124-0.339-0.319v-0.711c0-0.195,0.143-0.284,0.303-0.284h0.054c0.816,0.072,2.112,0.107,2.929,0.107
					c2.131,0,2.698-0.852,2.698-2.095c0-0.888-0.515-1.385-2.131-2.379l-1.721-1.047c-1.633-0.994-2.451-1.9-2.451-3.32
					c0-2.148,1.545-3.142,4.244-3.142c1.047,0,2.414,0.106,3.089,0.212c0.177,0.036,0.301,0.125,0.301,0.302v0.763
					c0,0.177-0.124,0.284-0.301,0.284h-0.036c-0.781-0.053-2.023-0.107-3.053-0.107c-1.829,0-2.61,0.391-2.61,1.687
					c0,0.834,0.586,1.332,1.936,2.148l1.633,0.977c2.06,1.224,2.787,2.201,2.787,3.621C82.185,59.441,81.297,61.287,77.8,61.287"/>
			</g>
			<g id="g156" transform="translate(561.9278,348.2053)">
				<path id="path158" inkscape:connector-curvature="0" fill="#00ADEF" d="M61.436,42.114c0-1.899-0.764-2.858-2.325-2.858
					c-1.527,0-2.379,1.03-2.379,2.858v0.089h4.704V42.114z M62.68,43.392h-5.947v0.213c0,2.041,0.958,2.982,2.591,2.982
					c1.03,0,2.22-0.125,3.037-0.249h0.088c0.142,0,0.284,0.071,0.284,0.249v0.604c0,0.23-0.071,0.355-0.355,0.408
					c-1.011,0.196-1.863,0.302-3.054,0.302c-2.04,0-4.153-0.977-4.153-4.385v-1.242c0-2.521,1.402-4.385,3.941-4.385
					c2.591,0,3.904,1.846,3.904,4.367v0.745C63.016,43.233,62.892,43.392,62.68,43.392"/>
			</g>
			<g id="g160" transform="translate(583.5674,335.2707)">
				<path id="path162" inkscape:connector-curvature="0" fill="#00ADEF" d="M49.152,60.64c-0.586,0.106-1.385,0.196-2.22,0.196
					c-2.414,0-3.781-1.705-3.781-4.314v-1.385c0-2.609,1.35-4.313,3.781-4.313c0.816,0,1.634,0.088,2.22,0.195
					c0.283,0.053,0.354,0.142,0.354,0.39v0.64c0,0.177-0.142,0.266-0.302,0.266h-0.071c-0.78-0.089-1.33-0.124-2.201-0.124
					c-1.42,0-2.219,0.94-2.219,2.946v1.385c0,1.988,0.781,2.947,2.219,2.947c0.871,0,1.421-0.036,2.201-0.125h0.071
					c0.16,0,0.302,0.089,0.302,0.266v0.64C49.507,60.481,49.436,60.587,49.152,60.64"/>
			</g>
			<g id="g164" transform="translate(597.8165,334.8191)">
				<path id="path166" inkscape:connector-curvature="0" fill="#00ADEF" d="M41.063,61.287h-0.16c-1.207,0-3.656-0.675-3.656-4.171
					v-5.361c0-0.195,0.124-0.355,0.319-0.355h0.923c0.195,0,0.319,0.16,0.319,0.355v5.361c0,2.13,0.906,2.805,2.095,2.805h0.16
					c1.188,0,2.094-0.675,2.094-2.805v-5.361c0-0.195,0.124-0.355,0.319-0.355h0.923c0.195,0,0.319,0.16,0.319,0.355v5.361
					C44.719,60.613,42.269,61.287,41.063,61.287"/>
			</g>
			<g id="g168" transform="translate(621.1807,354.8161)">
				<path id="path170" inkscape:connector-curvature="0" fill="#00ADEF" d="M27.8,32.645c-1.208,0-1.794,0.036-2.469,0.178v7.988
					c0,0.177-0.124,0.355-0.319,0.355h-0.923c-0.177,0-0.319-0.16-0.319-0.355v-8.627c0-0.195,0.124-0.32,0.319-0.408
					c1.013-0.444,2.236-0.498,3.711-0.498c0.229,0,0.372,0.018,0.372,0.267v0.816C28.172,32.556,28.137,32.645,27.8,32.645"/>
			</g>
			<g id="g172" transform="translate(629.6397,335.1067)">
				<path id="path174" inkscape:connector-curvature="0" fill="#00ADEF" d="M22.997,60.875h-0.853c-0.195,0-0.354-0.16-0.354-0.355
					v-9.053c0-0.195,0.159-0.355,0.354-0.355h0.853c0.194,0,0.354,0.16,0.354,0.355v9.053
					C23.352,60.715,23.191,60.875,22.997,60.875 M23.032,49.55h-0.904c-0.195,0-0.355-0.16-0.355-0.355v-1.42
					c0-0.195,0.16-0.355,0.355-0.355h0.904c0.195,0,0.354,0.16,0.354,0.355v1.42C23.387,49.39,23.227,49.55,23.032,49.55"/>
			</g>
			<g id="g176" transform="translate(646.5577,335.0656)">
				<path id="path178" inkscape:connector-curvature="0" fill="#00ADEF" d="M13.393,60.934c-0.337,0.054-1.064,0.107-1.703,0.107
					c-1.669,0-2.628-0.551-2.628-2.468v-9.159c0-0.178,0.16-0.302,0.354-0.337l0.869-0.142h0.036c0.179,0,0.303,0.159,0.303,0.336
					v1.882h2.769c0.194,0,0.338,0.125,0.338,0.319v0.604c0,0.178-0.144,0.32-0.338,0.32h-2.769v6.177
					c0,1.029,0.336,1.208,1.313,1.208h1.438c0.248,0,0.373,0.071,0.373,0.249v0.604C13.748,60.792,13.658,60.899,13.393,60.934"/>
			</g>
			<g id="g180" transform="translate(660.1075,326.9763)">
				<path id="path182" inkscape:connector-curvature="0" fill="#00ADEF" d="M5.701,72.521c-1.313,0-2.521-0.195-2.929-0.302
					c-0.249-0.071-0.337-0.16-0.337-0.373v-0.497c0-0.177,0.141-0.302,0.319-0.302h0.053c0.532,0.071,1.864,0.213,2.894,0.213
					c1.598,0,2.094-0.391,2.094-2.254v-0.088c-0.425,0.124-1.401,0.213-1.97,0.213c-2.041,0-3.976-0.71-3.976-3.675v-5.858
					c0-0.195,0.159-0.355,0.354-0.355h0.852c0.195,0,0.354,0.16,0.354,0.355v5.858c0,1.899,0.924,2.344,2.415,2.344
					c0.516,0,1.42-0.107,1.936-0.231v-7.97c0-0.195,0.159-0.355,0.354-0.355h0.853c0.195,0,0.354,0.16,0.354,0.355v9.408
					C9.322,71.792,8.115,72.521,5.701,72.521"/>
			</g>
			<g id="g184" transform="translate(466.9503,290.5876)">
				<path id="path186" inkscape:connector-curvature="0" fill="#00ADEF" d="M115.354,124.641c-0.746,0.142-1.438,0.23-2.947,0.23
					c-2.184,0-4.687-1.173-4.687-5.485v-2.467c0-4.35,2.503-5.485,4.687-5.485c1.118,0,2.201,0.16,2.982,0.283
					c0.159,0.018,0.284,0.072,0.284,0.231v0.905c0,0.106-0.036,0.194-0.214,0.194h-0.053c-0.64-0.053-1.953-0.159-2.982-0.159
					c-1.74,0-3.09,1.012-3.09,4.03v2.467c0,2.982,1.35,4.029,3.09,4.029c1.012,0,2.29-0.089,2.93-0.142h0.07
					c0.194,0,0.284,0.089,0.284,0.284v0.728C115.709,124.498,115.549,124.605,115.354,124.641"/>
			</g>
			<g id="g188" transform="translate(485.921,303.1931)">
				<path id="path190" inkscape:connector-curvature="0" fill="#00ADEF" d="M104.584,106.585c0-1.811-0.728-2.965-2.396-2.965
					c-1.651,0-2.38,1.137-2.38,2.965v1.35c0,1.81,0.711,2.964,2.38,2.964c1.649,0,2.396-1.136,2.396-2.964V106.585z
					 M102.188,112.266c-2.61,0-3.941-1.723-3.941-4.331v-1.35c0-2.609,1.331-4.331,3.941-4.331c2.608,0,3.957,1.722,3.957,4.331
					v1.35C106.145,110.543,104.797,112.266,102.188,112.266"/>
			</g>
			<g id="g192" transform="translate(503.7022,310.0505)">
				<path id="path194" inkscape:connector-curvature="0" fill="#00ADEF" d="M94.489,96.763c-1.206,0-1.792,0.036-2.467,0.179v7.987
					c0,0.178-0.124,0.355-0.319,0.355H90.78c-0.178,0-0.32-0.159-0.32-0.355v-8.627c0-0.194,0.125-0.319,0.32-0.408
					c1.011-0.444,2.236-0.497,3.709-0.497c0.231,0,0.374,0.018,0.374,0.267v0.815C94.863,96.675,94.827,96.763,94.489,96.763"/>
			</g>
			<g id="g196" transform="translate(522.754,303.4397)">
				<path id="path198" inkscape:connector-curvature="0" fill="#00ADEF" d="M83.674,106.232c0-1.899-0.763-2.858-2.325-2.858
					c-1.525,0-2.378,1.03-2.378,2.858v0.089h4.703V106.232z M84.917,107.51h-5.946v0.213c0,2.041,0.958,2.982,2.591,2.982
					c1.029,0,2.219-0.124,3.036-0.249h0.089c0.142,0,0.283,0.071,0.283,0.249v0.604c0,0.23-0.07,0.355-0.354,0.408
					c-1.011,0.194-1.864,0.302-3.054,0.302c-2.041,0-4.153-0.977-4.153-4.384v-1.243c0-2.521,1.402-4.385,3.94-4.385
					c2.592,0,3.905,1.846,3.905,4.367v0.745C85.254,107.35,85.13,107.51,84.917,107.51"/>
			</g>
			<g id="g200" transform="translate(558.8887,312.3088)">
				<path id="path202" inkscape:connector-curvature="0" fill="#00ADEF" d="M63.161,93.529c0-1.775-1.153-2.361-3.372-2.361
					c-0.55,0-1.527,0-1.953,0.054v4.863c0.373,0,1.544,0.036,1.953,0.036c2.183,0,3.372-0.551,3.372-2.468V93.529z M65.062,103.026
					h-1.242c-0.214,0-0.249,0-0.392-0.23l-3.178-5.29h-0.16h-0.301c-0.586,0-1.509-0.036-1.953-0.054v5.219
					c0,0.178-0.124,0.355-0.32,0.355h-0.958c-0.177,0-0.319-0.16-0.319-0.355V90.245c0-0.248,0.106-0.354,0.427-0.392
					c0.763-0.088,2.095-0.141,3.124-0.141c2.805,0,4.971,0.941,4.971,3.816v0.124c0,1.988-1.173,3.159-2.788,3.586l3.267,5.449
					c0.035,0.054,0.054,0.107,0.054,0.16C65.292,102.955,65.221,103.026,65.062,103.026"/>
			</g>
			<g id="g204" transform="translate(576.9571,290.0534)">
				<path id="path206" inkscape:connector-curvature="0" fill="#00ADEF" d="M52.904,125.406h-0.159
					c-1.208,0-3.657-0.675-3.657-4.171v-5.361c0-0.195,0.125-0.355,0.319-0.355h0.924c0.195,0,0.318,0.16,0.318,0.355v5.361
					c0,2.129,0.906,2.804,2.096,2.804h0.159c1.189,0,2.095-0.675,2.095-2.804v-5.361c0-0.195,0.125-0.355,0.319-0.355h0.924
					c0.195,0,0.319,0.16,0.319,0.355v5.361C56.561,124.731,54.111,125.406,52.904,125.406"/>
			</g>
			<g id="g208" transform="translate(594.2852,290.3415)">
				<path id="path210" inkscape:connector-curvature="0" fill="#00ADEF" d="M43.067,124.993h-0.923
					c-0.179,0-0.319-0.159-0.319-0.355v-12.657c0-0.177,0.124-0.336,0.319-0.336h0.923c0.178,0,0.319,0.142,0.319,0.336v12.657
					C43.387,124.816,43.263,124.993,43.067,124.993"/>
			</g>
			<g id="g212" transform="translate(614.8575,303.4397)">
				<path id="path214" inkscape:connector-curvature="0" fill="#00ADEF" d="M31.389,106.232c0-1.899-0.763-2.858-2.326-2.858
					c-1.525,0-2.378,1.03-2.378,2.858v0.089h4.704V106.232z M32.631,107.51h-5.946v0.213c0,2.041,0.959,2.982,2.592,2.982
					c1.03,0,2.218-0.124,3.035-0.249H32.4c0.143,0,0.283,0.071,0.283,0.249v0.604c0,0.23-0.07,0.355-0.354,0.408
					c-1.012,0.194-1.863,0.302-3.053,0.302c-2.042,0-4.154-0.977-4.154-4.384v-1.243c0-2.521,1.402-4.385,3.94-4.385
					c2.592,0,3.906,1.846,3.906,4.367v0.745C32.969,107.35,32.844,107.51,32.631,107.51"/>
			</g>
			<g id="g216" transform="translate(642.1641,290.0534)">
				<path id="path218" inkscape:connector-curvature="0" fill="#00ADEF" d="M15.888,125.406c-1.243,0-2.167-0.124-2.946-0.248
					c-0.303-0.054-0.339-0.125-0.339-0.32v-0.709c0-0.195,0.143-0.285,0.303-0.285h0.053c0.817,0.071,2.112,0.106,2.93,0.106
					c2.129,0,2.698-0.852,2.698-2.095c0-0.888-0.515-1.384-2.131-2.378l-1.722-1.048c-1.633-0.994-2.45-1.898-2.45-3.319
					c0-2.147,1.545-3.142,4.243-3.142c1.047,0,2.413,0.107,3.088,0.213c0.178,0.035,0.302,0.124,0.302,0.302v0.764
					c0,0.177-0.124,0.283-0.302,0.283H19.58c-0.782-0.053-2.024-0.106-3.054-0.106c-1.828,0-2.609,0.391-2.609,1.687
					c0,0.834,0.586,1.331,1.935,2.148l1.633,0.976c2.06,1.225,2.787,2.202,2.787,3.621
					C20.271,123.559,19.385,125.406,15.888,125.406"/>
			</g>
			<g id="g220" transform="translate(670.9893,303.4397)">
				<path id="path222" inkscape:connector-curvature="0" fill="#00ADEF" d="M-0.477,106.232c0-1.899-0.764-2.858-2.325-2.858
					c-1.527,0-2.379,1.03-2.379,2.858v0.089h4.704V106.232z M0.766,107.51h-5.946v0.213c0,2.041,0.959,2.982,2.592,2.982
					c1.029,0,2.219-0.124,3.035-0.249h0.09c0.141,0,0.283,0.071,0.283,0.249v0.604c0,0.23-0.071,0.355-0.355,0.408
					c-1.012,0.194-1.863,0.302-3.053,0.302c-2.041,0-4.154-0.977-4.154-4.384v-1.243c0-2.521,1.403-4.385,3.941-4.385
					c2.592,0,3.905,1.846,3.905,4.367v0.745C1.103,107.35,0.979,107.51,0.766,107.51"/>
			</g>
			<g id="g224" transform="translate(689.5089,290.3005)">
				<path id="path226" inkscape:connector-curvature="0" fill="#00ADEF" d="M-10.99,125.052c-0.337,0.053-1.064,0.106-1.703,0.106
					c-1.669,0-2.628-0.55-2.628-2.467v-9.16c0-0.178,0.16-0.302,0.354-0.338l0.87-0.142h0.035c0.179,0,0.303,0.159,0.303,0.338
					v1.881h2.769c0.195,0,0.338,0.124,0.338,0.319v0.604c0,0.178-0.143,0.319-0.338,0.319h-2.769v6.179
					c0,1.029,0.337,1.206,1.313,1.206h1.438c0.248,0,0.372,0.071,0.372,0.248v0.604C-10.636,124.91-10.725,125.016-10.99,125.052"/>
			</g>
			<g id="g228" transform="translate(466.9655,403.1298)">
				<path id="path230" inkscape:connector-curvature="0" fill="#005B85" d="M115.345-36.555c0-1.37-0.232-2.104-3.013-2.104
					c-2.765,0-3,0.735-3,2.104v5.08c0,1.369,0.235,2.104,3,2.104c2.78,0,3.013-0.735,3.013-2.104V-36.555z M112.332-28.318
					c-3.88,0-4.33-1.203-4.33-3.008v-5.379c0-1.788,0.45-3.008,4.33-3.008c3.896,0,4.346,1.22,4.346,3.008v5.379
					C116.678-29.52,116.228-28.318,112.332-28.318"/>
			</g>
			<g id="g232" transform="translate(491.6956,410.1245)">
				<path id="path234" inkscape:connector-curvature="0" fill="#005B85" d="M101.305-46.574v8.087c0,1.369,0.267,2.105,2.267,2.105
					c2.031,0,2.266-0.736,2.266-2.105v-8.087h1.33v8.253c0,1.806-0.465,3.009-3.596,3.009c-1.783,0-2.581-0.735-2.931-1.304
					c-0.35,0.568-1.15,1.304-2.933,1.304c-3.131,0-3.597-1.203-3.597-3.009v-8.253h1.332v8.087c0,1.369,0.233,2.105,2.265,2.105
					c1.999,0,2.266-0.736,2.266-2.105v-8.087H101.305z"/>
			</g>
			<g id="g236" transform="translate(527.1786,403.1298)">
				<path id="path238" inkscape:connector-curvature="0" fill="#005B85" d="M81.163-36.555c0-1.37-0.183-2.104-2.964-2.104
					s-2.964,0.735-2.964,2.104v2.823h5.928V-36.555z M82.497-28.434h-1.334v-4.128h-5.928v4.128h-1.333v-8.271
					c0-1.788,0.416-3.008,4.297-3.008s4.298,1.22,4.298,3.008V-28.434z"/>
			</g>
			<g id="g240" transform="translate(545.1054,384.0366)">
				<path id="path242" inkscape:connector-curvature="0" fill="#005B85" d="M70.986-9.207c-3.881,0-4.297-1.22-4.297-3.008v-0.886
					h1.333v0.736c0,1.37,0.185,2.105,2.964,2.105c2.781,0,2.966-0.735,2.966-2.105v-0.168c0-1.019-0.501-1.42-1.518-1.587
					l-3.463-0.552c-1.583-0.25-2.282-1.136-2.282-2.372v-0.551c0-1.805,0.416-3.008,4.297-3.008c3.88,0,4.297,1.203,4.297,3.008
					v0.384h-1.331v-0.234c0-1.37-0.185-2.104-2.966-2.104c-2.779,0-2.964,0.735-2.964,2.104v0.268c0,0.734,0.266,1.187,1.249,1.354
					l3.696,0.602c1.517,0.25,2.315,1.019,2.315,2.406v0.602C75.283-10.427,74.866-9.207,70.986-9.207"/>
			</g>
			<g id="g244" transform="translate(576.8361,402.8585)">
				<path id="path246" inkscape:connector-curvature="0" fill="#005B85" d="M52.972-36.167c0-1.37-0.615-2.088-2.231-2.088h-3.698
					v5.831h3.698c1.631,0,2.231-0.735,2.231-2.105V-36.167z M50.741-31.371h-3.698v3.208h-1.331v-11.145h5.029
					c2.73,0,3.563,1.203,3.563,3.007v1.922C54.305-32.591,53.471-31.371,50.741-31.371"/>
			</g>
		</g>
	</g>
</g>
</svg>
