<?xml version="1.0" encoding="utf-8"?>
<!-- Generator: Adobe Illustrator 24.3.0, SVG Export Plug-In . SVG Version: 6.00 Build 0)  -->
<svg version="1.1" id="Layer_1" xmlns="http://www.w3.org/2000/svg" xmlns:xlink="http://www.w3.org/1999/xlink" x="0px" y="0px"
	 viewBox="0 0 841.89 595.28" style="enable-background:new 0 0 841.89 595.28;" xml:space="preserve">
<style type="text/css">
	.st0{fill:#2F4F9E;}
	.st1{fill:url(#SVGID_1_);}
	.st2{fill:url(#SVGID_2_);}
	.st3{fill:url(#SVGID_3_);}
	.st4{fill:url(#SVGID_4_);}
</style>
<path d="M-6170.32,325.45c0,0.03,0,0.05,0,0.08l0,92.41c0,8.97-7.34,16.31-16.31,16.31h0c-8.97,0-16.31-7.34-16.31-16.31l0-14.83
	c-19.63,19.27-46.53,31.17-76.21,31.17c-60.11,0-108.83-48.73-108.83-108.83s48.73-108.83,108.83-108.83
	c29.68,0,56.58,11.9,76.21,31.17l0-15.76c0-8.97,7.34-16.31,16.31-16.31c8.97,0,16.31,7.34,16.31,16.31l0,93.34
	C-6170.32,325.39-6170.32,325.42-6170.32,325.45z M-6202.94,326.55v-2.21c-0.59-41.6-34.48-75.14-76.21-75.14
	c-42.11,0-76.24,34.13-76.24,76.24c0,42.11,34.13,76.24,76.24,76.24C-6237.42,401.69-6203.53,368.15-6202.94,326.55z"/>
<text transform="matrix(1 0 0 1 -7660.1626 1385.9177)" style="font-family:'Comfortaa-Light'; font-size:47.45px;">diversity in AppSec</text>
<text transform="matrix(1 0 0 1 -6656.1401 1385.9177)" style="font-family:'Comfortaa-Light'; font-size:47.45px;">diversity in AppSec</text>
<text transform="matrix(1 0 0 1 -5842.936 1385.9177)" style="font-family:'Comfortaa-Light'; font-size:47.45px;">diversity in AppSec</text>
<path d="M-6420.28,232.03c0-8.97-7.34-16.31-16.31-16.31s-16.31,7.34-16.31,16.31v15.76c-19.63-19.27-46.53-31.17-76.21-31.17
	c-60.11,0-108.83,48.73-108.83,108.83c0,60.11,48.73,108.83,108.83,108.83c29.68,0,56.58-11.9,76.21-31.17l0,14.83
	c0,8.97,7.34,16.31,16.31,16.31h0c8.97,0,16.31-7.34,16.31-16.31l0-92.41c0-0.03,0-0.05,0-0.08c0-0.03,0-0.05,0-0.08
	L-6420.28,232.03z M-6452.9,326.55c-0.59,41.59-34.48,75.14-76.21,75.14c-42.11,0-76.24-34.13-76.24-76.24
	c0-42.11,34.13-76.24,76.24-76.24c41.74,0,75.62,33.54,76.21,75.14V326.55z"/>
<path d="M-5428.09,325.45c0,0.03,0,0.05,0,0.08l0,92.41c0,8.97-7.34,16.31-16.31,16.31l0,0c-8.97,0-16.31-7.34-16.31-16.31l0-14.83
	c-19.63,19.27-46.53,31.17-76.21,31.17c-60.11,0-108.83-48.73-108.83-108.83s48.73-108.83,108.83-108.83
	c29.68,0,56.58,11.9,76.21,31.17l0-15.76c0-8.97,7.34-16.31,16.31-16.31s16.31,7.34,16.31,16.31l0,93.34
	C-5428.09,325.39-5428.09,325.42-5428.09,325.45z M-5460.71,326.55v-2.21c-0.59-41.6-34.48-75.14-76.21-75.14
	c-42.11,0-76.24,34.13-76.24,76.24c0,42.11,34.13,76.24,76.24,76.24C-5495.18,401.69-5461.3,368.15-5460.71,326.55z
	 M-5689.13,215.97c-8.97,0-16.31,7.34-16.31,16.31l0,85.01c0,8.97,7.34,16.31,16.31,16.31l0,0c8.97,0,16.31-7.34,16.31-16.31
	l0-85.01C-5672.82,223.31-5680.16,215.97-5689.13,215.97z M-5689.13,202.17c8.98,0,16.26-7.28,16.26-16.26
	c0-8.98-7.28-16.26-16.26-16.26s-16.26,7.28-16.26,16.26C-5705.39,194.9-5698.11,202.17-5689.13,202.17z"/>
<path d="M-5736.92,154.03c0-8.97-7.34-16.31-16.31-16.31s-16.31,7.34-16.31,16.31v93.76c-19.63-19.27-46.53-31.17-76.21-31.17
	c-60.11,0-108.83,48.73-108.83,108.83c0,60.11,48.73,108.83,108.83,108.83c29.68,0,56.58-11.9,76.21-31.17l0,14.83
	c0,8.97,7.34,16.31,16.31,16.31h0c8.97,0,16.31-7.34,16.31-16.31l0-92.41c0-0.03,0-0.05,0-0.08c0-0.03,0-0.05,0-0.08
	L-5736.92,154.03z M-5769.54,326.55c-0.59,41.59-34.48,75.14-76.21,75.14c-42.11,0-76.24-34.13-76.24-76.24
	c0-42.11,34.13-76.24,76.24-76.24c41.74,0,75.62,33.54,76.21,75.14V326.55z"/>
<path d="M-6437.03,215.97c-8.97,0-16.31,7.34-16.31,16.31l0,85.01c0,8.97,7.34,16.31,16.31,16.31h0c8.97,0,16.31-7.34,16.31-16.31
	l0-85.01C-6420.72,223.31-6428.06,215.97-6437.03,215.97z"/>
<circle cx="-6437.03" cy="185.92" r="16.26"/>
<path d="M-5519.19,551.13c-9.12,0-16.58,7.46-16.58,16.58l0,236.19c0,9.12,7.46,16.58,16.58,16.58c9.12,0,16.58-7.46,16.58-16.58
	l0-236.19C-5502.61,558.59-5510.07,551.13-5519.19,551.13z"/>
<path d="M-5613.27,599.2c-61.11,0-110.66,49.54-110.66,110.66s49.54,110.66,110.66,110.66s110.66-49.54,110.66-110.66
	S-5552.15,599.2-5613.27,599.2z M-5613.27,787.37c-42.81,0-77.52-34.71-77.52-77.52s34.71-77.52,77.52-77.52
	s77.52,34.71,77.52,77.52S-5570.46,787.37-5613.27,787.37z"/>
<path d="M-5321.59,599.2c-61.11,0-110.66,49.54-110.66,110.66s49.54,110.66,110.66,110.66c61.11,0,110.66-49.54,110.66-110.66
	S-5260.48,599.2-5321.59,599.2z M-5321.59,787.37c-42.81,0-77.52-34.71-77.52-77.52s34.71-77.52,77.52-77.52
	s77.52,34.71,77.52,77.52S-5278.78,787.37-5321.59,787.37z"/>
<g>
	<path d="M-6356.28,546.08c-8.23-3.94-18.18-0.43-22.12,7.8l-52.48,108.21c-3.94,8.23-0.43,18.18,7.8,22.12
		c8.23,3.94,18.18,0.43,22.12-7.8l52.48-108.21C-6344.55,559.97-6348.06,550.02-6356.28,546.08z"/>
	<path d="M-6265.28,764.93c-8.23,3.94-18.18,0.43-22.12-7.8l-34.35-71.31l-15.97-33.17l-40.68-84.45
		c-3.94-8.23-0.43-18.18,7.8-22.12c8.23-3.94,18.18-0.43,22.12,7.79l47.58,98.79l15.97,33.16l27.45,56.99
		C-6253.54,751.04-6257.05,760.99-6265.28,764.93z"/>
	<path d="M-6300.91,652.66l-30.82-0.01h-6h-6.73c-9.12,0-16.58,7.47-16.58,16.59s7.46,16.58,16.58,16.58h22.7h36.82L-6300.91,652.66
		z"/>
	<path d="M-6611.11,765.76c-27.24,0-53.39-10.03-73.61-28.25c-6.57-5.91-7.1-16.03-1.18-22.6c5.91-6.57,16.03-7.1,22.6-1.18
		c14.34,12.91,32.88,20.03,52.2,20.03c43.03,0,78.04-35.01,78.04-78.04s-35.01-78.04-78.04-78.04c-19.32,0-37.86,7.11-52.2,20.03
		c-6.57,5.91-16.68,5.38-22.6-1.18c-5.91-6.57-5.38-16.68,1.18-22.6c20.23-18.22,46.37-28.25,73.61-28.25
		c60.68,0,110.04,49.36,110.04,110.04C-6501.07,716.4-6550.44,765.76-6611.11,765.76z"/>
	<path d="M-6468.65,568.46c-8.97,0-16.31,7.34-16.31,16.31l0,85.01c0,8.97,7.34,16.31,16.31,16.31l0,0
		c8.97,0,16.31-7.34,16.31-16.31l0-85.01C-6452.34,575.8-6459.68,568.46-6468.65,568.46z"/>
	<circle cx="-6468.66" cy="538.4" r="16.26"/>
</g>
<path d="M-7294.06,1087.31c-8.23-3.94-18.18-0.43-22.12,7.8l-52.48,108.21c-3.94,8.23-0.43,18.18,7.8,22.12s18.18,0.43,22.12-7.8
	l52.48-108.21C-7282.32,1101.2-7285.83,1091.25-7294.06,1087.31z"/>
<path d="M-7203.06,1306.16c-8.23,3.94-18.18,0.43-22.12-7.8l-34.35-71.31l-15.97-33.17l-40.68-84.45
	c-3.94-8.23-0.43-18.18,7.8-22.12c8.23-3.94,18.18-0.43,22.12,7.79l47.58,98.79l15.97,33.16l27.45,56.99
	C-7191.32,1292.27-7194.83,1302.22-7203.06,1306.16z"/>
<path d="M-7238.68,1193.89l-30.82-0.01h-6h-6.73c-9.12,0-16.58,7.47-16.58,16.59s7.46,16.58,16.58,16.58h22.7h36.82
	L-7238.68,1193.89z"/>
<path d="M-7406.43,1109.69c-8.97,0-16.31,7.34-16.31,16.31l0,85.01c0,8.97,7.34,16.31,16.31,16.31h0c8.97,0,16.31-7.34,16.31-16.31
	l0-85.01C-7390.12,1117.03-7397.46,1109.69-7406.43,1109.69z"/>
<circle cx="-7406.43" cy="1079.63" r="16.26"/>
<g>
	<path d="M-4576.34,688.28c-9.12,0-16.58,7.46-16.58,16.58l0,99.03c0,9.12,7.46,16.58,16.58,16.58c9.12,0,16.58-7.46,16.58-16.58
		l0-99.03C-4559.75,695.75-4567.22,688.28-4576.34,688.28z"/>
	<path d="M-4670.41,599.2c-61.11,0-110.66,49.54-110.66,110.66s49.54,110.66,110.66,110.66s110.66-49.54,110.66-110.66
		S-4609.3,599.2-4670.41,599.2z M-4670.41,787.37c-42.81,0-77.52-34.71-77.52-77.52s34.71-77.52,77.52-77.52
		s77.52,34.71,77.52,77.52S-4627.6,787.37-4670.41,787.37z"/>
	<path d="M-4964.37,819.15c-27.24,0-53.39-10.03-73.61-28.25c-6.57-5.91-7.1-16.03-1.18-22.6c5.91-6.57,16.03-7.1,22.6-1.18
		c14.34,12.91,32.88,20.03,52.2,20.03c43.03,0,78.04-35.01,78.04-78.04s-35.01-78.04-78.04-78.04c-19.32,0-37.86,7.11-52.2,20.03
		c-6.57,5.91-16.68,5.38-22.6-1.18c-5.91-6.57-5.38-16.68,1.18-22.6c20.23-18.22,46.37-28.25,73.61-28.25
		c60.68,0,110.04,49.36,110.04,110.04C-4854.33,769.78-4903.69,819.15-4964.37,819.15z"/>
	<path d="M-4818.96,598.68c-8.97,0-16.31,7.34-16.31,16.31l0,85.01c0,8.97,7.34,16.31,16.31,16.31l0,0
		c8.97,0,16.31-7.34,16.31-16.31l0-85.01C-4802.65,606.02-4809.99,598.68-4818.96,598.68z"/>
	<circle cx="-4818.96" cy="568.62" r="16.26"/>
</g>
<path d="M-7549.5,1086.3c-61.11,0-110.66,49.54-110.66,110.66c0,61.11,49.54,110.66,110.66,110.66
	c61.11,0,110.66-49.54,110.66-110.66C-7438.85,1135.84-7488.39,1086.3-7549.5,1086.3z M-7549.5,1274.48
	c-42.81,0-77.52-34.71-77.52-77.52c0-42.81,34.71-77.52,77.52-77.52c42.81,0,77.52,34.71,77.52,77.52
	C-7471.99,1239.77-7506.69,1274.48-7549.5,1274.48z"/>
<path d="M-7438.85,1197.46l0-117.51c0-9.12-7.46-16.58-16.58-16.58s-16.58,7.46-16.58,16.58l0,117.51H-7438.85z"/>
<g>
	<g>
		<path d="M-7599.65,1025.34c-33.42,0-60.51-27.09-60.51-60.51c0-33.42,27.09-60.51,60.51-60.51c33.42,0,60.51,27.09,60.51,60.51
			C-7539.14,998.25-7566.23,1025.34-7599.65,1025.34 M-7599.65,913.63c-28.28,0-51.2,22.92-51.2,51.2c0,28.28,22.92,51.2,51.2,51.2
			c28.28,0,51.2-22.92,51.2-51.2C-7548.45,936.55-7571.37,913.63-7599.65,913.63 M-7580,1007.71c-1.94,0-8.99-12.55-9.93-16.13
			c-1.98-7.49-1.56-10.66-1.44-11.67c0.36-3.09,3.36-4.63,3.54-8.81c0.06-1.29,0.71-7.74,1.23-12.78c-1.29-0.25-2.56-0.83-3.7-1.73
			c3.41,4.58-1.61,10.06-8.91,17.36c-7.75,7.75-24.94,14.93-24.94,14.93s7.19-17.19,14.94-24.94c5.69-5.69,10.28-10,14.2-10
			c1.1,0,2.15,0.34,3.16,1.09c-0.9-1.14-1.48-2.41-1.73-3.7c-5.04,0.52-11.49,1.17-12.78,1.23c-4.18,0.18-5.72,3.18-8.81,3.54
			c-0.36,0.04-0.98,0.12-1.96,0.12c-1.81,0-4.85-0.27-9.71-1.56c-3.89-1.03-18.39-9.28-15.83-10.32c1.31-0.53,5.48-0.89,10.97-0.89
			c5.28,0,11.78,0.33,18.13,1.16c7.92,1.03,15.18,2.34,20.13,3.31c0.08-0.27,0.18-0.53,0.29-0.78l-5.06-2.42
			c0,0-4.04-4.64-3.61-4.96c0.02-0.01,0.04-0.02,0.06-0.02c0.63,0,3.87,3.7,4.18,4.12c0.24,0.08,1.61,0.54,3.05,1.02l-1.43-1.25
			c0,0-1.96-7.25-1.45-7.42c0.01,0,0.01,0,0.02,0c0.54,0,2.31,6.31,2.47,6.76c0.35,0.31,1.53,0.77,3,1.62l-1.55-3.99
			c0,0,0.7-6.58,1.23-6.58c0,0,0.01,0,0.01,0c0.53,0.1-0.1,5.49-0.24,6.16c0.19,0.29,1.38,2.12,2.57,3.95
			c0.73-0.28,1.52-0.41,2.33-0.41c0.93,0,1.89,0.18,2.82,0.54c-1.19-2.53-1.1-5.17,0.48-6.74c0.5-0.5,1.11-0.85,1.78-1.05
			c0.08-0.46,0.29-0.9,0.64-1.25c0.46-0.46,1.06-0.68,1.66-0.68c0.64,0,1.28,0.25,1.77,0.74c0.47,0.47,0.72,1.08,0.74,1.69
			c0.76-1.57,1.66-3.68,1.6-4.37c-0.15-1.55-1.95-4.3-1.96-4.33c-0.12-0.18-0.07-0.42,0.11-0.53c0.07-0.04,0.14-0.06,0.21-0.06
			c0.13,0,0.25,0.06,0.32,0.17c0.08,0.12,1.92,2.93,2.09,4.68c0.09,1-1.05,3.51-1.68,4.79c0.88,0.48,1.73,1.11,2.51,1.89
			c0.78,0.78,1.41,1.63,1.89,2.51c1.23-0.6,3.6-1.68,4.67-1.68c0.04,0,0.08,0,0.12,0c1.74,0.16,4.56,2.01,4.68,2.09
			c0.18,0.12,0.23,0.36,0.11,0.53c-0.07,0.11-0.2,0.17-0.32,0.17c-0.07,0-0.15-0.02-0.21-0.06c-0.03-0.02-2.77-1.82-4.33-1.96
			c-0.02,0-0.05,0-0.08,0c-0.75,0-2.78,0.86-4.29,1.6c0.61,0.02,1.22,0.27,1.69,0.74c0.97,0.97,0.99,2.5,0.06,3.44
			c-0.35,0.35-0.79,0.57-1.25,0.65c-0.21,0.68-0.56,1.28-1.06,1.78c-0.87,0.87-2.06,1.29-3.38,1.29c-1.07,0-2.23-0.28-3.36-0.81
			c0.67,1.73,0.71,3.57,0.12,5.15c1.83,1.19,3.65,2.38,3.95,2.57c0.48-0.1,3.36-0.45,5.01-0.45c0.66,0,1.12,0.06,1.15,0.21
			c0.11,0.53-6.58,1.24-6.58,1.24l-3.99-1.55c0.85,1.48,1.31,2.65,1.62,3c0.46,0.15,6.93,1.98,6.76,2.49
			c-0.02,0.06-0.13,0.08-0.32,0.08c-1.42,0-7.1-1.53-7.1-1.53l-1.25-1.43c0.48,1.44,0.94,2.81,1.02,3.05
			c0.44,0.32,4.42,3.81,4.1,4.24c-0.02,0.02-0.04,0.03-0.08,0.03c-0.7,0-4.87-3.64-4.87-3.64l-2.42-5.06
			c-0.25,0.12-0.51,0.21-0.78,0.29c0.97,4.95,2.28,12.21,3.31,20.13c1.69,12.96,1.31,26.53,0.27,29.1
			C-7579.7,1007.61-7579.83,1007.71-7580,1007.71"/>
	</g>
	<path d="M-7262,945.88c-0.45-3.09-1.97-5.54-4.58-7.28c-1.85-1.24-3.92-1.94-6.09-2.34c-1.94-0.36-3.91-0.39-5.88-0.41
		c-2.38-0.03-4.76-0.02-7.14-0.02c-4.5-0.01-8.99-0.01-13.49-0.02c-0.72,0-1.42-0.01-2.14,0.01c-0.5,0.01-0.66,0.18-0.7,0.68
		c-0.01,0.17-0.01,0.34-0.01,0.5c0,0.9,0.02,1.8,0.02,2.7v22.31h-0.02v24.95c0,0.24,0,0.49,0.03,0.73c0.04,0.34,0.2,0.49,0.54,0.55
		c0.13,0.02,0.26,0.02,0.39,0.02h4.44c0.69,0,0.87-0.18,0.88-0.85c0-0.1,0-0.19,0-0.28c0-3.73,0-7.46-0.01-11.19
		c0-0.67-0.02-1.35,0-2.02c0.01-0.57,0.21-0.77,0.78-0.81c0.11-0.01,0.23-0.01,0.34-0.01c4.83,0.01,9.67,0.02,14.5,0.01
		c2,0,4.01,0.02,6-0.25c1.6-0.21,3.19-0.46,4.71-1.03c3.62-1.35,6.09-3.8,7.17-7.55c0.42-1.47,0.51-2.99,0.57-4.51
		c0.1-2.28,0.14-4.57,0.15-6.85C-7261.53,950.58-7261.65,948.22-7262,945.88 M-7268.34,962.16c-0.47,2.29-1.82,3.9-3.91,4.91
		c-1.49,0.72-3.09,1.01-4.72,1.11c-0.51,0.03-1.01,0.03-1.52,0.03c-5.06,0.01-10.12,0.01-15.18,0.01c-0.46,0-0.93,0.03-1.4-0.01
		c-0.49-0.04-0.66-0.23-0.68-0.72c-0.02-0.56,0-1.12,0-1.69v-11.3h-0.01v-12.53c0-1.12,0.06-1.18,1.17-1.18
		c5.62,0.01,11.24,0.01,16.86,0.01c1.84,0,3.62,0.27,5.3,1.03c2.58,1.17,4,3.18,4.29,5.99c0.26,2.48,0.43,4.96,0.4,7.45
		C-7267.76,957.59-7267.88,959.89-7268.34,962.16 M-7485.11,962.07L-7485.11,962.07c0-1.48,0.02-2.96,0-4.44
		c-0.03-3.48-0.05-6.97-0.12-10.45c-0.02-0.93-0.14-1.87-0.33-2.78c-0.6-3.01-2.23-5.28-5-6.67c-0.69-0.34-1.39-0.66-2.12-0.91
		c-2.53-0.88-5.17-1.24-7.82-1.43c-2-0.13-4.01-0.16-6.01-0.16c-2.66,0-5.32,0.14-7.95,0.58c-1.97,0.33-3.88,0.83-5.69,1.68
		c-2.82,1.33-4.61,3.51-5.35,6.55c-0.31,1.28-0.44,2.58-0.46,3.89c-0.03,2.34-0.03,4.69-0.03,7.03c0,6.8,0.01,13.6,0.01,20.4
		c0,1.46,0.15,2.92,0.44,4.35c0.56,2.79,2.07,4.89,4.51,6.35c1.2,0.71,2.49,1.21,3.84,1.53c3.55,0.84,7.17,1.17,10.81,1.22
		c3.02,0.04,6.03-0.2,9.02-0.55c2.13-0.26,4.19-0.78,6.16-1.66c3.33-1.48,5.22-4.07,5.73-7.63c0.22-1.55,0.3-3.13,0.31-4.7
		C-7485.08,970.2-7485.11,966.14-7485.11,962.07 M-7491.42,962.37c0,4.37-0.01,8.73-0.02,13.1c0,1.11-0.13,2.2-0.46,3.27
		c-0.51,1.66-1.56,2.83-3.14,3.54c-1.12,0.51-2.31,0.74-3.51,0.98c-2.8,0.55-5.63,0.78-8.49,0.68c-2.7-0.11-5.37-0.51-7.97-1.25
		c-2.65-0.76-4.11-2.58-4.48-5.26c-0.17-1.24-0.24-2.5-0.24-3.75c-0.02-7.79-0.01-15.58-0.01-23.38c0-1.39,0.07-2.77,0.32-4.14
		c0.43-2.37,1.82-3.96,4.06-4.75c1.01-0.36,2.09-0.58,3.16-0.76c2.48-0.43,4.98-0.63,7.49-0.56c2.77,0.08,5.53,0.37,8.22,1.08
		c0.27,0.07,0.54,0.16,0.8,0.26c2.49,0.94,3.85,2.78,4.1,5.4c0.14,1.47,0.13,2.96,0.14,4.43c0.02,3.37,0,6.75-0.01,10.11v0.62h0.03
		V962.37z M-7312.38,969.65c-0.48-3.15-2.06-5.58-4.86-7.18c-0.88-0.51-1.81-0.92-2.8-1.14c-1.91-0.44-3.83-0.87-5.77-1.22
		c-2.12-0.39-4.25-0.66-6.38-1c-1.92-0.31-3.84-0.62-5.76-0.95c-1.38-0.23-2.77-0.45-4.14-0.77c-2.62-0.62-4.08-2.35-4.26-5.03
		c-0.08-1.27-0.07-2.55-0.02-3.82c0.03-0.87,0.1-1.76,0.28-2.62c0.43-2.12,1.67-3.6,3.71-4.37c0.4-0.15,0.81-0.28,1.23-0.38
		c3.9-0.9,7.84-1.24,11.83-0.92c2.15,0.18,4.27,0.56,6.34,1.17c2.19,0.64,3.6,2.08,4.13,4.32c0.18,0.74,0.25,1.52,0.31,2.27
		c0.06,0.82,0.05,1.65,0.08,2.47c0.02,0.64,0.12,0.74,0.77,0.75c0.38,0,0.75-0.02,1.12-0.02c1.22,0.01,2.44,0.02,3.65,0.02
		c0.59,0,0.73-0.17,0.72-0.74c-0.02-0.6-0.04-1.2-0.04-1.8c0-1.39-0.11-2.77-0.37-4.13c-0.63-3.23-2.35-5.63-5.38-7.01
		c-0.31-0.14-0.62-0.27-0.93-0.39c-2.62-1.03-5.38-1.46-8.17-1.64c-2.51-0.17-5.01-0.26-7.52-0.15c-2.29,0.09-4.57,0.21-6.83,0.59
		c-1.85,0.31-3.67,0.75-5.37,1.57c-2.69,1.28-4.49,3.32-5.28,6.21c-0.31,1.14-0.45,2.32-0.48,3.5c-0.05,1.76-0.05,3.52-0.04,5.29
		c0.01,0.67,0.06,1.35,0.19,2.01c0.72,3.71,2.93,6.21,6.42,7.56c1.18,0.46,2.43,0.79,3.68,1.02c2.98,0.55,5.98,0.99,8.97,1.48
		c2.83,0.45,5.66,0.9,8.48,1.37c1.09,0.18,2.16,0.46,3.15,0.98c1.59,0.84,2.62,2.11,2.97,3.88c0.18,0.93,0.27,1.89,0.33,2.84
		c0.08,1.48-0.08,2.96-0.34,4.41c-0.43,2.34-1.73,3.96-4.04,4.65c-2.41,0.72-4.89,1.11-7.4,1.27c-1.88,0.11-3.75,0.06-5.61-0.11
		c-2.02-0.19-4.01-0.52-5.97-1.04c-1.76-0.48-3.09-1.53-3.82-3.22c-0.29-0.68-0.53-1.42-0.6-2.15c-0.14-1.43-0.15-2.87-0.2-4.31
		c-0.02-0.64,0.01-1.27-0.01-1.91c-0.02-0.53-0.12-0.63-0.64-0.63c-1.63-0.01-3.26-0.01-4.89,0c-0.6,0-0.68,0.1-0.68,0.69
		c0,0.68,0,1.35,0,2.02c-0.02,2.14-0.04,4.27,0.38,6.38c0.64,3.17,2.35,5.5,5.31,6.88c0.39,0.18,0.78,0.36,1.19,0.52
		c2.32,0.92,4.77,1.27,7.23,1.54c2.27,0.25,4.56,0.29,6.84,0.28c1.18-0.05,2.36-0.09,3.54-0.15c2.08-0.1,4.14-0.33,6.17-0.79
		c1.8-0.42,3.54-0.98,5.11-1.97c1.95-1.23,3.27-2.93,3.96-5.14c0.39-1.25,0.57-2.53,0.62-3.82c0.06-1.72,0.07-3.45,0.06-5.17
		C-7312.23,971.11-7312.27,970.37-7312.38,969.65 M-7362.62,986.83V967.5h-0.01c0-5.98,0-11.96,0.01-17.93
		c0-1.61-0.1-3.22-0.36-4.81c-0.52-3.28-2.22-5.71-5.23-7.18c-1.17-0.57-2.38-1-3.64-1.31c-2.65-0.66-5.35-0.86-8.07-0.98
		c-3.6-0.17-7.19-0.1-10.76,0.42c-1.63,0.23-3.25,0.5-4.83,1.01c-1.68,0.54-3.23,1.3-4.5,2.55c-1.75,1.7-2.57,3.85-2.81,6.21
		c-0.15,1.47-0.2,2.95-0.2,4.43c-0.03,6.01-0.03,12.02-0.04,18.03c-0.01,4.63-0.01,9.26-0.01,13.88c0,1.78-0.01,3.56-0.01,5.34
		c0,0.99,0.15,1.12,1.15,1.1c0.09,0,0.19-0.01,0.28-0.01c1.14,0,2.28,0,3.42,0.01c0.19,0,0.38,0.02,0.56,0.01
		c0.64-0.01,0.85-0.2,0.88-0.83c0.01-0.19,0-0.37,0-0.56c-0.01-5.55-0.02-11.09-0.03-16.64c0-0.24-0.01-0.49,0.01-0.73
		c0.06-0.47,0.26-0.66,0.72-0.7c0.17-0.02,0.34-0.01,0.51-0.01c1.55,0,3.11,0.01,4.66,0.01c6.95-0.01,13.9-0.02,20.85-0.03
		c0.17,0,0.34,0.01,0.5,0.04c0.4,0.06,0.6,0.26,0.66,0.65c0.03,0.22,0.02,0.45,0.02,0.68c-0.01,5.64-0.01,11.28-0.02,16.92
		c0,0.19-0.01,0.38,0.01,0.56c0.03,0.43,0.21,0.6,0.64,0.64c0.18,0.01,0.37-0.01,0.56-0.01c1.24,0,2.47,0.01,3.71,0.01
		c0.19,0,0.37,0.02,0.56,0.01c0.53-0.03,0.74-0.24,0.79-0.76C-7362.61,987.28-7362.62,987.06-7362.62,986.83 M-7368.87,962.5
		c-0.03,0.63-0.22,0.85-0.85,0.86c-0.67,0.01-1.35,0-2.02,0h-23.94c-0.98,0-1.13-0.17-1.13-1.15c0.01-4.46,0.02-8.92,0.03-13.38
		c0-1.01,0.08-2.02,0.3-3.01c0.44-1.94,1.54-3.34,3.34-4.19c1.18-0.56,2.45-0.81,3.72-1.03c3.18-0.53,6.37-0.6,9.58-0.35
		c1.45,0.11,2.9,0.26,4.35,0.48c0.77,0.12,1.53,0.38,2.27,0.63c2.33,0.82,3.71,2.49,4.09,4.9c0.19,1.2,0.23,2.42,0.24,3.64
		c0.03,4.12,0.02,8.24,0.03,12.36C-7368.87,962.35-7368.87,962.42-7368.87,962.5 M-7413.55,936.3c-0.05-0.33-0.18-0.44-0.52-0.48
		c-0.13-0.01-0.26-0.01-0.39-0.01c-1.42,0-2.85,0-4.27,0c-0.15,0-0.3,0-0.45,0.01c-0.29,0.03-0.5,0.17-0.55,0.47
		c-0.04,0.26-0.07,0.52-0.07,0.78c0.01,3.83,0.03,7.64,0.03,11.47c0.01,8.49,0,16.98,0,25.47c0,0.76,0.01,1.54-0.08,2.3
		c-0.12,0.94-0.26,1.9-0.52,2.81c-0.53,1.86-1.73,3.1-3.6,3.68c-1.45,0.44-2.92,0.79-4.44,0.94c-3.04,0.31-5.98-0.09-8.84-1.1
		c-1.18-0.42-2.08-1.18-2.67-2.28c-0.26-0.49-0.48-1.02-0.64-1.55c-0.46-1.54-0.55-3.13-0.55-4.72c0-11.17,0-22.34,0.01-33.5
		c0-1.22,0.01-2.44,0.01-3.65c0-0.99-0.16-1.12-1.16-1.12c-1.15,0.01-2.28,0.01-3.43,0.01c-0.34,0-0.68-0.01-1.01,0.01
		c-0.47,0.03-0.59,0.14-0.64,0.61c-0.03,0.28-0.02,0.56-0.02,0.85c0,12.2,0,24.4,0,36.59c0,1.27-0.05,2.54-0.25,3.81
		c-0.43,2.86-2.14,4.78-4.88,5.45c-3.73,0.91-7.46,0.91-11.18-0.01c-2.58-0.64-4.15-2.28-4.68-4.89c-0.3-1.52-0.34-3.05-0.34-4.59
		c0-12.18,0.01-24.36,0.01-36.54c0-0.24,0.01-0.49-0.03-0.73c-0.05-0.36-0.24-0.52-0.6-0.56c-0.15-0.02-0.3-0.01-0.45-0.01
		c-1.37,0-2.74,0-4.1,0c-0.13,0-0.26,0-0.39,0.01c-0.47,0.04-0.66,0.22-0.71,0.7c-0.02,0.2-0.01,0.41-0.01,0.61
		c0,3.15,0.01,6.3,0.01,9.44c0,9.35,0,18.7,0.01,28.05c0,1.82,0.07,3.64,0.46,5.42c0.77,3.5,2.8,5.94,6.16,7.24
		c0.56,0.21,1.13,0.39,1.71,0.55c2.43,0.68,4.92,0.93,7.45,0.94c2.12,0.02,4.23-0.06,6.31-0.5c3.39-0.71,6.23-2.32,8.32-5.14
		c0.09-0.12,0.19-0.22,0.31-0.36c0.13,0.15,0.24,0.28,0.34,0.41c1.61,2.18,3.71,3.68,6.29,4.51c2.3,0.74,4.67,1.05,7.07,1.13
		c1.46,0.04,2.93-0.04,4.38-0.22c1.84-0.23,3.67-0.54,5.44-1.11c3.45-1.1,5.67-3.38,6.59-6.9c0.4-1.51,0.56-3.05,0.56-4.62
		c0-3.93,0.01-7.87,0.01-11.81c0.01-9.14,0.01-18.28,0.02-27.43C-7413.52,936.6-7413.53,936.44-7413.55,936.3"/>
	<g>
		<path d="M-7255.72,998.34c0,5.12-4.02,9.14-9.25,9.14c-5.18,0-9.31-4.02-9.31-9.14c0-5.01,4.13-9.03,9.31-9.03
			C-7259.74,989.31-7255.72,993.33-7255.72,998.34z M-7271.96,998.34c0,4.02,2.97,7.21,7.05,7.21c3.96,0,6.88-3.19,6.88-7.16
			c0-4.02-2.92-7.27-6.94-7.27S-7271.96,994.37-7271.96,998.34z M-7266.4,1003.07h-2.09v-9.03c0.83-0.17,1.98-0.28,3.47-0.28
			c1.71,0,2.48,0.28,3.14,0.66c0.5,0.39,0.88,1.1,0.88,1.98c0,0.99-0.77,1.76-1.87,2.09v0.11c0.88,0.33,1.38,0.99,1.65,2.2
			c0.28,1.38,0.44,1.93,0.66,2.26h-2.26c-0.28-0.33-0.44-1.15-0.72-2.2c-0.17-0.99-0.72-1.43-1.87-1.43h-0.99V1003.07z
			 M-7266.35,997.95h0.99c1.16,0,2.09-0.39,2.09-1.32c0-0.83-0.61-1.38-1.93-1.38c-0.55,0-0.94,0.06-1.16,0.11V997.95z"/>
	</g>
</g>
<path d="M-6187.86,1284.04l-27.45-56.99l-15.97-33.16l-47.58-98.79c-0.65-1.36-1.48-2.58-2.43-3.67c-0.06-0.07-0.12-0.15-0.18-0.22
	c-0.24-0.26-0.48-0.51-0.74-0.76c-0.16-0.16-0.32-0.32-0.48-0.47c-0.17-0.15-0.34-0.29-0.52-0.44c-0.27-0.22-0.53-0.44-0.81-0.65
	c-0.08-0.06-0.17-0.11-0.25-0.17c-0.75-0.53-1.54-1.01-2.39-1.42c-2.33-1.12-4.81-1.62-7.24-1.6c-2.38,0.01-4.8,0.51-7.08,1.6
	c-0.86,0.41-1.67,0.91-2.42,1.45c-0.07,0.05-0.13,0.09-0.2,0.14c-0.31,0.22-0.59,0.46-0.88,0.7c-0.15,0.12-0.3,0.24-0.44,0.37
	c-0.2,0.18-0.39,0.37-0.58,0.56c-0.22,0.21-0.43,0.43-0.64,0.65c-0.11,0.12-0.2,0.24-0.3,0.36c-0.27,0.31-0.52,0.63-0.77,0.96
	c-0.03,0.04-0.05,0.08-0.08,0.11c-0.56,0.78-1.06,1.6-1.49,2.49l-52.48,108.21c-3.94,8.23-0.43,18.18,7.8,22.12
	s18.18,0.43,22.12-7.8l37.47-77.26l25.77,53.5h0h-6.73c-9.12,0-16.58,7.47-16.58,16.59c0,9.12,7.46,16.58,16.58,16.58h22.7h0l0,0
	l34.35,71.31c3.94,8.23,13.89,11.74,22.12,7.8S-6183.92,1292.27-6187.86,1284.04z"/>
<path d="M-6399.03,1109.69c-8.97,0-16.31,7.34-16.31,16.31l0,85.01c0,8.97,7.34,16.31,16.31,16.31h0c8.97,0,16.31-7.34,16.31-16.31
	l0-85.01C-6382.72,1117.03-6390.06,1109.69-6399.03,1109.69z M-6399.03,1095.89c8.98,0,16.26-7.28,16.26-16.26
	c0-8.98-7.28-16.26-16.26-16.26s-16.26,7.28-16.26,16.26C-6415.29,1088.61-6408.01,1095.89-6399.03,1095.89z"/>
<path d="M-6436.46,1196.67l0-116.72c0-9.12-7.46-16.58-16.58-16.58s-16.58,7.46-16.58,16.58l0,38.02
	c-19.96-19.59-47.31-31.67-77.49-31.67c-61.11,0-110.66,49.54-110.66,110.66s49.54,110.66,110.66,110.66
	c60.95,0,110.38-49.27,110.65-110.16h0v-0.21c0-0.1,0-0.19,0-0.29C-6436.45,1196.86-6436.46,1196.77-6436.46,1196.67z
	 M-6547.11,1274.48c-42.81,0-77.52-34.71-77.52-77.52c0-42.81,34.71-77.52,77.52-77.52c42.41,0,76.85,34.07,77.49,76.33v1.69h0.02
	C-6469.88,1240.04-6504.47,1274.48-6547.11,1274.48z"/>
<g>
	<g>
		<path d="M-6610.46,1018.56c-23.36,0-42.3-18.94-42.3-42.3c0-23.36,18.94-42.3,42.3-42.3c23.36,0,42.3,18.94,42.3,42.3
			C-6568.16,999.62-6587.1,1018.56-6610.46,1018.56 M-6610.46,940.47c-19.77,0-35.79,16.03-35.79,35.79
			c0,19.77,16.02,35.79,35.79,35.79s35.79-16.03,35.79-35.79C-6574.67,956.49-6590.7,940.47-6610.46,940.47 M-6596.72,1006.24
			c-1.35,0-6.28-8.78-6.94-11.28c-1.39-5.24-1.09-7.45-1-8.16c0.25-2.16,2.35-3.24,2.48-6.16c0.04-0.9,0.49-5.41,0.86-8.93
			c-0.9-0.18-1.79-0.58-2.59-1.21c2.38,3.2-1.13,7.03-6.23,12.14c-5.42,5.42-17.43,10.44-17.43,10.44s5.03-12.02,10.44-17.43
			c3.98-3.98,7.19-6.99,9.93-6.99c0.77,0,1.51,0.24,2.21,0.76c-0.63-0.79-1.03-1.69-1.21-2.59c-3.52,0.36-8.03,0.82-8.93,0.86
			c-2.92,0.13-4,2.22-6.16,2.48c-0.25,0.03-0.68,0.09-1.37,0.09c-1.27,0-3.39-0.19-6.79-1.09c-2.72-0.72-12.86-6.49-11.06-7.21
			c0.91-0.37,3.83-0.62,7.67-0.62c3.69,0,8.24,0.23,12.68,0.81c5.54,0.72,10.61,1.63,14.07,2.31c0.06-0.19,0.12-0.37,0.2-0.54
			l-3.54-1.69c0,0-2.82-3.24-2.52-3.46c0.01-0.01,0.03-0.01,0.04-0.01c0.44,0,2.7,2.58,2.92,2.88c0.17,0.06,1.13,0.38,2.13,0.71
			l-1-0.87c0,0-1.37-5.07-1.01-5.19c0,0,0.01,0,0.01,0c0.38,0,1.62,4.41,1.72,4.73c0.25,0.21,1.07,0.54,2.1,1.13l-1.08-2.79
			c0,0,0.49-4.6,0.86-4.6c0,0,0.01,0,0.01,0c0.37,0.07-0.07,3.84-0.17,4.31c0.13,0.21,0.96,1.48,1.8,2.76
			c0.51-0.19,1.06-0.29,1.63-0.29c0.65,0,1.32,0.13,1.97,0.37c-0.83-1.77-0.77-3.61,0.33-4.71c0.35-0.35,0.77-0.59,1.25-0.74
			c0.06-0.32,0.21-0.63,0.45-0.87c0.32-0.32,0.74-0.48,1.16-0.48c0.44,0,0.9,0.17,1.24,0.52c0.33,0.33,0.5,0.76,0.52,1.18
			c0.53-1.1,1.16-2.58,1.12-3.05c-0.1-1.09-1.36-3-1.37-3.02c-0.08-0.12-0.05-0.29,0.08-0.37c0.05-0.03,0.1-0.04,0.15-0.04
			c0.09,0,0.17,0.04,0.22,0.12c0.06,0.08,1.35,2.05,1.46,3.27c0.06,0.7-0.74,2.45-1.17,3.35c0.61,0.34,1.21,0.78,1.76,1.32
			c0.54,0.55,0.99,1.14,1.32,1.75c0.86-0.42,2.52-1.18,3.27-1.18c0.03,0,0.06,0,0.08,0c1.22,0.11,3.19,1.4,3.27,1.46
			c0.12,0.08,0.16,0.25,0.08,0.37c-0.05,0.08-0.14,0.12-0.23,0.12c-0.05,0-0.1-0.01-0.15-0.04c-0.02-0.01-1.94-1.27-3.02-1.37
			c-0.02,0-0.03,0-0.05,0c-0.53,0-1.94,0.6-3,1.12c0.43,0.01,0.85,0.19,1.18,0.52c0.68,0.68,0.69,1.75,0.04,2.4
			c-0.24,0.24-0.55,0.4-0.87,0.45c-0.15,0.47-0.39,0.9-0.74,1.24c-0.61,0.61-1.44,0.9-2.36,0.9c-0.75,0-1.56-0.19-2.35-0.56
			c0.47,1.21,0.5,2.5,0.09,3.6c1.28,0.83,2.55,1.66,2.76,1.8c0.34-0.07,2.35-0.31,3.5-0.31c0.46,0,0.78,0.04,0.8,0.14
			c0.07,0.37-4.6,0.87-4.6,0.87l-2.79-1.09c0.6,1.03,0.92,1.86,1.13,2.1c0.32,0.11,4.84,1.38,4.72,1.74
			c-0.01,0.04-0.09,0.06-0.22,0.06c-1,0-4.97-1.07-4.97-1.07l-0.88-1c0.34,1.01,0.65,1.97,0.71,2.13c0.31,0.23,3.09,2.66,2.86,2.96
			c-0.01,0.02-0.03,0.02-0.06,0.02c-0.49,0-3.41-2.55-3.41-2.55l-1.7-3.54c-0.17,0.08-0.36,0.15-0.54,0.2
			c0.68,3.46,1.59,8.54,2.31,14.07c1.18,9.06,0.91,18.55,0.19,20.34C-6596.52,1006.17-6596.61,1006.24-6596.72,1006.24"/>
	</g>
	<path d="M-6374.41,963.02c-0.32-2.16-1.38-3.87-3.21-5.09c-1.3-0.87-2.74-1.36-4.26-1.64c-1.36-0.25-2.73-0.27-4.11-0.29
		c-1.66-0.02-3.33-0.01-4.99-0.02c-3.14-0.01-6.29-0.01-9.43-0.01c-0.5,0-1-0.01-1.49,0.01c-0.35,0.01-0.46,0.13-0.49,0.48
		c-0.01,0.12-0.01,0.24-0.01,0.35c0,0.63,0.01,1.26,0.01,1.89v15.6h-0.01v17.45c0,0.17,0,0.34,0.02,0.51
		c0.03,0.24,0.14,0.34,0.37,0.39c0.09,0.02,0.18,0.01,0.28,0.01h3.1c0.48,0,0.61-0.12,0.62-0.59c0-0.07,0-0.13,0-0.2
		c0-2.61,0-5.21-0.01-7.82c0-0.47-0.01-0.94,0-1.41c0.01-0.4,0.15-0.54,0.54-0.56c0.08-0.01,0.16,0,0.24,0
		c3.38,0,6.76,0.01,10.14,0.01c1.4,0,2.8,0.01,4.2-0.17c1.12-0.15,2.23-0.32,3.29-0.72c2.53-0.94,4.26-2.65,5.01-5.28
		c0.3-1.03,0.35-2.09,0.4-3.15c0.07-1.6,0.1-3.19,0.1-4.79C-6374.09,966.3-6374.17,964.65-6374.41,963.02 M-6378.85,974.39
		c-0.33,1.6-1.27,2.73-2.73,3.43c-1.04,0.5-2.16,0.71-3.3,0.78c-0.35,0.02-0.71,0.02-1.06,0.02c-3.54,0.01-7.07,0.01-10.61,0.01
		c-0.33,0-0.65,0.02-0.98,0c-0.34-0.03-0.46-0.16-0.48-0.5c-0.02-0.39,0-0.79,0-1.18v-7.9h0v-8.76c0-0.78,0.04-0.83,0.82-0.83
		c3.93,0,7.86,0.01,11.79,0.01c1.29,0,2.53,0.19,3.71,0.72c1.81,0.82,2.79,2.22,3,4.19c0.18,1.73,0.3,3.47,0.28,5.21
		C-6378.44,971.2-6378.53,972.81-6378.85,974.39 M-6530.39,974.33L-6530.39,974.33c0-1.03,0.01-2.07,0-3.1
		c-0.02-2.43-0.03-4.87-0.08-7.31c-0.01-0.65-0.1-1.31-0.23-1.95c-0.42-2.11-1.56-3.69-3.49-4.66c-0.48-0.24-0.97-0.46-1.48-0.64
		c-1.77-0.62-3.61-0.87-5.47-1c-1.4-0.09-2.8-0.11-4.2-0.11c-1.86,0-3.72,0.1-5.55,0.4c-1.38,0.23-2.71,0.58-3.98,1.18
		c-1.97,0.93-3.22,2.45-3.74,4.58c-0.22,0.89-0.31,1.81-0.32,2.72c-0.02,1.64-0.02,3.28-0.02,4.91c0,4.75,0.01,9.51,0.01,14.26
		c0,1.02,0.11,2.04,0.31,3.04c0.39,1.95,1.45,3.42,3.16,4.44c0.84,0.5,1.74,0.85,2.69,1.07c2.48,0.59,5.01,0.82,7.56,0.85
		c2.11,0.03,4.22-0.14,6.31-0.39c1.49-0.18,2.93-0.55,4.3-1.16c2.33-1.03,3.65-2.85,4.01-5.33c0.16-1.08,0.21-2.19,0.22-3.29
		C-6530.37,980.02-6530.39,977.18-6530.39,974.33 M-6534.8,974.54c0,3.05-0.01,6.11-0.01,9.16c0,0.77-0.09,1.54-0.32,2.29
		c-0.35,1.16-1.09,1.98-2.19,2.47c-0.78,0.35-1.62,0.52-2.45,0.69c-1.96,0.39-3.94,0.55-5.93,0.47c-1.89-0.08-3.75-0.35-5.57-0.87
		c-1.85-0.53-2.87-1.8-3.13-3.68c-0.12-0.87-0.17-1.75-0.17-2.62c-0.02-5.45-0.01-10.9-0.01-16.34c0-0.97,0.05-1.94,0.22-2.89
		c0.3-1.65,1.27-2.77,2.84-3.32c0.71-0.25,1.46-0.4,2.21-0.53c1.73-0.3,3.48-0.44,5.24-0.39c1.94,0.06,3.86,0.26,5.75,0.75
		c0.19,0.05,0.38,0.11,0.56,0.18c1.74,0.66,2.69,1.95,2.87,3.77c0.1,1.03,0.09,2.07,0.1,3.1c0.01,2.36,0,4.72-0.01,7.07v0.43h0.02
		V974.54z M-6409.64,979.63c-0.34-2.2-1.44-3.9-3.4-5.02c-0.62-0.35-1.26-0.64-1.96-0.8c-1.34-0.31-2.68-0.61-4.03-0.85
		c-1.48-0.27-2.97-0.46-4.46-0.7c-1.34-0.21-2.69-0.44-4.03-0.67c-0.97-0.16-1.94-0.31-2.89-0.54c-1.83-0.43-2.86-1.64-2.98-3.52
		c-0.06-0.89-0.05-1.78-0.02-2.67c0.02-0.61,0.07-1.23,0.19-1.83c0.3-1.49,1.17-2.52,2.59-3.06c0.28-0.11,0.57-0.2,0.86-0.27
		c2.73-0.63,5.48-0.87,8.27-0.64c1.5,0.12,2.98,0.39,4.43,0.82c1.53,0.45,2.52,1.45,2.89,3.02c0.12,0.52,0.17,1.06,0.22,1.59
		c0.04,0.58,0.04,1.15,0.06,1.73c0.01,0.45,0.08,0.52,0.54,0.52c0.26,0,0.52-0.01,0.79-0.01c0.85,0,1.7,0.02,2.55,0.01
		c0.41,0,0.51-0.12,0.5-0.52c-0.01-0.42-0.03-0.84-0.03-1.26c0-0.97-0.07-1.93-0.26-2.89c-0.44-2.26-1.64-3.93-3.76-4.9
		c-0.21-0.1-0.43-0.19-0.65-0.27c-1.83-0.72-3.76-1.02-5.71-1.15c-1.75-0.12-3.51-0.18-5.26-0.11c-1.6,0.06-3.19,0.15-4.77,0.41
		c-1.29,0.22-2.56,0.53-3.76,1.1c-1.88,0.9-3.14,2.32-3.69,4.34c-0.22,0.8-0.31,1.62-0.34,2.44c-0.04,1.23-0.04,2.46-0.03,3.7
		c0,0.47,0.04,0.95,0.14,1.4c0.51,2.6,2.05,4.34,4.49,5.28c0.83,0.32,1.7,0.55,2.57,0.71c2.08,0.38,4.18,0.69,6.27,1.03
		c1.98,0.32,3.95,0.63,5.93,0.95c0.77,0.13,1.51,0.32,2.2,0.69c1.11,0.58,1.83,1.48,2.08,2.71c0.13,0.65,0.19,1.32,0.23,1.98
		c0.06,1.04-0.05,2.07-0.24,3.09c-0.3,1.64-1.21,2.77-2.83,3.25c-1.69,0.5-3.42,0.78-5.17,0.89c-1.31,0.08-2.62,0.04-3.92-0.08
		c-1.41-0.13-2.8-0.36-4.17-0.73c-1.23-0.34-2.16-1.07-2.67-2.25c-0.2-0.48-0.37-0.99-0.42-1.5c-0.1-1-0.11-2.01-0.14-3.02
		c-0.01-0.45,0.01-0.89-0.01-1.33c-0.01-0.37-0.08-0.44-0.45-0.44c-1.14-0.01-2.28-0.01-3.42,0c-0.42,0-0.48,0.07-0.48,0.48
		c0,0.47,0,0.94,0,1.41c-0.01,1.49-0.03,2.99,0.27,4.46c0.45,2.21,1.65,3.85,3.71,4.81c0.27,0.13,0.55,0.25,0.83,0.36
		c1.62,0.64,3.33,0.89,5.05,1.08c1.59,0.18,3.19,0.2,4.78,0.2c0.82-0.04,1.65-0.06,2.47-0.1c1.45-0.07,2.9-0.23,4.32-0.56
		c1.26-0.29,2.47-0.68,3.57-1.38c1.36-0.86,2.29-2.05,2.77-3.59c0.27-0.87,0.4-1.77,0.43-2.67c0.04-1.2,0.05-2.41,0.04-3.61
		C-6409.53,980.65-6409.56,980.14-6409.64,979.63 M-6444.76,991.64v-13.51h-0.01c0-4.18,0-8.36,0-12.54c0-1.13-0.07-2.25-0.25-3.36
		c-0.37-2.29-1.55-3.99-3.66-5.02c-0.81-0.4-1.66-0.7-2.54-0.92c-1.85-0.46-3.74-0.6-5.64-0.69c-2.52-0.12-5.03-0.07-7.52,0.3
		c-1.14,0.16-2.28,0.35-3.38,0.7c-1.17,0.38-2.26,0.91-3.15,1.78c-1.22,1.19-1.8,2.69-1.97,4.34c-0.1,1.03-0.14,2.06-0.14,3.1
		c-0.02,4.2-0.02,8.41-0.02,12.61c-0.01,3.24-0.01,6.47-0.01,9.71c0,1.24,0,2.49,0,3.73c0,0.69,0.1,0.78,0.8,0.77
		c0.06,0,0.13-0.01,0.2-0.01c0.8,0,1.6,0,2.39,0c0.13,0,0.26,0.01,0.39,0.01c0.45-0.01,0.59-0.14,0.61-0.58c0.01-0.13,0-0.26,0-0.39
		c-0.01-3.88-0.01-7.75-0.02-11.63c0-0.17-0.01-0.34,0.01-0.51c0.04-0.33,0.18-0.46,0.5-0.49c0.12-0.01,0.24-0.01,0.36-0.01
		c1.08,0,2.17,0.01,3.26,0.01c4.86-0.01,9.72-0.01,14.58-0.02c0.12,0,0.23,0.01,0.35,0.03c0.28,0.04,0.42,0.18,0.46,0.45
		c0.02,0.16,0.02,0.31,0.02,0.47c-0.01,3.94-0.01,7.88-0.01,11.83c0,0.13-0.01,0.26,0,0.39c0.02,0.3,0.15,0.42,0.45,0.45
		c0.13,0.01,0.26,0,0.39,0c0.87,0,1.73,0,2.59,0c0.13,0,0.26,0.01,0.39,0.01c0.37-0.02,0.52-0.17,0.55-0.53
		C-6444.75,991.96-6444.76,991.8-6444.76,991.64 M-6449.13,974.63c-0.02,0.44-0.16,0.59-0.59,0.6c-0.47,0.01-0.94,0-1.41,0h-16.74
		c-0.68,0-0.79-0.12-0.79-0.8c0.01-3.12,0.01-6.23,0.02-9.35c0-0.71,0.06-1.41,0.21-2.1c0.31-1.35,1.08-2.33,2.33-2.93
		c0.83-0.39,1.71-0.57,2.6-0.72c2.22-0.37,4.46-0.42,6.7-0.24c1.02,0.08,2.03,0.18,3.04,0.34c0.54,0.08,1.07,0.26,1.58,0.44
		c1.63,0.57,2.59,1.74,2.86,3.43c0.13,0.84,0.16,1.69,0.17,2.54c0.02,2.88,0.01,5.76,0.02,8.64
		C-6449.13,974.53-6449.13,974.58-6449.13,974.63 M-6480.36,956.31c-0.04-0.23-0.13-0.31-0.36-0.34c-0.09-0.01-0.18-0.01-0.28-0.01
		c-0.99,0-1.99,0-2.98,0c-0.1,0-0.21,0-0.31,0.01c-0.21,0.02-0.35,0.12-0.38,0.33c-0.03,0.18-0.05,0.36-0.05,0.55
		c0.01,2.67,0.02,5.34,0.02,8.02c0.01,5.93,0,11.87,0,17.8c0,0.53,0.01,1.08-0.06,1.61c-0.08,0.66-0.18,1.33-0.36,1.97
		c-0.37,1.3-1.21,2.17-2.52,2.57c-1.02,0.31-2.04,0.55-3.1,0.66c-2.12,0.22-4.18-0.06-6.18-0.77c-0.83-0.29-1.46-0.83-1.87-1.6
		c-0.18-0.34-0.34-0.71-0.45-1.09c-0.32-1.08-0.38-2.19-0.38-3.3c0-7.81,0-15.61,0-23.42c0-0.85,0.01-1.7,0.01-2.55
		c0-0.69-0.11-0.79-0.81-0.78c-0.8,0.01-1.6,0.01-2.4,0.01c-0.24,0-0.47-0.01-0.71,0.01c-0.33,0.02-0.42,0.1-0.45,0.43
		c-0.02,0.2-0.01,0.39-0.01,0.59c0,8.53,0,17.06,0,25.58c0,0.89-0.04,1.78-0.17,2.66c-0.3,2-1.49,3.34-3.41,3.81
		c-2.61,0.64-5.21,0.63-7.82-0.01c-1.8-0.45-2.9-1.59-3.27-3.42c-0.21-1.06-0.23-2.13-0.23-3.21c0-8.51,0.01-17.03,0.01-25.54
		c0-0.17,0-0.34-0.02-0.51c-0.04-0.25-0.17-0.37-0.42-0.39c-0.1-0.01-0.21-0.01-0.31-0.01c-0.96,0-1.91,0-2.87,0
		c-0.09,0-0.18,0-0.27,0.01c-0.33,0.02-0.46,0.15-0.5,0.49c-0.01,0.14-0.01,0.29-0.01,0.43c0,2.2,0,4.4,0.01,6.6
		c0,6.54,0,13.07,0.01,19.61c0,1.27,0.05,2.54,0.32,3.79c0.54,2.45,1.96,4.15,4.31,5.06c0.39,0.15,0.79,0.27,1.19,0.39
		c1.7,0.47,3.44,0.65,5.21,0.66c1.48,0.01,2.96-0.04,4.41-0.35c2.37-0.5,4.35-1.62,5.81-3.59c0.06-0.08,0.13-0.16,0.22-0.25
		c0.09,0.11,0.17,0.19,0.23,0.29c1.12,1.52,2.59,2.58,4.39,3.15c1.61,0.52,3.26,0.74,4.94,0.79c1.02,0.03,2.05-0.03,3.06-0.15
		c1.28-0.16,2.56-0.38,3.8-0.78c2.41-0.77,3.96-2.36,4.61-4.82c0.28-1.06,0.39-2.14,0.39-3.23c0-2.75,0.01-5.5,0.01-8.25
		c0.01-6.39,0.01-12.78,0.01-19.18C-6480.34,956.52-6480.35,956.42-6480.36,956.31"/>
	<g>
		<path d="M-6370.02,999.69c0,3.58-2.81,6.39-6.47,6.39c-3.62,0-6.51-2.81-6.51-6.39c0-3.5,2.89-6.31,6.51-6.31
			C-6372.83,993.37-6370.02,996.18-6370.02,999.69z M-6381.38,999.69c0,2.81,2.08,5.04,4.93,5.04c2.77,0,4.81-2.23,4.81-5
			c0-2.81-2.04-5.08-4.85-5.08C-6379.3,994.64-6381.38,996.91-6381.38,999.69z M-6377.49,1003h-1.46v-6.31
			c0.58-0.12,1.39-0.19,2.43-0.19c1.19,0,1.73,0.19,2.19,0.46c0.35,0.27,0.62,0.77,0.62,1.39c0,0.69-0.54,1.23-1.31,1.46v0.08
			c0.62,0.23,0.96,0.69,1.15,1.54c0.19,0.96,0.31,1.35,0.46,1.58h-1.58c-0.19-0.23-0.31-0.81-0.5-1.54c-0.12-0.69-0.5-1-1.31-1
			h-0.69V1003z M-6377.45,999.42h0.69c0.81,0,1.46-0.27,1.46-0.92c0-0.58-0.42-0.96-1.35-0.96c-0.39,0-0.66,0.04-0.81,0.08V999.42z"
			/>
	</g>
</g>
<g>
	<g>
		<path d="M-5789.92,1047.03c-29.28,0-53.02-23.74-53.02-53.02c0-29.28,23.74-53.02,53.02-53.02c29.28,0,53.02,23.74,53.02,53.02
			C-5736.9,1023.3-5760.64,1047.03-5789.92,1047.03 M-5789.92,949.16c-24.77,0-44.86,20.08-44.86,44.86
			c0,24.77,20.08,44.86,44.86,44.86c24.77,0,44.86-20.08,44.86-44.86C-5745.06,969.24-5765.14,949.16-5789.92,949.16
			 M-5772.7,1031.59c-1.7,0-7.87-11-8.7-14.13c-1.74-6.57-1.36-9.34-1.26-10.22c0.32-2.71,2.94-4.06,3.1-7.72
			c0.05-1.13,0.62-6.78,1.08-11.2c-1.13-0.22-2.25-0.73-3.24-1.51c2.99,4.01-1.41,8.82-7.8,15.21
			c-6.79,6.79-21.85,13.08-21.85,13.08s6.3-15.06,13.09-21.85c4.99-4.99,9.01-8.76,12.44-8.76c0.97,0,1.89,0.3,2.77,0.96
			c-0.79-1-1.29-2.12-1.51-3.24c-4.41,0.46-10.07,1.03-11.2,1.08c-3.66,0.16-5.01,2.79-7.72,3.1c-0.31,0.04-0.86,0.11-1.72,0.11
			c-1.59,0-4.25-0.24-8.51-1.37c-3.41-0.9-16.12-8.13-13.87-9.04c1.15-0.46,4.8-0.78,9.61-0.78c4.63,0,10.32,0.29,15.89,1.01
			c6.94,0.9,13.3,2.05,17.64,2.9c0.07-0.23,0.15-0.46,0.25-0.68l-4.43-2.12c0,0-3.54-4.06-3.16-4.34c0.02-0.01,0.03-0.02,0.06-0.02
			c0.56,0,3.39,3.24,3.66,3.61c0.21,0.07,1.41,0.47,2.67,0.89l-1.25-1.1c0,0-1.72-6.36-1.27-6.51c0.01,0,0.01,0,0.02,0
			c0.47,0,2.03,5.53,2.16,5.92c0.31,0.27,1.34,0.67,2.63,1.42l-1.36-3.49c0,0,0.62-5.76,1.08-5.76c0,0,0.01,0,0.01,0
			c0.46,0.09-0.09,4.81-0.21,5.4c0.17,0.26,1.21,1.86,2.25,3.46c0.64-0.24,1.33-0.36,2.04-0.36c0.81,0,1.65,0.16,2.47,0.47
			c-1.04-2.22-0.96-4.53,0.42-5.91c0.44-0.44,0.97-0.74,1.56-0.92c0.07-0.4,0.26-0.79,0.56-1.09c0.4-0.4,0.93-0.6,1.46-0.6
			c0.56,0,1.12,0.22,1.56,0.65c0.41,0.41,0.63,0.95,0.65,1.48c0.67-1.37,1.45-3.23,1.4-3.83c-0.13-1.36-1.71-3.77-1.72-3.79
			c-0.1-0.15-0.06-0.36,0.09-0.47c0.06-0.04,0.12-0.06,0.19-0.06c0.11,0,0.22,0.05,0.28,0.15c0.07,0.1,1.69,2.57,1.83,4.1
			c0.08,0.87-0.92,3.08-1.47,4.2c0.77,0.42,1.52,0.98,2.2,1.66c0.68,0.68,1.24,1.43,1.66,2.2c1.08-0.53,3.16-1.47,4.09-1.47
			c0.04,0,0.07,0,0.11,0c1.53,0.14,3.99,1.76,4.1,1.83c0.16,0.1,0.2,0.31,0.1,0.47c-0.06,0.1-0.17,0.15-0.28,0.15
			c-0.06,0-0.13-0.02-0.18-0.05c-0.02-0.02-2.43-1.59-3.79-1.72c-0.02,0-0.04,0-0.07,0c-0.66,0-2.44,0.76-3.76,1.4
			c0.53,0.02,1.07,0.23,1.48,0.65c0.85,0.85,0.87,2.19,0.05,3.01c-0.31,0.31-0.69,0.5-1.09,0.57c-0.18,0.59-0.49,1.12-0.93,1.56
			c-0.76,0.76-1.8,1.13-2.96,1.13c-0.94,0-1.95-0.24-2.95-0.71c0.58,1.52,0.63,3.13,0.11,4.51c1.6,1.04,3.2,2.09,3.46,2.25
			c0.42-0.08,2.95-0.39,4.39-0.39c0.58,0,0.98,0.05,1.01,0.18c0.09,0.46-5.76,1.09-5.76,1.09l-3.49-1.36
			c0.75,1.29,1.15,2.33,1.42,2.63c0.4,0.14,6.07,1.73,5.92,2.18c-0.02,0.05-0.12,0.07-0.28,0.07c-1.25,0-6.22-1.34-6.22-1.34
			l-1.1-1.25c0.42,1.26,0.82,2.46,0.89,2.67c0.38,0.28,3.87,3.34,3.59,3.71c-0.01,0.02-0.04,0.03-0.07,0.03
			c-0.61,0-4.27-3.19-4.27-3.19l-2.12-4.43c-0.22,0.1-0.45,0.18-0.68,0.26c0.85,4.34,2,10.7,2.9,17.63
			c1.48,11.35,1.15,23.25,0.24,25.5C-5772.44,1031.5-5772.55,1031.59-5772.7,1031.59"/>
	</g>
	<path d="M-5494.09,977.42c-0.4-2.71-1.73-4.86-4.02-6.38c-1.62-1.09-3.43-1.7-5.33-2.05c-1.7-0.32-3.43-0.34-5.15-0.36
		c-2.09-0.03-4.17-0.02-6.25-0.02c-3.94-0.01-7.88-0.01-11.82-0.02c-0.63,0-1.25-0.01-1.87,0.01c-0.44,0.01-0.58,0.16-0.61,0.6
		c-0.01,0.15-0.01,0.3-0.01,0.44c0,0.79,0.01,1.58,0.01,2.37v19.55h-0.01v21.86c0,0.21,0,0.43,0.02,0.64
		c0.04,0.3,0.17,0.43,0.47,0.48c0.11,0.02,0.23,0.02,0.34,0.02h3.89c0.6,0,0.76-0.16,0.77-0.74c0-0.08,0-0.16,0-0.25
		c0-3.27,0-6.53-0.01-9.8c0-0.59-0.01-1.18,0-1.77c0.01-0.5,0.18-0.67,0.68-0.71c0.1-0.01,0.2,0,0.3,0c4.23,0,8.47,0.02,12.7,0.01
		c1.75,0,3.51,0.01,5.26-0.22c1.4-0.19,2.79-0.41,4.12-0.9c3.17-1.18,5.34-3.33,6.28-6.62c0.37-1.29,0.44-2.62,0.5-3.95
		c0.08-2,0.12-4,0.13-6C-5493.68,981.53-5493.79,979.47-5494.09,977.42 M-5499.65,991.68c-0.41,2.01-1.6,3.42-3.43,4.3
		c-1.31,0.63-2.7,0.89-4.14,0.98c-0.44,0.03-0.89,0.03-1.33,0.03c-4.43,0.01-8.86,0.01-13.3,0.01c-0.41,0-0.82,0.02-1.23,0
		c-0.43-0.03-0.58-0.2-0.6-0.63c-0.02-0.49,0-0.99,0-1.48v-9.9h-0.01V974c0-0.98,0.05-1.03,1.03-1.03c4.93,0,9.85,0.01,14.77,0.01
		c1.61,0,3.17,0.24,4.65,0.91c2.26,1.02,3.5,2.79,3.76,5.25c0.23,2.17,0.37,4.35,0.35,6.53
		C-5499.14,987.67-5499.25,989.69-5499.65,991.68 M-5689.56,991.6L-5689.56,991.6c0-1.3,0.01-2.59,0-3.89
		c-0.02-3.05-0.04-6.11-0.1-9.16c-0.02-0.81-0.13-1.64-0.29-2.44c-0.53-2.64-1.95-4.63-4.38-5.85c-0.6-0.3-1.22-0.58-1.85-0.8
		c-2.22-0.77-4.53-1.09-6.85-1.25c-1.75-0.12-3.51-0.14-5.26-0.14c-2.33,0-4.66,0.13-6.96,0.51c-1.72,0.29-3.4,0.73-4.99,1.47
		c-2.47,1.17-4.04,3.08-4.69,5.74c-0.27,1.12-0.39,2.26-0.4,3.41c-0.02,2.05-0.02,4.11-0.02,6.16c0,5.96,0.01,11.92,0.01,17.88
		c0,1.28,0.14,2.56,0.38,3.81c0.49,2.44,1.81,4.29,3.95,5.56c1.05,0.63,2.18,1.06,3.37,1.34c3.11,0.74,6.28,1.03,9.47,1.07
		c2.65,0.03,5.28-0.17,7.91-0.48c1.87-0.22,3.67-0.69,5.39-1.45c2.92-1.3,4.57-3.57,5.02-6.69c0.2-1.36,0.26-2.74,0.28-4.12
		C-5689.54,998.73-5689.56,995.16-5689.56,991.6 M-5695.09,991.86c0,3.83-0.01,7.65-0.01,11.47c0,0.97-0.12,1.93-0.4,2.86
		c-0.44,1.45-1.37,2.48-2.75,3.1c-0.98,0.44-2.03,0.65-3.07,0.86c-2.46,0.48-4.94,0.69-7.44,0.59c-2.37-0.1-4.7-0.44-6.98-1.09
		c-2.32-0.66-3.6-2.26-3.92-4.61c-0.15-1.09-0.21-2.19-0.21-3.29c-0.02-6.83-0.01-13.65-0.01-20.48c0-1.22,0.06-2.43,0.28-3.63
		c0.38-2.07,1.59-3.47,3.56-4.16c0.89-0.32,1.83-0.51,2.77-0.67c2.17-0.38,4.36-0.56,6.56-0.49c2.43,0.07,4.84,0.33,7.2,0.94
		c0.24,0.06,0.47,0.14,0.7,0.22c2.18,0.83,3.38,2.44,3.59,4.73c0.12,1.29,0.12,2.59,0.12,3.88c0.01,2.95,0,5.91-0.01,8.86v0.54h0.02
		V991.86z M-5538.23,998.25c-0.42-2.76-1.81-4.89-4.25-6.29c-0.77-0.44-1.58-0.81-2.45-1c-1.68-0.38-3.36-0.76-5.05-1.07
		c-1.85-0.34-3.73-0.58-5.59-0.88c-1.68-0.27-3.37-0.55-5.05-0.84c-1.21-0.2-2.43-0.39-3.63-0.68c-2.3-0.54-3.58-2.06-3.73-4.41
		c-0.07-1.11-0.06-2.23-0.02-3.35c0.03-0.77,0.09-1.54,0.24-2.3c0.38-1.86,1.46-3.15,3.25-3.83c0.35-0.13,0.71-0.25,1.08-0.33
		c3.42-0.79,6.87-1.09,10.36-0.81c1.89,0.16,3.74,0.49,5.56,1.03c1.92,0.56,3.16,1.82,3.62,3.78c0.15,0.65,0.22,1.33,0.27,1.99
		c0.05,0.72,0.04,1.44,0.07,2.16c0.02,0.56,0.1,0.65,0.67,0.66c0.33,0,0.66-0.02,0.99-0.02c1.07,0,2.14,0.02,3.2,0.01
		c0.52,0,0.64-0.15,0.63-0.65c-0.02-0.52-0.04-1.05-0.04-1.57c0-1.22-0.09-2.42-0.32-3.62c-0.55-2.83-2.06-4.93-4.72-6.14
		c-0.27-0.12-0.54-0.24-0.82-0.34c-2.3-0.91-4.71-1.28-7.16-1.44c-2.2-0.14-4.39-0.22-6.59-0.13c-2.01,0.08-4,0.18-5.98,0.51
		c-1.62,0.28-3.21,0.66-4.71,1.37c-2.36,1.13-3.93,2.9-4.62,5.44c-0.27,1-0.39,2.03-0.42,3.06c-0.04,1.55-0.05,3.09-0.04,4.63
		c0,0.59,0.05,1.19,0.17,1.76c0.63,3.25,2.57,5.44,5.62,6.62c1.04,0.4,2.13,0.69,3.22,0.89c2.61,0.48,5.24,0.87,7.86,1.29
		c2.48,0.4,4.96,0.79,7.43,1.2c0.96,0.16,1.89,0.4,2.76,0.86c1.39,0.73,2.3,1.85,2.6,3.4c0.16,0.82,0.24,1.65,0.29,2.49
		c0.07,1.3-0.07,2.59-0.3,3.87c-0.37,2.05-1.52,3.47-3.54,4.07c-2.11,0.63-4.28,0.98-6.48,1.11c-1.64,0.1-3.28,0.05-4.92-0.1
		c-1.77-0.17-3.51-0.45-5.23-0.91c-1.54-0.42-2.71-1.34-3.35-2.82c-0.25-0.6-0.46-1.25-0.52-1.89c-0.12-1.25-0.13-2.52-0.18-3.78
		c-0.02-0.56,0.01-1.12-0.01-1.67c-0.02-0.47-0.1-0.55-0.56-0.55c-1.43-0.01-2.86-0.01-4.28,0c-0.52,0-0.6,0.09-0.6,0.6
		c0,0.59,0,1.18,0,1.77c-0.01,1.87-0.04,3.74,0.33,5.59c0.56,2.78,2.06,4.82,4.65,6.03c0.34,0.16,0.69,0.31,1.04,0.45
		c2.03,0.81,4.17,1.11,6.33,1.35c1.99,0.22,3.99,0.25,6,0.25c1.03-0.04,2.07-0.08,3.1-0.13c1.82-0.09,3.63-0.28,5.41-0.7
		c1.57-0.36,3.1-0.86,4.48-1.73c1.71-1.08,2.87-2.57,3.47-4.5c0.34-1.09,0.5-2.21,0.54-3.34c0.05-1.51,0.06-3.02,0.05-4.53
		C-5538.1,999.52-5538.14,998.87-5538.23,998.25 M-5582.24,1013.3v-16.94h-0.01c0-5.24,0-10.48,0-15.71c0-1.41-0.09-2.82-0.31-4.22
		c-0.46-2.87-1.95-5-4.58-6.29c-1.02-0.5-2.09-0.88-3.19-1.15c-2.32-0.58-4.69-0.75-7.07-0.86c-3.15-0.15-6.3-0.09-9.43,0.37
		c-1.43,0.2-2.85,0.44-4.23,0.88c-1.47,0.47-2.83,1.14-3.95,2.23c-1.53,1.49-2.26,3.37-2.46,5.44c-0.13,1.29-0.17,2.58-0.18,3.88
		c-0.03,5.27-0.02,10.53-0.03,15.8c-0.01,4.06-0.01,8.11-0.01,12.16c0,1.56,0,3.12,0,4.68c0,0.87,0.13,0.98,1.01,0.97
		c0.08,0,0.16-0.01,0.24-0.01c1,0,2,0,3,0c0.16,0,0.33,0.01,0.49,0.01c0.56-0.01,0.74-0.18,0.77-0.73c0.01-0.16,0-0.33,0-0.49
		c-0.01-4.86-0.02-9.72-0.02-14.58c0-0.21-0.01-0.43,0.01-0.64c0.05-0.41,0.23-0.58,0.63-0.62c0.15-0.01,0.3-0.01,0.45-0.01
		c1.36,0,2.72,0.01,4.08,0.01c6.09-0.01,12.18-0.02,18.27-0.02c0.14,0,0.29,0.01,0.44,0.03c0.35,0.05,0.53,0.22,0.58,0.57
		c0.02,0.2,0.02,0.39,0.02,0.59c-0.01,4.94-0.01,9.88-0.01,14.82c0,0.16-0.01,0.33,0,0.49c0.03,0.38,0.18,0.53,0.56,0.56
		c0.16,0.01,0.33,0,0.49,0c1.09,0,2.17,0,3.25,0c0.16,0,0.33,0.02,0.49,0.01c0.46-0.03,0.65-0.21,0.69-0.66
		C-5582.24,1013.69-5582.24,1013.49-5582.24,1013.3 M-5587.73,991.98c-0.02,0.56-0.2,0.74-0.74,0.75c-0.59,0.01-1.18,0-1.77,0
		h-20.98c-0.85,0-0.99-0.14-0.99-1.01c0.01-3.91,0.02-7.81,0.03-11.72c0-0.89,0.07-1.77,0.27-2.64c0.38-1.7,1.35-2.92,2.92-3.67
		c1.03-0.49,2.14-0.71,3.26-0.9c2.78-0.47,5.58-0.52,8.39-0.31c1.27,0.1,2.54,0.23,3.81,0.42c0.67,0.1,1.34,0.33,1.99,0.56
		c2.04,0.71,3.25,2.18,3.59,4.3c0.16,1.05,0.2,2.12,0.21,3.19c0.03,3.61,0.02,7.22,0.02,10.83
		C-5587.72,991.85-5587.72,991.91-5587.73,991.98 M-5626.87,969.02c-0.05-0.29-0.16-0.39-0.45-0.42c-0.12-0.01-0.23-0.01-0.34-0.01
		c-1.25,0-2.5,0-3.74,0c-0.13,0-0.26,0-0.39,0.01c-0.26,0.02-0.44,0.15-0.48,0.41c-0.04,0.23-0.06,0.46-0.06,0.69
		c0.01,3.35,0.03,6.7,0.03,10.05c0.01,7.44,0,14.87,0,22.31c0,0.67,0.01,1.35-0.07,2.02c-0.1,0.83-0.23,1.66-0.45,2.46
		c-0.46,1.63-1.52,2.72-3.16,3.22c-1.27,0.39-2.56,0.69-3.89,0.83c-2.66,0.27-5.24-0.08-7.75-0.96c-1.03-0.36-1.83-1.04-2.34-2
		c-0.23-0.43-0.42-0.89-0.56-1.36c-0.41-1.35-0.48-2.74-0.48-4.14c0-9.78,0-19.57,0.01-29.35c0-1.07,0.01-2.14,0.01-3.2
		c0-0.87-0.14-0.99-1.01-0.98c-1,0.01-2,0.01-3,0.01c-0.3,0-0.59-0.01-0.89,0.01c-0.41,0.02-0.52,0.13-0.56,0.53
		c-0.02,0.24-0.02,0.49-0.02,0.74c0,10.69,0,21.37,0,32.06c0,1.12-0.05,2.23-0.22,3.33c-0.38,2.5-1.87,4.18-4.28,4.78
		c-3.27,0.8-6.53,0.79-9.8-0.01c-2.26-0.56-3.63-2-4.1-4.29c-0.27-1.33-0.29-2.67-0.29-4.02c0-10.67,0.01-21.34,0.01-32.01
		c0-0.21,0-0.43-0.02-0.64c-0.05-0.31-0.21-0.46-0.52-0.49c-0.13-0.02-0.26-0.01-0.39-0.01c-1.2,0-2.4,0-3.59,0
		c-0.11,0-0.23,0-0.34,0.01c-0.41,0.03-0.58,0.19-0.62,0.62c-0.02,0.18-0.01,0.36-0.01,0.54c0,2.76,0.01,5.52,0.01,8.27
		c0,8.19,0,16.39,0.01,24.58c0,1.59,0.06,3.19,0.4,4.75c0.68,3.06,2.45,5.2,5.4,6.34c0.49,0.19,0.99,0.34,1.5,0.48
		c2.13,0.59,4.31,0.82,6.52,0.83c1.86,0.01,3.71-0.06,5.53-0.44c2.97-0.62,5.46-2.04,7.29-4.5c0.08-0.1,0.17-0.2,0.27-0.31
		c0.11,0.14,0.21,0.24,0.29,0.36c1.41,1.91,3.25,3.23,5.51,3.95c2.01,0.65,4.09,0.92,6.2,0.99c1.28,0.04,2.56-0.04,3.83-0.19
		c1.61-0.2,3.21-0.48,4.76-0.97c3.02-0.96,4.97-2.96,5.77-6.05c0.35-1.33,0.49-2.68,0.49-4.04c0-3.45,0.01-6.9,0.01-10.34
		c0.01-8.01,0.01-16.02,0.02-24.03C-5626.84,969.28-5626.85,969.15-5626.87,969.02"/>
	<g>
		<path d="M-5488.58,1023.37c0,4.49-3.52,8.01-8.11,8.01c-4.54,0-8.15-3.52-8.15-8.01c0-4.39,3.62-7.91,8.15-7.91
			C-5492.11,1015.46-5488.58,1018.98-5488.58,1023.37z M-5502.82,1023.37c0,3.52,2.6,6.32,6.18,6.32c3.47,0,6.03-2.8,6.03-6.27
			c0-3.52-2.56-6.37-6.08-6.37S-5502.82,1019.9-5502.82,1023.37z M-5497.95,1027.52h-1.83v-7.91c0.73-0.15,1.74-0.24,3.04-0.24
			c1.49,0,2.17,0.24,2.75,0.58c0.43,0.34,0.77,0.96,0.77,1.74c0,0.87-0.68,1.54-1.64,1.83v0.1c0.77,0.29,1.21,0.87,1.45,1.93
			c0.24,1.21,0.39,1.69,0.58,1.98h-1.98c-0.24-0.29-0.38-1.01-0.63-1.93c-0.15-0.87-0.63-1.26-1.64-1.26h-0.87V1027.52z
			 M-5497.9,1023.04h0.87c1.01,0,1.83-0.34,1.83-1.16c0-0.72-0.53-1.21-1.69-1.21c-0.48,0-0.82,0.05-1.01,0.1V1023.04z"/>
	</g>
</g>
<g>
	<path d="M-5384.77,1284.04l-27.45-56.99l-15.97-33.16l-47.58-98.79c-0.65-1.36-1.48-2.58-2.43-3.67c-0.06-0.07-0.12-0.15-0.18-0.22
		c-0.24-0.26-0.48-0.51-0.74-0.76c-0.16-0.16-0.32-0.32-0.48-0.47c-0.17-0.15-0.34-0.29-0.52-0.44c-0.27-0.22-0.53-0.44-0.81-0.65
		c-0.08-0.06-0.17-0.11-0.25-0.17c-0.75-0.53-1.54-1.01-2.39-1.42c-2.33-1.12-4.81-1.62-7.24-1.6c-2.38,0.01-4.8,0.51-7.08,1.6
		c-0.86,0.41-1.67,0.91-2.42,1.45c-0.07,0.05-0.13,0.09-0.2,0.14c-0.31,0.22-0.59,0.46-0.88,0.7c-0.15,0.12-0.3,0.24-0.44,0.37
		c-0.2,0.18-0.39,0.37-0.58,0.56c-0.22,0.21-0.43,0.43-0.64,0.65c-0.1,0.12-0.2,0.24-0.3,0.36c-0.27,0.31-0.52,0.63-0.77,0.96
		c-0.03,0.04-0.05,0.08-0.08,0.11c-0.56,0.78-1.06,1.6-1.49,2.49l-52.48,108.21c-3.94,8.23-0.43,18.18,7.8,22.12
		c8.23,3.94,18.18,0.43,22.12-7.8l37.47-77.26l25.77,53.5h0h-6.73c-9.12,0-16.58,7.47-16.58,16.59c0,9.12,7.46,16.58,16.58,16.58
		h22.7h0l0,0l34.35,71.31c3.94,8.23,13.89,11.74,22.12,7.8S-5380.83,1292.27-5384.77,1284.04z"/>
	<path d="M-5595.95,1109.69c-8.97,0-16.31,7.34-16.31,16.31l0,86.01c0,8.97,7.34,16.31,16.31,16.31l0,0
		c8.97,0,16.31-7.34,16.31-16.31l0-86.01C-5579.64,1117.03-5586.98,1109.69-5595.95,1109.69z M-5595.95,1095.89
		c8.98,0,16.26-7.28,16.26-16.26c0-8.98-7.28-16.26-16.26-16.26s-16.26,7.28-16.26,16.26
		C-5612.21,1088.61-5604.93,1095.89-5595.95,1095.89z"/>
	<path d="M-5742.12,1086.31v-0.02h-1.19c-0.24-0.01-0.47-0.01-0.71-0.01c-0.24,0-0.47,0-0.71,0.01l-81.63-0.01
		c-9.12,0-16.58,7.46-16.58,16.58c0,9.13,7.46,16.59,16.58,16.59h66.58h13.76h3.9c41.93,1,75.62,35.32,75.62,77.49
		c0,42.81-34.71,77.52-77.52,77.52h-15.76h-26.58c-9.12,0-16.58,7.46-16.58,16.58s7.46,16.58,16.58,16.58l44.24,0.01v-0.06
		c60.23-1,108.75-50.15,108.75-110.63S-5681.89,1087.31-5742.12,1086.31z"/>
</g>
<g>
	<g>
		<path class="st0" d="M434.24,499.6c-0.34,0-0.63-0.11-0.85-0.33c-0.22-0.22-0.33-0.5-0.33-0.85v-21.3c0-0.34,0.11-0.62,0.33-0.85
			c0.22-0.22,0.5-0.33,0.85-0.33h5.45c1.74,0,3.33,0.29,4.77,0.86c1.44,0.58,2.69,1.39,3.74,2.45c1.05,1.06,1.86,2.31,2.44,3.74
			c0.58,1.43,0.86,3.02,0.86,4.76s-0.29,3.33-0.86,4.77c-0.58,1.44-1.39,2.7-2.44,3.76c-1.05,1.06-2.3,1.88-3.74,2.45
			c-1.44,0.58-3.04,0.86-4.77,0.86H434.24z M435.42,497.48h4.27c1.86,0,3.5-0.42,4.92-1.26c1.42-0.84,2.54-1.99,3.35-3.45
			c0.81-1.46,1.21-3.14,1.21-5.01c0-1.88-0.4-3.55-1.21-5.01c-0.81-1.46-1.92-2.61-3.35-3.44c-1.42-0.83-3.07-1.24-4.92-1.24h-4.27
			V497.48z"/>
		<path class="st0" d="M457.72,479.88c-0.44,0-0.83-0.16-1.15-0.49c-0.32-0.32-0.49-0.72-0.49-1.18c0-0.5,0.17-0.9,0.5-1.2
			c0.33-0.29,0.72-0.44,1.17-0.44c0.42,0,0.8,0.15,1.14,0.44c0.33,0.29,0.5,0.69,0.5,1.2c0,0.46-0.16,0.86-0.48,1.18
			C458.58,479.72,458.18,479.88,457.72,479.88z M457.75,499.6c-0.36,0-0.65-0.11-0.86-0.32c-0.21-0.21-0.32-0.5-0.32-0.86v-14.21
			c0-0.36,0.11-0.65,0.32-0.86c0.21-0.21,0.5-0.32,0.86-0.32c0.34,0,0.62,0.11,0.83,0.32c0.21,0.21,0.32,0.5,0.32,0.86v14.21
			c0,0.36-0.11,0.65-0.32,0.86S458.09,499.6,457.75,499.6z"/>
		<path class="st0" d="M470.5,499.6c-0.48,0-0.85-0.26-1.09-0.79l-6.73-14.27c-0.12-0.26-0.13-0.53-0.03-0.79
			c0.1-0.26,0.3-0.46,0.61-0.61c0.28-0.14,0.56-0.16,0.82-0.06c0.26,0.1,0.46,0.28,0.61,0.54l6.45,13.97h-1.24l6.36-13.97
			c0.12-0.28,0.33-0.47,0.62-0.56s0.58-0.08,0.86,0.05c0.28,0.14,0.47,0.35,0.58,0.62c0.1,0.27,0.09,0.53-0.03,0.77l-6.64,14.3
			C471.41,499.34,471.03,499.6,470.5,499.6z"/>
		<path class="st0" d="M489.11,499.76c-1.64,0-3.09-0.36-4.35-1.08c-1.26-0.72-2.25-1.71-2.97-2.98s-1.08-2.73-1.08-4.36
			c0-1.66,0.34-3.12,1.01-4.38c0.68-1.26,1.61-2.26,2.8-2.99c1.19-0.73,2.56-1.09,4.12-1.09c1.54,0,2.87,0.35,4.01,1.05
			c1.14,0.7,2.03,1.66,2.65,2.89s0.94,2.64,0.94,4.21c0,0.32-0.1,0.58-0.3,0.77c-0.2,0.19-0.46,0.29-0.79,0.29h-12.88v-1.94h13.12
			l-1.3,0.94c0.02-1.17-0.19-2.22-0.64-3.15c-0.45-0.93-1.08-1.66-1.89-2.18c-0.82-0.53-1.79-0.79-2.92-0.79
			c-1.15,0-2.16,0.27-3.03,0.82c-0.87,0.54-1.54,1.3-2.01,2.26c-0.48,0.96-0.71,2.06-0.71,3.29s0.27,2.32,0.8,3.27
			c0.54,0.95,1.27,1.7,2.2,2.24c0.93,0.54,2,0.82,3.21,0.82c0.73,0,1.46-0.13,2.2-0.38c0.74-0.25,1.33-0.57,1.77-0.95
			c0.22-0.18,0.47-0.28,0.76-0.29c0.28-0.01,0.53,0.07,0.73,0.23c0.26,0.24,0.4,0.5,0.41,0.79c0.01,0.28-0.11,0.53-0.35,0.73
			c-0.67,0.57-1.52,1.04-2.55,1.41C491.05,499.57,490.06,499.76,489.11,499.76z"/>
		<path class="st0" d="M501.35,499.6c-0.36,0-0.65-0.1-0.85-0.3c-0.2-0.2-0.3-0.49-0.3-0.85v-14.27c0-0.36,0.1-0.65,0.3-0.85
			c0.2-0.2,0.48-0.3,0.85-0.3c0.36,0,0.65,0.1,0.85,0.3s0.3,0.48,0.3,0.85v14.27c0,0.36-0.1,0.65-0.3,0.85
			S501.71,499.6,501.35,499.6z M501.17,489.39c0.06-1.25,0.39-2.37,0.99-3.36c0.59-0.99,1.37-1.77,2.33-2.33
			c0.96-0.57,2.02-0.85,3.2-0.85c0.93,0,1.65,0.13,2.15,0.39c0.5,0.26,0.7,0.65,0.58,1.15c-0.08,0.3-0.22,0.5-0.41,0.61
			c-0.19,0.1-0.42,0.14-0.7,0.12c-0.27-0.02-0.58-0.04-0.92-0.06c-1.13-0.1-2.14,0.02-3.01,0.35c-0.88,0.33-1.58,0.84-2.09,1.53
			c-0.52,0.69-0.77,1.5-0.77,2.45H501.17z"/>
		<path class="st0" d="M519.86,499.76c-1.19,0-2.37-0.2-3.54-0.61s-2.12-1.01-2.85-1.82c-0.22-0.24-0.31-0.51-0.27-0.82
			c0.04-0.3,0.19-0.57,0.45-0.79c0.28-0.2,0.58-0.28,0.88-0.24c0.3,0.04,0.55,0.17,0.76,0.39c0.49,0.57,1.13,1,1.92,1.3
			c0.8,0.3,1.68,0.45,2.65,0.45c1.5,0,2.58-0.26,3.24-0.77c0.67-0.51,1.01-1.14,1.03-1.86c0-0.73-0.34-1.33-1.03-1.8
			s-1.82-0.84-3.39-1.11c-2.04-0.32-3.54-0.89-4.48-1.7c-0.95-0.81-1.42-1.77-1.42-2.88c0-1.03,0.27-1.89,0.82-2.58
			c0.54-0.69,1.27-1.2,2.18-1.54s1.91-0.52,3-0.52c1.35,0,2.52,0.23,3.5,0.7c0.98,0.46,1.77,1.09,2.38,1.88
			c0.2,0.26,0.28,0.54,0.24,0.82c-0.04,0.28-0.2,0.52-0.49,0.7c-0.24,0.14-0.52,0.19-0.83,0.14c-0.31-0.05-0.58-0.2-0.8-0.44
			c-0.5-0.59-1.09-1.02-1.76-1.29c-0.67-0.27-1.43-0.41-2.3-0.41c-1.11,0-2,0.23-2.67,0.68c-0.67,0.46-1,1.03-1,1.71
			c0,0.46,0.13,0.87,0.38,1.21c0.25,0.34,0.69,0.65,1.3,0.91c0.62,0.26,1.48,0.49,2.59,0.67c1.51,0.24,2.71,0.6,3.59,1.08
			c0.88,0.47,1.5,1.03,1.88,1.67c0.37,0.64,0.56,1.33,0.56,2.08c0,0.95-0.28,1.78-0.83,2.5c-0.56,0.72-1.32,1.28-2.3,1.68
			C522.26,499.55,521.13,499.76,519.86,499.76z"/>
		<path class="st0" d="M532.04,479.88c-0.44,0-0.83-0.16-1.15-0.49c-0.32-0.32-0.49-0.72-0.49-1.18c0-0.5,0.17-0.9,0.5-1.2
			c0.33-0.29,0.72-0.44,1.17-0.44c0.42,0,0.8,0.15,1.14,0.44c0.33,0.29,0.5,0.69,0.5,1.2c0,0.46-0.16,0.86-0.48,1.18
			C532.9,479.72,532.5,479.88,532.04,479.88z M532.07,499.6c-0.36,0-0.65-0.11-0.86-0.32c-0.21-0.21-0.32-0.5-0.32-0.86v-14.21
			c0-0.36,0.11-0.65,0.32-0.86c0.21-0.21,0.5-0.32,0.86-0.32c0.34,0,0.62,0.11,0.83,0.32c0.21,0.21,0.32,0.5,0.32,0.86v14.21
			c0,0.36-0.11,0.65-0.32,0.86S532.41,499.6,532.07,499.6z"/>
		<path class="st0" d="M538.1,485.67c-0.3,0-0.56-0.1-0.76-0.29c-0.2-0.19-0.3-0.43-0.3-0.71c0-0.3,0.1-0.55,0.3-0.74
			c0.2-0.19,0.45-0.29,0.76-0.29h7.73c0.3,0,0.56,0.1,0.76,0.29c0.2,0.19,0.3,0.44,0.3,0.74c0,0.28-0.1,0.52-0.3,0.71
			c-0.2,0.19-0.46,0.29-0.76,0.29H538.1z M545.64,499.6c-1.07,0-2.03-0.25-2.86-0.76c-0.84-0.5-1.5-1.2-1.98-2.08
			c-0.49-0.88-0.73-1.88-0.73-3.01v-14.82c0-0.34,0.11-0.63,0.32-0.85c0.21-0.22,0.49-0.33,0.83-0.33s0.63,0.11,0.85,0.33
			c0.22,0.22,0.33,0.51,0.33,0.85v14.82c0,1.03,0.3,1.87,0.91,2.53c0.61,0.66,1.38,0.98,2.33,0.98h0.82c0.32,0,0.58,0.11,0.79,0.33
			c0.2,0.22,0.3,0.51,0.3,0.85c0,0.34-0.12,0.62-0.36,0.83c-0.24,0.21-0.54,0.32-0.91,0.32H545.64z"/>
		<path class="st0" d="M557.55,499.09c-0.3,0.14-0.59,0.17-0.85,0.08s-0.47-0.29-0.64-0.59l-6.76-14c-0.14-0.3-0.16-0.59-0.06-0.85
			c0.1-0.26,0.3-0.46,0.61-0.61s0.59-0.17,0.85-0.08c0.26,0.09,0.46,0.29,0.61,0.59l6.64,14c0.16,0.3,0.21,0.59,0.15,0.85
			S557.85,498.95,557.55,499.09z M554.19,506.82c-0.16,0-0.34-0.04-0.55-0.12c-0.69-0.3-0.88-0.79-0.58-1.45l9.79-21.57
			c0.3-0.65,0.79-0.83,1.46-0.54c0.69,0.28,0.88,0.76,0.58,1.42l-9.82,21.57C554.87,506.58,554.57,506.82,554.19,506.82z"/>
		<path class="st0" d="M578.46,479.88c-0.44,0-0.83-0.16-1.15-0.49c-0.32-0.32-0.49-0.72-0.49-1.18c0-0.5,0.17-0.9,0.5-1.2
			c0.33-0.29,0.72-0.44,1.17-0.44c0.42,0,0.8,0.15,1.14,0.44c0.33,0.29,0.5,0.69,0.5,1.2c0,0.46-0.16,0.86-0.48,1.18
			C579.32,479.72,578.92,479.88,578.46,479.88z M578.49,499.6c-0.36,0-0.65-0.11-0.86-0.32c-0.21-0.21-0.32-0.5-0.32-0.86v-14.21
			c0-0.36,0.11-0.65,0.32-0.86c0.21-0.21,0.5-0.32,0.86-0.32c0.34,0,0.62,0.11,0.83,0.32c0.21,0.21,0.32,0.5,0.32,0.86v14.21
			c0,0.36-0.11,0.65-0.32,0.86S578.83,499.6,578.49,499.6z"/>
		<path class="st0" d="M586.76,499.6c-0.36,0-0.65-0.11-0.86-0.32s-0.32-0.49-0.32-0.83v-14.24c0-0.36,0.11-0.65,0.32-0.86
			c0.21-0.21,0.5-0.32,0.86-0.32c0.34,0,0.62,0.11,0.83,0.32c0.21,0.21,0.32,0.5,0.32,0.86v14.24c0,0.34-0.11,0.62-0.32,0.83
			C587.38,499.5,587.1,499.6,586.76,499.6z M599.79,499.6c-0.34,0-0.63-0.11-0.85-0.33c-0.22-0.22-0.33-0.5-0.33-0.82v-7.88
			c0-1.25-0.24-2.28-0.71-3.09c-0.48-0.81-1.12-1.41-1.94-1.82s-1.74-0.61-2.77-0.61c-0.99,0-1.88,0.19-2.68,0.58
			s-1.43,0.91-1.89,1.58c-0.46,0.67-0.7,1.42-0.7,2.27h-1.67c0.04-1.27,0.38-2.41,1.03-3.41s1.5-1.79,2.58-2.36
			c1.07-0.58,2.26-0.86,3.58-0.86c1.43,0,2.72,0.3,3.85,0.89c1.13,0.6,2.02,1.47,2.68,2.62s0.99,2.55,0.99,4.21v7.88
			c0,0.32-0.11,0.6-0.33,0.82C600.38,499.49,600.11,499.6,599.79,499.6z"/>
		<path class="st0" d="M613.97,499.6c-0.46,0-0.8-0.19-1-0.58c-0.2-0.38-0.22-0.76-0.06-1.12l8.91-21.15
			c0.22-0.54,0.61-0.82,1.15-0.82c0.53,0,0.9,0.27,1.12,0.82l8.94,21.18c0.18,0.38,0.16,0.76-0.08,1.12
			c-0.23,0.36-0.56,0.54-0.98,0.54c-0.24,0-0.46-0.06-0.65-0.18c-0.19-0.12-0.35-0.3-0.47-0.55l-8.33-20.21h0.94l-8.39,20.21
			c-0.1,0.24-0.25,0.42-0.44,0.55C614.43,499.54,614.21,499.6,613.97,499.6z M615.97,493.97l0.91-2.03h12.3l0.91,2.03H615.97z"/>
		<path class="st0" d="M637.45,506.69c-0.36,0-0.65-0.11-0.86-0.32c-0.21-0.21-0.32-0.5-0.32-0.86v-14.3c0.02-1.58,0.4-3,1.14-4.26
			c0.74-1.26,1.74-2.26,3-2.99c1.26-0.73,2.68-1.09,4.26-1.09c1.62,0,3.06,0.37,4.33,1.11c1.27,0.74,2.28,1.74,3.02,3.01
			c0.74,1.27,1.11,2.72,1.11,4.33c0,1.6-0.36,3.03-1.08,4.3c-0.72,1.27-1.69,2.28-2.92,3.01c-1.23,0.74-2.63,1.11-4.18,1.11
			c-1.35,0-2.58-0.29-3.68-0.86c-1.1-0.58-1.98-1.34-2.65-2.29v8.91c0,0.36-0.11,0.65-0.32,0.86
			C638.07,506.59,637.79,506.69,637.45,506.69z M644.66,497.63c1.17,0,2.22-0.27,3.15-0.82c0.93-0.55,1.66-1.3,2.2-2.26
			c0.54-0.96,0.8-2.03,0.8-3.23c0-1.21-0.27-2.29-0.8-3.24c-0.54-0.95-1.27-1.7-2.2-2.26c-0.93-0.56-1.98-0.83-3.15-0.83
			c-1.15,0-2.19,0.28-3.12,0.83c-0.93,0.56-1.66,1.31-2.18,2.26s-0.79,2.03-0.79,3.24c0,1.19,0.26,2.27,0.79,3.23
			c0.53,0.96,1.25,1.71,2.18,2.26C642.47,497.36,643.51,497.63,644.66,497.63z"/>
		<path class="st0" d="M658.87,506.69c-0.36,0-0.65-0.11-0.86-0.32c-0.21-0.21-0.32-0.5-0.32-0.86v-14.3c0.02-1.58,0.4-3,1.14-4.26
			c0.74-1.26,1.74-2.26,3-2.99c1.26-0.73,2.68-1.09,4.26-1.09c1.62,0,3.06,0.37,4.33,1.11c1.27,0.74,2.28,1.74,3.02,3.01
			c0.74,1.27,1.11,2.72,1.11,4.33c0,1.6-0.36,3.03-1.08,4.3c-0.72,1.27-1.69,2.28-2.92,3.01c-1.23,0.74-2.63,1.11-4.18,1.11
			c-1.35,0-2.58-0.29-3.68-0.86c-1.1-0.58-1.98-1.34-2.65-2.29v8.91c0,0.36-0.11,0.65-0.32,0.86
			C659.49,506.59,659.21,506.69,658.87,506.69z M666.08,497.63c1.17,0,2.22-0.27,3.15-0.82c0.93-0.55,1.66-1.3,2.2-2.26
			c0.54-0.96,0.8-2.03,0.8-3.23c0-1.21-0.27-2.29-0.8-3.24c-0.54-0.95-1.27-1.7-2.2-2.26c-0.93-0.56-1.98-0.83-3.15-0.83
			c-1.15,0-2.19,0.28-3.12,0.83c-0.93,0.56-1.66,1.31-2.18,2.26s-0.79,2.03-0.79,3.24c0,1.19,0.26,2.27,0.79,3.23
			c0.53,0.96,1.25,1.71,2.18,2.26C663.89,497.36,664.93,497.63,666.08,497.63z"/>
		<path class="st0" d="M686.68,499.91c-1.29,0-2.49-0.19-3.59-0.56c-1.1-0.37-2.06-0.9-2.86-1.59c-0.81-0.69-1.42-1.48-1.85-2.39
			c-0.16-0.32-0.17-0.62-0.02-0.89s0.41-0.46,0.77-0.56c0.28-0.08,0.56-0.05,0.83,0.09c0.27,0.14,0.48,0.35,0.62,0.64
			c0.3,0.59,0.75,1.11,1.33,1.58c0.58,0.46,1.28,0.82,2.09,1.08c0.81,0.25,1.7,0.38,2.67,0.38c1.07,0,2.02-0.18,2.85-0.53
			c0.83-0.35,1.48-0.87,1.96-1.54c0.47-0.68,0.71-1.5,0.71-2.47c0-1.23-0.46-2.29-1.36-3.18c-0.91-0.89-2.33-1.46-4.27-1.7
			c-2.36-0.28-4.21-1.01-5.54-2.2s-2-2.63-2-4.35c0-1.23,0.33-2.3,0.99-3.21c0.66-0.91,1.56-1.61,2.71-2.11
			c1.15-0.49,2.47-0.74,3.97-0.74c1.11,0,2.12,0.18,3.03,0.53c0.91,0.35,1.7,0.82,2.38,1.39c0.68,0.58,1.23,1.21,1.65,1.89
			c0.2,0.32,0.27,0.64,0.2,0.94c-0.07,0.3-0.25,0.54-0.53,0.7c-0.3,0.14-0.61,0.16-0.92,0.06c-0.31-0.1-0.55-0.29-0.71-0.58
			c-0.3-0.46-0.68-0.9-1.14-1.32c-0.46-0.41-1-0.74-1.65-0.99c-0.65-0.24-1.42-0.37-2.33-0.39c-1.6,0-2.88,0.34-3.85,1.02
			c-0.97,0.68-1.46,1.66-1.46,2.95c0,0.69,0.18,1.32,0.55,1.89c0.36,0.58,0.96,1.07,1.8,1.48c0.84,0.41,1.96,0.72,3.38,0.92
			c2.53,0.36,4.4,1.14,5.62,2.32c1.22,1.18,1.83,2.72,1.83,4.62c0,1.09-0.2,2.06-0.59,2.91c-0.39,0.85-0.95,1.56-1.67,2.14
			c-0.72,0.58-1.56,1.02-2.51,1.32C688.8,499.76,687.77,499.91,686.68,499.91z"/>
		<path class="st0" d="M706.68,499.76c-1.64,0-3.09-0.36-4.35-1.08c-1.26-0.72-2.25-1.71-2.97-2.98s-1.08-2.73-1.08-4.36
			c0-1.66,0.34-3.12,1.01-4.38c0.68-1.26,1.61-2.26,2.8-2.99c1.19-0.73,2.56-1.09,4.12-1.09c1.54,0,2.87,0.35,4.01,1.05
			c1.14,0.7,2.03,1.66,2.65,2.89s0.94,2.64,0.94,4.21c0,0.32-0.1,0.58-0.3,0.77c-0.2,0.19-0.46,0.29-0.79,0.29h-12.88v-1.94h13.12
			l-1.3,0.94c0.02-1.17-0.19-2.22-0.64-3.15c-0.45-0.93-1.08-1.66-1.89-2.18c-0.82-0.53-1.79-0.79-2.92-0.79
			c-1.15,0-2.16,0.27-3.03,0.82c-0.87,0.54-1.54,1.3-2.01,2.26c-0.48,0.96-0.71,2.06-0.71,3.29s0.27,2.32,0.8,3.27
			c0.54,0.95,1.27,1.7,2.2,2.24c0.93,0.54,2,0.82,3.21,0.82c0.73,0,1.46-0.13,2.2-0.38c0.74-0.25,1.33-0.57,1.77-0.95
			c0.22-0.18,0.47-0.28,0.76-0.29c0.28-0.01,0.53,0.07,0.73,0.23c0.26,0.24,0.4,0.5,0.41,0.79c0.01,0.28-0.11,0.53-0.35,0.73
			c-0.67,0.57-1.52,1.04-2.55,1.41C708.62,499.57,707.63,499.76,706.68,499.76z"/>
		<path class="st0" d="M725.16,499.76c-1.6,0-3.01-0.37-4.26-1.11s-2.22-1.74-2.94-3.01c-0.72-1.27-1.08-2.71-1.08-4.3
			c0-1.62,0.34-3.06,1.03-4.33s1.63-2.28,2.82-3.01c1.19-0.74,2.57-1.11,4.12-1.11c1.23,0,2.37,0.24,3.41,0.73
			c1.04,0.49,1.95,1.21,2.74,2.18c0.22,0.24,0.3,0.5,0.24,0.77s-0.23,0.51-0.51,0.71c-0.22,0.16-0.47,0.22-0.74,0.17
			c-0.27-0.05-0.51-0.2-0.71-0.44c-1.17-1.33-2.65-2-4.42-2c-1.13,0-2.13,0.27-2.99,0.82c-0.86,0.55-1.53,1.29-2,2.24
			c-0.48,0.95-0.71,2.04-0.71,3.27c0,1.21,0.25,2.29,0.76,3.24s1.21,1.7,2.12,2.24c0.91,0.54,1.95,0.82,3.12,0.82
			c0.79,0,1.51-0.11,2.17-0.32c0.66-0.21,1.24-0.54,1.74-0.99c0.24-0.2,0.5-0.31,0.76-0.33c0.26-0.02,0.5,0.06,0.73,0.24
			c0.24,0.22,0.38,0.47,0.41,0.76s-0.07,0.53-0.29,0.73C729.2,499.08,727.36,499.76,725.16,499.76z"/>
	</g>
</g>
<linearGradient id="SVGID_1_" gradientUnits="userSpaceOnUse" x1="502.7337" y1="296.4132" x2="743.8561" y2="296.4132">
	<stop  offset="0" style="stop-color:#6F328A"/>
	<stop  offset="1" style="stop-color:#2F4F9E"/>
</linearGradient>
<path class="st1" d="M741.65,415.58l-37.47-77.8l-21.8-45.27l-64.95-134.86c-0.89-1.86-2.02-3.52-3.31-5.01
	c-0.08-0.1-0.16-0.2-0.25-0.3c-0.32-0.36-0.66-0.7-1.01-1.03c-0.22-0.22-0.43-0.44-0.66-0.64c-0.23-0.21-0.47-0.4-0.71-0.6
	c-0.36-0.3-0.73-0.61-1.11-0.89c-0.11-0.08-0.23-0.15-0.34-0.23c-1.02-0.72-2.1-1.39-3.26-1.94c-3.19-1.53-6.56-2.21-9.89-2.18
	c-3.25,0.01-6.55,0.69-9.66,2.18c-1.18,0.57-2.27,1.24-3.31,1.97c-0.09,0.06-0.18,0.12-0.27,0.19c-0.42,0.3-0.81,0.63-1.2,0.96
	c-0.2,0.17-0.41,0.33-0.61,0.51c-0.27,0.25-0.53,0.51-0.79,0.77c-0.29,0.29-0.59,0.58-0.87,0.89c-0.14,0.16-0.28,0.33-0.42,0.49
	c-0.36,0.42-0.72,0.86-1.05,1.31c-0.04,0.05-0.07,0.1-0.1,0.15c-0.76,1.06-1.45,2.18-2.03,3.4l-71.64,147.73
	c-5.38,11.23-0.59,24.82,10.64,30.19c11.23,5.38,24.82,0.59,30.19-10.64l51.15-105.48l35.18,73.04h0h-9.19
	c-12.45,0-22.63,10.2-22.63,22.65c0,12.45,10.18,22.63,22.63,22.63h30.99h0l0,0l46.89,97.35c5.38,11.24,18.96,16.03,30.2,10.65
	S747.03,426.82,741.65,415.58z"/>
<linearGradient id="SVGID_2_" gradientUnits="userSpaceOnUse" x1="453.3669" y1="338.2823" x2="453.3669" y2="109.8437">
	<stop  offset="0" style="stop-color:#6F328A"/>
	<stop  offset="1" style="stop-color:#2F4F9E"/>
</linearGradient>
<path class="st2" d="M453.37,177.57c-12.24,0-22.26,10.02-22.26,22.26l-0.01,117.42c0,12.25,10.02,22.26,22.26,22.26h0
	c12.24,0,22.26-10.02,22.26-22.26l0.01-117.42C475.63,187.59,465.61,177.57,453.37,177.57z M453.36,114.27
	c-12.3,0-22.26,9.97-22.26,22.27c0,12.3,9.96,22.26,22.26,22.26c12.3,0,22.27-9.96,22.27-22.26
	C475.63,124.24,465.66,114.27,453.36,114.27z M466.86,128.37c-0.03,0.04-0.07,0.06-0.12,0.06c-0.03,0-0.05-0.01-0.08-0.02
	c-0.01-0.01-1.02-0.67-1.59-0.72c-0.01,0-0.02,0-0.03,0c-0.28,0-1.02,0.32-1.58,0.59c0.22,0.01,0.45,0.1,0.62,0.27
	c0.36,0.36,0.37,0.92,0.02,1.26c-0.13,0.13-0.29,0.21-0.46,0.24c-0.08,0.25-0.21,0.47-0.39,0.66c-0.32,0.32-0.76,0.47-1.24,0.47
	c-0.39,0-0.82-0.1-1.24-0.3c0.24,0.64,0.26,1.31,0.05,1.89c0.67,0.44,1.35,0.88,1.45,0.95c0.18-0.04,1.24-0.16,1.84-0.16
	c0.24,0,0.41,0.02,0.42,0.08c0.04,0.19-2.42,0.46-2.42,0.46l-1.47-0.57c0.31,0.54,0.48,0.98,0.59,1.11
	c0.17,0.06,2.55,0.73,2.49,0.92c-0.01,0.02-0.05,0.03-0.12,0.03c-0.52,0-2.61-0.56-2.61-0.56l-0.46-0.53
	c0.18,0.53,0.34,1.03,0.37,1.12c0.16,0.12,1.63,1.4,1.51,1.56c-0.01,0.01-0.02,0.01-0.03,0.01c-0.26,0-1.79-1.34-1.79-1.34
	l-0.89-1.86c-0.09,0.04-0.19,0.08-0.29,0.11c0.36,1.82,0.84,4.49,1.22,7.41c0.62,4.77,0.48,9.77,0.1,10.71
	c-0.03,0.08-0.08,0.11-0.14,0.11c-0.71,0-3.31-4.62-3.66-5.94c-0.73-2.76-0.57-3.92-0.53-4.29c0.13-1.14,1.24-1.71,1.3-3.24
	c0.02-0.47,0.26-2.85,0.45-4.7c-0.47-0.09-0.94-0.31-1.36-0.64c1.26,1.68-0.59,3.7-3.28,6.39c-2.85,2.85-9.18,5.5-9.18,5.5
	s2.65-6.33,5.5-9.18c2.1-2.09,3.78-3.68,5.23-3.68c0.41,0,0.79,0.13,1.16,0.4c-0.33-0.42-0.54-0.89-0.64-1.36
	c-1.85,0.19-4.23,0.43-4.7,0.45c-1.54,0.07-2.11,1.17-3.24,1.3c-0.13,0.02-0.36,0.05-0.72,0.05c-0.67,0-1.79-0.1-3.57-0.57
	c-1.43-0.38-6.77-3.41-5.83-3.8c0.48-0.2,2.02-0.33,4.04-0.33c1.94,0,4.34,0.12,6.67,0.43c2.91,0.38,5.59,0.86,7.41,1.22
	c0.03-0.1,0.06-0.19,0.11-0.29l-1.86-0.89c0,0-1.49-1.71-1.33-1.82c0.01,0,0.01-0.01,0.02-0.01c0.23,0,1.42,1.36,1.54,1.52
	c0.09,0.03,0.59,0.2,1.12,0.37l-0.53-0.46c0,0-0.72-2.67-0.53-2.73c0,0,0.01,0,0.01,0c0.2,0,0.85,2.32,0.91,2.49
	c0.13,0.11,0.56,0.28,1.11,0.59l-0.57-1.47c0,0,0.26-2.42,0.45-2.42c0,0,0,0,0,0c0.19,0.04-0.04,2.02-0.09,2.27
	c0.07,0.11,0.51,0.78,0.95,1.45c0.27-0.1,0.56-0.15,0.86-0.15c0.34,0,0.69,0.07,1.04,0.2c-0.44-0.93-0.4-1.9,0.18-2.48
	c0.18-0.18,0.41-0.31,0.66-0.39c0.03-0.17,0.11-0.33,0.24-0.46c0.17-0.17,0.39-0.25,0.61-0.25c0.23,0,0.47,0.09,0.65,0.27
	c0.17,0.17,0.26,0.4,0.27,0.62c0.28-0.58,0.61-1.36,0.59-1.61c-0.05-0.57-0.72-1.58-0.72-1.59c-0.04-0.06-0.03-0.15,0.04-0.2
	c0.02-0.02,0.05-0.02,0.08-0.02c0.05,0,0.09,0.02,0.12,0.06c0.03,0.04,0.71,1.08,0.77,1.72c0.03,0.37-0.39,1.29-0.62,1.76
	c0.32,0.18,0.64,0.41,0.92,0.7s0.52,0.6,0.7,0.92c0.45-0.22,1.33-0.62,1.72-0.62c0.02,0,0.03,0,0.04,0
	c0.64,0.06,1.68,0.74,1.72,0.77C466.88,128.22,466.9,128.31,466.86,128.37z"/>
<g>
	<linearGradient id="SVGID_3_" gradientUnits="userSpaceOnUse" x1="201.392" y1="296.7009" x2="245.9257" y2="296.7009">
		<stop  offset="0" style="stop-color:#6F328A"/>
		<stop  offset="1" style="stop-color:#2F4F9E"/>
	</linearGradient>
	<path class="st3" d="M223.66,362.67c12.25,0,22.26-10.02,22.26-22.26l0.01-87.42c0-12.25-10.02-22.26-22.26-22.26
		s-22.26,10.02-22.26,22.26l-0.01,87.42C201.39,352.65,211.41,362.67,223.66,362.67L223.66,362.67z"/>
	<linearGradient id="SVGID_4_" gradientUnits="userSpaceOnUse" x1="170.7982" y1="296.701" x2="402.2853" y2="296.701">
		<stop  offset="0" style="stop-color:#6F328A"/>
		<stop  offset="1" style="stop-color:#2F4F9E"/>
	</linearGradient>
	<path class="st4" d="M253.83,145.65v-0.03h-1.62c-0.33-0.01-0.64-0.01-0.97-0.01s-0.64,0-0.97,0.01l-56.83-0.01
		c-12.45,0-22.63,10.18-22.63,22.63c0,12.46,10.18,22.65,22.63,22.65h36.28h18.79h5.32c57.24,1.37,103.23,48.22,103.23,105.78
		c0,58.44-47.38,105.83-105.83,105.83h-21.52h-36.28c-12.45,0-22.63,10.18-22.63,22.63s10.18,22.63,22.63,22.63l60.39,0.01v-0.08
		c82.22-1.37,148.46-68.46,148.46-151.03C402.29,214.12,336.05,147.02,253.83,145.65z"/>
</g>
</svg>
